<?xml version="1.0" encoding="utf-8" standalone="no"?>
<!DOCTYPE svg PUBLIC "-//W3C//DTD SVG 1.1//EN"
  "http://www.w3.org/Graphics/SVG/1.1/DTD/svg11.dtd">
<!-- Created with matplotlib (http://matplotlib.org/) -->
<svg height="72pt" version="1.1" viewBox="0 0 240 72" width="240pt" xmlns="http://www.w3.org/2000/svg" xmlns:xlink="http://www.w3.org/1999/xlink">
 <defs>
  <style type="text/css">
*{stroke-linecap:butt;stroke-linejoin:round;}
  </style>
 </defs>
 <g id="figure_1">
  <g id="patch_1">
   <path d="
M0 72
L240.945 72
L240.945 0
L0 0
z
" style="fill:#ffffff;"/>
  </g>
  <g id="axes_1">
   <g id="patch_2">
    <path d="
M30.1181 61.2
L216.85 61.2
L216.85 7.2
L30.1181 7.2
z
" style="fill:#ffffff;"/>
   </g>
   <g id="line2d_1">
    <defs>
     <path d="
M-3 3
L3 -3
M-3 -3
L3 3" id="m4c3fbd2283" style="stroke:#0000ff;stroke-width:0.5;"/>
    </defs>
    <g clip-path="url(#p63eada464f)">
     <use style="fill:#0000ff;stroke:#0000ff;stroke-width:0.5;" x="45.4248198223" xlink:href="#m4c3fbd2283" y="61.2"/>
     <use style="fill:#0000ff;stroke:#0000ff;stroke-width:0.5;" x="49.1567978583" xlink:href="#m4c3fbd2283" y="61.2"/>
     <use style="fill:#0000ff;stroke:#0000ff;stroke-width:0.5;" x="54.494672096" xlink:href="#m4c3fbd2283" y="61.2"/>
     <use style="fill:#0000ff;stroke:#0000ff;stroke-width:0.5;" x="59.9259160434" xlink:href="#m4c3fbd2283" y="61.2"/>
     <use style="fill:#0000ff;stroke:#0000ff;stroke-width:0.5;" x="65.3464870089" xlink:href="#m4c3fbd2283" y="61.2"/>
     <use style="fill:#0000ff;stroke:#0000ff;stroke-width:0.5;" x="70.7670579745" xlink:href="#m4c3fbd2283" y="61.2"/>
     <use style="fill:#0000ff;stroke:#0000ff;stroke-width:0.5;" x="76.1876289401" xlink:href="#m4c3fbd2283" y="61.2"/>
     <use style="fill:#0000ff;stroke:#0000ff;stroke-width:0.5;" x="81.6081999056" xlink:href="#m4c3fbd2283" y="61.2"/>
     <use style="fill:#0000ff;stroke:#0000ff;stroke-width:0.5;" x="87.0287748462" xlink:href="#m4c3fbd2283" y="61.2"/>
     <use style="fill:#0000ff;stroke:#0000ff;stroke-width:0.5;" x="92.4493458118" xlink:href="#m4c3fbd2283" y="61.2"/>
     <use style="fill:#0000ff;stroke:#0000ff;stroke-width:0.5;" x="97.8699167773" xlink:href="#m4c3fbd2283" y="61.2"/>
     <use style="fill:#0000ff;stroke:#0000ff;stroke-width:0.5;" x="103.293154995" xlink:href="#m4c3fbd2283" y="61.2"/>
     <use style="fill:#0000ff;stroke:#0000ff;stroke-width:0.5;" x="108.71372596" xlink:href="#m4c3fbd2283" y="61.2"/>
     <use style="fill:#0000ff;stroke:#0000ff;stroke-width:0.5;" x="114.134296926" xlink:href="#m4c3fbd2283" y="61.2"/>
     <use style="fill:#0000ff;stroke:#0000ff;stroke-width:0.5;" x="119.554867891" xlink:href="#m4c3fbd2283" y="61.2"/>
     <use style="fill:#0000ff;stroke:#0000ff;stroke-width:0.5;" x="124.975438857" xlink:href="#m4c3fbd2283" y="61.2"/>
     <use style="fill:#0000ff;stroke:#0000ff;stroke-width:0.5;" x="130.396013797" xlink:href="#m4c3fbd2283" y="61.2"/>
     <use style="fill:#0000ff;stroke:#0000ff;stroke-width:0.5;" x="135.816584763" xlink:href="#m4c3fbd2283" y="61.2"/>
     <use style="fill:#0000ff;stroke:#0000ff;stroke-width:0.5;" x="141.237155729" xlink:href="#m4c3fbd2283" y="61.2"/>
     <use style="fill:#0000ff;stroke:#0000ff;stroke-width:0.5;" x="146.657726694" xlink:href="#m4c3fbd2283" y="61.2"/>
     <use style="fill:#0000ff;stroke:#0000ff;stroke-width:0.5;" x="152.07829766" xlink:href="#m4c3fbd2283" y="61.2"/>
     <use style="fill:#0000ff;stroke:#0000ff;stroke-width:0.5;" x="157.501535877" xlink:href="#m4c3fbd2283" y="61.2"/>
     <use style="fill:#0000ff;stroke:#0000ff;stroke-width:0.5;" x="162.922106842" xlink:href="#m4c3fbd2283" y="61.2"/>
    </g>
   </g>
   <g id="line2d_2">
    <defs>
     <path d="
M-3 3
L3 -3
M-3 -3
L3 3" id="mc76c2a1fc3" style="stroke:#008000;stroke-width:0.5;"/>
    </defs>
    <g clip-path="url(#p63eada464f)">
     <use style="fill:#008000;stroke:#008000;stroke-width:0.5;" x="45.4381600559" xlink:href="#mc76c2a1fc3" y="52.2"/>
     <use style="fill:#008000;stroke:#008000;stroke-width:0.5;" x="49.2101508424" xlink:href="#mc76c2a1fc3" y="52.2"/>
     <use style="fill:#008000;stroke:#008000;stroke-width:0.5;" x="54.5907090574" xlink:href="#mc76c2a1fc3" y="52.2"/>
     <use style="fill:#008000;stroke:#008000;stroke-width:0.5;" x="60.0566272769" xlink:href="#mc76c2a1fc3" y="52.2"/>
     <use style="fill:#008000;stroke:#008000;stroke-width:0.5;" x="65.5145477164" xlink:href="#mc76c2a1fc3" y="52.2"/>
     <use style="fill:#008000;stroke:#008000;stroke-width:0.5;" x="70.9724641808" xlink:href="#mc76c2a1fc3" y="52.2"/>
     <use style="fill:#008000;stroke:#008000;stroke-width:0.5;" x="76.4303806453" xlink:href="#mc76c2a1fc3" y="52.2"/>
     <use style="fill:#008000;stroke:#008000;stroke-width:0.5;" x="81.885633833" xlink:href="#mc76c2a1fc3" y="52.2"/>
     <use style="fill:#008000;stroke:#008000;stroke-width:0.5;" x="87.3435502975" xlink:href="#mc76c2a1fc3" y="52.2"/>
     <use style="fill:#008000;stroke:#008000;stroke-width:0.5;" x="92.8014667619" xlink:href="#mc76c2a1fc3" y="52.2"/>
     <use style="fill:#008000;stroke:#008000;stroke-width:0.5;" x="98.2593872013" xlink:href="#mc76c2a1fc3" y="52.2"/>
     <use style="fill:#008000;stroke:#008000;stroke-width:0.5;" x="103.717303666" xlink:href="#mc76c2a1fc3" y="52.2"/>
     <use style="fill:#008000;stroke:#008000;stroke-width:0.5;" x="109.17522013" xlink:href="#mc76c2a1fc3" y="52.2"/>
     <use style="fill:#008000;stroke:#008000;stroke-width:0.5;" x="114.630473318" xlink:href="#mc76c2a1fc3" y="52.2"/>
     <use style="fill:#008000;stroke:#008000;stroke-width:0.5;" x="120.088389782" xlink:href="#mc76c2a1fc3" y="52.2"/>
     <use style="fill:#008000;stroke:#008000;stroke-width:0.5;" x="125.546306247" xlink:href="#mc76c2a1fc3" y="52.2"/>
     <use style="fill:#008000;stroke:#008000;stroke-width:0.5;" x="131.004226686" xlink:href="#mc76c2a1fc3" y="52.2"/>
     <use style="fill:#008000;stroke:#008000;stroke-width:0.5;" x="136.462143151" xlink:href="#mc76c2a1fc3" y="52.2"/>
     <use style="fill:#008000;stroke:#008000;stroke-width:0.5;" x="141.920059615" xlink:href="#mc76c2a1fc3" y="52.2"/>
     <use style="fill:#008000;stroke:#008000;stroke-width:0.5;" x="147.377980055" xlink:href="#mc76c2a1fc3" y="52.2"/>
     <use style="fill:#008000;stroke:#008000;stroke-width:0.5;" x="152.833229267" xlink:href="#mc76c2a1fc3" y="52.2"/>
     <use style="fill:#008000;stroke:#008000;stroke-width:0.5;" x="158.291145732" xlink:href="#mc76c2a1fc3" y="52.2"/>
     <use style="fill:#008000;stroke:#008000;stroke-width:0.5;" x="163.730391434" xlink:href="#mc76c2a1fc3" y="52.2"/>
    </g>
   </g>
   <g id="line2d_3">
    <defs>
     <path d="
M-3 3
L3 -3
M-3 -3
L3 3" id="m562aef8efe" style="stroke:#ff0000;stroke-width:0.5;"/>
    </defs>
    <g clip-path="url(#p63eada464f)">
     <use style="fill:#ff0000;stroke:#ff0000;stroke-width:0.5;" x="45.4248198223" xlink:href="#m562aef8efe" y="43.2"/>
     <use style="fill:#ff0000;stroke:#ff0000;stroke-width:0.5;" x="49.1567978583" xlink:href="#m562aef8efe" y="43.2"/>
     <use style="fill:#ff0000;stroke:#ff0000;stroke-width:0.5;" x="54.494672096" xlink:href="#m562aef8efe" y="43.2"/>
     <use style="fill:#ff0000;stroke:#ff0000;stroke-width:0.5;" x="59.9259160434" xlink:href="#m562aef8efe" y="43.2"/>
     <use style="fill:#ff0000;stroke:#ff0000;stroke-width:0.5;" x="65.3464870089" xlink:href="#m562aef8efe" y="43.2"/>
     <use style="fill:#ff0000;stroke:#ff0000;stroke-width:0.5;" x="70.7670579745" xlink:href="#m562aef8efe" y="43.2"/>
     <use style="fill:#ff0000;stroke:#ff0000;stroke-width:0.5;" x="76.1876289401" xlink:href="#m562aef8efe" y="43.2"/>
     <use style="fill:#ff0000;stroke:#ff0000;stroke-width:0.5;" x="81.6081999056" xlink:href="#m562aef8efe" y="43.2"/>
     <use style="fill:#ff0000;stroke:#ff0000;stroke-width:0.5;" x="87.0287748462" xlink:href="#m562aef8efe" y="43.2"/>
     <use style="fill:#ff0000;stroke:#ff0000;stroke-width:0.5;" x="92.4493458118" xlink:href="#m562aef8efe" y="43.2"/>
     <use style="fill:#ff0000;stroke:#ff0000;stroke-width:0.5;" x="97.8699167773" xlink:href="#m562aef8efe" y="43.2"/>
     <use style="fill:#ff0000;stroke:#ff0000;stroke-width:0.5;" x="103.293154995" xlink:href="#m562aef8efe" y="43.2"/>
     <use style="fill:#ff0000;stroke:#ff0000;stroke-width:0.5;" x="108.71372596" xlink:href="#m562aef8efe" y="43.2"/>
     <use style="fill:#ff0000;stroke:#ff0000;stroke-width:0.5;" x="114.134296926" xlink:href="#m562aef8efe" y="43.2"/>
     <use style="fill:#ff0000;stroke:#ff0000;stroke-width:0.5;" x="119.554867891" xlink:href="#m562aef8efe" y="43.2"/>
     <use style="fill:#ff0000;stroke:#ff0000;stroke-width:0.5;" x="124.975438857" xlink:href="#m562aef8efe" y="43.2"/>
     <use style="fill:#ff0000;stroke:#ff0000;stroke-width:0.5;" x="130.396013797" xlink:href="#m562aef8efe" y="43.2"/>
     <use style="fill:#ff0000;stroke:#ff0000;stroke-width:0.5;" x="135.816584763" xlink:href="#m562aef8efe" y="43.2"/>
     <use style="fill:#ff0000;stroke:#ff0000;stroke-width:0.5;" x="141.237155729" xlink:href="#m562aef8efe" y="43.2"/>
     <use style="fill:#ff0000;stroke:#ff0000;stroke-width:0.5;" x="146.657726694" xlink:href="#m562aef8efe" y="43.2"/>
     <use style="fill:#ff0000;stroke:#ff0000;stroke-width:0.5;" x="152.07829766" xlink:href="#m562aef8efe" y="43.2"/>
     <use style="fill:#ff0000;stroke:#ff0000;stroke-width:0.5;" x="157.501535877" xlink:href="#m562aef8efe" y="43.2"/>
     <use style="fill:#ff0000;stroke:#ff0000;stroke-width:0.5;" x="162.922106842" xlink:href="#m562aef8efe" y="43.2"/>
    </g>
   </g>
   <g id="line2d_4">
    <defs>
     <path d="
M-3 3
L3 -3
M-3 -3
L3 3" id="m6f74a4bca3" style="stroke:#00bfbf;stroke-width:0.5;"/>
    </defs>
    <g clip-path="url(#p63eada464f)">
     <use style="fill:#00bfbf;stroke:#00bfbf;stroke-width:0.5;" x="45.4301543257" xlink:href="#m6f74a4bca3" y="34.2"/>
     <use style="fill:#00bfbf;stroke:#00bfbf;stroke-width:0.5;" x="49.1647996134" xlink:href="#m6f74a4bca3" y="34.2"/>
     <use style="fill:#00bfbf;stroke:#00bfbf;stroke-width:0.5;" x="54.5160140846" xlink:href="#m6f74a4bca3" y="34.2"/>
     <use style="fill:#00bfbf;stroke:#00bfbf;stroke-width:0.5;" x="59.9525925354" xlink:href="#m6f74a4bca3" y="34.2"/>
     <use style="fill:#00bfbf;stroke:#00bfbf;stroke-width:0.5;" x="65.3864997595" xlink:href="#m6f74a4bca3" y="34.2"/>
     <use style="fill:#00bfbf;stroke:#00bfbf;stroke-width:0.5;" x="70.8150764552" xlink:href="#m6f74a4bca3" y="34.2"/>
     <use style="fill:#00bfbf;stroke:#00bfbf;stroke-width:0.5;" x="76.2463164276" xlink:href="#m6f74a4bca3" y="34.2"/>
     <use style="fill:#00bfbf;stroke:#00bfbf;stroke-width:0.5;" x="81.677560375" xlink:href="#m6f74a4bca3" y="34.2"/>
     <use style="fill:#00bfbf;stroke:#00bfbf;stroke-width:0.5;" x="87.1088003474" xlink:href="#m6f74a4bca3" y="34.2"/>
     <use style="fill:#00bfbf;stroke:#00bfbf;stroke-width:0.5;" x="92.5400442948" xlink:href="#m6f74a4bca3" y="34.2"/>
     <use style="fill:#00bfbf;stroke:#00bfbf;stroke-width:0.5;" x="97.9712842671" xlink:href="#m6f74a4bca3" y="34.2"/>
     <use style="fill:#00bfbf;stroke:#00bfbf;stroke-width:0.5;" x="103.399856988" xlink:href="#m6f74a4bca3" y="34.2"/>
     <use style="fill:#00bfbf;stroke:#00bfbf;stroke-width:0.5;" x="108.831100935" xlink:href="#m6f74a4bca3" y="34.2"/>
     <use style="fill:#00bfbf;stroke:#00bfbf;stroke-width:0.5;" x="114.262340908" xlink:href="#m6f74a4bca3" y="34.2"/>
     <use style="fill:#00bfbf;stroke:#00bfbf;stroke-width:0.5;" x="119.693584855" xlink:href="#m6f74a4bca3" y="34.2"/>
     <use style="fill:#00bfbf;stroke:#00bfbf;stroke-width:0.5;" x="125.124824827" xlink:href="#m6f74a4bca3" y="34.2"/>
     <use style="fill:#00bfbf;stroke:#00bfbf;stroke-width:0.5;" x="130.556068775" xlink:href="#m6f74a4bca3" y="34.2"/>
     <use style="fill:#00bfbf;stroke:#00bfbf;stroke-width:0.5;" x="135.984641495" xlink:href="#m6f74a4bca3" y="34.2"/>
     <use style="fill:#00bfbf;stroke:#00bfbf;stroke-width:0.5;" x="141.415885443" xlink:href="#m6f74a4bca3" y="34.2"/>
     <use style="fill:#00bfbf;stroke:#00bfbf;stroke-width:0.5;" x="146.847125415" xlink:href="#m6f74a4bca3" y="34.2"/>
     <use style="fill:#00bfbf;stroke:#00bfbf;stroke-width:0.5;" x="152.278369363" xlink:href="#m6f74a4bca3" y="34.2"/>
     <use style="fill:#00bfbf;stroke:#00bfbf;stroke-width:0.5;" x="157.709609335" xlink:href="#m6f74a4bca3" y="34.2"/>
     <use style="fill:#00bfbf;stroke:#00bfbf;stroke-width:0.5;" x="163.138182056" xlink:href="#m6f74a4bca3" y="34.2"/>
    </g>
   </g>
   <g id="line2d_5">
    <defs>
     <path d="
M-3 3
L3 -3
M-3 -3
L3 3" id="mfac1649984" style="stroke:#bf00bf;stroke-width:0.5;"/>
    </defs>
    <g clip-path="url(#p63eada464f)">
     <use style="fill:#bf00bf;stroke:#bf00bf;stroke-width:0.5;" x="45.4327619518" xlink:href="#mfac1649984" y="25.2"/>
     <use style="fill:#bf00bf;stroke:#bf00bf;stroke-width:0.5;" x="49.16745494" xlink:href="#mfac1649984" y="25.2"/>
     <use style="fill:#bf00bf;stroke:#bf00bf;stroke-width:0.5;" x="54.5186217107" xlink:href="#mfac1649984" y="25.2"/>
     <use style="fill:#bf00bf;stroke:#bf00bf;stroke-width:0.5;" x="59.9578753633" xlink:href="#mfac1649984" y="25.2"/>
     <use style="fill:#bf00bf;stroke:#bf00bf;stroke-width:0.5;" x="65.3891153357" xlink:href="#mfac1649984" y="25.2"/>
     <use style="fill:#bf00bf;stroke:#bf00bf;stroke-width:0.5;" x="70.8203553081" xlink:href="#mfac1649984" y="25.2"/>
     <use style="fill:#bf00bf;stroke:#bf00bf;stroke-width:0.5;" x="76.2515952804" xlink:href="#mfac1649984" y="25.2"/>
     <use style="fill:#bf00bf;stroke:#bf00bf;stroke-width:0.5;" x="81.6828352528" xlink:href="#mfac1649984" y="25.2"/>
     <use style="fill:#bf00bf;stroke:#bf00bf;stroke-width:0.5;" x="87.1140752252" xlink:href="#mfac1649984" y="25.2"/>
     <use style="fill:#bf00bf;stroke:#bf00bf;stroke-width:0.5;" x="92.5427075714" xlink:href="#mfac1649984" y="25.2"/>
     <use style="fill:#bf00bf;stroke:#bf00bf;stroke-width:0.5;" x="97.9739475438" xlink:href="#mfac1649984" y="25.2"/>
     <use style="fill:#bf00bf;stroke:#bf00bf;stroke-width:0.5;" x="103.405187516" xlink:href="#mfac1649984" y="25.2"/>
     <use style="fill:#bf00bf;stroke:#bf00bf;stroke-width:0.5;" x="108.836427489" xlink:href="#mfac1649984" y="25.2"/>
     <use style="fill:#bf00bf;stroke:#bf00bf;stroke-width:0.5;" x="114.267667461" xlink:href="#mfac1649984" y="25.2"/>
     <use style="fill:#bf00bf;stroke:#bf00bf;stroke-width:0.5;" x="119.698907433" xlink:href="#mfac1649984" y="25.2"/>
     <use style="fill:#bf00bf;stroke:#bf00bf;stroke-width:0.5;" x="125.130147406" xlink:href="#mfac1649984" y="25.2"/>
     <use style="fill:#bf00bf;stroke:#bf00bf;stroke-width:0.5;" x="130.558716151" xlink:href="#mfac1649984" y="25.2"/>
     <use style="fill:#bf00bf;stroke:#bf00bf;stroke-width:0.5;" x="135.989956124" xlink:href="#mfac1649984" y="25.2"/>
     <use style="fill:#bf00bf;stroke:#bf00bf;stroke-width:0.5;" x="141.421196096" xlink:href="#mfac1649984" y="25.2"/>
     <use style="fill:#bf00bf;stroke:#bf00bf;stroke-width:0.5;" x="146.852436068" xlink:href="#mfac1649984" y="25.2"/>
     <use style="fill:#bf00bf;stroke:#bf00bf;stroke-width:0.5;" x="152.283676041" xlink:href="#mfac1649984" y="25.2"/>
     <use style="fill:#bf00bf;stroke:#bf00bf;stroke-width:0.5;" x="157.714916013" xlink:href="#mfac1649984" y="25.2"/>
     <use style="fill:#bf00bf;stroke:#bf00bf;stroke-width:0.5;" x="163.146155985" xlink:href="#mfac1649984" y="25.2"/>
    </g>
   </g>
   <g id="line2d_6">
    <defs>
     <path d="
M-3 3
L3 -3
M-3 -3
L3 3" id="m20663abfd5" style="stroke:#bfbf00;stroke-width:0.5;"/>
    </defs>
    <g clip-path="url(#p63eada464f)">
     <use style="fill:#bfbf00;stroke:#bfbf00;stroke-width:0.5;" x="45.5043762688" xlink:href="#m20663abfd5" y="16.2"/>
     <use style="fill:#bfbf00;stroke:#bfbf00;stroke-width:0.5;" x="49.2206886729" xlink:href="#m20663abfd5" y="16.2"/>
     <use style="fill:#bfbf00;stroke:#bfbf00;stroke-width:0.5;" x="54.5845119704" xlink:href="#m20663abfd5" y="16.2"/>
     <use style="fill:#bfbf00;stroke:#bfbf00;stroke-width:0.5;" x="60.0266912523" xlink:href="#m20663abfd5" y="16.2"/>
     <use style="fill:#bfbf00;stroke:#bfbf00;stroke-width:0.5;" x="65.4576768221" xlink:href="#m20663abfd5" y="16.2"/>
     <use style="fill:#bfbf00;stroke:#bfbf00;stroke-width:0.5;" x="70.8896800021" xlink:href="#m20663abfd5" y="16.2"/>
     <use style="fill:#bfbf00;stroke:#bfbf00;stroke-width:0.5;" x="76.3227007923" xlink:href="#m20663abfd5" y="16.2"/>
     <use style="fill:#bfbf00;stroke:#bfbf00;stroke-width:0.5;" x="81.7547039723" xlink:href="#m20663abfd5" y="16.2"/>
     <use style="fill:#bfbf00;stroke:#bfbf00;stroke-width:0.5;" x="87.1887423727" xlink:href="#m20663abfd5" y="16.2"/>
     <use style="fill:#bfbf00;stroke:#bfbf00;stroke-width:0.5;" x="92.6197279425" xlink:href="#m20663abfd5" y="16.2"/>
     <use style="fill:#bfbf00;stroke:#bfbf00;stroke-width:0.5;" x="98.0537663429" xlink:href="#m20663abfd5" y="16.2"/>
     <use style="fill:#bfbf00;stroke:#bfbf00;stroke-width:0.5;" x="103.484751913" xlink:href="#m20663abfd5" y="16.2"/>
     <use style="fill:#bfbf00;stroke:#bfbf00;stroke-width:0.5;" x="108.918790313" xlink:href="#m20663abfd5" y="16.2"/>
     <use style="fill:#bfbf00;stroke:#bfbf00;stroke-width:0.5;" x="114.349775883" xlink:href="#m20663abfd5" y="16.2"/>
     <use style="fill:#bfbf00;stroke:#bfbf00;stroke-width:0.5;" x="119.783814283" xlink:href="#m20663abfd5" y="16.2"/>
     <use style="fill:#bfbf00;stroke:#bfbf00;stroke-width:0.5;" x="125.214799853" xlink:href="#m20663abfd5" y="16.2"/>
     <use style="fill:#bfbf00;stroke:#bfbf00;stroke-width:0.5;" x="130.648838253" xlink:href="#m20663abfd5" y="16.2"/>
     <use style="fill:#bfbf00;stroke:#bfbf00;stroke-width:0.5;" x="136.079823823" xlink:href="#m20663abfd5" y="16.2"/>
     <use style="fill:#bfbf00;stroke:#bfbf00;stroke-width:0.5;" x="141.513862224" xlink:href="#m20663abfd5" y="16.2"/>
     <use style="fill:#bfbf00;stroke:#bfbf00;stroke-width:0.5;" x="146.944847793" xlink:href="#m20663abfd5" y="16.2"/>
     <use style="fill:#bfbf00;stroke:#bfbf00;stroke-width:0.5;" x="152.378886194" xlink:href="#m20663abfd5" y="16.2"/>
     <use style="fill:#bfbf00;stroke:#bfbf00;stroke-width:0.5;" x="157.809871764" xlink:href="#m20663abfd5" y="16.2"/>
     <use style="fill:#bfbf00;stroke:#bfbf00;stroke-width:0.5;" x="163.243910164" xlink:href="#m20663abfd5" y="16.2"/>
    </g>
   </g>
   <g id="matplotlib.axis_1">
    <g id="xtick_1">
     <g id="line2d_7">
      <defs>
       <path d="
M0 0
L0 -4" id="m93b0483c22" style="stroke:#000000;stroke-width:0.5;"/>
      </defs>
      <g>
       <use style="stroke:#000000;stroke-width:0.5;" x="30.1181102362" xlink:href="#m93b0483c22" y="61.2"/>
      </g>
     </g>
     <g id="line2d_8">
      <defs>
       <path d="
M0 0
L0 4" id="m741efc42ff" style="stroke:#000000;stroke-width:0.5;"/>
      </defs>
      <g>
       <use style="stroke:#000000;stroke-width:0.5;" x="30.1181102362" xlink:href="#m741efc42ff" y="7.2"/>
      </g>
     </g>
     <g id="text_1">
      <!-- 0.0 -->
      <defs>
       <path d="
M4.15625 35.2969
Q4.15625 48 6.76562 55.7344
Q9.375 63.4844 14.5156 67.6719
Q19.6719 71.875 27.4844 71.875
Q33.25 71.875 37.5938 69.5469
Q41.9375 67.2344 44.7656 62.8594
Q47.6094 58.5 49.2188 52.2188
Q50.8281 45.9531 50.8281 35.2969
Q50.8281 22.7031 48.2344 14.9688
Q45.6562 7.23438 40.5 3
Q35.3594 -1.21875 27.4844 -1.21875
Q17.1406 -1.21875 11.2344 6.20312
Q4.15625 15.1406 4.15625 35.2969
M13.1875 35.2969
Q13.1875 17.6719 17.3125 11.8281
Q21.4375 6 27.4844 6
Q33.5469 6 37.6719 11.8594
Q41.7969 17.7188 41.7969 35.2969
Q41.7969 52.9844 37.6719 58.7812
Q33.5469 64.5938 27.3906 64.5938
Q21.3438 64.5938 17.7188 59.4688
Q13.1875 52.9375 13.1875 35.2969" id="ArialMT-30"/>
       <path d="
M9.07812 0
L9.07812 10.0156
L19.0938 10.0156
L19.0938 0
z
" id="ArialMT-2e"/>
      </defs>
      <g transform="translate(22.3143602362 73.789375)scale(0.12 -0.12)">
       <use xlink:href="#ArialMT-30"/>
       <use x="55.615234375" xlink:href="#ArialMT-2e"/>
       <use x="83.3984375" xlink:href="#ArialMT-30"/>
      </g>
     </g>
    </g>
    <g id="xtick_2">
     <g id="line2d_9">
      <g>
       <use style="stroke:#000000;stroke-width:0.5;" x="56.7941507312" xlink:href="#m93b0483c22" y="61.2"/>
      </g>
     </g>
     <g id="line2d_10">
      <g>
       <use style="stroke:#000000;stroke-width:0.5;" x="56.7941507312" xlink:href="#m741efc42ff" y="7.2"/>
      </g>
     </g>
     <g id="text_2">
      <!-- 0.1 -->
      <defs>
       <path d="
M37.25 0
L28.4688 0
L28.4688 56
Q25.2969 52.9844 20.1406 49.9531
Q14.9844 46.9219 10.8906 45.4062
L10.8906 53.9062
Q18.2656 57.375 23.7812 62.2969
Q29.2969 67.2344 31.5938 71.875
L37.25 71.875
z
" id="ArialMT-31"/>
      </defs>
      <g transform="translate(49.8050882312 73.789375)scale(0.12 -0.12)">
       <use xlink:href="#ArialMT-30"/>
       <use x="55.615234375" xlink:href="#ArialMT-2e"/>
       <use x="83.3984375" xlink:href="#ArialMT-31"/>
      </g>
     </g>
    </g>
    <g id="xtick_3">
     <g id="line2d_11">
      <g>
       <use style="stroke:#000000;stroke-width:0.5;" x="83.4701912261" xlink:href="#m93b0483c22" y="61.2"/>
      </g>
     </g>
     <g id="line2d_12">
      <g>
       <use style="stroke:#000000;stroke-width:0.5;" x="83.4701912261" xlink:href="#m741efc42ff" y="7.2"/>
      </g>
     </g>
     <g id="text_3">
      <!-- 0.2 -->
      <defs>
       <path d="
M50.3438 8.45312
L50.3438 0
L3.03125 0
Q2.9375 3.17188 4.04688 6.10938
Q5.85938 10.9375 9.82812 15.625
Q13.8125 20.3125 21.3438 26.4688
Q33.0156 36.0312 37.1094 41.625
Q41.2188 47.2188 41.2188 52.2031
Q41.2188 57.4219 37.4688 61
Q33.7344 64.5938 27.7344 64.5938
Q21.3906 64.5938 17.5781 60.7812
Q13.7656 56.9844 13.7188 50.25
L4.6875 51.1719
Q5.60938 61.2812 11.6562 66.5781
Q17.7188 71.875 27.9375 71.875
Q38.2344 71.875 44.2344 66.1562
Q50.25 60.4531 50.25 52
Q50.25 47.7031 48.4844 43.5469
Q46.7344 39.4062 42.6562 34.8125
Q38.5781 30.2188 29.1094 22.2188
Q21.1875 15.5781 18.9375 13.2031
Q16.7031 10.8438 15.2344 8.45312
z
" id="ArialMT-32"/>
      </defs>
      <g transform="translate(75.6955037261 73.789375)scale(0.12 -0.12)">
       <use xlink:href="#ArialMT-30"/>
       <use x="55.615234375" xlink:href="#ArialMT-2e"/>
       <use x="83.3984375" xlink:href="#ArialMT-32"/>
      </g>
     </g>
    </g>
    <g id="xtick_4">
     <g id="line2d_13">
      <g>
       <use style="stroke:#000000;stroke-width:0.5;" x="110.146231721" xlink:href="#m93b0483c22" y="61.2"/>
      </g>
     </g>
     <g id="line2d_14">
      <g>
       <use style="stroke:#000000;stroke-width:0.5;" x="110.146231721" xlink:href="#m741efc42ff" y="7.2"/>
      </g>
     </g>
     <g id="text_4">
      <!-- 0.3 -->
      <defs>
       <path d="
M4.20312 18.8906
L12.9844 20.0625
Q14.5 12.5938 18.1406 9.29688
Q21.7812 6 27 6
Q33.2031 6 37.4688 10.2969
Q41.75 14.5938 41.75 20.9531
Q41.75 27 37.7969 30.9219
Q33.8438 34.8594 27.7344 34.8594
Q25.25 34.8594 21.5312 33.8906
L22.5156 41.6094
Q23.3906 41.5 23.9219 41.5
Q29.5469 41.5 34.0312 44.4219
Q38.5312 47.3594 38.5312 53.4688
Q38.5312 58.2969 35.25 61.4688
Q31.9844 64.6562 26.8125 64.6562
Q21.6875 64.6562 18.2656 61.4219
Q14.8438 58.2031 13.875 51.7656
L5.07812 53.3281
Q6.6875 62.1562 12.3906 67.0156
Q18.1094 71.875 26.6094 71.875
Q32.4688 71.875 37.3906 69.3594
Q42.3281 66.8438 44.9375 62.5
Q47.5625 58.1562 47.5625 53.2656
Q47.5625 48.6406 45.0625 44.8281
Q42.5781 41.0156 37.7031 38.7656
Q44.0469 37.3125 47.5625 32.6875
Q51.0781 28.0781 51.0781 21.1406
Q51.0781 11.7656 44.2344 5.25
Q37.4062 -1.26562 26.9531 -1.26562
Q17.5312 -1.26562 11.2969 4.34375
Q5.07812 9.96875 4.20312 18.8906" id="ArialMT-33"/>
      </defs>
      <g transform="translate(102.327481721 73.789375)scale(0.12 -0.12)">
       <use xlink:href="#ArialMT-30"/>
       <use x="55.615234375" xlink:href="#ArialMT-2e"/>
       <use x="83.3984375" xlink:href="#ArialMT-33"/>
      </g>
     </g>
    </g>
    <g id="xtick_5">
     <g id="line2d_15">
      <g>
       <use style="stroke:#000000;stroke-width:0.5;" x="136.822272216" xlink:href="#m93b0483c22" y="61.2"/>
      </g>
     </g>
     <g id="line2d_16">
      <g>
       <use style="stroke:#000000;stroke-width:0.5;" x="136.822272216" xlink:href="#m741efc42ff" y="7.2"/>
      </g>
     </g>
     <g id="text_5">
      <!-- 0.4 -->
      <defs>
       <path d="
M32.3281 0
L32.3281 17.1406
L1.26562 17.1406
L1.26562 25.2031
L33.9375 71.5781
L41.1094 71.5781
L41.1094 25.2031
L50.7812 25.2031
L50.7812 17.1406
L41.1094 17.1406
L41.1094 0
z

M32.3281 25.2031
L32.3281 57.4688
L9.90625 25.2031
z
" id="ArialMT-34"/>
      </defs>
      <g transform="translate(129.021334716 73.789375)scale(0.12 -0.12)">
       <use xlink:href="#ArialMT-30"/>
       <use x="55.615234375" xlink:href="#ArialMT-2e"/>
       <use x="83.3984375" xlink:href="#ArialMT-34"/>
      </g>
     </g>
    </g>
    <g id="xtick_6">
     <g id="line2d_17">
      <g>
       <use style="stroke:#000000;stroke-width:0.5;" x="163.498312711" xlink:href="#m93b0483c22" y="61.2"/>
      </g>
     </g>
     <g id="line2d_18">
      <g>
       <use style="stroke:#000000;stroke-width:0.5;" x="163.498312711" xlink:href="#m741efc42ff" y="7.2"/>
      </g>
     </g>
     <g id="text_6">
      <!-- 0.5 -->
      <defs>
       <path d="
M4.15625 18.75
L13.375 19.5312
Q14.4062 12.7969 18.1406 9.39062
Q21.875 6 27.1562 6
Q33.5 6 37.8906 10.7812
Q42.2812 15.5781 42.2812 23.4844
Q42.2812 31 38.0625 35.3438
Q33.8438 39.7031 27 39.7031
Q22.75 39.7031 19.3281 37.7656
Q15.9219 35.8438 13.9688 32.7656
L5.71875 33.8438
L12.6406 70.6094
L48.25 70.6094
L48.25 62.2031
L19.6719 62.2031
L15.8281 42.9688
Q22.2656 47.4688 29.3438 47.4688
Q38.7188 47.4688 45.1562 40.9688
Q51.6094 34.4688 51.6094 24.2656
Q51.6094 14.5469 45.9531 7.46875
Q39.0625 -1.21875 27.1562 -1.21875
Q17.3906 -1.21875 11.2031 4.25
Q5.03125 9.71875 4.15625 18.75" id="ArialMT-35"/>
      </defs>
      <g transform="translate(155.647687711 73.789375)scale(0.12 -0.12)">
       <use xlink:href="#ArialMT-30"/>
       <use x="55.615234375" xlink:href="#ArialMT-2e"/>
       <use x="83.3984375" xlink:href="#ArialMT-35"/>
      </g>
     </g>
    </g>
    <g id="xtick_7">
     <g id="line2d_19">
      <g>
       <use style="stroke:#000000;stroke-width:0.5;" x="190.174353206" xlink:href="#m93b0483c22" y="61.2"/>
      </g>
     </g>
     <g id="line2d_20">
      <g>
       <use style="stroke:#000000;stroke-width:0.5;" x="190.174353206" xlink:href="#m741efc42ff" y="7.2"/>
      </g>
     </g>
     <g id="text_7">
      <!-- 0.6 -->
      <defs>
       <path d="
M49.75 54.0469
L41.0156 53.375
Q39.8438 58.5469 37.7031 60.8906
Q34.125 64.6562 28.9062 64.6562
Q24.7031 64.6562 21.5312 62.3125
Q17.3906 59.2812 14.9844 53.4688
Q12.5938 47.6562 12.5 36.9219
Q15.6719 41.75 20.2656 44.0938
Q24.8594 46.4375 29.8906 46.4375
Q38.6719 46.4375 44.8438 39.9688
Q51.0312 33.5 51.0312 23.25
Q51.0312 16.5 48.125 10.7188
Q45.2188 4.9375 40.1406 1.85938
Q35.0625 -1.21875 28.6094 -1.21875
Q17.625 -1.21875 10.6875 6.85938
Q3.76562 14.9375 3.76562 33.5
Q3.76562 54.25 11.4219 63.6719
Q18.1094 71.875 29.4375 71.875
Q37.8906 71.875 43.2812 67.1406
Q48.6875 62.4062 49.75 54.0469
M13.875 23.1875
Q13.875 18.6562 15.7969 14.5
Q17.7188 10.3594 21.1875 8.17188
Q24.6562 6 28.4688 6
Q34.0312 6 38.0312 10.4844
Q42.0469 14.9844 42.0469 22.7031
Q42.0469 30.125 38.0781 34.3906
Q34.125 38.6719 28.125 38.6719
Q22.1719 38.6719 18.0156 34.3906
Q13.875 30.125 13.875 23.1875" id="ArialMT-36"/>
      </defs>
      <g transform="translate(182.358415706 73.789375)scale(0.12 -0.12)">
       <use xlink:href="#ArialMT-30"/>
       <use x="55.615234375" xlink:href="#ArialMT-2e"/>
       <use x="83.3984375" xlink:href="#ArialMT-36"/>
      </g>
     </g>
    </g>
    <g id="xtick_8">
     <g id="text_8">
      <!-- 0.7 -->
      <defs>
       <path d="
M4.73438 62.2031
L4.73438 70.6562
L51.0781 70.6562
L51.0781 63.8125
Q44.2344 56.5469 37.5156 44.4844
Q30.8125 32.4219 27.1562 19.6719
Q24.5156 10.6875 23.7812 0
L14.75 0
Q14.8906 8.45312 18.0625 20.4062
Q21.2344 32.375 27.1719 43.4844
Q33.1094 54.5938 39.7969 62.2031
z
" id="ArialMT-37"/>
      </defs>
      <g transform="translate(209.031643701 73.789375)scale(0.12 -0.12)">
       <use xlink:href="#ArialMT-30"/>
       <use x="55.615234375" xlink:href="#ArialMT-2e"/>
       <use x="83.3984375" xlink:href="#ArialMT-37"/>
      </g>
     </g>
    </g>
   </g>
   <g id="matplotlib.axis_2">
    <g id="ytick_1">
     <g id="line2d_21">
      <defs>
       <path d="
M0 0
L4 0" id="m728421d6d4" style="stroke:#000000;stroke-width:0.5;"/>
      </defs>
      <g>
       <use style="stroke:#000000;stroke-width:0.5;" x="30.1181102362" xlink:href="#m728421d6d4" y="61.2"/>
      </g>
     </g>
     <g id="line2d_22">
      <defs>
       <path d="
M0 0
L-4 0" id="mcb0005524f" style="stroke:#000000;stroke-width:0.5;"/>
      </defs>
      <g>
       <use style="stroke:#000000;stroke-width:0.5;" x="216.850393701" xlink:href="#mcb0005524f" y="61.2"/>
      </g>
     </g>
     <g id="text_9">
      <!-- 0 -->
      <g transform="translate(20.5174852362 64.3021875)scale(0.12 -0.12)">
       <use xlink:href="#ArialMT-30"/>
      </g>
     </g>
    </g>
    <g id="ytick_2">
     <g id="line2d_23">
      <g>
       <use style="stroke:#000000;stroke-width:0.5;" x="30.1181102362" xlink:href="#m728421d6d4" y="52.2"/>
      </g>
     </g>
     <g id="line2d_24">
      <g>
       <use style="stroke:#000000;stroke-width:0.5;" x="216.850393701" xlink:href="#mcb0005524f" y="52.2"/>
      </g>
     </g>
     <g id="text_10">
      <!-- 1 -->
      <g transform="translate(22.9549852362 55.3021875)scale(0.12 -0.12)">
       <use xlink:href="#ArialMT-31"/>
      </g>
     </g>
    </g>
    <g id="ytick_3">
     <g id="line2d_25">
      <g>
       <use style="stroke:#000000;stroke-width:0.5;" x="30.1181102362" xlink:href="#m728421d6d4" y="43.2"/>
      </g>
     </g>
     <g id="line2d_26">
      <g>
       <use style="stroke:#000000;stroke-width:0.5;" x="216.850393701" xlink:href="#mcb0005524f" y="43.2"/>
      </g>
     </g>
     <g id="text_11">
      <!-- 2 -->
      <g transform="translate(20.4293602362 46.3021875)scale(0.12 -0.12)">
       <use xlink:href="#ArialMT-32"/>
      </g>
     </g>
    </g>
    <g id="ytick_4">
     <g id="line2d_27">
      <g>
       <use style="stroke:#000000;stroke-width:0.5;" x="30.1181102362" xlink:href="#m728421d6d4" y="34.2"/>
      </g>
     </g>
     <g id="line2d_28">
      <g>
       <use style="stroke:#000000;stroke-width:0.5;" x="216.850393701" xlink:href="#mcb0005524f" y="34.2"/>
      </g>
     </g>
     <g id="text_12">
      <!-- 3 -->
      <g transform="translate(20.4931102362 37.3021875)scale(0.12 -0.12)">
       <use xlink:href="#ArialMT-33"/>
      </g>
     </g>
    </g>
    <g id="ytick_5">
     <g id="line2d_29">
      <g>
       <use style="stroke:#000000;stroke-width:0.5;" x="30.1181102362" xlink:href="#m728421d6d4" y="25.2"/>
      </g>
     </g>
     <g id="line2d_30">
      <g>
       <use style="stroke:#000000;stroke-width:0.5;" x="216.850393701" xlink:href="#mcb0005524f" y="25.2"/>
      </g>
     </g>
     <g id="text_13">
      <!-- 4 -->
      <g transform="translate(20.1762352362 28.3021875)scale(0.12 -0.12)">
       <use xlink:href="#ArialMT-34"/>
      </g>
     </g>
    </g>
    <g id="ytick_6">
     <g id="line2d_31">
      <g>
       <use style="stroke:#000000;stroke-width:0.5;" x="30.1181102362" xlink:href="#m728421d6d4" y="16.2"/>
      </g>
     </g>
     <g id="line2d_32">
      <g>
       <use style="stroke:#000000;stroke-width:0.5;" x="216.850393701" xlink:href="#mcb0005524f" y="16.2"/>
      </g>
     </g>
     <g id="text_14">
      <!-- 5 -->
      <g transform="translate(20.4237352362 19.3021875)scale(0.12 -0.12)">
       <use xlink:href="#ArialMT-35"/>
      </g>
     </g>
    </g>
    <g id="ytick_7">
     <g id="line2d_33">
      <g>
       <use style="stroke:#000000;stroke-width:0.5;" x="30.1181102362" xlink:href="#m728421d6d4" y="7.2"/>
      </g>
     </g>
     <g id="line2d_34">
      <g>
       <use style="stroke:#000000;stroke-width:0.5;" x="216.850393701" xlink:href="#mcb0005524f" y="7.2"/>
      </g>
     </g>
     <g id="text_15">
      <!-- 6 -->
      <g transform="translate(20.4462352362 10.3021875)scale(0.12 -0.12)">
       <use xlink:href="#ArialMT-36"/>
      </g>
     </g>
    </g>
    <g id="text_16">
     <!-- ALL{spike} -->
     <defs>
      <path d="
M42.0938 16.7031
L51.1719 15.5781
Q49.0312 7.625 43.2188 3.21875
Q37.4062 -1.17188 28.375 -1.17188
Q17 -1.17188 10.3281 5.82812
Q3.65625 12.8438 3.65625 25.4844
Q3.65625 38.5781 10.3906 45.7969
Q17.1406 53.0312 27.875 53.0312
Q38.2812 53.0312 44.875 45.9531
Q51.4688 38.875 51.4688 26.0312
Q51.4688 25.25 51.4219 23.6875
L12.75 23.6875
Q13.2344 15.1406 17.5781 10.5938
Q21.9219 6.0625 28.4219 6.0625
Q33.25 6.0625 36.6719 8.59375
Q40.0938 11.1406 42.0938 16.7031
M13.2344 30.9062
L42.1875 30.9062
Q41.6094 37.4531 38.875 40.7188
Q34.6719 45.7969 27.9844 45.7969
Q21.9219 45.7969 17.7969 41.75
Q13.6719 37.7031 13.2344 30.9062" id="ArialMT-65"/>
      <path d="
M-0.140625 0
L27.3438 71.5781
L37.5469 71.5781
L66.8438 0
L56.0625 0
L47.7031 21.6875
L17.7812 21.6875
L9.90625 0
z

M20.5156 29.3906
L44.7812 29.3906
L37.3125 49.2188
Q33.8906 58.25 32.2344 64.0625
Q30.8594 57.1719 28.375 50.3906
z
" id="ArialMT-41"/>
      <path d="
M6.64062 61.4688
L6.64062 71.5781
L15.4375 71.5781
L15.4375 61.4688
z

M6.64062 0
L6.64062 51.8594
L15.4375 51.8594
L15.4375 0
z
" id="ArialMT-69"/>
      <path d="
M6.59375 -19.875
L6.59375 51.8594
L14.5938 51.8594
L14.5938 45.125
Q17.4375 49.0781 21 51.0469
Q24.5625 53.0312 29.6406 53.0312
Q36.2812 53.0312 41.3594 49.6094
Q46.4375 46.1875 49.0156 39.9531
Q51.6094 33.7344 51.6094 26.3125
Q51.6094 18.3594 48.75 11.9844
Q45.9062 5.60938 40.4531 2.21875
Q35.0156 -1.17188 29 -1.17188
Q24.6094 -1.17188 21.1094 0.6875
Q17.625 2.54688 15.375 5.375
L15.375 -19.875
z

M14.5469 25.6406
Q14.5469 15.625 18.5938 10.8438
Q22.6562 6.0625 28.4219 6.0625
Q34.2812 6.0625 38.4531 11.0156
Q42.625 15.9688 42.625 26.375
Q42.625 36.2812 38.5469 41.2031
Q34.4688 46.1406 28.8125 46.1406
Q23.1875 46.1406 18.8594 40.8906
Q14.5469 35.6406 14.5469 25.6406" id="ArialMT-70"/>
      <path d="
M3.07812 15.4844
L11.7656 16.8438
Q12.5 11.625 15.8438 8.84375
Q19.1875 6.0625 25.2031 6.0625
Q31.25 6.0625 34.1719 8.51562
Q37.1094 10.9844 37.1094 14.3125
Q37.1094 17.2812 34.5156 19
Q32.7188 20.1719 25.5312 21.9688
Q15.875 24.4219 12.1406 26.2031
Q8.40625 27.9844 6.46875 31.125
Q4.54688 34.2812 4.54688 38.0938
Q4.54688 41.5469 6.125 44.5
Q7.71875 47.4688 10.4531 49.4219
Q12.5 50.9219 16.0312 51.9688
Q19.5781 53.0312 23.6406 53.0312
Q29.7344 53.0312 34.3438 51.2656
Q38.9688 49.5156 41.1562 46.5
Q43.3594 43.5 44.1875 38.4844
L35.5938 37.3125
Q35.0156 41.3125 32.2031 43.5469
Q29.3906 45.7969 24.2656 45.7969
Q18.2188 45.7969 15.625 43.7969
Q13.0312 41.7969 13.0312 39.1094
Q13.0312 37.4062 14.1094 36.0312
Q15.1875 34.625 17.4844 33.6875
Q18.7969 33.2031 25.25 31.4531
Q34.5781 28.9531 38.25 27.3594
Q41.9375 25.7812 44.0312 22.75
Q46.1406 19.7344 46.1406 15.2344
Q46.1406 10.8438 43.5781 6.95312
Q41.0156 3.07812 36.1719 0.953125
Q31.3438 -1.17188 25.25 -1.17188
Q15.1406 -1.17188 9.84375 3.03125
Q4.54688 7.23438 3.07812 15.4844" id="ArialMT-73"/>
      <path d="
M6.64062 0
L6.64062 71.5781
L15.4375 71.5781
L15.4375 30.7656
L36.2344 51.8594
L47.6094 51.8594
L27.7812 32.625
L49.6094 0
L38.7656 0
L21.625 26.5156
L15.4375 20.5625
L15.4375 0
z
" id="ArialMT-6b"/>
      <path d="
M30.5625 29.8906
L30.5625 21.9219
Q26.8125 21.8281 24.4375 19.875
Q22.0781 17.9219 21.2969 14.5781
Q20.5156 11.2344 20.4531 3.07812
Q20.4062 -5.07812 20.1719 -7.67188
Q19.7344 -11.8125 18.5312 -14.2812
Q17.3281 -16.75 15.5625 -18.2344
Q13.8125 -19.7344 11.0781 -20.5156
Q9.23438 -21.0469 5.03125 -21.0469
L2.29688 -21.0469
L2.29688 -13.375
L3.8125 -13.375
Q8.89062 -13.375 10.5469 -11.5469
Q12.2031 -9.71875 12.2031 -3.32812
Q12.2031 8.89062 12.6406 12.1562
Q13.4219 17.5781 15.7656 20.8281
Q18.1094 24.0781 22.4062 25.875
Q16.7969 28.5625 14.5 32.9844
Q12.2031 37.4062 12.2031 47.9062
Q12.2031 57.4219 11.9688 59.2812
Q11.625 62.5469 10.0312 63.8438
Q8.45312 65.1406 3.8125 65.1406
L2.29688 65.1406
L2.29688 72.7969
L5.03125 72.7969
Q9.8125 72.7969 11.9688 72.0156
Q15.0938 70.9531 17.1406 68.4062
Q19.1875 65.875 19.7969 62.0156
Q20.4062 58.1562 20.4531 49.3594
Q20.5156 40.5781 21.2969 37.2344
Q22.0781 33.8906 24.4375 31.9375
Q26.8125 29.9844 30.5625 29.8906" id="ArialMT-7d"/>
      <path d="
M7.32812 0
L7.32812 71.5781
L16.7969 71.5781
L16.7969 8.45312
L52.0469 8.45312
L52.0469 0
z
" id="ArialMT-4c"/>
      <path d="
M2.78125 29.8906
Q6.54688 29.9844 8.90625 31.9062
Q11.2812 33.8438 12.0625 37.2031
Q12.8438 40.5781 12.8906 48.7344
Q12.9375 56.8906 13.1875 59.4688
Q13.625 63.5781 14.8125 66.0625
Q16.0156 68.5625 17.7656 70.0469
Q19.5312 71.5312 22.2656 72.3125
Q24.125 72.7969 28.3281 72.7969
L31.0625 72.7969
L31.0625 65.1406
L29.5469 65.1406
Q24.4688 65.1406 22.7969 63.2969
Q21.1406 61.4688 21.1406 55.125
Q21.1406 42.3281 20.6094 38.9688
Q19.7344 33.7344 17.6094 30.9062
Q15.4844 28.0781 10.9375 25.875
Q16.3125 23.6406 18.7188 19.0156
Q21.1406 14.4062 21.1406 3.90625
Q21.1406 -5.60938 21.3438 -7.42188
Q21.7344 -10.75 23.3125 -12.0625
Q24.9062 -13.375 29.5469 -13.375
L31.0625 -13.375
L31.0625 -21.0469
L28.3281 -21.0469
Q23.5312 -21.0469 21.3906 -20.2656
Q18.2656 -19.1406 16.2031 -16.625
Q14.1562 -14.1094 13.5469 -10.25
Q12.9375 -6.39062 12.8906 2.39062
Q12.8438 11.1875 12.0625 14.5469
Q11.2812 17.9219 8.90625 19.875
Q6.54688 21.8281 2.78125 21.9219
z
" id="ArialMT-7b"/>
     </defs>
     <g transform="translate(12.6506102362 62.728125)rotate(-90.0)scale(0.12 -0.12)">
      <use xlink:href="#ArialMT-41"/>
      <use x="66.69921875" xlink:href="#ArialMT-4c"/>
      <use x="122.314453125" xlink:href="#ArialMT-4c"/>
      <use x="177.9296875" xlink:href="#ArialMT-7b"/>
      <use x="211.328125" xlink:href="#ArialMT-73"/>
      <use x="261.328125" xlink:href="#ArialMT-70"/>
      <use x="316.943359375" xlink:href="#ArialMT-69"/>
      <use x="339.16015625" xlink:href="#ArialMT-6b"/>
      <use x="389.16015625" xlink:href="#ArialMT-65"/>
      <use x="444.775390625" xlink:href="#ArialMT-7d"/>
     </g>
    </g>
   </g>
   <g id="patch_3">
    <path d="
M30.1181 7.2
L216.85 7.2" style="fill:none;stroke:#000000;"/>
   </g>
   <g id="patch_4">
    <path d="
M216.85 61.2
L216.85 7.2" style="fill:none;stroke:#000000;"/>
   </g>
   <g id="patch_5">
    <path d="
M30.1181 61.2
L216.85 61.2" style="fill:none;stroke:#000000;"/>
   </g>
   <g id="patch_6">
    <path d="
M30.1181 61.2
L30.1181 7.2" style="fill:none;stroke:#000000;"/>
   </g>
  </g>
  <g id="text_17">
   <!-- B -->
   <defs>
    <path d="
M71.4844 22.2656
Q71.4844 17 69.3594 12.8438
Q67.2344 8.6875 63.5312 5.95312
Q59.2344 2.73438 54.0781 1.35938
Q48.9219 0 41.0156 0
L9.28125 0
L9.28125 72.7031
L37.5 72.7031
Q46.2969 72.7031 50.3594 72.1094
Q54.4375 71.5312 58.4531 69.5312
Q62.5938 67.4375 64.625 63.8906
Q66.6562 60.3594 66.6562 55.8125
Q66.6562 50.5312 63.8594 46.5
Q61.0781 42.4844 56 40.2344
L56 39.8438
Q63.1406 38.4219 67.3125 33.9844
Q71.4844 29.5469 71.4844 22.2656
M47.4688 52.1562
Q47.4688 53.9531 46.5625 55.75
Q45.6562 57.5625 43.3594 58.4531
Q41.3125 59.2344 38.25 59.2969
Q35.2031 59.375 29.6875 59.375
L27.9375 59.375
L27.9375 44
L30.8594 44
Q35.2969 44 38.4219 44.1406
Q41.5469 44.2812 43.3594 45.125
Q45.9062 46.2344 46.6875 48.0156
Q47.4688 49.8125 47.4688 52.1562
M52.0469 22.5625
Q52.0469 26.0312 50.7031 27.9062
Q49.3594 29.7812 46.1406 30.7188
Q43.9531 31.3438 40.0938 31.3906
Q36.2344 31.4531 32.0312 31.4531
L27.9375 31.4531
L27.9375 13.3281
L29.2969 13.3281
Q37.2031 13.3281 40.625 13.375
Q44.0469 13.4219 46.9219 14.6562
Q49.8594 15.875 50.9531 17.8906
Q52.0469 19.9219 52.0469 22.5625" id="Verdana-Bold-42"/>
   </defs>
   <g transform="translate(12.0472440945 5.76)scale(0.12 -0.12)">
    <use xlink:href="#Verdana-Bold-42"/>
   </g>
  </g>
 </g>
 <defs>
  <clipPath id="p63eada464f">
   <rect height="54.0" width="186.732283465" x="30.1181102362" y="7.2"/>
  </clipPath>
 </defs>
</svg>
