<?xml version="1.0" encoding="utf-8" standalone="no"?>
<!DOCTYPE svg PUBLIC "-//W3C//DTD SVG 1.1//EN"
  "http://www.w3.org/Graphics/SVG/1.1/DTD/svg11.dtd">
<!-- Created with matplotlib (http://matplotlib.org/) -->
<svg height="108pt" version="1.1" viewBox="0 0 240 108" width="240pt" xmlns="http://www.w3.org/2000/svg" xmlns:xlink="http://www.w3.org/1999/xlink">
 <defs>
  <style type="text/css">
*{stroke-linecap:butt;stroke-linejoin:round;}
  </style>
 </defs>
 <g id="figure_1">
  <g id="patch_1">
   <path d="
M0 108
L240.945 108
L240.945 0
L0 0
z
" style="fill:#ffffff;"/>
  </g>
  <g id="axes_1">
   <g id="patch_2">
    <path d="
M60.2362 102.6
L216.85 102.6
L216.85 10.8
L60.2362 10.8
z
" style="fill:#ffffff;"/>
   </g>
   <g id="line2d_1">
    <path clip-path="url(#p5975d8b975)" d="
M60.2675 88.2395
L61.8023 88.8915
L63.5251 89.3773
L65.4358 89.6792
L67.5344 89.7819
L69.8523 89.6705
L72.4208 89.3224
L75.2712 88.7092
L78.4034 87.8051
L81.755 86.6056
L85.2005 85.1376
L88.552 83.4689
L91.5904 81.711
L94.2528 79.9168
L96.5081 78.1352
L98.4187 76.3508
L100.048 74.5329
L101.457 72.6263
L102.647 70.6471
L103.681 68.5027
L104.589 66.1032
L105.372 63.4135
L106.062 60.2669
L106.688 56.3446
L107.252 51.3385
L107.784 44.4453
L108.348 33.8596
L109.288 15.7628
L109.632 13.1175
L109.852 12.744
L109.977 12.926
L110.196 13.8377
L110.541 16.5035
L111.104 23.0372
L113.986 59.7625
L114.895 67.4868
L115.74 72.911
L116.555 76.7948
L117.369 79.6751
L118.215 81.8981
L119.123 83.6782
L120.094 85.1056
L121.19 86.3181
L122.412 87.3299
L123.759 88.1572
L125.294 88.8342
L126.985 89.3343
L128.865 89.6551
L130.932 89.7806
L133.218 89.6954
L135.756 89.3766
L138.575 88.7953
L141.676 87.9261
L144.996 86.7647
L148.441 85.325
L151.793 83.6871
L154.862 81.9452
L157.556 80.1677
L159.843 78.4034
L161.816 76.6063
L163.476 74.8019
L164.917 72.9083
L166.139 70.9384
L167.204 68.7975
L168.143 66.3905
L168.958 63.6695
L169.678 60.4481
L170.305 56.597
L170.868 51.7004
L171.401 44.9758
L171.965 34.5993
L172.967 15.4445
L173.28 13.1296
L173.5 12.7429
L173.625 12.9183
L173.844 13.82
L174.189 16.4739
L174.721 22.5865
L177.759 60.9236
L178.668 68.3701
L179.514 73.5698
L180.328 77.2836
L181.174 80.129
L182.051 82.304
L182.959 83.9822
L183.961 85.3733
L185.058 86.5196
L186.279 87.4805
L187.658 88.2834
L189.192 88.922
L190.915 89.3962
L192.826 89.6879
L194.924 89.7817
L197.274 89.6593
L199.873 89.2957
L202.755 88.6629
L205.919 87.7357
L209.302 86.5094
L212.747 85.0243
L216.067 83.3539
L216.85 82.9212
L216.85 82.9212" style="fill:none;stroke:#0000ff;stroke-linecap:square;"/>
   </g>
   <g id="line2d_2">
    <path clip-path="url(#p5975d8b975)" d="
M60.2675 75.9588
L61.0819 79.0648
L61.9276 81.4554
L62.836 83.3606
L63.807 84.8804
L64.872 86.1334
L66.0623 87.1867
L67.3778 88.0558
L68.8813 88.7778
L70.5414 89.3247
L72.3894 89.6952
L74.4254 89.8732
L76.6807 89.8433
L79.1865 89.5828
L81.9743 89.0633
L85.0439 88.2598
L88.3641 87.1576
L91.8409 85.7677
L95.2551 84.1661
L98.45 82.4244
L101.269 80.6372
L103.681 78.8496
L105.717 77.0717
L107.471 75.2467
L108.943 73.3995
L110.227 71.4285
L111.324 69.3358
L112.263 67.0701
L113.109 64.4347
L113.83 61.463
L114.487 57.7702
L115.082 53.0474
L115.615 46.9115
L116.147 37.946
L117.432 14.1562
L117.714 12.7119
L117.87 12.6083
L117.995 12.8395
L118.215 13.8276
L118.559 16.5898
L119.123 23.2274
L121.911 59.0568
L122.851 67.1949
L123.696 72.7031
L124.511 76.6506
L125.325 79.5782
L126.171 81.8371
L127.079 83.6449
L128.05 85.0942
L129.115 86.2948
L130.305 87.308
L131.652 88.1628
L133.156 88.8535
L134.847 89.3818
L136.727 89.7298
L138.794 89.8816
L141.08 89.8225
L143.618 89.53
L146.437 88.976
L149.538 88.1355
L152.889 86.9936
L156.366 85.5733
L159.78 83.9396
L162.912 82.1984
L165.669 80.4171
L168.049 78.6165
L170.054 76.8256
L171.746 75.024
L173.186 73.1733
L174.439 71.2034
L175.504 69.1218
L176.444 66.7969
L177.258 64.1904
L177.979 61.136
L178.637 57.315
L179.2 52.6991
L179.733 46.4033
L180.265 37.2195
L181.487 14.3825
L181.769 12.7762
L181.925 12.5939
L181.957 12.6123
L182.113 12.9538
L182.364 14.2632
L182.74 17.5974
L183.398 25.8518
L185.59 54.8757
L186.561 64.2488
L187.438 70.6811
L188.284 75.2924
L189.098 78.5706
L189.944 81.0892
L190.821 83.0296
L191.761 84.5879
L192.794 85.8798
L193.953 86.9716
L195.269 87.8966
L196.71 88.6379
L198.339 89.2233
L200.155 89.6339
L202.16 89.8533
L204.384 89.8665
L206.827 89.6547
L209.552 89.1903
L212.559 88.4477
L215.848 87.4015
L216.85 87.0385
L216.85 87.0385" style="fill:none;stroke:#008000;stroke-linecap:square;"/>
   </g>
   <g id="line2d_3">
    <path clip-path="url(#p5975d8b975)" d="
M60.2675 88.2395
L61.8023 88.8915
L63.5251 89.3773
L65.4358 89.6792
L67.5344 89.7819
L69.8523 89.6705
L72.4208 89.3224
L75.2712 88.7092
L78.4034 87.8051
L81.755 86.6056
L85.2005 85.1376
L88.552 83.4689
L91.5904 81.711
L94.2528 79.9168
L96.5081 78.1352
L98.4187 76.3508
L100.048 74.5329
L101.457 72.6263
L102.647 70.6471
L103.681 68.5027
L104.589 66.1032
L105.372 63.4135
L106.062 60.2669
L106.688 56.3446
L107.252 51.3385
L107.784 44.4453
L108.348 33.8596
L109.288 15.7628
L109.632 13.1175
L109.852 12.744
L109.977 12.926
L110.196 13.8377
L110.541 16.5035
L111.104 23.0372
L113.986 59.7625
L114.895 67.4868
L115.74 72.911
L116.555 76.7948
L117.369 79.6751
L118.215 81.8981
L119.123 83.6782
L120.094 85.1056
L121.19 86.3181
L122.412 87.3299
L123.759 88.1572
L125.294 88.8342
L126.985 89.3343
L128.865 89.6551
L130.932 89.7806
L133.218 89.6954
L135.756 89.3766
L138.575 88.7953
L141.676 87.9261
L144.996 86.7647
L148.441 85.325
L151.793 83.6871
L154.862 81.9452
L157.556 80.1677
L159.843 78.4034
L161.816 76.6063
L163.476 74.8019
L164.917 72.9083
L166.139 70.9384
L167.204 68.7975
L168.143 66.3905
L168.958 63.6695
L169.678 60.4481
L170.305 56.597
L170.868 51.7004
L171.401 44.9758
L171.965 34.5993
L172.967 15.4445
L173.28 13.1296
L173.5 12.7429
L173.625 12.9183
L173.844 13.82
L174.189 16.4739
L174.721 22.5865
L177.759 60.9236
L178.668 68.3701
L179.514 73.5698
L180.328 77.2836
L181.174 80.129
L182.051 82.304
L182.959 83.9822
L183.961 85.3733
L185.058 86.5196
L186.279 87.4805
L187.658 88.2834
L189.192 88.922
L190.915 89.3962
L192.826 89.6879
L194.924 89.7817
L197.274 89.6593
L199.873 89.2957
L202.755 88.6629
L205.919 87.7357
L209.302 86.5094
L212.747 85.0243
L216.067 83.3539
L216.85 82.9212
L216.85 82.9212" style="fill:none;stroke:#ff0000;stroke-linecap:square;"/>
   </g>
   <g id="line2d_4">
    <path clip-path="url(#p5975d8b975)" d="
M60.2675 86.905
L61.5831 87.8163
L63.0552 88.5597
L64.6841 89.1291
L66.5008 89.5229
L68.5054 89.7263
L70.7294 89.7238
L73.1725 89.4955
L75.8663 89.0179
L78.9046 88.2482
L82.2248 87.1754
L85.6703 85.8289
L88.9592 84.3064
L92.3108 82.5119
L95.0672 80.7903
L97.6043 78.9316
L99.703 77.1265
L101.426 75.3465
L102.961 73.4521
L104.213 71.5507
L105.341 69.438
L106.281 67.2074
L107.126 64.6279
L107.878 61.5808
L108.536 57.9428
L109.131 53.3017
L109.664 47.2817
L110.196 38.4605
L111.543 13.7272
L111.825 12.4872
L111.95 12.4488
L112.107 12.7867
L112.357 14.0927
L112.733 17.4258
L113.36 25.2509
L115.615 55.0553
L116.586 64.3443
L117.463 70.7127
L118.309 75.2758
L119.123 78.5227
L119.969 81.0182
L120.846 82.9414
L121.786 84.488
L122.819 85.7719
L123.978 86.8591
L125.262 87.7634
L126.703 88.5084
L128.301 89.0859
L130.086 89.4933
L132.059 89.7147
L134.252 89.7345
L136.664 89.5319
L139.326 89.0831
L142.333 88.3447
L145.654 87.2952
L149.099 85.9721
L152.357 84.4895
L155.74 82.706
L158.559 80.9763
L161.096 79.1482
L163.226 77.3545
L164.948 75.6189
L166.546 73.6972
L167.799 71.8529
L168.958 69.7494
L169.929 67.5225
L170.806 64.9312
L171.558 61.9876
L172.215 58.5037
L172.81 54.1017
L173.343 48.4435
L173.875 40.1492
L174.659 23.347
L175.16 15.117
L175.473 12.807
L175.692 12.4331
L175.817 12.6174
L176.037 13.5359
L176.381 16.2179
L176.945 22.7845
L179.827 59.6091
L180.766 67.5713
L181.612 72.9443
L182.427 76.7926
L183.272 79.7424
L184.118 81.9244
L185.026 83.6753
L186.029 85.1236
L187.125 86.3152
L188.347 87.3154
L189.725 88.1533
L191.26 88.8221
L192.951 89.315
L194.83 89.6297
L196.929 89.7514
L199.247 89.6579
L201.815 89.3254
L204.666 88.7244
L207.829 87.8267
L211.244 86.6248
L214.626 85.201
L216.85 84.1276
L216.85 84.1276" style="fill:none;stroke:#00bfbf;stroke-linecap:square;"/>
   </g>
   <g id="line2d_5">
    <path clip-path="url(#p5975d8b975)" d="
M60.2671 86.9273
L61.583 87.8261
L63.0549 88.559
L64.6837 89.12
L66.5006 89.5065
L68.505 89.7036
L70.729 89.6958
L73.2031 89.4585
L75.9289 88.9673
L79.2178 88.1164
L82.9764 86.8588
L86.328 85.4975
L89.5855 83.9403
L92.8117 82.1646
L95.4113 80.4942
L97.8548 78.6652
L99.8592 76.9012
L101.551 75.1166
L103.054 73.2195
L104.276 71.3202
L105.372 69.2207
L106.312 66.9339
L107.158 64.2749
L107.878 61.2628
L108.504 57.7172
L109.068 53.282
L109.6 47.2648
L110.133 38.4554
L111.48 13.8252
L111.762 12.6016
L111.887 12.5697
L112.044 12.9148
L112.294 14.23
L112.702 17.9077
L113.359 26.2642
L115.458 54.0981
L116.429 63.5926
L117.306 70.136
L118.152 74.8399
L118.997 78.3013
L119.843 80.847
L120.72 82.8067
L121.66 84.3801
L122.693 85.684
L123.852 86.7867
L125.137 87.7031
L126.577 88.4577
L128.206 89.053
L129.992 89.4639
L131.965 89.6884
L134.158 89.7111
L136.569 89.5112
L139.263 89.0588
L142.239 88.3302
L145.559 87.284
L149.005 85.9641
L152.263 84.484
L155.646 82.7041
L158.84 80.7244
L161.346 78.8826
L163.413 77.1002
L165.136 75.318
L166.671 73.421
L168.049 71.3014
L169.145 69.1972
L170.053 66.99
L170.9 64.3484
L171.62 61.3607
L172.309 57.4333
L172.873 52.8807
L173.405 46.6789
L173.937 37.6136
L175.191 14.2451
L175.472 12.7133
L175.629 12.5686
L175.754 12.7709
L175.974 13.7161
L176.318 16.4283
L176.882 23.015
L179.733 59.4123
L180.672 67.4079
L181.518 72.8108
L182.301 76.5552
L183.147 79.5589
L183.93 81.6363
L184.838 83.4524
L185.809 84.9089
L186.906 86.1465
L188.127 87.1821
L189.474 88.0314
L190.977 88.7168
L192.637 89.2307
L194.517 89.5739
L196.584 89.7208
L198.871 89.6556
L201.408 89.355
L204.164 88.8035
L207.265 87.9564
L210.617 86.8134
L213.968 85.444
L216.85 84.0706
L216.85 84.0706" style="fill:none;stroke:#bf00bf;stroke-linecap:square;"/>
   </g>
   <g id="line2d_6">
    <path clip-path="url(#p5975d8b975)" d="
M60.2649 86.6391
L60.7906 87.0275
L62.9534 88.1825
L65.3312 88.9385
L67.8045 89.3037
L70.5288 89.3362
L72.4406 89.1936
L74.3883 88.9141
L80.4343 87.3795
L81.8084 86.9205
L83.5051 86.3021
L84.5327 85.91
L86.325 85.1696
L87.508 84.6412
L89.1091 83.8801
L90.7102 83.0622
L91.5466 82.6001
L92.9327 81.804
L93.7452 81.305
L94.9998 80.4795
L95.6809 79.9974
L96.816 79.1607
L97.4971 78.6185
L98.6561 77.6543
L99.6359 76.7719
L100.317 76.0916
L101.165 75.1898
L101.954 74.2781
L102.575 73.4895
L103.268 72.5278
L103.925 71.4966
L104.523 70.4673
L105.204 69.1059
L105.778 67.8165
L106.65 65.3789
L107.116 63.7668
L107.594 61.8445
L108.908 53.5137
L109.936 39.9989
L110.378 31.2017
L111.286 16.0979
L111.597 14.6415
L111.728 14.5833
L111.752 14.6102
L111.883 14.8772
L112.254 16.9796
L112.564 19.9031
L112.971 24.7582
L113.544 32.4086
L114.01 38.8746
L116.113 62.3723
L116.484 65.4464
L117.894 74.1711
L119.208 79.2157
L120.618 82.5732
L122.183 84.9194
L123.999 86.6635
L125.971 87.8742
L128.444 88.7928
L131.013 89.2618
L133.248 89.3462
L135.721 89.2374
L139.604 88.6196
L147.06 86.3615
L148.088 85.9694
L149.629 85.3434
L150.502 84.9663
L152.031 84.2616
L153.596 83.4868
L155.174 82.6526
L156.01 82.1736
L157.3 81.4019
L158.113 80.8804
L159.272 80.085
L160.3 79.3283
L161.375 78.4916
L162.056 77.9225
L163 77.0946
L163.848 76.2817
L164.47 75.6344
L165.354 74.6526
L165.975 73.8929
L166.668 72.9792
L167.349 71.9524
L168.006 70.86
L168.64 69.6856
L169.261 68.3417
L169.799 67.0148
L171.639 60.1761
L172.057 57.8079
L173.18 47.3391
L173.527 42.1839
L174.554 21.6878
L175.056 15.6458
L175.343 14.6015
L175.439 14.5833
L175.462 14.6102
L175.594 14.8772
L175.964 16.9796
L176.275 19.9031
L176.681 24.7582
L177.255 32.4086
L177.721 38.8746
L179.824 62.3723
L180.194 65.4464
L181.604 74.1711
L182.918 79.2157
L184.328 82.5732
L185.894 84.9194
L187.71 86.6635
L189.681 87.8742
L192.155 88.7928
L194.724 89.2618
L196.958 89.3462
L199.432 89.2374
L203.315 88.6196
L210.771 86.3615
L211.798 85.9694
L213.34 85.3434
L214.212 84.9663
L215.742 84.2616
L216.841 83.7244
L216.841 83.7244" style="fill:none;stroke:#bfbf00;stroke-linecap:square;"/>
   </g>
   <g id="matplotlib.axis_1">
    <g id="xtick_1">
     <g id="line2d_7">
      <defs>
       <path d="
M0 0
L0 -4" id="m93b0483c22" style="stroke:#000000;stroke-width:0.5;"/>
      </defs>
      <g>
       <use style="stroke:#000000;stroke-width:0.5;" x="60.2362204724" xlink:href="#m93b0483c22" y="102.6"/>
      </g>
     </g>
     <g id="line2d_8">
      <defs>
       <path d="
M0 0
L0 4" id="m741efc42ff" style="stroke:#000000;stroke-width:0.5;"/>
      </defs>
      <g>
       <use style="stroke:#000000;stroke-width:0.5;" x="60.2362204724" xlink:href="#m741efc42ff" y="10.8"/>
      </g>
     </g>
    </g>
    <g id="xtick_2">
     <g id="line2d_9">
      <g>
       <use style="stroke:#000000;stroke-width:0.5;" x="91.5590551181" xlink:href="#m93b0483c22" y="102.6"/>
      </g>
     </g>
     <g id="line2d_10">
      <g>
       <use style="stroke:#000000;stroke-width:0.5;" x="91.5590551181" xlink:href="#m741efc42ff" y="10.8"/>
      </g>
     </g>
    </g>
    <g id="xtick_3">
     <g id="line2d_11">
      <g>
       <use style="stroke:#000000;stroke-width:0.5;" x="122.881889764" xlink:href="#m93b0483c22" y="102.6"/>
      </g>
     </g>
     <g id="line2d_12">
      <g>
       <use style="stroke:#000000;stroke-width:0.5;" x="122.881889764" xlink:href="#m741efc42ff" y="10.8"/>
      </g>
     </g>
    </g>
    <g id="xtick_4">
     <g id="line2d_13">
      <g>
       <use style="stroke:#000000;stroke-width:0.5;" x="154.204724409" xlink:href="#m93b0483c22" y="102.6"/>
      </g>
     </g>
     <g id="line2d_14">
      <g>
       <use style="stroke:#000000;stroke-width:0.5;" x="154.204724409" xlink:href="#m741efc42ff" y="10.8"/>
      </g>
     </g>
    </g>
    <g id="xtick_5">
     <g id="line2d_15">
      <g>
       <use style="stroke:#000000;stroke-width:0.5;" x="185.527559055" xlink:href="#m93b0483c22" y="102.6"/>
      </g>
     </g>
     <g id="line2d_16">
      <g>
       <use style="stroke:#000000;stroke-width:0.5;" x="185.527559055" xlink:href="#m741efc42ff" y="10.8"/>
      </g>
     </g>
    </g>
    <g id="xtick_6">
     <g id="line2d_17">
      <g>
       <use style="stroke:#000000;stroke-width:0.5;" x="216.850393701" xlink:href="#m93b0483c22" y="102.6"/>
      </g>
     </g>
     <g id="line2d_18">
      <g>
       <use style="stroke:#000000;stroke-width:0.5;" x="216.850393701" xlink:href="#m741efc42ff" y="10.8"/>
      </g>
     </g>
    </g>
   </g>
   <g id="matplotlib.axis_2">
    <g id="ytick_1">
     <g id="line2d_19">
      <defs>
       <path d="
M0 0
L4 0" id="m728421d6d4" style="stroke:#000000;stroke-width:0.5;"/>
      </defs>
      <g>
       <use style="stroke:#000000;stroke-width:0.5;" x="60.2362204724" xlink:href="#m728421d6d4" y="102.6"/>
      </g>
     </g>
     <g id="line2d_20">
      <defs>
       <path d="
M0 0
L-4 0" id="mcb0005524f" style="stroke:#000000;stroke-width:0.5;"/>
      </defs>
      <g>
       <use style="stroke:#000000;stroke-width:0.5;" x="216.850393701" xlink:href="#mcb0005524f" y="102.6"/>
      </g>
     </g>
     <g id="text_1">
      <!-- −0.05 -->
      <defs>
       <path d="
M4.15625 35.2969
Q4.15625 48 6.76562 55.7344
Q9.375 63.4844 14.5156 67.6719
Q19.6719 71.875 27.4844 71.875
Q33.25 71.875 37.5938 69.5469
Q41.9375 67.2344 44.7656 62.8594
Q47.6094 58.5 49.2188 52.2188
Q50.8281 45.9531 50.8281 35.2969
Q50.8281 22.7031 48.2344 14.9688
Q45.6562 7.23438 40.5 3
Q35.3594 -1.21875 27.4844 -1.21875
Q17.1406 -1.21875 11.2344 6.20312
Q4.15625 15.1406 4.15625 35.2969
M13.1875 35.2969
Q13.1875 17.6719 17.3125 11.8281
Q21.4375 6 27.4844 6
Q33.5469 6 37.6719 11.8594
Q41.7969 17.7188 41.7969 35.2969
Q41.7969 52.9844 37.6719 58.7812
Q33.5469 64.5938 27.3906 64.5938
Q21.3438 64.5938 17.7188 59.4688
Q13.1875 52.9375 13.1875 35.2969" id="ArialMT-30"/>
       <path d="
M52.8281 31.2031
L5.5625 31.2031
L5.5625 39.4062
L52.8281 39.4062
z
" id="ArialMT-2212"/>
       <path d="
M9.07812 0
L9.07812 10.0156
L19.0938 10.0156
L19.0938 0
z
" id="ArialMT-2e"/>
       <path d="
M4.15625 18.75
L13.375 19.5312
Q14.4062 12.7969 18.1406 9.39062
Q21.875 6 27.1562 6
Q33.5 6 37.8906 10.7812
Q42.2812 15.5781 42.2812 23.4844
Q42.2812 31 38.0625 35.3438
Q33.8438 39.7031 27 39.7031
Q22.75 39.7031 19.3281 37.7656
Q15.9219 35.8438 13.9688 32.7656
L5.71875 33.8438
L12.6406 70.6094
L48.25 70.6094
L48.25 62.2031
L19.6719 62.2031
L15.8281 42.9688
Q22.2656 47.4688 29.3438 47.4688
Q38.7188 47.4688 45.1562 40.9688
Q51.6094 34.4688 51.6094 24.2656
Q51.6094 14.5469 45.9531 7.46875
Q39.0625 -1.21875 27.1562 -1.21875
Q17.3906 -1.21875 11.2031 4.25
Q5.03125 9.71875 4.15625 18.75" id="ArialMT-35"/>
      </defs>
      <g transform="translate(27.0218454724 105.7021875)scale(0.12 -0.12)">
       <use xlink:href="#ArialMT-2212"/>
       <use x="58.3984375" xlink:href="#ArialMT-30"/>
       <use x="114.013671875" xlink:href="#ArialMT-2e"/>
       <use x="141.796875" xlink:href="#ArialMT-30"/>
       <use x="197.412109375" xlink:href="#ArialMT-35"/>
      </g>
     </g>
    </g>
    <g id="ytick_2">
     <g id="line2d_21">
      <g>
       <use style="stroke:#000000;stroke-width:0.5;" x="60.2362204724" xlink:href="#m728421d6d4" y="89.4857142857"/>
      </g>
     </g>
     <g id="line2d_22">
      <g>
       <use style="stroke:#000000;stroke-width:0.5;" x="216.850393701" xlink:href="#mcb0005524f" y="89.4857142857"/>
      </g>
     </g>
     <g id="text_2">
      <!-- −0.04 -->
      <defs>
       <path d="
M32.3281 0
L32.3281 17.1406
L1.26562 17.1406
L1.26562 25.2031
L33.9375 71.5781
L41.1094 71.5781
L41.1094 25.2031
L50.7812 25.2031
L50.7812 17.1406
L41.1094 17.1406
L41.1094 0
z

M32.3281 25.2031
L32.3281 57.4688
L9.90625 25.2031
z
" id="ArialMT-34"/>
      </defs>
      <g transform="translate(27.1212204724 92.5879017857)scale(0.12 -0.12)">
       <use xlink:href="#ArialMT-2212"/>
       <use x="58.3984375" xlink:href="#ArialMT-30"/>
       <use x="114.013671875" xlink:href="#ArialMT-2e"/>
       <use x="141.796875" xlink:href="#ArialMT-30"/>
       <use x="197.412109375" xlink:href="#ArialMT-34"/>
      </g>
     </g>
    </g>
    <g id="ytick_3">
     <g id="line2d_23">
      <g>
       <use style="stroke:#000000;stroke-width:0.5;" x="60.2362204724" xlink:href="#m728421d6d4" y="76.3714285714"/>
      </g>
     </g>
     <g id="line2d_24">
      <g>
       <use style="stroke:#000000;stroke-width:0.5;" x="216.850393701" xlink:href="#mcb0005524f" y="76.3714285714"/>
      </g>
     </g>
     <g id="text_3">
      <!-- −0.03 -->
      <defs>
       <path d="
M4.20312 18.8906
L12.9844 20.0625
Q14.5 12.5938 18.1406 9.29688
Q21.7812 6 27 6
Q33.2031 6 37.4688 10.2969
Q41.75 14.5938 41.75 20.9531
Q41.75 27 37.7969 30.9219
Q33.8438 34.8594 27.7344 34.8594
Q25.25 34.8594 21.5312 33.8906
L22.5156 41.6094
Q23.3906 41.5 23.9219 41.5
Q29.5469 41.5 34.0312 44.4219
Q38.5312 47.3594 38.5312 53.4688
Q38.5312 58.2969 35.25 61.4688
Q31.9844 64.6562 26.8125 64.6562
Q21.6875 64.6562 18.2656 61.4219
Q14.8438 58.2031 13.875 51.7656
L5.07812 53.3281
Q6.6875 62.1562 12.3906 67.0156
Q18.1094 71.875 26.6094 71.875
Q32.4688 71.875 37.3906 69.3594
Q42.3281 66.8438 44.9375 62.5
Q47.5625 58.1562 47.5625 53.2656
Q47.5625 48.6406 45.0625 44.8281
Q42.5781 41.0156 37.7031 38.7656
Q44.0469 37.3125 47.5625 32.6875
Q51.0781 28.0781 51.0781 21.1406
Q51.0781 11.7656 44.2344 5.25
Q37.4062 -1.26562 26.9531 -1.26562
Q17.5312 -1.26562 11.2969 4.34375
Q5.07812 9.96875 4.20312 18.8906" id="ArialMT-33"/>
      </defs>
      <g transform="translate(27.0855954724 79.4736160714)scale(0.12 -0.12)">
       <use xlink:href="#ArialMT-2212"/>
       <use x="58.3984375" xlink:href="#ArialMT-30"/>
       <use x="114.013671875" xlink:href="#ArialMT-2e"/>
       <use x="141.796875" xlink:href="#ArialMT-30"/>
       <use x="197.412109375" xlink:href="#ArialMT-33"/>
      </g>
     </g>
    </g>
    <g id="ytick_4">
     <g id="line2d_25">
      <g>
       <use style="stroke:#000000;stroke-width:0.5;" x="60.2362204724" xlink:href="#m728421d6d4" y="63.2571428571"/>
      </g>
     </g>
     <g id="line2d_26">
      <g>
       <use style="stroke:#000000;stroke-width:0.5;" x="216.850393701" xlink:href="#mcb0005524f" y="63.2571428571"/>
      </g>
     </g>
     <g id="text_4">
      <!-- −0.02 -->
      <defs>
       <path d="
M50.3438 8.45312
L50.3438 0
L3.03125 0
Q2.9375 3.17188 4.04688 6.10938
Q5.85938 10.9375 9.82812 15.625
Q13.8125 20.3125 21.3438 26.4688
Q33.0156 36.0312 37.1094 41.625
Q41.2188 47.2188 41.2188 52.2031
Q41.2188 57.4219 37.4688 61
Q33.7344 64.5938 27.7344 64.5938
Q21.3906 64.5938 17.5781 60.7812
Q13.7656 56.9844 13.7188 50.25
L4.6875 51.1719
Q5.60938 61.2812 11.6562 66.5781
Q17.7188 71.875 27.9375 71.875
Q38.2344 71.875 44.2344 66.1562
Q50.25 60.4531 50.25 52
Q50.25 47.7031 48.4844 43.5469
Q46.7344 39.4062 42.6562 34.8125
Q38.5781 30.2188 29.1094 22.2188
Q21.1875 15.5781 18.9375 13.2031
Q16.7031 10.8438 15.2344 8.45312
z
" id="ArialMT-32"/>
      </defs>
      <g transform="translate(27.1737204724 66.3593303571)scale(0.12 -0.12)">
       <use xlink:href="#ArialMT-2212"/>
       <use x="58.3984375" xlink:href="#ArialMT-30"/>
       <use x="114.013671875" xlink:href="#ArialMT-2e"/>
       <use x="141.796875" xlink:href="#ArialMT-30"/>
       <use x="197.412109375" xlink:href="#ArialMT-32"/>
      </g>
     </g>
    </g>
    <g id="ytick_5">
     <g id="line2d_27">
      <g>
       <use style="stroke:#000000;stroke-width:0.5;" x="60.2362204724" xlink:href="#m728421d6d4" y="50.1428571429"/>
      </g>
     </g>
     <g id="line2d_28">
      <g>
       <use style="stroke:#000000;stroke-width:0.5;" x="216.850393701" xlink:href="#mcb0005524f" y="50.1428571429"/>
      </g>
     </g>
     <g id="text_5">
      <!-- −0.01 -->
      <defs>
       <path d="
M37.25 0
L28.4688 0
L28.4688 56
Q25.2969 52.9844 20.1406 49.9531
Q14.9844 46.9219 10.8906 45.4062
L10.8906 53.9062
Q18.2656 57.375 23.7812 62.2969
Q29.2969 67.2344 31.5938 71.875
L37.25 71.875
z
" id="ArialMT-31"/>
      </defs>
      <g transform="translate(28.7449704724 53.2450446429)scale(0.12 -0.12)">
       <use xlink:href="#ArialMT-2212"/>
       <use x="58.3984375" xlink:href="#ArialMT-30"/>
       <use x="114.013671875" xlink:href="#ArialMT-2e"/>
       <use x="141.796875" xlink:href="#ArialMT-30"/>
       <use x="197.412109375" xlink:href="#ArialMT-31"/>
      </g>
     </g>
    </g>
    <g id="ytick_6">
     <g id="line2d_29">
      <g>
       <use style="stroke:#000000;stroke-width:0.5;" x="60.2362204724" xlink:href="#m728421d6d4" y="37.0285714286"/>
      </g>
     </g>
     <g id="line2d_30">
      <g>
       <use style="stroke:#000000;stroke-width:0.5;" x="216.850393701" xlink:href="#mcb0005524f" y="37.0285714286"/>
      </g>
     </g>
     <g id="text_6">
      <!-- 0.00 -->
      <g transform="translate(33.9555954724 40.1307589286)scale(0.12 -0.12)">
       <use xlink:href="#ArialMT-30"/>
       <use x="55.615234375" xlink:href="#ArialMT-2e"/>
       <use x="83.3984375" xlink:href="#ArialMT-30"/>
       <use x="139.013671875" xlink:href="#ArialMT-30"/>
      </g>
     </g>
    </g>
    <g id="ytick_7">
     <g id="line2d_31">
      <g>
       <use style="stroke:#000000;stroke-width:0.5;" x="60.2362204724" xlink:href="#m728421d6d4" y="23.9142857143"/>
      </g>
     </g>
     <g id="line2d_32">
      <g>
       <use style="stroke:#000000;stroke-width:0.5;" x="216.850393701" xlink:href="#mcb0005524f" y="23.9142857143"/>
      </g>
     </g>
     <g id="text_7">
      <!-- 0.01 -->
      <g transform="translate(35.5849704724 27.0164732143)scale(0.12 -0.12)">
       <use xlink:href="#ArialMT-30"/>
       <use x="55.615234375" xlink:href="#ArialMT-2e"/>
       <use x="83.3984375" xlink:href="#ArialMT-30"/>
       <use x="139.013671875" xlink:href="#ArialMT-31"/>
      </g>
     </g>
    </g>
    <g id="ytick_8">
     <g id="line2d_33">
      <g>
       <use style="stroke:#000000;stroke-width:0.5;" x="60.2362204724" xlink:href="#m728421d6d4" y="10.8"/>
      </g>
     </g>
     <g id="line2d_34">
      <g>
       <use style="stroke:#000000;stroke-width:0.5;" x="216.850393701" xlink:href="#mcb0005524f" y="10.8"/>
      </g>
     </g>
     <g id="text_8">
      <!-- 0.02 -->
      <g transform="translate(34.0137204724 13.9021875)scale(0.12 -0.12)">
       <use xlink:href="#ArialMT-30"/>
       <use x="55.615234375" xlink:href="#ArialMT-2e"/>
       <use x="83.3984375" xlink:href="#ArialMT-30"/>
       <use x="139.013671875" xlink:href="#ArialMT-32"/>
      </g>
     </g>
    </g>
    <g id="text_9">
     <!-- Voltage (V) -->
     <defs>
      <path d="
M40.4375 6.39062
Q35.5469 2.25 31.0312 0.53125
Q26.5156 -1.17188 21.3438 -1.17188
Q12.7969 -1.17188 8.20312 3
Q3.60938 7.17188 3.60938 13.6719
Q3.60938 17.4844 5.34375 20.625
Q7.07812 23.7812 9.89062 25.6875
Q12.7031 27.5938 16.2188 28.5625
Q18.7969 29.25 24.0312 29.8906
Q34.6719 31.1562 39.7031 32.9062
Q39.75 34.7188 39.75 35.2031
Q39.75 40.5781 37.25 42.7812
Q33.8906 45.75 27.25 45.75
Q21.0469 45.75 18.0938 43.5781
Q15.1406 41.4062 13.7188 35.8906
L5.125 37.0625
Q6.29688 42.5781 8.98438 45.9688
Q11.6719 49.3594 16.75 51.1875
Q21.8281 53.0312 28.5156 53.0312
Q35.1562 53.0312 39.2969 51.4688
Q43.4531 49.9062 45.4062 47.5312
Q47.3594 45.1719 48.1406 41.5469
Q48.5781 39.3125 48.5781 33.4531
L48.5781 21.7344
Q48.5781 9.46875 49.1406 6.21875
Q49.7031 2.98438 51.375 0
L42.1875 0
Q40.8281 2.73438 40.4375 6.39062
M39.7031 26.0312
Q34.9062 24.0781 25.3438 22.7031
Q19.9219 21.9219 17.6719 20.9375
Q15.4375 19.9688 14.2031 18.0938
Q12.9844 16.2188 12.9844 13.9219
Q12.9844 10.4062 15.6406 8.0625
Q18.3125 5.71875 23.4375 5.71875
Q28.5156 5.71875 32.4688 7.9375
Q36.4219 10.1562 38.2812 14.0156
Q39.7031 17 39.7031 22.7969
z
" id="ArialMT-61"/>
      <path d="
M4.98438 -4.29688
L13.5312 -5.5625
Q14.0625 -9.51562 16.5 -11.3281
Q19.7812 -13.7656 25.4375 -13.7656
Q31.5469 -13.7656 34.8594 -11.3281
Q38.1875 -8.89062 39.3594 -4.5
Q40.0469 -1.8125 39.9844 6.78125
Q34.2344 0 25.6406 0
Q14.9375 0 9.07812 7.71875
Q3.21875 15.4375 3.21875 26.2188
Q3.21875 33.6406 5.90625 39.9062
Q8.59375 46.1875 13.6875 49.6094
Q18.7969 53.0312 25.6875 53.0312
Q34.8594 53.0312 40.8281 45.6094
L40.8281 51.8594
L48.9219 51.8594
L48.9219 7.03125
Q48.9219 -5.07812 46.4531 -10.125
Q44 -15.1875 38.6406 -18.1094
Q33.2969 -21.0469 25.4844 -21.0469
Q16.2188 -21.0469 10.5 -16.875
Q4.78125 -12.7031 4.98438 -4.29688
M12.25 26.8594
Q12.25 16.6562 16.2969 11.9688
Q20.3594 7.28125 26.4688 7.28125
Q32.5156 7.28125 36.6094 11.9375
Q40.7188 16.6094 40.7188 26.5625
Q40.7188 36.0781 36.5 40.9062
Q32.2812 45.75 26.3125 45.75
Q20.4531 45.75 16.3438 40.9844
Q12.25 36.2344 12.25 26.8594" id="ArialMT-67"/>
      <path d="
M42.0938 16.7031
L51.1719 15.5781
Q49.0312 7.625 43.2188 3.21875
Q37.4062 -1.17188 28.375 -1.17188
Q17 -1.17188 10.3281 5.82812
Q3.65625 12.8438 3.65625 25.4844
Q3.65625 38.5781 10.3906 45.7969
Q17.1406 53.0312 27.875 53.0312
Q38.2812 53.0312 44.875 45.9531
Q51.4688 38.875 51.4688 26.0312
Q51.4688 25.25 51.4219 23.6875
L12.75 23.6875
Q13.2344 15.1406 17.5781 10.5938
Q21.9219 6.0625 28.4219 6.0625
Q33.25 6.0625 36.6719 8.59375
Q40.0938 11.1406 42.0938 16.7031
M13.2344 30.9062
L42.1875 30.9062
Q41.6094 37.4531 38.875 40.7188
Q34.6719 45.7969 27.9844 45.7969
Q21.9219 45.7969 17.7969 41.75
Q13.6719 37.7031 13.2344 30.9062" id="ArialMT-65"/>
      <path d="
M25.7812 7.85938
L27.0469 0.09375
Q23.3438 -0.6875 20.4062 -0.6875
Q15.625 -0.6875 12.9844 0.828125
Q10.3594 2.34375 9.28125 4.8125
Q8.20312 7.28125 8.20312 15.1875
L8.20312 45.0156
L1.76562 45.0156
L1.76562 51.8594
L8.20312 51.8594
L8.20312 64.7031
L16.9375 69.9688
L16.9375 51.8594
L25.7812 51.8594
L25.7812 45.0156
L16.9375 45.0156
L16.9375 14.7031
Q16.9375 10.9375 17.4062 9.85938
Q17.875 8.79688 18.9219 8.15625
Q19.9688 7.51562 21.9219 7.51562
Q23.3906 7.51562 25.7812 7.85938" id="ArialMT-74"/>
      <path d="
M28.1719 0
L0.4375 71.5781
L10.6875 71.5781
L29.2969 19.5781
Q31.5469 13.3281 33.0625 7.85938
Q34.7188 13.7188 36.9219 19.5781
L56.25 71.5781
L65.9219 71.5781
L37.8906 0
z
" id="ArialMT-56"/>
      <path d="
M6.39062 0
L6.39062 71.5781
L15.1875 71.5781
L15.1875 0
z
" id="ArialMT-6c"/>
      <path d="
M3.32812 25.9219
Q3.32812 40.3281 11.3281 47.2656
Q18.0156 53.0312 27.6406 53.0312
Q38.3281 53.0312 45.1094 46.0156
Q51.9062 39.0156 51.9062 26.6562
Q51.9062 16.6562 48.9062 10.9062
Q45.9062 5.17188 40.1562 2
Q34.4219 -1.17188 27.6406 -1.17188
Q16.75 -1.17188 10.0312 5.8125
Q3.32812 12.7969 3.32812 25.9219
M12.3594 25.9219
Q12.3594 15.9688 16.7031 11.0156
Q21.0469 6.0625 27.6406 6.0625
Q34.1875 6.0625 38.5312 11.0312
Q42.875 16.0156 42.875 26.2188
Q42.875 35.8438 38.5 40.7969
Q34.125 45.75 27.6406 45.75
Q21.0469 45.75 16.7031 40.8125
Q12.3594 35.8906 12.3594 25.9219" id="ArialMT-6f"/>
      <path d="
M12.3594 -21.0469
L6.0625 -21.0469
Q20.6562 2.39062 20.6562 25.875
Q20.6562 35.0625 18.5625 44.0938
Q16.8906 51.4219 13.9219 58.1562
Q12.0156 62.5469 6.0625 72.7969
L12.3594 72.7969
Q21.5312 60.5469 25.9219 48.1875
Q29.6875 37.5469 29.6875 25.9219
Q29.6875 12.75 24.625 0.4375
Q19.5781 -11.8594 12.3594 -21.0469" id="ArialMT-29"/>
      <path d="
M23.3906 -21.0469
Q16.1094 -11.8594 11.0781 0.4375
Q6.0625 12.75 6.0625 25.9219
Q6.0625 37.5469 9.8125 48.1875
Q14.2031 60.5469 23.3906 72.7969
L29.6875 72.7969
Q23.7812 62.6406 21.875 58.2969
Q18.8906 51.5625 17.1875 44.2344
Q15.0938 35.1094 15.0938 25.875
Q15.0938 2.39062 29.6875 -21.0469
z
" id="ArialMT-28"/>
      <path id="ArialMT-20"/>
     </defs>
     <g transform="translate(19.4962204724 86.1665625)rotate(-90.0)scale(0.12 -0.12)">
      <use xlink:href="#ArialMT-56"/>
      <use x="61.19921875" xlink:href="#ArialMT-6f"/>
      <use x="116.814453125" xlink:href="#ArialMT-6c"/>
      <use x="139.03125" xlink:href="#ArialMT-74"/>
      <use x="166.814453125" xlink:href="#ArialMT-61"/>
      <use x="222.4296875" xlink:href="#ArialMT-67"/>
      <use x="278.044921875" xlink:href="#ArialMT-65"/>
      <use x="333.66015625" xlink:href="#ArialMT-20"/>
      <use x="361.443359375" xlink:href="#ArialMT-28"/>
      <use x="394.744140625" xlink:href="#ArialMT-56"/>
      <use x="461.443359375" xlink:href="#ArialMT-29"/>
     </g>
    </g>
   </g>
   <g id="patch_3">
    <path d="
M60.2362 10.8
L216.85 10.8" style="fill:none;stroke:#000000;"/>
   </g>
   <g id="patch_4">
    <path d="
M216.85 102.6
L216.85 10.8" style="fill:none;stroke:#000000;"/>
   </g>
   <g id="patch_5">
    <path d="
M60.2362 102.6
L216.85 102.6" style="fill:none;stroke:#000000;"/>
   </g>
   <g id="patch_6">
    <path d="
M60.2362 102.6
L60.2362 10.8" style="fill:none;stroke:#000000;"/>
   </g>
  </g>
  <g id="text_10">
   <!-- B -->
   <defs>
    <path d="
M71.4844 22.2656
Q71.4844 17 69.3594 12.8438
Q67.2344 8.6875 63.5312 5.95312
Q59.2344 2.73438 54.0781 1.35938
Q48.9219 0 41.0156 0
L9.28125 0
L9.28125 72.7031
L37.5 72.7031
Q46.2969 72.7031 50.3594 72.1094
Q54.4375 71.5312 58.4531 69.5312
Q62.5938 67.4375 64.625 63.8906
Q66.6562 60.3594 66.6562 55.8125
Q66.6562 50.5312 63.8594 46.5
Q61.0781 42.4844 56 40.2344
L56 39.8438
Q63.1406 38.4219 67.3125 33.9844
Q71.4844 29.5469 71.4844 22.2656
M47.4688 52.1562
Q47.4688 53.9531 46.5625 55.75
Q45.6562 57.5625 43.3594 58.4531
Q41.3125 59.2344 38.25 59.2969
Q35.2031 59.375 29.6875 59.375
L27.9375 59.375
L27.9375 44
L30.8594 44
Q35.2969 44 38.4219 44.1406
Q41.5469 44.2812 43.3594 45.125
Q45.9062 46.2344 46.6875 48.0156
Q47.4688 49.8125 47.4688 52.1562
M52.0469 22.5625
Q52.0469 26.0312 50.7031 27.9062
Q49.3594 29.7812 46.1406 30.7188
Q43.9531 31.3438 40.0938 31.3906
Q36.2344 31.4531 32.0312 31.4531
L27.9375 31.4531
L27.9375 13.3281
L29.2969 13.3281
Q37.2031 13.3281 40.625 13.375
Q44.0469 13.4219 46.9219 14.6562
Q49.8594 15.875 50.9531 17.8906
Q52.0469 19.9219 52.0469 22.5625" id="Verdana-Bold-42"/>
   </defs>
   <g transform="translate(12.0472440945 8.64)scale(0.12 -0.12)">
    <use xlink:href="#Verdana-Bold-42"/>
   </g>
  </g>
 </g>
 <defs>
  <clipPath id="p5975d8b975">
   <rect height="91.8" width="156.614173228" x="60.2362204724" y="10.8"/>
  </clipPath>
 </defs>
</svg>
