<?xml version="1.0" encoding="utf-8" standalone="no"?>
<!DOCTYPE svg PUBLIC "-//W3C//DTD SVG 1.1//EN"
  "http://www.w3.org/Graphics/SVG/1.1/DTD/svg11.dtd">
<!-- Created with matplotlib (http://matplotlib.org/) -->
<svg height="72pt" version="1.1" viewBox="0 0 240 72" width="240pt" xmlns="http://www.w3.org/2000/svg" xmlns:xlink="http://www.w3.org/1999/xlink">
 <defs>
  <style type="text/css">
*{stroke-linecap:butt;stroke-linejoin:round;}
  </style>
 </defs>
 <g id="figure_1">
  <g id="patch_1">
   <path d="
M0 72
L240.945 72
L240.945 0
L0 0
z
" style="fill:#ffffff;"/>
  </g>
  <g id="axes_1">
   <g id="patch_2">
    <path d="
M60.2362 61.2
L216.85 61.2
L216.85 7.2
L60.2362 7.2
z
" style="fill:#ffffff;"/>
   </g>
   <g id="patch_3">
    <path clip-path="url(#pdaca76204f)" d="
M164.646 61.2
L164.646 7.2
L177.697 7.2
L177.697 61.2
z
" style="fill:#808080;opacity:0.2;stroke:#808080;"/>
   </g>
   <g id="line2d_1">
    <path clip-path="url(#pdaca76204f)" d="
M60.2388 61.1946
L61.035 59.803
L61.852 58.814
L62.7473 58.0754
L63.7731 57.5196
L65.0182 57.1048
L66.6548 56.8068
L69.0588 56.6163
L73.3109 56.3124
L74.6499 41.4917
L74.7857 34.5235
L74.9579 9.6319
L75.078 16.2111
L75.4826 42.5294
L75.728 45.9901
L75.9603 46.7451
L76.1587 46.81
L76.3988 46.6097
L76.7929 45.9474
L77.3019 44.635
L77.7613 42.8238
L78.1085 40.5188
L78.3617 37.2187
L78.5575 31.3308
L78.735 25.5147
L78.7872 26.1463
L78.9464 32.3634
L79.3301 44.806
L79.6198 47.7932
L79.9435 49.0615
L80.275 49.575
L80.5778 49.6831
L80.8936 49.5524
L81.3008 49.1168
L81.8333 48.192
L82.4206 46.7075
L82.9166 44.8419
L83.2768 42.5924
L83.5247 39.5356
L83.6918 34.4203
L83.9084 19.7291
L84.0103 23.5216
L84.4775 45.3043
L84.7542 48.48
L85.07 49.812
L85.4015 50.3692
L85.7043 50.4955
L86.0149 50.3762
L86.4169 49.9552
L86.9572 49.0373
L87.5863 47.5109
L88.1318 45.5989
L88.5233 43.3993
L88.7922 40.5398
L88.9723 35.9606
L89.1107 25.315
L89.2151 18.8179
L89.2673 20.0876
L89.5335 36.8183
L89.8232 46.0596
L90.1025 48.7935
L90.4236 49.9713
L90.7499 50.4376
L91.0474 50.519
L91.3659 50.3632
L91.7861 49.8822
L92.35 48.8671
L92.979 47.26
L93.5011 45.3159
L93.8743 43.0425
L94.1275 40.0346
L94.2972 35.0403
L94.4486 21.8954
L94.5191 18.7977
L94.5765 20.2737
L95.2734 47.8366
L95.5736 49.5343
L95.9051 50.2842
L96.2157 50.5131
L96.5133 50.4658
L96.8787 50.1576
L97.3747 49.4178
L97.9933 48.0705
L98.5806 46.2551
L99.0217 44.1584
L99.3271 41.5659
L99.5307 37.7635
L99.6717 30.2642
L99.8231 18.7988
L99.8883 20.6396
L100.523 47.2842
L100.815 49.2955
L101.146 50.1913
L101.465 50.4962
L101.76 50.4912
L102.107 50.2404
L102.577 49.5958
L103.18 48.3637
L103.788 46.6063
L104.255 44.5739
L104.582 42.1272
L104.803 38.6221
L104.952 32.2104
L105.127 18.799
L105.205 21.3203
L105.759 46.4067
L106.041 48.9293
L106.364 50.031
L106.691 50.4559
L106.986 50.514
L107.309 50.3371
L107.743 49.8171
L108.317 48.7494
L108.943 47.1003
L109.452 45.1326
L109.812 42.8274
L110.058 39.7103
L110.222 34.3986
L110.431 18.7991
L110.535 22.8855
L110.99 45.1262
L111.264 48.4441
L111.577 49.8122
L111.908 50.3872
L112.211 50.522
L112.519 50.4101
L112.916 50.0029
L113.454 49.1011
L114.083 47.5928
L114.634 45.693
L115.033 43.4965
L115.304 40.6939
L115.487 36.2538
L115.623 26.3635
L115.735 18.7993
L115.79 20.1094
L116.523 48.115
L116.829 49.6596
L117.16 50.3316
L117.468 50.5191
L117.768 50.4451
L118.147 50.0967
L118.661 49.2895
L119.282 47.8815
L119.857 46.027
L120.279 43.8979
L120.569 41.2496
L120.765 37.2194
L120.903 28.8744
L121.039 18.7996
L121.099 20.3355
L121.783 47.7284
L122.081 49.4834
L122.412 50.2645
L122.725 50.5101
L123.023 50.4715
L123.386 50.1739
L123.876 49.4529
L124.492 48.1272
L125.085 46.3185
L125.531 44.2304
L125.839 41.6749
L126.045 37.9541
L126.189 30.6108
L126.346 18.7996
L126.411 20.7061
L127.035 47.1805
L127.325 49.2461
L127.653 50.1674
L127.972 50.4903
L128.267 50.4964
L128.609 50.2603
L129.071 49.6415
L129.669 48.4416
L130.279 46.71
L130.757 44.6816
L131.091 42.2482
L131.316 38.8428
L131.467 32.6792
L131.65 18.7993
L131.733 21.6946
L132.255 46.019
L132.535 48.7795
L132.856 49.9654
L133.182 50.4351
L133.479 50.5185
L133.798 50.3642
L134.218 49.8846
L134.779 48.8766
L135.408 47.2738
L135.933 45.3252
L136.306 43.0592
L136.56 40.0711
L136.729 35.1426
L136.878 22.3274
L136.954 18.7991
L137.008 20.1796
L137.726 47.9998
L138.029 49.6063
L138.361 50.3116
L138.669 50.5167
L138.969 50.4545
L139.342 50.1233
L139.848 49.3451
L140.472 47.9536
L141.052 46.1131
L141.482 43.99
L141.777 41.3644
L141.976 37.424
L142.114 29.4864
L142.258 18.799
L142.318 20.41
L142.989 47.618
L143.286 49.4413
L143.618 50.2482
L143.931 50.507
L144.226 50.478
L144.583 50.1954
L145.069 49.4962
L145.682 48.1956
L146.28 46.3993
L146.732 44.3306
L147.045 41.8079
L147.256 38.1301
L147.4 31.1441
L147.562 18.7989
L147.632 20.9231
L148.227 46.8818
L148.514 49.125
L148.841 50.1145
L149.162 50.4774
L149.457 50.505
L149.791 50.2943
L150.24 49.7192
L150.83 48.572
L151.448 46.8713
L151.939 44.8673
L152.284 42.4894
L152.516 39.2199
L152.673 33.4426
L152.866 18.7989
L152.957 22.1004
L153.453 45.6867
L153.73 48.6499
L154.048 49.9075
L154.377 50.4178
L154.677 50.5206
L154.99 50.3833
L155.403 49.9307
L155.956 48.9613
L156.585 47.3943
L157.12 45.4615
L157.501 43.2351
L157.762 40.3126
L157.937 35.5608
L158.078 24.0169
L158.17 18.799
L158.224 20.1331
L158.953 48.0774
L159.258 49.6449
L159.59 50.3261
L159.898 50.5185
L160.198 50.4478
L160.574 50.1056
L161.085 49.3081
L161.709 47.901
L162.286 46.0455
L162.711 43.9116
L163.004 41.2425
L163.2 37.2015
L163.338 28.8208
L163.474 18.7991
L163.531 20.2393
L164.236 47.8992
L164.539 49.5673
L164.87 50.2967
L165.181 50.515
L165.478 50.4608
L165.846 50.1433
L166.348 49.386
L166.969 48.0185
L167.553 46.1885
L167.989 44.0816
L168.29 41.4792
L168.491 37.6284
L168.631 29.8554
L168.778 18.7993
L168.84 20.4733
L169.501 47.5266
L169.796 49.3968
L170.127 50.2309
L170.443 50.5042
L170.738 50.482
L171.093 50.2082
L171.573 49.5258
L172.184 48.2443
L172.784 46.4608
L173.241 44.3996
L173.557 41.9104
L173.771 38.3067
L173.917 31.4634
L174.082 18.7996
L174.155 20.9929
L174.742 46.7972
L175.027 49.0821
L175.353 50.0974
L175.677 50.4739
L175.971 50.5068
L176.306 50.3004
L176.752 49.7337
L177.339 48.5989
L177.958 46.9099
L178.451 44.9145
L178.798 42.551
L179.033 39.3036
L179.19 33.6855
L179.388 18.7996
L179.482 22.3417
L179.963 45.4704
L180.237 48.5599
L180.552 49.8651
L180.881 50.4033
L181.182 50.5216
L181.492 50.3978
L181.897 49.9687
L182.442 49.034
L183.071 47.4976
L183.614 45.5833
L184.006 43.3659
L184.272 40.5034
L184.45 35.9618
L184.588 25.2952
L184.692 18.7994
L184.744 20.076
L185.016 37.0909
L185.303 46.1045
L185.582 48.8092
L185.903 49.9772
L186.23 50.4389
L186.527 50.5178
L186.846 50.36
L187.269 49.8731
L187.832 48.8543
L188.461 47.2419
L188.984 45.2885
L189.354 43.016
L189.607 39.9776
L189.777 34.8811
L189.936 20.9856
L189.996 18.7991
L190.054 20.3
L190.745 47.794
L190.881 50.0397
L191.304 54.6313
L191.779 57.5654
L192.254 59.2213
L192.719 60.1002
L193.178 60.5259
L193.661 60.6773
L194.243 60.6162
L195.081 60.2813
L197.19 59.1038
L199.103 58.1882
L200.899 57.5784
L202.912 57.136
L203.797 57.0021
L203.797 57.0021" style="fill:none;stroke:#0000ff;stroke-linecap:square;"/>
   </g>
   <g id="line2d_2">
    <path clip-path="url(#pdaca76204f)" d="
M60.2388 61.1946
L61.035 59.803
L61.852 58.814
L62.7473 58.0754
L63.7731 57.5196
L65.0182 57.1048
L66.6548 56.8068
L69.0588 56.6163
L73.3109 56.3145
L74.663 41.5045
L74.7987 34.6065
L74.9736 9.66295
L75.0937 16.3926
L75.4931 42.4582
L75.7384 45.9969
L75.9707 46.7819
L76.1717 46.863
L76.4092 46.681
L76.7982 46.0577
L77.3072 44.7979
L77.7744 43.0388
L78.132 40.7953
L78.3904 37.6667
L78.5888 32.1596
L78.7846 25.3921
L78.842 26.1325
L79.0195 33.3566
L79.3823 44.8695
L79.672 47.8476
L79.9957 49.1198
L80.3298 49.6438
L80.6352 49.7576
L80.9537 49.6304
L81.3609 49.2018
L81.8933 48.2908
L82.4859 46.818
L82.9896 44.9619
L83.3551 42.7414
L83.6083 39.7289
L83.7779 34.7531
L83.9998 19.622
L84.1068 23.7171
L84.5584 45.096
L84.8351 48.4253
L85.1509 49.8101
L85.485 50.3984
L85.7904 50.5415
L86.0984 50.4369
L86.4952 50.0399
L87.0303 49.159
L87.662 47.6708
L88.2206 45.7809
L88.6251 43.6089
L88.9018 40.8402
L89.0872 36.517
L89.2229 27.0476
L89.343 18.7541
L89.3952 20.0196
L89.6562 36.526
L89.9459 45.9796
L90.2252 48.7797
L90.5463 49.9852
L90.8752 50.4715
L91.1753 50.5639
L91.4938 50.4176
L91.9114 49.9529
L92.4726 48.9644
L93.1069 47.379
L93.6394 45.4473
L94.0205 43.2034
L94.2789 40.2726
L94.4538 35.4154
L94.5948 23.6056
L94.6835 18.7366
L94.7383 20.1199
L95.4561 48.0137
L95.7615 49.6372
L96.0956 50.3504
L96.4063 50.5596
L96.7064 50.5007
L97.0797 50.1754
L97.5861 49.4082
L98.2125 48.0301
L98.7972 46.2035
L99.2331 44.1017
L99.5333 41.5069
L99.7343 37.6713
L99.8753 29.9286
L100.024 18.7381
L100.084 20.3833
L100.75 47.5851
L101.047 49.4449
L101.381 50.2761
L101.697 50.5473
L101.995 50.5255
L102.35 50.2541
L102.833 49.5741
L103.446 48.2991
L104.052 46.5194
L104.514 44.4603
L104.832 41.9866
L105.049 38.3978
L105.195 31.6882
L105.362 18.7384
L105.438 21.078
L106.012 46.6669
L106.296 49.0497
L106.623 50.1049
L106.949 50.5071
L107.247 50.5545
L107.578 50.3637
L108.019 49.8236
L108.601 48.7306
L109.228 47.0703
L109.734 45.0961
L110.092 42.7771
L110.334 39.6317
L110.496 34.2807
L110.703 18.738
L110.807 22.8286
L111.261 45.1312
L111.535 48.4588
L111.848 49.8362
L112.18 50.4213
L112.485 50.5653
L112.793 50.4608
L113.19 50.0637
L113.725 49.183
L114.357 47.6969
L114.915 45.8138
L115.323 43.6408
L115.602 40.8608
L115.787 36.5611
L115.923 27.1546
L116.043 18.7377
L116.098 20.0756
L116.826 48.0916
L117.132 49.6676
L117.466 50.3618
L117.776 50.5611
L118.079 50.4941
L118.458 50.1548
L118.969 49.3668
L119.596 47.9713
L120.178 46.1269
L120.608 44.0082
L120.903 41.3884
L121.102 37.4578
L121.24 29.5297
L121.384 18.7376
L121.444 20.3354
L122.117 47.6528
L122.415 49.4707
L122.749 50.2861
L123.065 50.5494
L123.362 50.5225
L123.72 50.2439
L124.205 49.5533
L124.821 48.263
L125.424 46.4763
L125.881 44.4208
L126.199 41.9114
L126.414 38.286
L126.56 31.3494
L126.724 18.7377
L126.795 20.8832
L127.39 46.8965
L127.677 49.1452
L128.006 50.1483
L128.329 50.5183
L128.627 50.5495
L128.964 50.3409
L129.415 49.7685
L130.005 48.6332
L130.629 46.9393
L131.125 44.9441
L131.472 42.5966
L131.707 39.3872
L131.866 33.7274
L132.065 18.738
L132.159 22.2684
L132.639 45.4717
L132.913 48.5736
L133.229 49.8891
L133.56 50.4402
L133.863 50.5653
L134.174 50.4473
L134.578 50.027
L135.124 49.1072
L135.758 47.582
L136.309 45.6745
L136.706 43.4781
L136.977 40.6412
L137.157 36.1885
L137.293 26.1164
L137.405 18.7384
L137.457 20.0312
L137.742 37.7522
L138.026 46.2834
L138.308 48.9001
L138.632 50.0391
L138.961 50.4885
L139.259 50.5602
L139.582 50.3952
L140.01 49.8982
L140.579 48.8678
L141.211 47.2496
L141.733 45.2978
L142.104 43.0253
L142.354 40.0278
L142.524 34.9859
L142.678 21.4962
L142.743 18.7382
L142.803 20.2879
L143.487 47.7434
L143.787 49.5149
L144.121 50.3033
L144.435 50.5521
L144.732 50.5183
L145.092 50.2307
L145.583 49.5232
L146.202 48.2136
L146.799 46.4233
L147.254 44.3502
L147.567 41.8347
L147.778 38.1714
L147.922 31.2169
L148.084 18.7378
L148.154 20.8303
L148.755 46.9501
L149.042 49.1648
L149.371 50.1562
L149.694 50.5205
L149.992 50.5483
L150.329 50.3369
L150.78 49.7618
L151.373 48.6177
L151.996 46.917
L152.49 44.9225
L152.837 42.5572
L153.072 39.2981
L153.228 33.6284
L153.424 18.7376
L153.518 22.2064
L154.004 45.551
L154.28 48.6172
L154.599 49.9133
L154.93 50.4486
L155.233 50.565
L155.546 50.4387
L155.954 50.0072
L156.502 49.0723
L157.133 47.54
L157.679 45.6338
L158.07 43.4468
L158.339 40.6163
L158.519 36.1223
L158.655 25.9376
L158.765 18.7376
L158.817 19.9875
L159.07 36.0835
L159.363 45.8849
L159.639 48.7316
L159.96 49.9655
L160.292 50.4664
L160.592 50.5636
L160.908 50.4229
L161.323 49.967
L161.879 48.9965
L162.513 47.4248
L163.051 45.4939
L163.435 43.2646
L163.696 40.3593
L163.87 35.6545
L164.009 24.4484
L164.105 18.7378
L164.158 20.005
L164.416 36.3855
L164.706 45.9362
L164.985 48.7647
L165.306 49.9788
L165.638 50.4708
L165.938 50.5631
L166.256 50.4165
L166.674 49.9517
L167.235 48.963
L167.869 47.3773
L168.402 45.445
L168.783 43.1997
L169.041 40.2654
L169.214 35.5174
L169.355 23.8404
L169.446 18.7382
L169.498 20.0227
L169.772 37.221
L170.059 46.1574
L170.339 48.8416
L170.662 50.0156
L170.991 50.481
L171.289 50.5617
L171.61 50.4059
L172.033 49.925
L172.599 48.9127
L173.231 47.3136
L173.758 45.3716
L174.131 43.1338
L174.387 40.1692
L174.559 35.2526
L174.703 22.9826
L174.784 18.7384
L174.841 20.1576
L175.551 47.9537
L175.854 49.6052
L176.188 50.3381
L176.499 50.5577
L176.799 50.5057
L177.17 50.1897
L177.671 49.4399
L178.295 48.0819
L178.885 46.2597
L179.326 44.1618
L179.628 41.5925
L179.832 37.8039
L179.973 30.3315
L180.124 18.738
L180.19 20.552
L180.827 47.3182
L181.119 49.3237
L181.45 50.2242
L181.769 50.5362
L182.066 50.5375
L182.414 50.2939
L182.881 49.6651
L183.484 48.4543
L184.097 46.7169
L184.575 44.6892
L184.906 42.2794
L185.131 38.8942
L185.282 32.7862
L185.465 18.7377
L185.551 21.7203
L186.068 45.9634
L186.347 48.7741
L186.668 49.9825
L186.997 50.47
L187.297 50.5632
L187.616 50.4173
L188.033 49.9531
L188.595 48.9651
L189.229 47.3803
L189.761 45.4495
L190.142 43.2077
L190.401 40.2822
L190.576 35.4428
L190.717 23.6692
L190.798 19.183
L190.855 20.6421
L191.62 51.9117
L192.045 55.7462
L192.52 58.1922
L192.99 59.5485
L193.452 60.2582
L193.914 60.5844
L194.418 60.6686
L195.058 60.5354
L196.049 60.0726
L199.923 58.0926
L201.737 57.5088
L203.797 57.0863
L203.797 57.0863" style="fill:none;stroke:#008000;stroke-linecap:square;"/>
   </g>
   <g id="line2d_3">
    <path clip-path="url(#pdaca76204f)" d="
M60.2388 61.1946
L61.035 59.803
L61.852 58.814
L62.7473 58.0754
L63.7731 57.5196
L65.0182 57.1048
L66.6548 56.8068
L69.0588 56.6163
L73.3109 56.3124
L74.6499 41.4917
L74.7857 34.5235
L74.9579 9.6319
L75.078 16.2111
L75.4826 42.5294
L75.728 45.9901
L75.9603 46.7451
L76.1587 46.81
L76.3988 46.6097
L76.7929 45.9474
L77.3019 44.635
L77.7613 42.8238
L78.1085 40.5188
L78.3617 37.2187
L78.5575 31.3308
L78.735 25.5147
L78.7872 26.1463
L78.9464 32.3634
L79.3301 44.806
L79.6198 47.7932
L79.9435 49.0615
L80.275 49.575
L80.5778 49.6831
L80.8936 49.5524
L81.3008 49.1168
L81.8333 48.192
L82.4206 46.7075
L82.9166 44.8419
L83.2768 42.5924
L83.5247 39.5356
L83.6918 34.4203
L83.9084 19.7291
L84.0103 23.5216
L84.4775 45.3043
L84.7542 48.48
L85.07 49.812
L85.4015 50.3692
L85.7043 50.4955
L86.0149 50.3762
L86.4169 49.9552
L86.9572 49.0373
L87.5863 47.5109
L88.1318 45.5989
L88.5233 43.3993
L88.7922 40.5398
L88.9723 35.9606
L89.1107 25.315
L89.2151 18.8179
L89.2673 20.0876
L89.5335 36.8183
L89.8232 46.0596
L90.1025 48.7935
L90.4236 49.9713
L90.7499 50.4376
L91.0474 50.519
L91.3659 50.3632
L91.7861 49.8822
L92.35 48.8671
L92.979 47.26
L93.5011 45.3159
L93.8743 43.0425
L94.1275 40.0346
L94.2972 35.0403
L94.4486 21.8954
L94.5191 18.7977
L94.5765 20.2737
L95.2734 47.8366
L95.5736 49.5343
L95.9051 50.2842
L96.2157 50.5131
L96.5133 50.4658
L96.8787 50.1576
L97.3747 49.4178
L97.9933 48.0705
L98.5806 46.2551
L99.0217 44.1584
L99.3271 41.5659
L99.5307 37.7635
L99.6717 30.2642
L99.8231 18.7988
L99.8883 20.6396
L100.523 47.2842
L100.815 49.2955
L101.146 50.1913
L101.465 50.4962
L101.76 50.4912
L102.107 50.2404
L102.577 49.5958
L103.18 48.3637
L103.788 46.6063
L104.255 44.5739
L104.582 42.1272
L104.803 38.6221
L104.952 32.2104
L105.127 18.799
L105.205 21.3203
L105.759 46.4067
L106.041 48.9293
L106.364 50.031
L106.691 50.4559
L106.986 50.514
L107.309 50.3371
L107.743 49.8171
L108.317 48.7494
L108.943 47.1003
L109.452 45.1326
L109.812 42.8274
L110.058 39.7103
L110.222 34.3986
L110.431 18.7991
L110.535 22.8855
L110.99 45.1262
L111.264 48.4441
L111.577 49.8122
L111.908 50.3872
L112.211 50.522
L112.519 50.4101
L112.916 50.0029
L113.454 49.1011
L114.083 47.5928
L114.634 45.693
L115.033 43.4965
L115.304 40.6939
L115.487 36.2538
L115.623 26.3635
L115.735 18.7993
L115.79 20.1094
L116.523 48.115
L116.829 49.6596
L117.16 50.3316
L117.468 50.5191
L117.768 50.4451
L118.147 50.0967
L118.661 49.2895
L119.282 47.8815
L119.857 46.027
L120.279 43.8979
L120.569 41.2496
L120.765 37.2194
L120.903 28.8744
L121.039 18.7996
L121.099 20.3355
L121.783 47.7284
L122.081 49.4834
L122.412 50.2645
L122.725 50.5101
L123.023 50.4715
L123.386 50.1739
L123.876 49.4529
L124.492 48.1272
L125.085 46.3185
L125.531 44.2304
L125.839 41.6749
L126.045 37.9541
L126.189 30.6108
L126.346 18.7996
L126.411 20.7061
L127.035 47.1805
L127.325 49.2461
L127.653 50.1674
L127.972 50.4903
L128.267 50.4964
L128.609 50.2603
L129.071 49.6415
L129.669 48.4416
L130.279 46.71
L130.757 44.6816
L131.091 42.2482
L131.316 38.8428
L131.467 32.6792
L131.65 18.7993
L131.733 21.6946
L132.255 46.019
L132.535 48.7795
L132.856 49.9654
L133.182 50.4351
L133.479 50.5185
L133.798 50.3642
L134.218 49.8846
L134.779 48.8766
L135.408 47.2738
L135.933 45.3252
L136.306 43.0592
L136.56 40.0711
L136.729 35.1426
L136.878 22.3274
L136.954 18.7991
L137.008 20.1796
L137.726 47.9998
L138.029 49.6063
L138.361 50.3116
L138.669 50.5167
L138.969 50.4545
L139.342 50.1233
L139.848 49.3451
L140.472 47.9536
L141.052 46.1131
L141.482 43.99
L141.777 41.3644
L141.976 37.424
L142.114 29.4864
L142.258 18.799
L142.318 20.41
L142.989 47.618
L143.286 49.4413
L143.618 50.2482
L143.931 50.507
L144.226 50.478
L144.583 50.1954
L145.069 49.4962
L145.682 48.1956
L146.28 46.3993
L146.732 44.3306
L147.045 41.8079
L147.256 38.1301
L147.4 31.1441
L147.562 18.7989
L147.632 20.9231
L148.227 46.8818
L148.514 49.125
L148.841 50.1145
L149.162 50.4774
L149.457 50.505
L149.791 50.2943
L150.24 49.7192
L150.83 48.572
L151.448 46.8713
L151.939 44.8673
L152.284 42.4894
L152.516 39.2199
L152.673 33.4426
L152.866 18.7989
L152.957 22.1004
L153.453 45.6867
L153.73 48.6499
L154.048 49.9075
L154.377 50.4178
L154.677 50.5206
L154.99 50.3833
L155.403 49.9307
L155.956 48.9613
L156.585 47.3943
L157.12 45.4615
L157.501 43.2351
L157.762 40.3126
L157.937 35.5608
L158.078 24.0169
L158.17 18.799
L158.224 20.1331
L158.953 48.0774
L159.258 49.6449
L159.59 50.3261
L159.898 50.5185
L160.198 50.4478
L160.574 50.1056
L161.085 49.3081
L161.709 47.901
L162.286 46.0455
L162.711 43.9116
L163.004 41.2425
L163.2 37.2015
L163.338 28.8208
L163.474 18.7991
L163.531 20.2393
L164.236 47.8992
L164.539 49.5673
L164.87 50.2967
L165.181 50.515
L165.478 50.4608
L165.846 50.1433
L166.348 49.386
L166.969 48.0185
L167.553 46.1885
L167.989 44.0816
L168.29 41.4792
L168.491 37.6284
L168.631 29.8554
L168.778 18.7993
L168.84 20.4733
L169.501 47.5266
L169.796 49.3968
L170.127 50.2309
L170.443 50.5042
L170.738 50.482
L171.093 50.2082
L171.573 49.5258
L172.184 48.2443
L172.784 46.4608
L173.241 44.3996
L173.557 41.9104
L173.771 38.3067
L173.917 31.4634
L174.082 18.7996
L174.155 20.9929
L174.742 46.7972
L175.027 49.0821
L175.353 50.0974
L175.677 50.4739
L175.971 50.5068
L176.306 50.3004
L176.752 49.7337
L177.339 48.5989
L177.958 46.9099
L178.451 44.9145
L178.798 42.551
L179.033 39.3036
L179.19 33.6855
L179.388 18.7996
L179.482 22.3417
L179.963 45.4704
L180.237 48.5599
L180.552 49.8651
L180.881 50.4033
L181.182 50.5216
L181.492 50.3978
L181.897 49.9687
L182.442 49.034
L183.071 47.4976
L183.614 45.5833
L184.006 43.3659
L184.272 40.5034
L184.45 35.9618
L184.588 25.2952
L184.692 18.7994
L184.744 20.076
L185.016 37.0909
L185.303 46.1045
L185.582 48.8092
L185.903 49.9772
L186.23 50.4389
L186.527 50.5178
L186.846 50.36
L187.269 49.8731
L187.832 48.8543
L188.461 47.2419
L188.984 45.2885
L189.354 43.016
L189.607 39.9776
L189.777 34.8811
L189.936 20.9856
L189.996 18.7991
L190.054 20.3
L190.745 47.794
L190.881 50.0397
L191.304 54.6313
L191.779 57.5654
L192.254 59.2213
L192.719 60.1002
L193.178 60.5259
L193.661 60.6773
L194.243 60.6162
L195.081 60.2813
L197.19 59.1038
L199.103 58.1882
L200.899 57.5784
L202.912 57.136
L203.797 57.0021
L203.797 57.0021" style="fill:none;stroke:#ff0000;stroke-linecap:square;"/>
   </g>
   <g id="line2d_4">
    <path clip-path="url(#pdaca76204f)" d="
M60.2388 61.1946
L61.035 59.8038
L61.852 58.8158
L62.7447 58.0798
L63.7705 57.525
L65.0234 57.1079
L66.647 56.8119
L69.0249 56.624
L73.3109 56.321
L74.6578 41.3982
L74.7935 34.2488
L74.9632 9.60546
L75.078 15.7165
L75.4957 42.6652
L75.741 45.9802
L75.9733 46.7029
L76.1717 46.7599
L76.4171 46.5507
L76.8217 45.869
L77.3176 44.5828
L77.7744 42.7784
L78.1189 40.4789
L78.3669 37.2267
L78.5601 31.3942
L78.7402 25.3543
L78.7924 26.009
L78.9568 32.547
L79.3327 44.7358
L79.6224 47.7559
L79.9461 49.0422
L80.2802 49.5742
L80.5856 49.6915
L80.9015 49.5673
L81.3087 49.1408
L81.8281 48.2476
L82.4232 46.7643
L82.9348 44.8524
L83.2977 42.5842
L83.543 39.5523
L83.7101 34.4159
L83.9241 19.5584
L84.0285 23.4177
L84.4931 45.2143
L84.7698 48.4277
L85.0883 49.7871
L85.4198 50.3533
L85.7226 50.485
L86.0306 50.372
L86.4273 49.963
L86.9729 49.0518
L87.5889 47.5761
L88.1318 45.7153
L88.5286 43.5675
L88.8053 40.7695
L88.988 36.4525
L89.1237 26.8502
L89.2412 18.6884
L89.296 20.0247
L90.0242 48.0317
L90.3296 49.6127
L90.6637 50.3095
L90.9717 50.5063
L91.2719 50.4396
L91.6452 50.1031
L92.162 49.306
L92.7754 47.9335
L93.3471 46.122
L93.7751 44.031
L94.0701 41.4503
L94.2711 37.5484
L94.4094 29.8003
L94.5556 18.6697
L94.6182 20.3772
L95.2734 47.4311
L95.5684 49.3431
L95.8999 50.2016
L96.2157 50.4879
L96.5107 50.4752
L96.8604 50.2143
L97.3407 49.5457
L97.9385 48.3152
L98.5519 46.526
L99.0191 44.4524
L99.3376 41.9924
L99.5542 38.4285
L99.7004 31.7863
L99.87 18.6707
L99.9457 21.0831
L100.51 46.4767
L100.791 48.9326
L101.118 50.028
L101.441 50.4443
L101.739 50.5012
L102.065 50.3198
L102.504 49.788
L103.086 48.7041
L103.715 47.0357
L104.221 45.0503
L104.582 42.6826
L104.819 39.5471
L104.981 34.0525
L105.184 18.6709
L105.284 22.5151
L105.748 45.1999
L106.022 48.4443
L106.338 49.807
L106.67 50.3769
L106.972 50.5098
L107.281 50.3972
L107.677 49.9881
L108.223 49.0769
L108.844 47.5887
L109.387 45.7278
L109.784 43.583
L110.06 40.7942
L110.246 36.4052
L110.381 26.6969
L110.499 18.6713
L110.551 19.9537
L110.825 37.1561
L111.112 46.0944
L111.392 48.7832
L111.715 49.9623
L112.042 50.4253
L112.339 50.506
L112.658 50.3499
L113.08 49.8641
L113.649 48.8443
L114.276 47.2441
L114.795 45.3106
L115.166 43.0577
L115.422 40.0257
L115.591 34.9948
L115.743 21.6914
L115.811 18.6717
L115.871 20.2111
L116.555 47.6814
L116.855 49.4584
L117.189 50.2503
L117.502 50.4973
L117.8 50.4607
L118.16 50.1668
L118.656 49.4433
L119.261 48.1491
L119.857 46.3494
L120.306 44.2741
L120.614 41.7688
L120.822 38.1006
L120.966 31.0065
L121.125 18.6711
L121.196 20.7546
L121.796 46.887
L122.083 49.1067
L122.412 50.1031
L122.733 50.4649
L123.028 50.4931
L123.362 50.2826
L123.816 49.7004
L124.406 48.5581
L125.035 46.8251
L125.531 44.7719
L125.873 42.3465
L126.1 39.008
L126.254 32.9578
L126.44 18.6707
L126.526 21.6583
L127.043 45.9019
L127.322 48.7162
L127.643 49.9293
L127.972 50.4165
L128.272 50.5071
L128.588 50.3593
L129.006 49.8885
L129.572 48.8859
L130.198 47.3031
L130.72 45.3888
L131.096 43.1532
L131.355 40.1856
L131.527 35.3134
L131.671 23.0734
L131.754 18.6707
L131.809 20.0314
L132.532 47.9934
L132.837 49.5974
L133.171 50.3033
L133.479 50.5048
L133.78 50.4413
L134.15 50.1108
L134.664 49.3231
L135.275 47.9649
L135.852 46.1483
L136.283 44.058
L136.58 41.4714
L136.781 37.6015
L136.92 29.9609
L137.069 18.671
L137.131 20.4222
L137.779 47.3576
L138.073 49.3153
L138.405 50.1906
L138.721 50.4853
L139.016 50.4778
L139.363 50.2243
L139.841 49.5662
L140.441 48.3384
L141.057 46.5506
L141.527 44.477
L141.848 42.0107
L142.065 38.4724
L142.211 31.9187
L142.383 18.6714
L142.459 21.1334
L143.017 46.4141
L143.299 48.9102
L143.625 50.019
L143.952 50.4432
L144.249 50.5015
L144.573 50.3236
L145.009 49.7985
L145.588 48.7252
L146.217 47.066
L146.726 45.0848
L147.087 42.7447
L147.327 39.6332
L147.489 34.3
L147.695 18.6715
L147.799 22.7396
L148.253 45.0595
L148.527 48.3973
L148.841 49.7811
L149.172 50.3678
L149.475 50.5097
L149.783 50.4037
L150.177 50.0042
L150.72 49.1063
L151.339 47.6374
L151.887 45.7786
L152.289 43.6323
L152.565 40.8952
L152.753 36.5724
L152.889 27.1715
L153.009 18.6711
L153.064 19.9932
L153.795 48.0505
L154.103 49.6282
L154.437 50.3148
L154.745 50.5063
L155.045 50.4359
L155.421 50.0929
L155.941 49.286
L156.551 47.9123
L157.123 46.0911
L157.548 43.9971
L157.841 41.4166
L158.042 37.4642
L158.18 29.5478
L158.324 18.6709
L158.384 20.2541
L159.06 47.6151
L159.357 49.4233
L159.691 50.2368
L160.005 50.4946
L160.302 50.465
L160.657 50.1832
L161.151 49.4737
L161.756 48.1926
L162.356 46.394
L162.811 44.3153
L163.121 41.8181
L163.333 38.1477
L163.476 31.1492
L163.638 18.6709
L163.709 20.803
L164.304 46.832
L164.591 49.0866
L164.92 50.095
L165.241 50.4626
L165.536 50.4943
L165.867 50.2891
L166.319 49.7155
L166.909 48.5801
L167.54 46.8483
L168.036 44.8086
L168.381 42.3887
L168.608 39.1048
L168.762 33.2445
L168.953 18.6709
L169.041 21.8695
L169.542 45.6919
L169.819 48.6283
L170.138 49.8876
L170.466 50.4025
L170.767 50.5087
L171.08 50.3746
L171.49 49.9276
L172.046 48.9656
L172.67 47.4239
L173.199 45.5368
L173.583 43.3507
L173.852 40.431
L174.029 35.7501
L174.168 24.6553
L174.267 18.6714
L174.319 19.9565
L174.596 37.2912
L174.883 46.1369
L175.162 48.7981
L175.486 49.9683
L175.812 50.4273
L176.11 50.5056
L176.428 50.3477
L176.851 49.8602
L177.423 48.833
L178.049 47.228
L178.566 45.2981
L178.937 43.0356
L179.19 40.0244
L179.36 34.9914
L179.511 21.6854
L179.579 18.6716
L179.639 20.2144
L180.323 47.682
L180.623 49.4586
L180.957 50.2504
L181.27 50.4973
L181.568 50.4606
L181.928 50.1667
L182.427 49.4385
L183.032 48.1423
L183.627 46.3395
L184.076 44.2581
L184.384 41.7377
L184.593 38.0251
L184.737 30.7763
L184.893 18.6711
L184.961 20.6227
L185.58 47.0792
L185.869 49.1894
L186.201 50.1407
L186.519 50.4739
L186.814 50.4875
L187.154 50.2599
L187.618 49.6459
L188.213 48.4665
L188.84 46.7008
L189.325 44.6302
L189.657 42.1885
L189.879 38.7625
L190.028 32.5903
L190.208 18.6708
L190.291 21.509
L190.837 47.1565
L191.171 52.5451
L191.617 56.3064
L192.09 58.5718
L192.557 59.8156
L193.014 60.4507
L193.473 60.7302
L193.985 60.7792
L194.65 60.6032
L195.731 60.0545
L199.007 58.3014
L200.774 57.6654
L202.739 57.1993
L203.797 57.0275
L203.797 57.0275" style="fill:none;stroke:#00bfbf;stroke-linecap:square;"/>
   </g>
   <g id="line2d_5">
    <path clip-path="url(#pdaca76204f)" d="
M60.2388 61.1946
L61.0323 59.8161
L61.8624 58.8195
L62.7681 58.0826
L63.807 57.531
L65.0782 57.1189
L66.72 56.8289
L69.1032 56.6474
L73.3082 56.3758
L74.663 41.372
L74.7961 34.4256
L74.9684 9.64182
L75.0858 16.0709
L75.493 42.494
L75.7384 45.9327
L75.9707 46.6879
L76.1691 46.755
L76.4092 46.558
L76.8034 45.9073
L77.2993 44.6444
L77.7613 42.8545
L78.1111 40.5755
L78.3617 37.3923
L78.5575 31.687
L78.7428 25.403
L78.7976 26.0866
L78.9673 32.8652
L79.3405 44.7926
L79.6302 47.769
L79.9539 49.0415
L80.2906 49.5698
L80.596 49.6819
L80.9119 49.5541
L81.319 49.1244
L81.8385 48.2277
L82.431 46.7478
L82.9348 44.8677
L83.3002 42.5947
L83.5456 39.5832
L83.7153 34.3814
L83.9293 19.6077
L84.0337 23.5089
L84.4957 45.1728
L84.7724 48.4065
L85.0909 49.7729
L85.4224 50.3424
L85.7251 50.4762
L86.0332 50.3649
L86.4481 49.9336
L86.9885 49.0232
L87.6097 47.5247
L88.1474 45.6645
L88.5416 43.5037
L88.8157 40.6827
L88.9984 36.2332
L89.1341 26.2655
L89.2463 18.74
L89.2985 19.9777
L89.5465 35.7438
L89.8415 45.7657
L90.1181 48.646
L90.4392 49.895
L90.7681 50.3989
L91.0683 50.499
L91.3842 50.3585
L91.7992 49.899
L92.3603 48.9173
L92.9842 47.3599
L93.5115 45.4553
L93.89 43.2536
L94.1536 40.3176
L94.3285 35.5685
L94.472 23.6806
L94.5608 18.7241
L94.6156 20.077
L95.3386 47.9821
L95.6441 49.5863
L95.9782 50.2924
L96.2809 50.4936
L96.5785 50.4357
L96.9465 50.1141
L97.4529 49.3487
L98.0637 48.0058
L98.6458 46.193
L99.0791 44.1191
L99.3793 41.5654
L99.5829 37.7651
L99.7239 30.2366
L99.8752 18.722
L99.9379 20.4636
L100.588 47.3749
L100.883 49.3149
L101.206 50.1716
L101.522 50.4733
L101.815 50.4712
L102.157 50.2289
L102.632 49.5849
L103.224 48.3888
L103.843 46.6195
L104.318 44.5619
L104.657 41.9814
L104.871 38.4783
L105.017 31.9537
L105.19 18.7213
L105.265 21.1663
L105.827 46.4403
L106.111 48.926
L106.437 50.0193
L106.764 50.4366
L107.061 50.491
L107.39 50.3057
L107.826 49.7751
L108.403 48.7014
L109.029 47.0446
L109.536 45.0679
L109.896 42.7195
L110.136 39.5848
L110.298 34.1756
L110.504 18.7198
L110.606 22.7659
L111.06 45.0486
L111.334 48.3862
L111.647 49.7704
L111.979 50.3576
L112.284 50.5
L112.592 50.3928
L112.986 49.9925
L113.529 49.0942
L114.19 47.5066
L114.727 45.631
L115.119 43.4596
L115.39 40.6241
L115.571 36.173
L115.706 26.0825
L115.816 18.7191
L115.871 20.0274
L116.604 48.0608
L116.912 49.6263
L117.246 50.3082
L117.554 50.4975
L117.855 50.4257
L118.233 50.0786
L118.755 49.2648
L119.366 47.8864
L119.932 46.0773
L120.358 43.9786
L120.661 41.2504
L120.856 37.2242
L120.995 28.8456
L121.13 18.7214
L121.19 20.2813
L121.872 47.6521
L122.172 49.4406
L122.506 50.2372
L122.819 50.4869
L123.114 50.4533
L123.474 50.1632
L123.989 49.4116
L124.594 48.1083
L125.184 46.3136
L125.63 44.2357
L125.936 41.7305
L126.145 38.017
L126.288 30.7714
L126.445 18.7248
L126.513 20.6887
L127.129 47.0424
L127.418 49.1686
L127.75 50.1259
L128.071 50.4635
L128.369 50.4763
L128.705 50.25
L129.17 49.637
L129.765 48.4584
L130.392 46.6939
L130.874 44.6375
L131.206 42.2078
L131.428 38.8167
L131.579 32.5836
L131.759 18.723
L131.843 21.5743
L132.37 46.0297
L132.649 48.7532
L132.973 49.9439
L133.302 50.4146
L133.602 50.4961
L133.923 50.3372
L134.354 49.8382
L134.92 48.8168
L135.547 47.2095
L136.061 45.286
L136.432 43.0187
L136.685 39.9953
L136.854 34.9227
L137.074 18.7202
L137.183 23.2243
L137.619 44.8112
L137.893 48.3071
L138.207 49.7388
L138.538 50.3463
L138.843 50.4998
L139.151 50.4004
L139.54 50.0143
L140.075 49.1421
L140.689 47.7067
L141.242 45.864
L141.649 43.7444
L141.931 41.0552
L142.122 36.9049
L142.258 28.1624
L142.388 18.7216
L142.443 20.1079
L143.158 47.9232
L143.464 49.5637
L143.798 50.2844
L144.108 50.4943
L144.406 50.4359
L144.774 50.1137
L145.28 49.3479
L145.891 48.0043
L146.471 46.2003
L146.906 44.1146
L147.207 41.5566
L147.41 37.7426
L147.551 30.168
L147.703 18.7199
L147.765 20.499
L148.407 47.2994
L148.702 49.287
L149.034 50.1733
L149.352 50.4748
L149.65 50.4681
L149.997 50.2147
L150.475 49.5574
L151.072 48.3365
L151.686 46.5613
L152.153 44.5131
L152.477 42.0557
L152.693 38.5877
L152.842 32.0846
L153.014 18.7196
L153.093 21.2127
L153.649 46.3778
L153.931 48.8908
L154.257 50.0053
L154.583 50.4327
L154.881 50.4928
L155.204 50.3166
L155.638 49.7978
L156.212 48.7402
L156.844 47.0834
L157.353 45.1159
L157.715 42.7825
L157.958 39.6729
L158.123 34.2813
L158.329 18.7217
L158.433 22.8149
L158.887 45.0632
L159.162 48.3908
L159.477 49.7793
L159.809 50.3606
L160.114 50.5
L160.422 50.3904
L160.822 49.9812
L161.399 49.009
L162.014 47.5121
L162.547 45.6618
L162.939 43.5128
L163.213 40.6946
L163.395 36.255
L163.531 26.3074
L163.643 18.7255
L163.698 20.0615
L164.426 48.0218
L164.734 49.6101
L165.069 50.3011
L165.376 50.4953
L165.677 50.427
L166.055 50.083
L166.572 49.2819
L167.18 47.9181
L167.752 46.1042
L168.177 44.023
L168.472 41.4407
L168.678 37.3693
L168.817 29.2844
L168.958 18.7223
L169.018 20.3212
L169.691 47.584
L169.989 49.4048
L170.323 50.2234
L170.639 50.485
L170.936 50.4555
L171.294 50.1711
L171.79 49.4564
L172.398 48.1656
L172.991 46.3878
L173.445 44.3093
L173.755 41.8119
L173.967 38.1423
L174.11 31.1514
L174.272 18.72
L174.34 20.7226
L174.935 46.7928
L175.214 49.0282
L175.543 50.0655
L175.867 50.4488
L176.162 50.4869
L176.494 50.2874
L176.958 49.6992
L177.545 48.5669
L178.216 46.701
L178.699 44.6489
L179.031 42.2285
L179.252 38.8642
L179.404 32.7248
L179.587 18.7221
L179.67 21.6085
L180.192 45.9537
L180.472 48.7268
L180.795 49.9334
L181.124 50.4111
L181.422 50.4971
L181.737 50.3473
L182.155 49.8752
L182.719 48.8767
L183.34 47.3101
L183.86 45.4151
L184.235 43.204
L184.496 40.2564
L184.669 35.5208
L184.81 23.848
L184.901 18.7231
L184.956 20.1221
L185.668 47.9034
L185.974 49.5559
L186.308 50.2812
L186.619 50.4937
L186.919 50.4354
L187.287 50.1131
L187.798 49.3375
L188.409 47.9898
L188.989 46.1792
L189.422 44.0963
L189.72 41.5522
L189.923 37.7321
L190.064 30.136
L190.213 18.7207
L190.278 20.5163
L190.967 49.709
L191.348 54.27
L191.816 57.3972
L192.288 59.1827
L192.753 60.1387
L193.209 60.6054
L193.684 60.7809
L194.246 60.7416
L195.026 60.4451
L196.532 59.5988
L198.743 58.4342
L200.482 57.7744
L202.416 57.2833
L203.797 57.0493
L203.797 57.0493" style="fill:none;stroke:#bf00bf;stroke-linecap:square;"/>
   </g>
   <g id="line2d_6">
    <path clip-path="url(#pdaca76204f)" d="
M60.2382 61.1951
L61.4649 59.3983
L62.7176 58.3634
L64.0698 57.7887
L65.8501 57.4429
L71.2171 57.0917
L73.3001 56.9835
L73.6755 53.3835
L74.4124 46.7284
L74.7828 39.8783
L74.9212 27.0676
L75.0407 10.2101
L75.0875 11.4623
L75.2189 22.0962
L75.4668 39.2462
L75.6779 44.5817
L75.9438 46.398
L76.1738 46.6522
L76.3849 46.5417
L76.6776 46.1434
L77.0301 45.4317
L77.8885 42.4085
L78.1573 40.6024
L78.3714 38.1866
L78.5496 34.3502
L78.8075 26.1458
L78.8523 26.5552
L79.0554 34.1087
L79.4756 45.6727
L79.8202 48.254
L80.2224 49.2935
L80.4783 49.5291
L80.7601 49.551
L81.1803 49.2701
L81.5826 48.7361
L82.7098 45.9907
L83.0543 44.5626
L83.3281 42.8961
L83.5452 40.7183
L83.7125 37.4275
L83.9026 25.8558
L84.0022 20.4405
L84.059 21.756
L84.2422 32.7685
L84.4871 43.2141
L84.7978 47.9077
L85.1612 49.6023
L85.4171 50.0938
L85.6671 50.2985
L85.9698 50.2867
L86.2914 50.0603
L87.2622 48.4891
L88.3087 45.1796
L88.6094 43.4675
L88.9878 38.7922
L89.178 29.6376
L89.3194 19.5697
L89.3871 21.4429
L89.8431 44.2552
L90.1538 48.2736
L90.5143 49.7591
L90.9185 50.3155
L91.2242 50.3505
L91.504 50.1912
L92.2638 49.1372
L93.4507 45.9281
L93.7743 44.4151
L94.0351 42.5802
L94.2393 40.074
L94.3906 36.1079
L94.5111 27.9472
L94.6356 19.5542
L94.6774 20.3782
L94.8058 28.0211
L95.0697 41.7449
L95.2908 46.5863
L95.6223 49.0932
L96.0037 50.0866
L96.3741 50.3619
L96.7425 50.2511
L97.0791 49.9192
L97.5023 49.2807
L98.7967 45.8086
L99.1153 44.275
L99.5455 40.2275
L99.6998 36.3651
L99.8203 28.5917
L99.9508 19.5457
L99.9926 20.327
L100.679 47.4059
L101.023 49.4133
L101.42 50.2094
L101.675 50.3578
L101.979 50.2988
L102.427 49.8773
L102.826 49.2637
L103.317 48.2476
L103.736 47.1275
L104.584 43.2695
L104.938 38.6998
L105.072 33.6512
L105.268 19.5542
L105.369 23.4666
L105.701 41.7449
L105.923 46.5863
L106.15 48.578
L106.395 49.5858
L106.781 50.2545
L107.126 50.3583
L107.413 50.2223
L107.77 49.842
L108.15 49.251
L109.423 45.8295
L110.052 41.8991
L110.331 36.3638
L110.452 28.5896
L110.582 19.5457
L110.624 20.3295
L111.31 47.4053
L111.655 49.413
L112.052 50.2094
L112.305 50.3572
L112.61 50.2988
L113.059 49.8773
L114.059 47.9801
L115.024 44.488
L115.296 42.6039
L115.5 40.1188
L115.716 32.8197
L115.899 19.5542
L115.99 22.8259
L116.552 46.5518
L116.88 49.0708
L117.258 50.0748
L117.617 50.3575
L117.893 50.315
L118.224 50.0526
L118.622 49.5248
L119.584 47.4162
L119.968 46.1609
L120.305 44.6775
L120.78 40.6763
L121.012 34.0304
L121.213 19.5457
L121.323 23.8816
L121.824 45.9273
L122.145 48.8365
L122.395 49.7282
L122.78 50.2939
L122.999 50.3608
L123.322 50.2499
L123.659 49.9174
L124.082 49.2783
L125.377 45.8037
L125.692 44.2822
L125.94 42.4849
L126.139 39.9829
L126.353 32.4602
L126.531 19.5542
L126.585 20.9001
L127.118 45.555
L127.339 48.1034
L127.708 49.7179
L128.099 50.2978
L128.438 50.3495
L128.715 50.1899
L129.099 49.7526
L129.559 48.9771
L130.626 46.063
L131.291 42.1445
L131.479 39.5176
L131.623 35.1258
L131.745 25.3398
L131.845 19.5457
L131.903 20.956
L132.421 45.3464
L132.738 48.6305
L132.986 49.62
L133.247 50.1301
L133.5 50.3413
L133.807 50.3299
L134.124 50.1049
L135.076 48.5584
L135.489 47.5382
L136.397 43.8378
L136.797 39.4934
L137 31.284
L137.162 19.5542
L137.241 22.0735
L137.637 43.0313
L137.945 47.9041
L138.302 49.6231
L138.702 50.2751
L138.939 50.3616
L139.268 50.2509
L139.606 49.919
L140.652 47.9435
L141.66 44.1684
L142.085 40.0037
L142.236 35.9441
L142.357 27.5367
L142.476 19.5457
L142.518 20.3295
L142.641 27.5785
L143.046 45.1997
L143.267 47.9559
L143.627 49.6478
L144.017 50.2733
L144.254 50.3608
L144.585 50.2499
L144.922 49.9174
L145.348 49.2735
L146.637 45.8143
L147.261 41.9146
L147.446 39.1144
L147.584 34.3961
L147.721 22.6444
L147.793 19.5542
L147.845 20.7876
L148.01 31.1491
L148.258 42.7295
L148.479 46.9717
L148.819 49.2505
L149.208 50.1484
L149.469 50.3493
L149.822 50.2983
L150.268 49.8788
L150.667 49.2657
L151.161 48.2437
L152.207 44.636
L152.674 40.6763
L152.837 37.1139
L153.019 24.2535
L153.108 19.5457
L153.165 20.956
L153.351 32.7092
L153.703 45.6696
L154.022 48.7428
L154.275 49.6896
L154.679 50.2975
L155.018 50.3487
L155.295 50.1883
L155.679 49.7511
L156.139 48.975
L157.206 46.0587
L157.538 44.5588
L158.008 40.4191
L158.232 33.4923
L158.425 19.5542
L158.526 23.4666
L159.049 46.1467
L159.273 48.372
L159.644 49.8157
L160.017 50.3117
L160.331 50.35
L160.651 50.1528
L161.001 49.7411
L161.456 48.9722
L162.52 46.063
L162.855 44.5521
L163.322 40.4371
L163.478 36.7526
L163.599 29.5872
L163.739 19.5457
L163.784 20.4233
L163.914 28.292
L164.309 45.1997
L164.531 47.9559
L164.768 49.2562
L165.154 50.1466
L165.514 50.3608
L165.848 50.2499
L166.185 49.9174
L167.229 47.9474
L167.644 46.7462
L168.021 45.3003
L168.571 41.37
L168.827 35.4343
L169.056 19.5542
L169.145 22.6707
L169.716 46.6537
L170.046 49.1043
L170.294 49.8559
L170.542 50.2267
L170.785 50.3596
L171.051 50.315
L171.382 50.0526
L171.778 49.5248
L172.129 48.8908
L173.243 45.7023
L173.557 44.153
L173.977 40.0491
L174.191 32.7252
L174.37 19.5457
L174.431 21.0747
L174.932 45.0483
L175.246 48.526
L175.491 49.5603
L175.888 50.2548
L176.143 50.3608
L176.48 50.2499
L177.06 49.5773
L178.074 47.3683
L178.448 46.1369
L178.779 44.6705
L179.045 42.9404
L179.259 40.581
L179.419 36.9841
L179.542 29.9533
L179.688 19.5542
L179.732 20.474
L179.868 28.7312
L180.257 45.2221
L180.476 47.9456
L180.839 49.6509
L181.225 50.273
L181.544 50.3585
L181.833 50.2223
L182.191 49.842
L182.567 49.2559
L183.844 45.8295
L184.47 41.9272
L184.749 36.4637
L184.869 28.8445
L185.003 19.5457
L185.045 20.3295
L185.731 47.4053
L186.075 49.413
L186.471 50.2094
L186.816 50.3608
L187.112 50.2499
L187.691 49.5773
L188.706 47.3683
L189.079 46.1369
L189.411 44.6705
L189.678 42.9404
L190.014 38.1016
L190.199 27.4124
L190.319 19.5542
L190.361 20.3782
L190.489 28.0211
L190.755 41.8857
L191.098 50.6536
L191.373 53.8658
L191.969 57.7918
L192.561 59.689
L193.12 60.5101
L193.616 60.7929
L194.3 60.7991
L195.031 60.5606
L195.8 60.178
L199.387 58.4476
L201.196 57.9411
L203.796 57.5451
L203.796 57.5451" style="fill:none;stroke:#bfbf00;stroke-linecap:square;"/>
   </g>
   <g id="matplotlib.axis_1">
    <g id="xtick_1">
     <g id="line2d_7">
      <defs>
       <path d="
M0 0
L0 -4" id="m93b0483c22" style="stroke:#000000;stroke-width:0.5;"/>
      </defs>
      <g>
       <use style="stroke:#000000;stroke-width:0.5;" x="60.2362204724" xlink:href="#m93b0483c22" y="61.2"/>
      </g>
     </g>
     <g id="line2d_8">
      <defs>
       <path d="
M0 0
L0 4" id="m741efc42ff" style="stroke:#000000;stroke-width:0.5;"/>
      </defs>
      <g>
       <use style="stroke:#000000;stroke-width:0.5;" x="60.2362204724" xlink:href="#m741efc42ff" y="7.2"/>
      </g>
     </g>
     <g id="text_1">
      <!-- 0.0 -->
      <defs>
       <path d="
M4.15625 35.2969
Q4.15625 48 6.76562 55.7344
Q9.375 63.4844 14.5156 67.6719
Q19.6719 71.875 27.4844 71.875
Q33.25 71.875 37.5938 69.5469
Q41.9375 67.2344 44.7656 62.8594
Q47.6094 58.5 49.2188 52.2188
Q50.8281 45.9531 50.8281 35.2969
Q50.8281 22.7031 48.2344 14.9688
Q45.6562 7.23438 40.5 3
Q35.3594 -1.21875 27.4844 -1.21875
Q17.1406 -1.21875 11.2344 6.20312
Q4.15625 15.1406 4.15625 35.2969
M13.1875 35.2969
Q13.1875 17.6719 17.3125 11.8281
Q21.4375 6 27.4844 6
Q33.5469 6 37.6719 11.8594
Q41.7969 17.7188 41.7969 35.2969
Q41.7969 52.9844 37.6719 58.7812
Q33.5469 64.5938 27.3906 64.5938
Q21.3438 64.5938 17.7188 59.4688
Q13.1875 52.9375 13.1875 35.2969" id="ArialMT-30"/>
       <path d="
M9.07812 0
L9.07812 10.0156
L19.0938 10.0156
L19.0938 0
z
" id="ArialMT-2e"/>
      </defs>
      <g transform="translate(52.4324704724 73.789375)scale(0.12 -0.12)">
       <use xlink:href="#ArialMT-30"/>
       <use x="55.615234375" xlink:href="#ArialMT-2e"/>
       <use x="83.3984375" xlink:href="#ArialMT-30"/>
      </g>
     </g>
    </g>
    <g id="xtick_2">
     <g id="line2d_9">
      <g>
       <use style="stroke:#000000;stroke-width:0.5;" x="86.3385826772" xlink:href="#m93b0483c22" y="61.2"/>
      </g>
     </g>
     <g id="line2d_10">
      <g>
       <use style="stroke:#000000;stroke-width:0.5;" x="86.3385826772" xlink:href="#m741efc42ff" y="7.2"/>
      </g>
     </g>
     <g id="text_2">
      <!-- 0.1 -->
      <defs>
       <path d="
M37.25 0
L28.4688 0
L28.4688 56
Q25.2969 52.9844 20.1406 49.9531
Q14.9844 46.9219 10.8906 45.4062
L10.8906 53.9062
Q18.2656 57.375 23.7812 62.2969
Q29.2969 67.2344 31.5938 71.875
L37.25 71.875
z
" id="ArialMT-31"/>
      </defs>
      <g transform="translate(79.3495201772 73.789375)scale(0.12 -0.12)">
       <use xlink:href="#ArialMT-30"/>
       <use x="55.615234375" xlink:href="#ArialMT-2e"/>
       <use x="83.3984375" xlink:href="#ArialMT-31"/>
      </g>
     </g>
    </g>
    <g id="xtick_3">
     <g id="line2d_11">
      <g>
       <use style="stroke:#000000;stroke-width:0.5;" x="112.440944882" xlink:href="#m93b0483c22" y="61.2"/>
      </g>
     </g>
     <g id="line2d_12">
      <g>
       <use style="stroke:#000000;stroke-width:0.5;" x="112.440944882" xlink:href="#m741efc42ff" y="7.2"/>
      </g>
     </g>
     <g id="text_3">
      <!-- 0.2 -->
      <defs>
       <path d="
M50.3438 8.45312
L50.3438 0
L3.03125 0
Q2.9375 3.17188 4.04688 6.10938
Q5.85938 10.9375 9.82812 15.625
Q13.8125 20.3125 21.3438 26.4688
Q33.0156 36.0312 37.1094 41.625
Q41.2188 47.2188 41.2188 52.2031
Q41.2188 57.4219 37.4688 61
Q33.7344 64.5938 27.7344 64.5938
Q21.3906 64.5938 17.5781 60.7812
Q13.7656 56.9844 13.7188 50.25
L4.6875 51.1719
Q5.60938 61.2812 11.6562 66.5781
Q17.7188 71.875 27.9375 71.875
Q38.2344 71.875 44.2344 66.1562
Q50.25 60.4531 50.25 52
Q50.25 47.7031 48.4844 43.5469
Q46.7344 39.4062 42.6562 34.8125
Q38.5781 30.2188 29.1094 22.2188
Q21.1875 15.5781 18.9375 13.2031
Q16.7031 10.8438 15.2344 8.45312
z
" id="ArialMT-32"/>
      </defs>
      <g transform="translate(104.666257382 73.789375)scale(0.12 -0.12)">
       <use xlink:href="#ArialMT-30"/>
       <use x="55.615234375" xlink:href="#ArialMT-2e"/>
       <use x="83.3984375" xlink:href="#ArialMT-32"/>
      </g>
     </g>
    </g>
    <g id="xtick_4">
     <g id="line2d_13">
      <g>
       <use style="stroke:#000000;stroke-width:0.5;" x="138.543307087" xlink:href="#m93b0483c22" y="61.2"/>
      </g>
     </g>
     <g id="line2d_14">
      <g>
       <use style="stroke:#000000;stroke-width:0.5;" x="138.543307087" xlink:href="#m741efc42ff" y="7.2"/>
      </g>
     </g>
     <g id="text_4">
      <!-- 0.3 -->
      <defs>
       <path d="
M4.20312 18.8906
L12.9844 20.0625
Q14.5 12.5938 18.1406 9.29688
Q21.7812 6 27 6
Q33.2031 6 37.4688 10.2969
Q41.75 14.5938 41.75 20.9531
Q41.75 27 37.7969 30.9219
Q33.8438 34.8594 27.7344 34.8594
Q25.25 34.8594 21.5312 33.8906
L22.5156 41.6094
Q23.3906 41.5 23.9219 41.5
Q29.5469 41.5 34.0312 44.4219
Q38.5312 47.3594 38.5312 53.4688
Q38.5312 58.2969 35.25 61.4688
Q31.9844 64.6562 26.8125 64.6562
Q21.6875 64.6562 18.2656 61.4219
Q14.8438 58.2031 13.875 51.7656
L5.07812 53.3281
Q6.6875 62.1562 12.3906 67.0156
Q18.1094 71.875 26.6094 71.875
Q32.4688 71.875 37.3906 69.3594
Q42.3281 66.8438 44.9375 62.5
Q47.5625 58.1562 47.5625 53.2656
Q47.5625 48.6406 45.0625 44.8281
Q42.5781 41.0156 37.7031 38.7656
Q44.0469 37.3125 47.5625 32.6875
Q51.0781 28.0781 51.0781 21.1406
Q51.0781 11.7656 44.2344 5.25
Q37.4062 -1.26562 26.9531 -1.26562
Q17.5312 -1.26562 11.2969 4.34375
Q5.07812 9.96875 4.20312 18.8906" id="ArialMT-33"/>
      </defs>
      <g transform="translate(130.724557087 73.789375)scale(0.12 -0.12)">
       <use xlink:href="#ArialMT-30"/>
       <use x="55.615234375" xlink:href="#ArialMT-2e"/>
       <use x="83.3984375" xlink:href="#ArialMT-33"/>
      </g>
     </g>
    </g>
    <g id="xtick_5">
     <g id="line2d_15">
      <g>
       <use style="stroke:#000000;stroke-width:0.5;" x="164.645669291" xlink:href="#m93b0483c22" y="61.2"/>
      </g>
     </g>
     <g id="line2d_16">
      <g>
       <use style="stroke:#000000;stroke-width:0.5;" x="164.645669291" xlink:href="#m741efc42ff" y="7.2"/>
      </g>
     </g>
     <g id="text_5">
      <!-- 0.4 -->
      <defs>
       <path d="
M32.3281 0
L32.3281 17.1406
L1.26562 17.1406
L1.26562 25.2031
L33.9375 71.5781
L41.1094 71.5781
L41.1094 25.2031
L50.7812 25.2031
L50.7812 17.1406
L41.1094 17.1406
L41.1094 0
z

M32.3281 25.2031
L32.3281 57.4688
L9.90625 25.2031
z
" id="ArialMT-34"/>
      </defs>
      <g transform="translate(156.844731791 73.789375)scale(0.12 -0.12)">
       <use xlink:href="#ArialMT-30"/>
       <use x="55.615234375" xlink:href="#ArialMT-2e"/>
       <use x="83.3984375" xlink:href="#ArialMT-34"/>
      </g>
     </g>
    </g>
    <g id="xtick_6">
     <g id="line2d_17">
      <g>
       <use style="stroke:#000000;stroke-width:0.5;" x="190.748031496" xlink:href="#m93b0483c22" y="61.2"/>
      </g>
     </g>
     <g id="line2d_18">
      <g>
       <use style="stroke:#000000;stroke-width:0.5;" x="190.748031496" xlink:href="#m741efc42ff" y="7.2"/>
      </g>
     </g>
     <g id="text_6">
      <!-- 0.5 -->
      <defs>
       <path d="
M4.15625 18.75
L13.375 19.5312
Q14.4062 12.7969 18.1406 9.39062
Q21.875 6 27.1562 6
Q33.5 6 37.8906 10.7812
Q42.2812 15.5781 42.2812 23.4844
Q42.2812 31 38.0625 35.3438
Q33.8438 39.7031 27 39.7031
Q22.75 39.7031 19.3281 37.7656
Q15.9219 35.8438 13.9688 32.7656
L5.71875 33.8438
L12.6406 70.6094
L48.25 70.6094
L48.25 62.2031
L19.6719 62.2031
L15.8281 42.9688
Q22.2656 47.4688 29.3438 47.4688
Q38.7188 47.4688 45.1562 40.9688
Q51.6094 34.4688 51.6094 24.2656
Q51.6094 14.5469 45.9531 7.46875
Q39.0625 -1.21875 27.1562 -1.21875
Q17.3906 -1.21875 11.2031 4.25
Q5.03125 9.71875 4.15625 18.75" id="ArialMT-35"/>
      </defs>
      <g transform="translate(182.897406496 73.789375)scale(0.12 -0.12)">
       <use xlink:href="#ArialMT-30"/>
       <use x="55.615234375" xlink:href="#ArialMT-2e"/>
       <use x="83.3984375" xlink:href="#ArialMT-35"/>
      </g>
     </g>
    </g>
    <g id="xtick_7">
     <g id="line2d_19">
      <g>
       <use style="stroke:#000000;stroke-width:0.5;" x="216.850393701" xlink:href="#m93b0483c22" y="61.2"/>
      </g>
     </g>
     <g id="line2d_20">
      <g>
       <use style="stroke:#000000;stroke-width:0.5;" x="216.850393701" xlink:href="#m741efc42ff" y="7.2"/>
      </g>
     </g>
     <g id="text_7">
      <!-- 0.6 -->
      <defs>
       <path d="
M49.75 54.0469
L41.0156 53.375
Q39.8438 58.5469 37.7031 60.8906
Q34.125 64.6562 28.9062 64.6562
Q24.7031 64.6562 21.5312 62.3125
Q17.3906 59.2812 14.9844 53.4688
Q12.5938 47.6562 12.5 36.9219
Q15.6719 41.75 20.2656 44.0938
Q24.8594 46.4375 29.8906 46.4375
Q38.6719 46.4375 44.8438 39.9688
Q51.0312 33.5 51.0312 23.25
Q51.0312 16.5 48.125 10.7188
Q45.2188 4.9375 40.1406 1.85938
Q35.0625 -1.21875 28.6094 -1.21875
Q17.625 -1.21875 10.6875 6.85938
Q3.76562 14.9375 3.76562 33.5
Q3.76562 54.25 11.4219 63.6719
Q18.1094 71.875 29.4375 71.875
Q37.8906 71.875 43.2812 67.1406
Q48.6875 62.4062 49.75 54.0469
M13.875 23.1875
Q13.875 18.6562 15.7969 14.5
Q17.7188 10.3594 21.1875 8.17188
Q24.6562 6 28.4688 6
Q34.0312 6 38.0312 10.4844
Q42.0469 14.9844 42.0469 22.7031
Q42.0469 30.125 38.0781 34.3906
Q34.125 38.6719 28.125 38.6719
Q22.1719 38.6719 18.0156 34.3906
Q13.875 30.125 13.875 23.1875" id="ArialMT-36"/>
      </defs>
      <g transform="translate(209.034456201 73.789375)scale(0.12 -0.12)">
       <use xlink:href="#ArialMT-30"/>
       <use x="55.615234375" xlink:href="#ArialMT-2e"/>
       <use x="83.3984375" xlink:href="#ArialMT-36"/>
      </g>
     </g>
    </g>
   </g>
   <g id="matplotlib.axis_2">
    <g id="ytick_1">
     <g id="line2d_21">
      <defs>
       <path d="
M0 0
L4 0" id="m728421d6d4" style="stroke:#000000;stroke-width:0.5;"/>
      </defs>
      <g>
       <use style="stroke:#000000;stroke-width:0.5;" x="60.2362204724" xlink:href="#m728421d6d4" y="61.2"/>
      </g>
     </g>
     <g id="line2d_22">
      <defs>
       <path d="
M0 0
L-4 0" id="mcb0005524f" style="stroke:#000000;stroke-width:0.5;"/>
      </defs>
      <g>
       <use style="stroke:#000000;stroke-width:0.5;" x="216.850393701" xlink:href="#mcb0005524f" y="61.2"/>
      </g>
     </g>
     <g id="text_8">
      <!-- −0.06 -->
      <defs>
       <path d="
M52.8281 31.2031
L5.5625 31.2031
L5.5625 39.4062
L52.8281 39.4062
z
" id="ArialMT-2212"/>
      </defs>
      <g transform="translate(27.0912204724 64.3021875)scale(0.12 -0.12)">
       <use xlink:href="#ArialMT-2212"/>
       <use x="58.3984375" xlink:href="#ArialMT-30"/>
       <use x="114.013671875" xlink:href="#ArialMT-2e"/>
       <use x="141.796875" xlink:href="#ArialMT-30"/>
       <use x="197.412109375" xlink:href="#ArialMT-36"/>
      </g>
     </g>
    </g>
    <g id="ytick_2">
     <g id="line2d_23">
      <g>
       <use style="stroke:#000000;stroke-width:0.5;" x="60.2362204724" xlink:href="#m728421d6d4" y="50.4"/>
      </g>
     </g>
     <g id="line2d_24">
      <g>
       <use style="stroke:#000000;stroke-width:0.5;" x="216.850393701" xlink:href="#mcb0005524f" y="50.4"/>
      </g>
     </g>
     <g id="text_9">
      <!-- −0.04 -->
      <g transform="translate(27.1212204724 53.5021875)scale(0.12 -0.12)">
       <use xlink:href="#ArialMT-2212"/>
       <use x="58.3984375" xlink:href="#ArialMT-30"/>
       <use x="114.013671875" xlink:href="#ArialMT-2e"/>
       <use x="141.796875" xlink:href="#ArialMT-30"/>
       <use x="197.412109375" xlink:href="#ArialMT-34"/>
      </g>
     </g>
    </g>
    <g id="ytick_3">
     <g id="line2d_25">
      <g>
       <use style="stroke:#000000;stroke-width:0.5;" x="60.2362204724" xlink:href="#m728421d6d4" y="39.6"/>
      </g>
     </g>
     <g id="line2d_26">
      <g>
       <use style="stroke:#000000;stroke-width:0.5;" x="216.850393701" xlink:href="#mcb0005524f" y="39.6"/>
      </g>
     </g>
     <g id="text_10">
      <!-- −0.02 -->
      <g transform="translate(27.1737204724 42.7021875)scale(0.12 -0.12)">
       <use xlink:href="#ArialMT-2212"/>
       <use x="58.3984375" xlink:href="#ArialMT-30"/>
       <use x="114.013671875" xlink:href="#ArialMT-2e"/>
       <use x="141.796875" xlink:href="#ArialMT-30"/>
       <use x="197.412109375" xlink:href="#ArialMT-32"/>
      </g>
     </g>
    </g>
    <g id="ytick_4">
     <g id="line2d_27">
      <g>
       <use style="stroke:#000000;stroke-width:0.5;" x="60.2362204724" xlink:href="#m728421d6d4" y="28.8"/>
      </g>
     </g>
     <g id="line2d_28">
      <g>
       <use style="stroke:#000000;stroke-width:0.5;" x="216.850393701" xlink:href="#mcb0005524f" y="28.8"/>
      </g>
     </g>
     <g id="text_11">
      <!-- 0.00 -->
      <g transform="translate(33.9555954724 31.9021875)scale(0.12 -0.12)">
       <use xlink:href="#ArialMT-30"/>
       <use x="55.615234375" xlink:href="#ArialMT-2e"/>
       <use x="83.3984375" xlink:href="#ArialMT-30"/>
       <use x="139.013671875" xlink:href="#ArialMT-30"/>
      </g>
     </g>
    </g>
    <g id="ytick_5">
     <g id="line2d_29">
      <g>
       <use style="stroke:#000000;stroke-width:0.5;" x="60.2362204724" xlink:href="#m728421d6d4" y="18.0"/>
      </g>
     </g>
     <g id="line2d_30">
      <g>
       <use style="stroke:#000000;stroke-width:0.5;" x="216.850393701" xlink:href="#mcb0005524f" y="18.0"/>
      </g>
     </g>
     <g id="text_12">
      <!-- 0.02 -->
      <g transform="translate(34.0137204724 21.1021875)scale(0.12 -0.12)">
       <use xlink:href="#ArialMT-30"/>
       <use x="55.615234375" xlink:href="#ArialMT-2e"/>
       <use x="83.3984375" xlink:href="#ArialMT-30"/>
       <use x="139.013671875" xlink:href="#ArialMT-32"/>
      </g>
     </g>
    </g>
    <g id="ytick_6">
     <g id="line2d_31">
      <g>
       <use style="stroke:#000000;stroke-width:0.5;" x="60.2362204724" xlink:href="#m728421d6d4" y="7.2"/>
      </g>
     </g>
     <g id="line2d_32">
      <g>
       <use style="stroke:#000000;stroke-width:0.5;" x="216.850393701" xlink:href="#mcb0005524f" y="7.2"/>
      </g>
     </g>
     <g id="text_13">
      <!-- 0.04 -->
      <g transform="translate(33.9612204724 10.3021875)scale(0.12 -0.12)">
       <use xlink:href="#ArialMT-30"/>
       <use x="55.615234375" xlink:href="#ArialMT-2e"/>
       <use x="83.3984375" xlink:href="#ArialMT-30"/>
       <use x="139.013671875" xlink:href="#ArialMT-34"/>
      </g>
     </g>
    </g>
    <g id="text_14">
     <!-- Voltage (V) -->
     <defs>
      <path d="
M40.4375 6.39062
Q35.5469 2.25 31.0312 0.53125
Q26.5156 -1.17188 21.3438 -1.17188
Q12.7969 -1.17188 8.20312 3
Q3.60938 7.17188 3.60938 13.6719
Q3.60938 17.4844 5.34375 20.625
Q7.07812 23.7812 9.89062 25.6875
Q12.7031 27.5938 16.2188 28.5625
Q18.7969 29.25 24.0312 29.8906
Q34.6719 31.1562 39.7031 32.9062
Q39.75 34.7188 39.75 35.2031
Q39.75 40.5781 37.25 42.7812
Q33.8906 45.75 27.25 45.75
Q21.0469 45.75 18.0938 43.5781
Q15.1406 41.4062 13.7188 35.8906
L5.125 37.0625
Q6.29688 42.5781 8.98438 45.9688
Q11.6719 49.3594 16.75 51.1875
Q21.8281 53.0312 28.5156 53.0312
Q35.1562 53.0312 39.2969 51.4688
Q43.4531 49.9062 45.4062 47.5312
Q47.3594 45.1719 48.1406 41.5469
Q48.5781 39.3125 48.5781 33.4531
L48.5781 21.7344
Q48.5781 9.46875 49.1406 6.21875
Q49.7031 2.98438 51.375 0
L42.1875 0
Q40.8281 2.73438 40.4375 6.39062
M39.7031 26.0312
Q34.9062 24.0781 25.3438 22.7031
Q19.9219 21.9219 17.6719 20.9375
Q15.4375 19.9688 14.2031 18.0938
Q12.9844 16.2188 12.9844 13.9219
Q12.9844 10.4062 15.6406 8.0625
Q18.3125 5.71875 23.4375 5.71875
Q28.5156 5.71875 32.4688 7.9375
Q36.4219 10.1562 38.2812 14.0156
Q39.7031 17 39.7031 22.7969
z
" id="ArialMT-61"/>
      <path d="
M4.98438 -4.29688
L13.5312 -5.5625
Q14.0625 -9.51562 16.5 -11.3281
Q19.7812 -13.7656 25.4375 -13.7656
Q31.5469 -13.7656 34.8594 -11.3281
Q38.1875 -8.89062 39.3594 -4.5
Q40.0469 -1.8125 39.9844 6.78125
Q34.2344 0 25.6406 0
Q14.9375 0 9.07812 7.71875
Q3.21875 15.4375 3.21875 26.2188
Q3.21875 33.6406 5.90625 39.9062
Q8.59375 46.1875 13.6875 49.6094
Q18.7969 53.0312 25.6875 53.0312
Q34.8594 53.0312 40.8281 45.6094
L40.8281 51.8594
L48.9219 51.8594
L48.9219 7.03125
Q48.9219 -5.07812 46.4531 -10.125
Q44 -15.1875 38.6406 -18.1094
Q33.2969 -21.0469 25.4844 -21.0469
Q16.2188 -21.0469 10.5 -16.875
Q4.78125 -12.7031 4.98438 -4.29688
M12.25 26.8594
Q12.25 16.6562 16.2969 11.9688
Q20.3594 7.28125 26.4688 7.28125
Q32.5156 7.28125 36.6094 11.9375
Q40.7188 16.6094 40.7188 26.5625
Q40.7188 36.0781 36.5 40.9062
Q32.2812 45.75 26.3125 45.75
Q20.4531 45.75 16.3438 40.9844
Q12.25 36.2344 12.25 26.8594" id="ArialMT-67"/>
      <path d="
M42.0938 16.7031
L51.1719 15.5781
Q49.0312 7.625 43.2188 3.21875
Q37.4062 -1.17188 28.375 -1.17188
Q17 -1.17188 10.3281 5.82812
Q3.65625 12.8438 3.65625 25.4844
Q3.65625 38.5781 10.3906 45.7969
Q17.1406 53.0312 27.875 53.0312
Q38.2812 53.0312 44.875 45.9531
Q51.4688 38.875 51.4688 26.0312
Q51.4688 25.25 51.4219 23.6875
L12.75 23.6875
Q13.2344 15.1406 17.5781 10.5938
Q21.9219 6.0625 28.4219 6.0625
Q33.25 6.0625 36.6719 8.59375
Q40.0938 11.1406 42.0938 16.7031
M13.2344 30.9062
L42.1875 30.9062
Q41.6094 37.4531 38.875 40.7188
Q34.6719 45.7969 27.9844 45.7969
Q21.9219 45.7969 17.7969 41.75
Q13.6719 37.7031 13.2344 30.9062" id="ArialMT-65"/>
      <path d="
M25.7812 7.85938
L27.0469 0.09375
Q23.3438 -0.6875 20.4062 -0.6875
Q15.625 -0.6875 12.9844 0.828125
Q10.3594 2.34375 9.28125 4.8125
Q8.20312 7.28125 8.20312 15.1875
L8.20312 45.0156
L1.76562 45.0156
L1.76562 51.8594
L8.20312 51.8594
L8.20312 64.7031
L16.9375 69.9688
L16.9375 51.8594
L25.7812 51.8594
L25.7812 45.0156
L16.9375 45.0156
L16.9375 14.7031
Q16.9375 10.9375 17.4062 9.85938
Q17.875 8.79688 18.9219 8.15625
Q19.9688 7.51562 21.9219 7.51562
Q23.3906 7.51562 25.7812 7.85938" id="ArialMT-74"/>
      <path d="
M28.1719 0
L0.4375 71.5781
L10.6875 71.5781
L29.2969 19.5781
Q31.5469 13.3281 33.0625 7.85938
Q34.7188 13.7188 36.9219 19.5781
L56.25 71.5781
L65.9219 71.5781
L37.8906 0
z
" id="ArialMT-56"/>
      <path d="
M6.39062 0
L6.39062 71.5781
L15.1875 71.5781
L15.1875 0
z
" id="ArialMT-6c"/>
      <path d="
M3.32812 25.9219
Q3.32812 40.3281 11.3281 47.2656
Q18.0156 53.0312 27.6406 53.0312
Q38.3281 53.0312 45.1094 46.0156
Q51.9062 39.0156 51.9062 26.6562
Q51.9062 16.6562 48.9062 10.9062
Q45.9062 5.17188 40.1562 2
Q34.4219 -1.17188 27.6406 -1.17188
Q16.75 -1.17188 10.0312 5.8125
Q3.32812 12.7969 3.32812 25.9219
M12.3594 25.9219
Q12.3594 15.9688 16.7031 11.0156
Q21.0469 6.0625 27.6406 6.0625
Q34.1875 6.0625 38.5312 11.0312
Q42.875 16.0156 42.875 26.2188
Q42.875 35.8438 38.5 40.7969
Q34.125 45.75 27.6406 45.75
Q21.0469 45.75 16.7031 40.8125
Q12.3594 35.8906 12.3594 25.9219" id="ArialMT-6f"/>
      <path d="
M12.3594 -21.0469
L6.0625 -21.0469
Q20.6562 2.39062 20.6562 25.875
Q20.6562 35.0625 18.5625 44.0938
Q16.8906 51.4219 13.9219 58.1562
Q12.0156 62.5469 6.0625 72.7969
L12.3594 72.7969
Q21.5312 60.5469 25.9219 48.1875
Q29.6875 37.5469 29.6875 25.9219
Q29.6875 12.75 24.625 0.4375
Q19.5781 -11.8594 12.3594 -21.0469" id="ArialMT-29"/>
      <path d="
M23.3906 -21.0469
Q16.1094 -11.8594 11.0781 0.4375
Q6.0625 12.75 6.0625 25.9219
Q6.0625 37.5469 9.8125 48.1875
Q14.2031 60.5469 23.3906 72.7969
L29.6875 72.7969
Q23.7812 62.6406 21.875 58.2969
Q18.8906 51.5625 17.1875 44.2344
Q15.0938 35.1094 15.0938 25.875
Q15.0938 2.39062 29.6875 -21.0469
z
" id="ArialMT-28"/>
      <path id="ArialMT-20"/>
     </defs>
     <g transform="translate(19.5655954724 63.6665625)rotate(-90.0)scale(0.12 -0.12)">
      <use xlink:href="#ArialMT-56"/>
      <use x="61.19921875" xlink:href="#ArialMT-6f"/>
      <use x="116.814453125" xlink:href="#ArialMT-6c"/>
      <use x="139.03125" xlink:href="#ArialMT-74"/>
      <use x="166.814453125" xlink:href="#ArialMT-61"/>
      <use x="222.4296875" xlink:href="#ArialMT-67"/>
      <use x="278.044921875" xlink:href="#ArialMT-65"/>
      <use x="333.66015625" xlink:href="#ArialMT-20"/>
      <use x="361.443359375" xlink:href="#ArialMT-28"/>
      <use x="394.744140625" xlink:href="#ArialMT-56"/>
      <use x="461.443359375" xlink:href="#ArialMT-29"/>
     </g>
    </g>
   </g>
   <g id="patch_4">
    <path d="
M60.2362 7.2
L216.85 7.2" style="fill:none;stroke:#000000;"/>
   </g>
   <g id="patch_5">
    <path d="
M216.85 61.2
L216.85 7.2" style="fill:none;stroke:#000000;"/>
   </g>
   <g id="patch_6">
    <path d="
M60.2362 61.2
L216.85 61.2" style="fill:none;stroke:#000000;"/>
   </g>
   <g id="patch_7">
    <path d="
M60.2362 61.2
L60.2362 7.2" style="fill:none;stroke:#000000;"/>
   </g>
  </g>
  <g id="text_15">
   <!-- A -->
   <defs>
    <path d="
M76.4688 0
L57.0781 0
L52.0469 14.7031
L25.0938 14.7031
L20.0625 0
L1.17188 0
L28.0312 72.7031
L49.6094 72.7031
z

M47.5156 28.0312
L38.5781 54.1094
L29.6406 28.0312
z
" id="Verdana-Bold-41"/>
   </defs>
   <g transform="translate(12.0472440945 5.76)scale(0.12 -0.12)">
    <use xlink:href="#Verdana-Bold-41"/>
   </g>
  </g>
 </g>
 <defs>
  <clipPath id="pdaca76204f">
   <rect height="54.0" width="156.614173228" x="60.2362204724" y="7.2"/>
  </clipPath>
 </defs>
</svg>
