<?xml version="1.0" encoding="utf-8" standalone="no"?>
<!DOCTYPE svg PUBLIC "-//W3C//DTD SVG 1.1//EN"
  "http://www.w3.org/Graphics/SVG/1.1/DTD/svg11.dtd">
<!-- Created with matplotlib (http://matplotlib.org/) -->
<svg height="72pt" version="1.1" viewBox="0 0 240 72" width="240pt" xmlns="http://www.w3.org/2000/svg" xmlns:xlink="http://www.w3.org/1999/xlink">
 <defs>
  <style type="text/css">
*{stroke-linecap:butt;stroke-linejoin:round;}
  </style>
 </defs>
 <g id="figure_1">
  <g id="patch_1">
   <path d="
M0 72
L240.945 72
L240.945 0
L0 0
z
" style="fill:#ffffff;"/>
  </g>
  <g id="axes_1">
   <g id="patch_2">
    <path d="
M60.2362 61.2
L216.85 61.2
L216.85 7.2
L60.2362 7.2
z
" style="fill:#ffffff;"/>
   </g>
   <g id="patch_3">
    <path clip-path="url(#pdaca76204f)" d="
M164.646 61.2
L164.646 7.2
L177.697 7.2
L177.697 61.2
z
" style="fill:#808080;opacity:0.2;stroke:#808080;"/>
   </g>
   <g id="line2d_1">
    <path clip-path="url(#pdaca76204f)" d="
M60.2388 61.1946
L61.035 59.803
L61.852 58.814
L62.7473 58.0754
L63.7731 57.5196
L65.0182 57.1048
L66.6548 56.8068
L69.0588 56.6163
L73.3109 56.3124
L74.6499 41.4917
L74.7857 34.5235
L74.9579 9.6319
L75.078 16.2111
L75.4826 42.5294
L75.728 45.9901
L75.9603 46.7451
L76.1587 46.81
L76.3988 46.6097
L76.7929 45.9474
L77.3019 44.635
L77.7613 42.8238
L78.1085 40.5188
L78.3617 37.2187
L78.5575 31.3308
L78.735 25.5147
L78.7872 26.1463
L78.9464 32.3634
L79.3301 44.806
L79.6198 47.7932
L79.9435 49.0615
L80.275 49.575
L80.5778 49.6831
L80.8936 49.5524
L81.3008 49.1168
L81.8333 48.192
L82.4206 46.7075
L82.9166 44.8419
L83.2768 42.5924
L83.5247 39.5356
L83.6918 34.4203
L83.9084 19.7291
L84.0103 23.5216
L84.4775 45.3043
L84.7542 48.48
L85.07 49.812
L85.4015 50.3692
L85.7043 50.4955
L86.0149 50.3762
L86.4169 49.9552
L86.9572 49.0373
L87.5863 47.5109
L88.1318 45.5989
L88.5233 43.3993
L88.7922 40.5398
L88.9723 35.9606
L89.1107 25.315
L89.2151 18.8179
L89.2673 20.0876
L89.5335 36.8183
L89.8232 46.0596
L90.1025 48.7935
L90.4236 49.9713
L90.7499 50.4376
L91.0474 50.519
L91.3659 50.3632
L91.7861 49.8822
L92.35 48.8671
L92.979 47.26
L93.5011 45.3159
L93.8743 43.0425
L94.1275 40.0346
L94.2972 35.0403
L94.4486 21.8954
L94.5191 18.7977
L94.5765 20.2737
L95.2734 47.8366
L95.5736 49.5343
L95.9051 50.2842
L96.2157 50.5131
L96.5133 50.4658
L96.8787 50.1576
L97.3747 49.4178
L97.9933 48.0705
L98.5806 46.2551
L99.0217 44.1584
L99.3271 41.5659
L99.5307 37.7635
L99.6717 30.2642
L99.8231 18.7988
L99.8883 20.6396
L100.523 47.2842
L100.815 49.2955
L101.146 50.1913
L101.465 50.4962
L101.76 50.4912
L102.107 50.2404
L102.577 49.5958
L103.18 48.3637
L103.788 46.6063
L104.255 44.5739
L104.582 42.1272
L104.803 38.6221
L104.952 32.2104
L105.127 18.799
L105.205 21.3203
L105.759 46.4067
L106.041 48.9293
L106.364 50.031
L106.691 50.4559
L106.986 50.514
L107.309 50.3371
L107.743 49.8171
L108.317 48.7494
L108.943 47.1003
L109.452 45.1326
L109.812 42.8274
L110.058 39.7103
L110.222 34.3986
L110.431 18.7991
L110.535 22.8855
L110.99 45.1262
L111.264 48.4441
L111.577 49.8122
L111.908 50.3872
L112.211 50.522
L112.519 50.4101
L112.916 50.0029
L113.454 49.1011
L114.083 47.5928
L114.634 45.693
L115.033 43.4965
L115.304 40.6939
L115.487 36.2538
L115.623 26.3635
L115.735 18.7993
L115.79 20.1094
L116.523 48.115
L116.829 49.6596
L117.16 50.3316
L117.468 50.5191
L117.768 50.4451
L118.147 50.0967
L118.661 49.2895
L119.282 47.8815
L119.857 46.027
L120.279 43.8979
L120.569 41.2496
L120.765 37.2194
L120.903 28.8744
L121.039 18.7996
L121.099 20.3355
L121.783 47.7284
L122.081 49.4834
L122.412 50.2645
L122.725 50.5101
L123.023 50.4715
L123.386 50.1739
L123.876 49.4529
L124.492 48.1272
L125.085 46.3185
L125.531 44.2304
L125.839 41.6749
L126.045 37.9541
L126.189 30.6108
L126.346 18.7996
L126.411 20.7061
L127.035 47.1805
L127.325 49.2461
L127.653 50.1674
L127.972 50.4903
L128.267 50.4964
L128.609 50.2603
L129.071 49.6415
L129.669 48.4416
L130.279 46.71
L130.757 44.6816
L131.091 42.2482
L131.316 38.8428
L131.467 32.6792
L131.65 18.7993
L131.733 21.6946
L132.255 46.019
L132.535 48.7795
L132.856 49.9654
L133.182 50.4351
L133.479 50.5185
L133.798 50.3642
L134.218 49.8846
L134.779 48.8766
L135.408 47.2738
L135.933 45.3252
L136.306 43.0592
L136.56 40.0711
L136.729 35.1426
L136.878 22.3274
L136.954 18.7991
L137.008 20.1796
L137.726 47.9998
L138.029 49.6063
L138.361 50.3116
L138.669 50.5167
L138.969 50.4545
L139.342 50.1233
L139.848 49.3451
L140.472 47.9536
L141.052 46.1131
L141.482 43.99
L141.777 41.3644
L141.976 37.424
L142.114 29.4864
L142.258 18.799
L142.318 20.41
L142.989 47.618
L143.286 49.4413
L143.618 50.2482
L143.931 50.507
L144.226 50.478
L144.583 50.1954
L145.069 49.4962
L145.682 48.1956
L146.28 46.3993
L146.732 44.3306
L147.045 41.8079
L147.256 38.1301
L147.4 31.1441
L147.562 18.7989
L147.632 20.9231
L148.227 46.8818
L148.514 49.125
L148.841 50.1145
L149.162 50.4774
L149.457 50.505
L149.791 50.2943
L150.24 49.7192
L150.83 48.572
L151.448 46.8713
L151.939 44.8673
L152.284 42.4894
L152.516 39.2199
L152.673 33.4426
L152.866 18.7989
L152.957 22.1004
L153.453 45.6867
L153.73 48.6499
L154.048 49.9075
L154.377 50.4178
L154.677 50.5206
L154.99 50.3833
L155.403 49.9307
L155.956 48.9613
L156.585 47.3943
L157.12 45.4615
L157.501 43.2351
L157.762 40.3126
L157.937 35.5608
L158.078 24.0169
L158.17 18.799
L158.224 20.1331
L158.953 48.0774
L159.258 49.6449
L159.59 50.3261
L159.898 50.5185
L160.198 50.4478
L160.574 50.1056
L161.085 49.3081
L161.709 47.901
L162.286 46.0455
L162.711 43.9116
L163.004 41.2425
L163.2 37.2015
L163.338 28.8208
L163.474 18.7991
L163.531 20.2393
L164.236 47.8992
L164.539 49.5673
L164.87 50.2967
L165.181 50.515
L165.478 50.4608
L165.846 50.1433
L166.348 49.386
L166.969 48.0185
L167.553 46.1885
L167.989 44.0816
L168.29 41.4792
L168.491 37.6284
L168.631 29.8554
L168.778 18.7993
L168.84 20.4733
L169.501 47.5266
L169.796 49.3968
L170.127 50.2309
L170.443 50.5042
L170.738 50.482
L171.093 50.2082
L171.573 49.5258
L172.184 48.2443
L172.784 46.4608
L173.241 44.3996
L173.557 41.9104
L173.771 38.3067
L173.917 31.4634
L174.082 18.7996
L174.155 20.9929
L174.742 46.7972
L175.027 49.0821
L175.353 50.0974
L175.677 50.4739
L175.971 50.5068
L176.306 50.3004
L176.752 49.7337
L177.339 48.5989
L177.958 46.9099
L178.451 44.9145
L178.798 42.551
L179.033 39.3036
L179.19 33.6855
L179.388 18.7996
L179.482 22.3417
L179.963 45.4704
L180.237 48.5599
L180.552 49.8651
L180.881 50.4033
L181.182 50.5216
L181.492 50.3978
L181.897 49.9687
L182.442 49.034
L183.071 47.4976
L183.614 45.5833
L184.006 43.3659
L184.272 40.5034
L184.45 35.9618
L184.588 25.2952
L184.692 18.7994
L184.744 20.076
L185.016 37.0909
L185.303 46.1045
L185.582 48.8092
L185.903 49.9772
L186.23 50.4389
L186.527 50.5178
L186.846 50.36
L187.269 49.8731
L187.832 48.8543
L188.461 47.2419
L188.984 45.2885
L189.354 43.016
L189.607 39.9776
L189.777 34.8811
L189.936 20.9856
L189.996 18.7991
L190.054 20.3
L190.745 47.794
L190.881 50.0397
L191.304 54.6313
L191.779 57.5654
L192.254 59.2213
L192.719 60.1002
L193.178 60.5259
L193.661 60.6773
L194.243 60.6162
L195.081 60.2813
L197.19 59.1038
L199.103 58.1882
L200.899 57.5784
L202.912 57.136
L203.797 57.0021
L203.797 57.0021" style="fill:none;stroke:#0000ff;stroke-linecap:square;"/>
   </g>
   <g id="line2d_2">
    <path clip-path="url(#pdaca76204f)" d="
M60.2388 61.1946
L61.035 59.803
L61.852 58.814
L62.7473 58.0754
L63.7731 57.5196
L65.0182 57.1048
L66.6548 56.8068
L69.0588 56.6163
L73.3109 56.3145
L74.663 41.5045
L74.7987 34.6065
L74.9736 9.66295
L75.0937 16.3926
L75.4931 42.4582
L75.7384 45.9969
L75.9707 46.7819
L76.1717 46.863
L76.4092 46.681
L76.7982 46.0577
L77.3072 44.7979
L77.7744 43.0388
L78.132 40.7953
L78.3904 37.6667
L78.5888 32.1596
L78.7846 25.3921
L78.842 26.1325
L79.0195 33.3566
L79.3823 44.8695
L79.672 47.8476
L79.9957 49.1198
L80.3298 49.6438
L80.6352 49.7576
L80.9537 49.6304
L81.3609 49.2018
L81.8933 48.2908
L82.4859 46.818
L82.9896 44.9619
L83.3551 42.7414
L83.6083 39.7289
L83.7779 34.7531
L83.9998 19.622
L84.1068 23.7171
L84.5584 45.096
L84.8351 48.4253
L85.1509 49.8101
L85.485 50.3984
L85.7904 50.5415
L86.0984 50.4369
L86.4952 50.0399
L87.0303 49.159
L87.662 47.6708
L88.2206 45.7809
L88.6251 43.6089
L88.9018 40.8402
L89.0872 36.517
L89.2229 27.0476
L89.343 18.7541
L89.3952 20.0196
L89.6562 36.526
L89.9459 45.9796
L90.2252 48.7797
L90.5463 49.9852
L90.8752 50.4715
L91.1753 50.5639
L91.4938 50.4176
L91.9114 49.9529
L92.4726 48.9644
L93.1069 47.379
L93.6394 45.4473
L94.0205 43.2034
L94.2789 40.2726
L94.4538 35.4154
L94.5948 23.6056
L94.6835 18.7366
L94.7383 20.1199
L95.4561 48.0137
L95.7615 49.6372
L96.0956 50.3504
L96.4063 50.5596
L96.7064 50.5007
L97.0797 50.1754
L97.5861 49.4082
L98.2125 48.0301
L98.7972 46.2035
L99.2331 44.1017
L99.5333 41.5069
L99.7343 37.6713
L99.8753 29.9286
L100.024 18.7381
L100.084 20.3833
L100.75 47.5851
L101.047 49.4449
L101.381 50.2761
L101.697 50.5473
L101.995 50.5255
L102.35 50.2541
L102.833 49.5741
L103.446 48.2991
L104.052 46.5194
L104.514 44.4603
L104.832 41.9866
L105.049 38.3978
L105.195 31.6882
L105.362 18.7384
L105.438 21.078
L106.012 46.6669
L106.296 49.0497
L106.623 50.1049
L106.949 50.5071
L107.247 50.5545
L107.578 50.3637
L108.019 49.8236
L108.601 48.7306
L109.228 47.0703
L109.734 45.0961
L110.092 42.7771
L110.334 39.6317
L110.496 34.2807
L110.703 18.738
L110.807 22.8286
L111.261 45.1312
L111.535 48.4588
L111.848 49.8362
L112.18 50.4213
L112.485 50.5653
L112.793 50.4608
L113.19 50.0637
L113.725 49.183
L114.357 47.6969
L114.915 45.8138
L115.323 43.6408
L115.602 40.8608
L115.787 36.5611
L115.923 27.1546
L116.043 18.7377
L116.098 20.0756
L116.826 48.0916
L117.132 49.6676
L117.466 50.3618
L117.776 50.5611
L118.079 50.4941
L118.458 50.1548
L118.969 49.3668
L119.596 47.9713
L120.178 46.1269
L120.608 44.0082
L120.903 41.3884
L121.102 37.4578
L121.24 29.5297
L121.384 18.7376
L121.444 20.3354
L122.117 47.6528
L122.415 49.4707
L122.749 50.2861
L123.065 50.5494
L123.362 50.5225
L123.72 50.2439
L124.205 49.5533
L124.821 48.263
L125.424 46.4763
L125.881 44.4208
L126.199 41.9114
L126.414 38.286
L126.56 31.3494
L126.724 18.7377
L126.795 20.8832
L127.39 46.8965
L127.677 49.1452
L128.006 50.1483
L128.329 50.5183
L128.627 50.5495
L128.964 50.3409
L129.415 49.7685
L130.005 48.6332
L130.629 46.9393
L131.125 44.9441
L131.472 42.5966
L131.707 39.3872
L131.866 33.7274
L132.065 18.738
L132.159 22.2684
L132.639 45.4717
L132.913 48.5736
L133.229 49.8891
L133.56 50.4402
L133.863 50.5653
L134.174 50.4473
L134.578 50.027
L135.124 49.1072
L135.758 47.582
L136.309 45.6745
L136.706 43.4781
L136.977 40.6412
L137.157 36.1885
L137.293 26.1164
L137.405 18.7384
L137.457 20.0312
L137.742 37.7522
L138.026 46.2834
L138.308 48.9001
L138.632 50.0391
L138.961 50.4885
L139.259 50.5602
L139.582 50.3952
L140.01 49.8982
L140.579 48.8678
L141.211 47.2496
L141.733 45.2978
L142.104 43.0253
L142.354 40.0278
L142.524 34.9859
L142.678 21.4962
L142.743 18.7382
L142.803 20.2879
L143.487 47.7434
L143.787 49.5149
L144.121 50.3033
L144.435 50.5521
L144.732 50.5183
L145.092 50.2307
L145.583 49.5232
L146.202 48.2136
L146.799 46.4233
L147.254 44.3502
L147.567 41.8347
L147.778 38.1714
L147.922 31.2169
L148.084 18.7378
L148.154 20.8303
L148.755 46.9501
L149.042 49.1648
L149.371 50.1562
L149.694 50.5205
L149.992 50.5483
L150.329 50.3369
L150.78 49.7618
L151.373 48.6177
L151.996 46.917
L152.49 44.9225
L152.837 42.5572
L153.072 39.2981
L153.228 33.6284
L153.424 18.7376
L153.518 22.2064
L154.004 45.551
L154.28 48.6172
L154.599 49.9133
L154.93 50.4486
L155.233 50.565
L155.546 50.4387
L155.954 50.0072
L156.502 49.0723
L157.133 47.54
L157.679 45.6338
L158.07 43.4468
L158.339 40.6163
L158.519 36.1223
L158.655 25.9376
L158.765 18.7376
L158.817 19.9875
L159.07 36.0835
L159.363 45.8849
L159.639 48.7316
L159.96 49.9655
L160.292 50.4664
L160.592 50.5636
L160.908 50.4229
L161.323 49.967
L161.879 48.9965
L162.513 47.4248
L163.051 45.4939
L163.435 43.2646
L163.696 40.3593
L163.87 35.6545
L164.009 24.4484
L164.105 18.7378
L164.158 20.005
L164.416 36.3855
L164.706 45.9362
L164.985 48.7647
L165.306 49.9788
L165.638 50.4708
L165.938 50.5631
L166.256 50.4165
L166.674 49.9517
L167.235 48.963
L167.869 47.3773
L168.402 45.445
L168.783 43.1997
L169.041 40.2654
L169.214 35.5174
L169.355 23.8404
L169.446 18.7382
L169.498 20.0227
L169.772 37.221
L170.059 46.1574
L170.339 48.8416
L170.662 50.0156
L170.991 50.481
L171.289 50.5617
L171.61 50.4059
L172.033 49.925
L172.599 48.9127
L173.231 47.3136
L173.758 45.3716
L174.131 43.1338
L174.387 40.1692
L174.559 35.2526
L174.703 22.9826
L174.784 18.7384
L174.841 20.1576
L175.551 47.9537
L175.854 49.6052
L176.188 50.3381
L176.499 50.5577
L176.799 50.5057
L177.17 50.1897
L177.671 49.4399
L178.295 48.0819
L178.885 46.2597
L179.326 44.1618
L179.628 41.5925
L179.832 37.8039
L179.973 30.3315
L180.124 18.738
L180.19 20.552
L180.827 47.3182
L181.119 49.3237
L181.45 50.2242
L181.769 50.5362
L182.066 50.5375
L182.414 50.2939
L182.881 49.6651
L183.484 48.4543
L184.097 46.7169
L184.575 44.6892
L184.906 42.2794
L185.131 38.8942
L185.282 32.7862
L185.465 18.7377
L185.551 21.7203
L186.068 45.9634
L186.347 48.7741
L186.668 49.9825
L186.997 50.47
L187.297 50.5632
L187.616 50.4173
L188.033 49.9531
L188.595 48.9651
L189.229 47.3803
L189.761 45.4495
L190.142 43.2077
L190.401 40.2822
L190.576 35.4428
L190.717 23.6692
L190.798 19.183
L190.855 20.6421
L191.62 51.9117
L192.045 55.7462
L192.52 58.1922
L192.99 59.5485
L193.452 60.2582
L193.914 60.5844
L194.418 60.6686
L195.058 60.5354
L196.049 60.0726
L199.923 58.0926
L201.737 57.5088
L203.797 57.0863
L203.797 57.0863" style="fill:none;stroke:#008000;stroke-linecap:square;"/>
   </g>
   <g id="line2d_3">
    <path clip-path="url(#pdaca76204f)" d="
M60.2388 61.1946
L61.035 59.803
L61.852 58.814
L62.7473 58.0754
L63.7731 57.5196
L65.0182 57.1048
L66.6548 56.8068
L69.0588 56.6163
L73.3109 56.3124
L74.6499 41.4917
L74.7857 34.5235
L74.9579 9.6319
L75.078 16.2111
L75.4826 42.5294
L75.728 45.9901
L75.9603 46.7451
L76.1587 46.81
L76.3988 46.6097
L76.7929 45.9474
L77.3019 44.635
L77.7613 42.8238
L78.1085 40.5188
L78.3617 37.2187
L78.5575 31.3308
L78.735 25.5147
L78.7872 26.1463
L78.9464 32.3634
L79.3301 44.806
L79.6198 47.7932
L79.9435 49.0615
L80.275 49.575
L80.5778 49.6831
L80.8936 49.5524
L81.3008 49.1168
L81.8333 48.192
L82.4206 46.7075
L82.9166 44.8419
L83.2768 42.5924
L83.5247 39.5356
L83.6918 34.4203
L83.9084 19.7291
L84.0103 23.5216
L84.4775 45.3043
L84.7542 48.48
L85.07 49.812
L85.4015 50.3692
L85.7043 50.4955
L86.0149 50.3762
L86.4169 49.9552
L86.9572 49.0373
L87.5863 47.5109
L88.1318 45.5989
L88.5233 43.3993
L88.7922 40.5398
L88.9723 35.9606
L89.1107 25.315
L89.2151 18.8179
L89.2673 20.0876
L89.5335 36.8183
L89.8232 46.0596
L90.1025 48.7935
L90.4236 49.9713
L90.7499 50.4376
L91.0474 50.519
L91.3659 50.3632
L91.7861 49.8822
L92.35 48.8671
L92.979 47.26
L93.5011 45.3159
L93.8743 43.0425
L94.1275 40.0346
L94.2972 35.0403
L94.4486 21.8954
L94.5191 18.7977
L94.5765 20.2737
L95.2734 47.8366
L95.5736 49.5343
L95.9051 50.2842
L96.2157 50.5131
L96.5133 50.4658
L96.8787 50.1576
L97.3747 49.4178
L97.9933 48.0705
L98.5806 46.2551
L99.0217 44.1584
L99.3271 41.5659
L99.5307 37.7635
L99.6717 30.2642
L99.8231 18.7988
L99.8883 20.6396
L100.523 47.2842
L100.815 49.2955
L101.146 50.1913
L101.465 50.4962
L101.76 50.4912
L102.107 50.2404
L102.577 49.5958
L103.18 48.3637
L103.788 46.6063
L104.255 44.5739
L104.582 42.1272
L104.803 38.6221
L104.952 32.2104
L105.127 18.799
L105.205 21.3203
L105.759 46.4067
L106.041 48.9293
L106.364 50.031
L106.691 50.4559
L106.986 50.514
L107.309 50.3371
L107.743 49.8171
L108.317 48.7494
L108.943 47.1003
L109.452 45.1326
L109.812 42.8274
L110.058 39.7103
L110.222 34.3986
L110.431 18.7991
L110.535 22.8855
L110.99 45.1262
L111.264 48.4441
L111.577 49.8122
L111.908 50.3872
L112.211 50.522
L112.519 50.4101
L112.916 50.0029
L113.454 49.1011
L114.083 47.5928
L114.634 45.693
L115.033 43.4965
L115.304 40.6939
L115.487 36.2538
L115.623 26.3635
L115.735 18.7993
L115.79 20.1094
L116.523 48.115
L116.829 49.6596
L117.16 50.3316
L117.468 50.5191
L117.768 50.4451
L118.147 50.0967
L118.661 49.2895
L119.282 47.8815
L119.857 46.027
L120.279 43.8979
L120.569 41.2496
L120.765 37.2194
L120.903 28.8744
L121.039 18.7996
L121.099 20.3355
L121.783 47.7284
L122.081 49.4834
L122.412 50.2645
L122.725 50.5101
L123.023 50.4715
L123.386 50.1739
L123.876 49.4529
L124.492 48.1272
L125.085 46.3185
L125.531 44.2304
L125.839 41.6749
L126.045 37.9541
L126.189 30.6108
L126.346 18.7996
L126.411 20.7061
L127.035 47.1805
L127.325 49.2461
L127.653 50.1674
L127.972 50.4903
L128.267 50.4964
L128.609 50.2603
L129.071 49.6415
L129.669 48.4416
L130.279 46.71
L130.757 44.6816
L131.091 42.2482
L131.316 38.8428
L131.467 32.6792
L131.65 18.7993
L131.733 21.6946
L132.255 46.019
L132.535 48.7795
L132.856 49.9654
L133.182 50.4351
L133.479 50.5185
L133.798 50.3642
L134.218 49.8846
L134.779 48.8766
L135.408 47.2738
L135.933 45.3252
L136.306 43.0592
L136.56 40.0711
L136.729 35.1426
L136.878 22.3274
L136.954 18.7991
L137.008 20.1796
L137.726 47.9998
L138.029 49.6063
L138.361 50.3116
L138.669 50.5167
L138.969 50.4545
L139.342 50.1233
L139.848 49.3451
L140.472 47.9536
L141.052 46.1131
L141.482 43.99
L141.777 41.3644
L141.976 37.424
L142.114 29.4864
L142.258 18.799
L142.318 20.41
L142.989 47.618
L143.286 49.4413
L143.618 50.2482
L143.931 50.507
L144.226 50.478
L144.583 50.1954
L145.069 49.4962
L145.682 48.1956
L146.28 46.3993
L146.732 44.3306
L147.045 41.8079
L147.256 38.1301
L147.4 31.1441
L147.562 18.7989
L147.632 20.9231
L148.227 46.8818
L148.514 49.125
L148.841 50.1145
L149.162 50.4774
L149.457 50.505
L149.791 50.2943
L150.24 49.7192
L150.83 48.572
L151.448 46.8713
L151.939 44.8673
L152.284 42.4894
L152.516 39.2199
L152.673 33.4426
L152.866 18.7989
L152.957 22.1004
L153.453 45.6867
L153.73 48.6499
L154.048 49.9075
L154.377 50.4178
L154.677 50.5206
L154.99 50.3833
L155.403 49.9307
L155.956 48.9613
L156.585 47.3943
L157.12 45.4615
L157.501 43.2351
L157.762 40.3126
L157.937 35.5608
L158.078 24.0169
L158.17 18.799
L158.224 20.1331
L158.953 48.0774
L159.258 49.6449
L159.59 50.3261
L159.898 50.5185
L160.198 50.4478
L160.574 50.1056
L161.085 49.3081
L161.709 47.901
L162.286 46.0455
L162.711 43.9116
L163.004 41.2425
L163.2 37.2015
L163.338 28.8208
L163.474 18.7991
L163.531 20.2393
L164.236 47.8992
L164.539 49.5673
L164.87 50.2967
L165.181 50.515
L165.478 50.4608
L165.846 50.1433
L166.348 49.386
L166.969 48.0185
L167.553 46.1885
L167.989 44.0816
L168.29 41.4792
L168.491 37.6284
L168.631 29.8554
L168.778 18.7993
L168.84 20.4733
L169.501 47.5266
L169.796 49.3968
L170.127 50.2309
L170.443 50.5042
L170.738 50.482
L171.093 50.2082
L171.573 49.5258
L172.184 48.2443
L172.784 46.4608
L173.241 44.3996
L173.557 41.9104
L173.771 38.3067
L173.917 31.4634
L174.082 18.7996
L174.155 20.9929
L174.742 46.7972
L175.027 49.0821
L175.353 50.0974
L175.677 50.4739
L175.971 50.5068
L176.306 50.3004
L176.752 49.7337
L177.339 48.5989
L177.958 46.9099
L178.451 44.9145
L178.798 42.551
L179.033 39.3036
L179.19 33.6855
L179.388 18.7996
L179.482 22.3417
L179.963 45.4704
L180.237 48.5599
L180.552 49.8651
L180.881 50.4033
L181.182 50.5216
L181.492 50.3978
L181.897 49.9687
L182.442 49.034
L183.071 47.4976
L183.614 45.5833
L184.006 43.3659
L184.272 40.5034
L184.45 35.9618
L184.588 25.2952
L184.692 18.7994
L184.744 20.076
L185.016 37.0909
L185.303 46.1045
L185.582 48.8092
L185.903 49.9772
L186.23 50.4389
L186.527 50.5178
L186.846 50.36
L187.269 49.8731
L187.832 48.8543
L188.461 47.2419
L188.984 45.2885
L189.354 43.016
L189.607 39.9776
L189.777 34.8811
L189.936 20.9856
L189.996 18.7991
L190.054 20.3
L190.745 47.794
L190.881 50.0397
L191.304 54.6313
L191.779 57.5654
L192.254 59.2213
L192.719 60.1002
L193.178 60.5259
L193.661 60.6773
L194.243 60.6162
L195.081 60.2813
L197.19 59.1038
L199.103 58.1882
L200.899 57.5784
L202.912 57.136
L203.797 57.0021
L203.797 57.0021" style="fill:none;stroke:#ff0000;stroke-linecap:square;"/>
   </g>
   <g id="line2d_4">
    <path clip-path="url(#pdaca76204f)" d="
M60.2388 61.1946
L61.035 59.8038
L61.852 58.8156
L62.7447 58.0796
L63.7705 57.5247
L65.0234 57.1076
L66.647 56.8117
L69.0275 56.6236
L73.3109 56.3208
L74.6578 41.3971
L74.7935 34.2452
L74.9632 9.60548
L75.078 15.7196
L75.4957 42.666
L75.741 45.9804
L75.9733 46.7029
L76.1717 46.7598
L76.4171 46.5506
L76.8217 45.8688
L77.3176 44.5825
L77.7744 42.778
L78.1189 40.4782
L78.3669 37.2253
L78.5601 31.3913
L78.7402 25.3545
L78.7924 26.0107
L78.9568 32.55
L79.3327 44.7369
L79.6224 47.7562
L79.9461 49.0423
L80.2802 49.5742
L80.5856 49.6914
L80.9015 49.5672
L81.3087 49.1406
L81.8281 48.2473
L82.4232 46.7639
L82.9348 44.8519
L83.2977 42.5832
L83.543 39.5502
L83.7101 34.41
L83.9241 19.5582
L84.0285 23.4247
L84.4931 45.2166
L84.7698 48.4284
L85.0883 49.7874
L85.4198 50.3534
L85.7226 50.485
L86.0306 50.3719
L86.4273 49.9628
L86.9729 49.0515
L87.5889 47.5757
L88.1318 45.7146
L88.5286 43.5664
L88.8053 40.7672
L88.988 36.4464
L89.1237 26.833
L89.2412 18.6884
L89.296 20.0319
L90.0216 48.0116
L90.327 49.6048
L90.6611 50.3065
L90.9691 50.5058
L91.2693 50.4409
L91.6426 50.1059
L92.1594 49.3105
L92.7728 47.9398
L93.3471 46.1212
L93.7751 44.0297
L94.0701 41.4478
L94.2711 37.5421
L94.4094 29.7814
L94.5556 18.6698
L94.6182 20.387
L95.2708 47.4058
L95.5658 49.3335
L95.8973 50.1978
L96.2131 50.487
L96.5081 50.4761
L96.8552 50.2196
L97.3355 49.5542
L97.9359 48.321
L98.5493 46.5344
L99.0165 44.466
L99.3376 41.9899
L99.5542 38.4225
L99.7004 31.7684
L99.87 18.6708
L99.9457 21.0956
L100.51 46.48
L100.791 48.9338
L101.118 50.0285
L101.441 50.4445
L101.739 50.5011
L102.065 50.3196
L102.504 49.7877
L103.083 48.7093
L103.71 47.0515
L104.216 45.075
L104.576 42.7272
L104.816 39.5943
L104.978 34.1885
L105.184 18.6712
L105.286 22.6984
L105.743 45.0997
L106.017 48.4107
L106.333 49.7935
L106.664 50.3722
L106.967 50.5097
L107.275 50.4006
L107.672 49.9946
L108.218 49.0867
L108.839 47.6025
L109.384 45.7375
L109.781 43.5995
L110.058 40.8282
L110.243 36.4952
L110.379 26.9515
L110.499 18.6717
L110.551 19.9669
L110.841 37.946
L111.125 46.3019
L111.407 48.8704
L111.731 49.9974
L112.057 50.4365
L112.355 50.5034
L112.678 50.3322
L113.109 49.8214
L113.686 48.7646
L114.315 47.1224
L114.827 45.1599
L115.192 42.8337
L115.437 39.7283
L115.602 34.4267
L115.811 18.6714
L115.918 22.931
L116.364 44.958
L116.638 48.3634
L116.951 49.7675
L117.283 50.3629
L117.586 50.5095
L117.891 50.4087
L118.283 50.0174
L118.823 49.1312
L119.442 47.6726
L119.992 45.8202
L120.397 43.6845
L120.676 40.9642
L120.864 36.7531
L121 27.6942
L121.125 18.6709
L121.18 20.0102
L121.906 48.011
L122.211 49.6043
L122.545 50.3058
L122.853 50.5051
L123.153 50.44
L123.527 50.105
L124.043 49.3094
L124.657 47.9387
L125.231 46.1198
L125.659 44.0277
L125.954 41.4441
L126.155 37.5333
L126.293 29.756
L126.44 18.6709
L126.502 20.4012
L127.152 47.3809
L127.447 49.324
L127.779 50.194
L128.095 50.4861
L128.389 50.4769
L128.737 50.2219
L129.214 49.5624
L129.815 48.333
L130.431 46.5427
L130.901 44.4643
L131.222 41.9867
L131.438 38.415
L131.584 31.7459
L131.754 18.6712
L131.827 20.9684
L132.404 46.6303
L132.689 49.0009
L133.015 50.0555
L133.338 50.4526
L133.633 50.4987
L133.962 50.3078
L134.406 49.7593
L134.991 48.6561
L135.62 46.9668
L136.124 44.9551
L136.476 42.582
L136.711 39.3753
L136.87 33.7076
L137.069 18.6715
L137.162 22.2212
L137.643 45.4136
L137.917 48.5167
L138.233 49.836
L138.564 50.387
L138.867 50.5095
L139.178 50.3876
L139.58 49.9627
L140.13 49.0285
L140.752 47.5203
L141.289 45.6477
L141.681 43.4838
L141.952 40.668
L142.135 36.1717
L142.271 26.0508
L142.38 18.6716
L142.435 19.9802
L143.169 48.069
L143.477 49.6354
L143.811 50.3174
L144.119 50.5065
L144.419 50.4345
L144.795 50.09
L145.317 49.2767
L145.93 47.8923
L146.499 46.0718
L146.925 43.9653
L147.217 41.3534
L147.415 37.3889
L147.554 29.3203
L147.695 18.671
L147.755 20.2417
L148.433 47.6378
L148.734 49.4416
L149.068 50.2439
L149.381 50.496
L149.679 50.4627
L150.036 50.1748
L150.532 49.4558
L151.138 48.167
L151.735 46.3661
L152.187 44.2856
L152.498 41.7608
L152.706 38.0813
L152.85 30.9477
L153.009 18.6709
L153.077 20.6545
L153.691 47.0242
L153.98 49.169
L154.309 50.128
L154.63 50.4717
L154.925 50.4889
L155.262 50.2669
L155.724 49.6617
L156.316 48.4956
L156.943 46.7432
L157.428 44.6978
L157.765 42.2614
L157.99 38.8707
L158.141 32.728
L158.324 18.671
L158.407 21.5472
L158.932 46.0006
L159.211 48.7504
L159.535 49.9491
L159.864 50.4229
L160.161 50.5064
L160.48 50.3524
L160.9 49.8724
L161.469 48.8566
L162.095 47.2615
L162.615 45.3374
L162.988 43.0836
L163.244 40.0816
L163.414 35.1511
L163.56 22.4744
L163.638 18.6713
L163.693 20.0654
L164.408 47.9339
L164.714 49.5741
L165.048 50.2945
L165.358 50.504
L165.658 50.4437
L166.029 50.116
L166.543 49.3313
L167.151 47.9832
L167.731 46.1652
L168.164 44.0694
L168.462 41.494
L168.665 37.577
L168.804 29.8876
L168.953 18.6717
L169.013 20.3329
L169.676 47.5018
L169.973 49.3801
L170.305 50.2161
L170.62 50.491
L170.915 50.4711
L171.268 50.2013
L171.753 49.516
L172.356 48.2597
L172.964 46.4636
L173.427 44.382
L173.742 41.8873
L173.956 38.2444
L174.1 31.441
L174.264 18.6712
L174.337 20.8926
L174.922 46.7174
L175.207 49.0325
L175.536 50.0733
L175.859 50.4578
L176.154 50.4965
L176.483 50.2996
L176.929 49.7413
L177.517 48.6239
L178.146 46.9203
L178.644 44.9087
L178.994 42.522
L179.226 39.2946
L179.383 33.633
L179.579 18.6709
L179.675 22.2969
L180.153 45.3871
L180.427 48.5077
L180.743 49.8323
L181.074 50.3858
L181.377 50.5095
L181.688 50.3886
L182.09 49.9647
L182.641 49.0313
L183.262 47.5243
L183.8 45.6537
L184.191 43.4942
L184.465 40.6495
L184.645 36.2288
L184.781 26.2066
L184.893 18.6709
L184.945 19.9188
L185.199 36.0195
L185.491 45.8214
L185.768 48.673
L186.089 49.9119
L186.418 50.4107
L186.718 50.5079
L187.034 50.3649
L187.449 49.9025
L188.013 48.9121
L188.636 47.3482
L189.161 45.4455
L189.539 43.2321
L189.803 40.2651
L189.975 35.5322
L190.116 23.8413
L190.208 18.6711
L190.263 20.0561
L191.046 50.9814
L191.458 55.2046
L191.928 57.9388
L192.398 59.4749
L192.857 60.2819
L193.311 60.6629
L193.797 60.7851
L194.395 60.6931
L195.277 60.3063
L200.038 57.9016
L201.894 57.3731
L203.797 57.0271
L203.797 57.0271" style="fill:none;stroke:#00bfbf;stroke-linecap:square;"/>
   </g>
   <g id="line2d_5">
    <path clip-path="url(#pdaca76204f)" d="
M60.2388 61.1946
L61.0349 59.8111
L61.865 58.8145
L62.7551 58.0883
L63.7208 57.5643
L64.9503 57.1478
L66.6365 56.8364
L69.1058 56.6442
L73.3082 56.3754
L74.663 41.3635
L74.7961 34.396
L74.9684 9.64029
L75.0858 16.0949
L75.493 42.5016
L75.7384 45.9343
L75.9707 46.6881
L76.1691 46.7545
L76.4092 46.557
L76.806 45.9002
L77.2993 44.6414
L77.7587 42.8628
L78.1084 40.5908
L78.3617 37.3765
L78.5575 31.6526
L78.7428 25.4071
L78.795 26.0488
L78.9646 32.7856
L79.3379 44.7617
L79.6276 47.757
L79.9513 49.0359
L80.2854 49.5646
L80.5908 49.6804
L80.9092 49.5536
L81.3164 49.1247
L81.8385 48.2238
L82.4284 46.7502
L82.9348 44.8596
L83.3002 42.5804
L83.5456 39.5527
L83.7126 34.4325
L83.9267 19.6119
L84.0311 23.4513
L84.4957 45.2035
L84.7724 48.4163
L85.0909 49.7762
L85.4224 50.3428
L85.7251 50.4749
L86.0332 50.3623
L86.4456 49.9332
L87.025 48.9438
L87.641 47.4279
L88.1709 45.5527
L88.5572 43.369
L88.8261 40.4836
L89.0036 35.9166
L89.1393 25.4218
L89.2437 18.7398
L89.2985 20.0824
L90.0242 48.0019
L90.3296 49.5941
L90.6637 50.2956
L90.9665 50.4942
L91.264 50.4346
L91.6347 50.1083
L92.1437 49.3351
L92.7519 47.9929
L93.3314 46.1833
L93.7647 44.1029
L94.0622 41.565
L94.2658 37.7635
L94.4068 30.2314
L94.5582 18.7231
L94.6208 20.4678
L95.2682 47.3474
L95.5632 49.3044
L95.8946 50.1795
L96.213 50.4754
L96.508 50.4662
L96.8526 50.214
L97.325 49.5657
L97.9175 48.3617
L98.5336 46.589
L99.0086 44.5132
L99.3323 42.0563
L99.549 38.5892
L99.6977 32.09
L99.87 18.7202
L99.9483 21.2094
L100.504 46.3765
L100.786 48.8899
L101.112 50.0046
L101.439 50.4318
L101.736 50.4919
L102.06 50.3156
L102.493 49.7965
L103.075 48.7217
L103.702 47.0736
L104.208 45.1132
L104.571 42.7776
L104.814 39.6624
L104.976 34.3969
L105.184 18.7214
L105.289 22.8504
L105.74 45.0207
L106.015 48.3763
L106.323 49.7514
L106.654 50.3501
L106.957 50.4988
L107.265 50.3978
L107.654 50.01
L108.194 49.1262
L108.81 47.6773
L109.392 45.7007
L109.786 43.5603
L110.06 40.7926
L110.246 36.4129
L110.381 26.747
L110.499 18.7246
L110.551 19.9998
L111.274 47.9676
L111.58 49.5806
L111.914 50.2902
L112.224 50.4943
L112.524 50.4306
L112.898 50.097
L113.415 49.3035
L114.023 47.9482
L114.6 46.1278
L115.03 44.0286
L115.325 41.4517
L115.526 37.5631
L115.665 29.8676
L115.811 18.72
L115.873 20.4009
L116.531 47.4445
L116.826 49.3416
L117.16 50.1987
L117.476 50.4795
L117.771 50.4632
L118.121 50.1997
L118.604 49.5244
L119.207 48.2766
L119.815 46.4925
L120.277 44.4323
L120.595 41.9594
L120.809 38.4269
L120.955 31.7998
L121.125 18.7233
L121.201 21.1344
L121.765 46.4688
L122.049 48.9357
L122.375 50.0226
L122.702 50.4368
L122.997 50.49
L123.323 50.3071
L123.761 49.7743
L124.341 48.6953
L124.965 47.0442
L125.469 45.0803
L125.829 42.7419
L126.069 39.6349
L126.231 34.3196
L126.44 18.7235
L126.541 22.7718
L126.996 45.0491
L127.27 48.3859
L127.586 49.777
L127.917 50.3593
L128.217 50.499
L128.523 50.3952
L128.914 50.0015
L129.452 49.1186
L130.065 47.6736
L130.616 45.8257
L131.021 43.6982
L131.3 40.998
L131.488 36.8515
L131.624 28.0076
L131.751 18.726
L131.806 20.0614
L132.535 48.0216
L132.843 49.6096
L133.177 50.3006
L133.485 50.4945
L133.787 50.4245
L134.163 50.0818
L134.685 49.2709
L135.299 47.8888
L135.87 46.061
L136.293 43.9686
L136.586 41.3662
L136.784 37.4322
L136.922 29.4749
L137.066 18.7244
L137.126 20.3541
L137.794 47.5383
L138.092 49.3869
L138.415 50.2002
L138.731 50.4793
L139.029 50.4609
L139.379 50.1946
L139.859 49.5213
L140.459 48.2788
L141.067 46.4957
L141.529 44.4377
L141.858 41.8549
L142.07 38.2465
L142.213 31.4662
L142.378 18.7227
L142.451 20.9348
L143.036 46.7077
L143.323 49.0345
L143.651 50.0677
L143.975 50.4487
L144.273 50.4848
L144.604 50.2824
L145.051 49.7201
L145.635 48.604
L146.259 46.9132
L146.758 44.9015
L147.107 42.514
L147.34 39.2846
L147.496 33.6193
L147.692 18.7228
L147.786 22.2056
L148.269 45.4371
L148.546 48.5335
L148.864 49.8428
L149.196 50.3823
L149.496 50.4987
L149.806 50.3741
L150.211 49.9436
L150.764 49.0006
L151.378 47.5077
L151.913 45.6439
L152.304 43.4817
L152.576 40.6705
L152.756 36.2965
L152.894 26.1334
L153.007 18.7211
L153.059 20.01
L153.341 37.569
L153.628 46.2134
L153.91 48.8322
L154.233 49.9756
L154.56 50.4226
L154.857 50.4944
L155.176 50.3313
L155.604 49.8318
L156.173 48.802
L156.799 47.1882
L157.313 45.2531
L157.682 42.9821
L157.932 39.963
L158.099 34.9644
L158.251 21.678
L158.318 18.7249
L158.376 20.1753
L159.078 47.8216
L159.373 49.4874
L159.707 50.2545
L160.02 50.489
L160.315 50.4457
L160.686 50.1347
L161.184 49.3953
L161.787 48.0923
L162.375 46.2999
L162.818 44.2293
L163.124 41.7182
L163.333 37.9878
L163.476 30.6834
L163.633 18.7237
L163.698 20.6059
L164.327 47.176
L164.62 49.2296
L164.951 50.1501
L165.269 50.4685
L165.564 50.4732
L165.909 50.2329
L166.376 49.6047
L166.969 48.418
L167.59 46.6526
L168.068 44.6004
L168.397 42.1648
L168.616 38.7788
L168.767 32.4698
L168.945 18.7203
L169.028 21.5102
L169.558 46.0558
L169.837 48.7625
L170.161 49.9477
L170.49 50.4156
L170.785 50.4961
L171.103 50.3416
L171.526 49.8578
L172.09 48.8514
L172.719 47.2506
L173.239 45.3244
L173.625 42.9566
L173.875 39.9078
L174.042 34.8101
L174.207 20.4237
L174.259 18.725
L174.319 20.3175
L174.993 47.5819
L175.29 49.4034
L175.624 50.2221
L175.938 50.4827
L176.235 50.4552
L176.59 50.1753
L177.081 49.4727
L177.681 48.2093
L178.284 46.4132
L178.741 44.3353
L179.054 41.8328
L179.266 38.1935
L179.409 31.3079
L179.574 18.7248
L179.644 20.9023
L180.234 46.7675
L180.521 49.0559
L180.85 50.0761
L181.171 50.4495
L181.469 50.4841
L181.798 50.2828
L182.244 49.7209
L182.829 48.6053
L183.455 46.9066
L183.956 44.8777
L184.303 42.4952
L184.536 39.2423
L184.692 33.496
L184.885 18.7225
L184.979 22.1646
L185.465 45.4738
L185.742 48.5463
L186.06 49.8482
L186.392 50.3844
L186.686 50.4992
L186.997 50.3769
L187.402 49.9486
L187.952 49.013
L188.571 47.5102
L189.109 45.6364
L189.5 43.4689
L189.772 40.6434
L189.952 36.2241
L190.088 26.2223
L190.2 18.7208
L190.252 19.9753
L190.508 36.1852
L190.818 46.8297
L191.15 52.3466
L191.594 56.1725
L192.066 58.4926
L192.533 59.7701
L192.993 60.4294
L193.45 60.7203
L193.953 60.7801
L194.601 60.6215
L195.619 60.1207
L199.27 58.2018
L201.118 57.5819
L203.298 57.1196
L203.797 57.0452
L203.797 57.0452" style="fill:none;stroke:#bf00bf;stroke-linecap:square;"/>
   </g>
   <g id="line2d_6">
    <path clip-path="url(#pdaca76204f)" d="
M60.2382 61.1951
L61.5456 59.2657
L62.629 58.3912
L64.0439 57.7841
L65.8033 57.4434
L71.1753 57.0917
L73.3001 56.9835
L73.6785 53.3449
L74.3835 47.0093
L74.7748 40.0447
L74.8814 32.8558
L75.0387 10.1311
L75.1452 15.6437
L75.6361 44.0121
L75.902 46.2822
L76.14 46.6427
L76.3491 46.5675
L76.7563 45.9889
L77.6385 43.5322
L78.2389 39.7532
L78.5546 33.9022
L78.7995 26.1453
L78.8384 26.4854
L78.9409 29.5926
L79.3004 42.7589
L79.632 47.2575
L80.0054 48.8841
L80.4027 49.4766
L80.6396 49.5436
L80.9662 49.4326
L81.3078 49.0976
L81.7071 48.4842
L82.188 47.4839
L83.0832 44.3443
L83.349 42.6132
L83.5581 40.3184
L83.7204 36.7086
L83.9265 22.5391
L83.9893 20.4346
L84.044 21.7254
L84.5787 45.5184
L84.8994 48.6547
L85.2857 49.9074
L85.6442 50.282
L85.9409 50.2795
L86.2834 50.0459
L87.2154 48.5288
L88.2988 45.1129
L88.8285 41.1323
L89.0784 34.8325
L89.2069 24.2326
L89.2955 19.5921
L89.3423 20.5816
L89.4837 29.2305
L89.7416 42.1461
L90.0522 47.6695
L90.4047 49.5199
L90.799 50.2316
L91.1226 50.3426
L91.4124 50.2326
L91.7958 49.8335
L92.1692 49.2482
L92.6083 48.3645
L93.7195 44.5572
L93.9834 42.7759
L94.1895 40.3915
L94.3458 36.644
L94.4663 29.3037
L94.6047 19.5519
L94.6694 21.3477
L95.3903 47.9113
L95.7508 49.6244
L96.0087 50.1247
L96.3512 50.342
L96.6589 50.271
L96.9934 49.9743
L97.9513 48.2847
L98.9481 44.9759
L99.2328 43.2613
L99.5933 38.5293
L99.7785 29.0549
L99.9139 19.5535
L99.9557 20.3512
L100.081 27.7927
L100.347 41.7181
L100.658 47.5537
L101.007 49.4728
L101.392 50.2074
L101.634 50.3395
L101.989 50.2586
L102.305 49.9713
L102.694 49.4094
L103.874 46.5476
L104.636 42.4731
L104.834 39.9517
L104.983 35.9264
L105.223 19.5535
L105.32 23.0947
L105.862 46.3594
L106.186 48.9781
L106.567 50.0392
L106.917 50.3353
L107.256 50.2823
L107.559 50.032
L107.93 49.5286
L108.358 48.7492
L108.789 47.7411
L109.742 44.0116
L110.149 39.8575
L110.357 32.3312
L110.532 19.5535
L110.621 22.6248
L111.197 46.7065
L111.529 49.1236
L111.91 50.0897
L112.26 50.3402
L112.604 50.2602
L112.923 49.9713
L113.312 49.4094
L114.492 46.5476
L115.254 42.4731
L115.452 39.9517
L115.602 35.9264
L115.842 19.5535
L115.938 23.0947
L116.481 46.3594
L116.804 48.9781
L117.186 50.0392
L117.535 50.3353
L117.875 50.2823
L118.178 50.032
L118.548 49.5286
L118.976 48.7492
L119.407 47.7411
L120.36 44.0116
L120.767 39.8575
L120.976 32.3312
L121.151 19.5535
L121.239 22.6248
L121.816 46.7065
L122.147 49.1236
L122.529 50.0897
L122.878 50.3402
L123.223 50.2602
L123.541 49.9713
L123.931 49.4094
L125.111 46.5476
L125.872 42.4731
L126.071 39.9517
L126.22 35.9264
L126.46 19.5535
L126.557 23.0947
L127.099 46.3594
L127.423 48.9781
L127.804 50.0392
L128.154 50.3353
L128.493 50.2823
L128.796 50.032
L129.166 49.5286
L129.595 48.7492
L130.026 47.7411
L130.979 44.0116
L131.386 39.8575
L131.594 32.3312
L131.769 19.5535
L131.858 22.6248
L132.434 46.7065
L132.766 49.1236
L133.147 50.0897
L133.497 50.3402
L133.841 50.2602
L134.16 49.9713
L134.549 49.4094
L135.729 46.5476
L136.491 42.4731
L136.689 39.9517
L136.838 35.9264
L137.078 19.5535
L137.175 23.0947
L137.718 46.3594
L138.041 48.9781
L138.423 50.0392
L138.772 50.3353
L139.112 50.2823
L139.414 50.032
L139.785 49.5286
L140.213 48.7492
L140.644 47.7411
L141.597 44.0116
L142.004 39.8575
L142.212 32.3312
L142.388 19.5535
L142.476 22.6248
L143.053 46.7065
L143.384 49.1236
L143.766 50.0897
L144.115 50.3402
L144.46 50.2602
L144.778 49.9713
L145.168 49.4094
L146.348 46.5476
L147.109 42.4731
L147.307 39.9517
L147.457 35.9264
L147.697 19.5535
L147.793 23.0947
L148.336 46.3594
L148.66 48.9781
L149.041 50.0392
L149.391 50.3353
L149.73 50.2823
L150.033 50.032
L150.403 49.5286
L150.831 48.7492
L151.263 47.7411
L152.215 44.0116
L152.623 39.8575
L152.831 32.3312
L153.006 19.5535
L153.095 22.6248
L153.671 46.7065
L154.003 49.1236
L154.384 50.0897
L154.734 50.3402
L155.078 50.2602
L155.397 49.9713
L155.786 49.4094
L156.966 46.5476
L157.728 42.4731
L157.926 39.9517
L158.075 35.9264
L158.315 19.5535
L158.412 23.0947
L158.954 46.3594
L159.278 48.9781
L159.659 50.0392
L160.009 50.3353
L160.349 50.2823
L160.651 50.032
L161.022 49.5286
L161.45 48.7492
L161.884 47.7342
L162.831 44.0276
L163.071 42.1425
L163.259 39.5106
L163.402 35.1042
L163.525 25.2953
L163.624 19.5535
L163.682 20.9818
L164.201 45.3513
L164.515 48.6102
L164.89 49.9007
L165.258 50.3184
L165.587 50.315
L165.909 50.0887
L166.851 48.5561
L167.271 47.5215
L167.647 46.3236
L168.354 42.3992
L168.552 39.8098
L168.699 35.7028
L168.819 26.9499
L168.934 19.5535
L168.975 20.3512
L169.101 27.7927
L169.367 41.7181
L169.677 47.5537
L170.027 49.4728
L170.411 50.2074
L170.651 50.3392
L171.009 50.2586
L171.324 49.9713
L171.714 49.4094
L172.894 46.5476
L173.655 42.4731
L173.854 39.9517
L174.003 35.9264
L174.243 19.5535
L174.339 23.0947
L174.882 46.3594
L175.206 48.9781
L175.587 50.0392
L175.937 50.3353
L176.276 50.2823
L176.579 50.032
L176.949 49.5286
L177.377 48.7492
L177.812 47.7342
L178.758 44.0276
L178.998 42.1425
L179.187 39.5106
L179.33 35.1042
L179.453 25.2953
L179.552 19.5535
L179.61 20.9818
L180.129 45.3513
L180.442 48.6102
L180.818 49.9007
L181.186 50.3184
L181.515 50.315
L181.836 50.0887
L182.778 48.5561
L183.198 47.5215
L183.575 46.3236
L184.282 42.3992
L184.48 39.8098
L184.626 35.7028
L184.747 26.9499
L184.861 19.5535
L184.903 20.3512
L185.029 27.7927
L185.294 41.7181
L185.605 47.5537
L185.955 49.4728
L186.339 50.2074
L186.579 50.3392
L186.936 50.2586
L187.252 49.9713
L187.641 49.4094
L188.821 46.5476
L189.583 42.4731
L189.781 39.9517
L189.931 35.9264
L190.171 19.5535
L190.267 23.0947
L190.831 47.4332
L191.251 53.4286
L191.838 57.4905
L192.444 59.5278
L193.055 60.4494
L193.381 60.6579
L193.976 60.7458
L194.598 60.6348
L195.31 60.3363
L196.367 59.7856
L200.786 58.0017
L203.796 57.5348
L203.796 57.5348" style="fill:none;stroke:#bfbf00;stroke-linecap:square;"/>
   </g>
   <g id="matplotlib.axis_1">
    <g id="xtick_1">
     <g id="line2d_7">
      <defs>
       <path d="
M0 0
L0 -4" id="m93b0483c22" style="stroke:#000000;stroke-width:0.5;"/>
      </defs>
      <g>
       <use style="stroke:#000000;stroke-width:0.5;" x="60.2362204724" xlink:href="#m93b0483c22" y="61.2"/>
      </g>
     </g>
     <g id="line2d_8">
      <defs>
       <path d="
M0 0
L0 4" id="m741efc42ff" style="stroke:#000000;stroke-width:0.5;"/>
      </defs>
      <g>
       <use style="stroke:#000000;stroke-width:0.5;" x="60.2362204724" xlink:href="#m741efc42ff" y="7.2"/>
      </g>
     </g>
     <g id="text_1">
      <!-- 0.0 -->
      <defs>
       <path d="
M4.15625 35.2969
Q4.15625 48 6.76562 55.7344
Q9.375 63.4844 14.5156 67.6719
Q19.6719 71.875 27.4844 71.875
Q33.25 71.875 37.5938 69.5469
Q41.9375 67.2344 44.7656 62.8594
Q47.6094 58.5 49.2188 52.2188
Q50.8281 45.9531 50.8281 35.2969
Q50.8281 22.7031 48.2344 14.9688
Q45.6562 7.23438 40.5 3
Q35.3594 -1.21875 27.4844 -1.21875
Q17.1406 -1.21875 11.2344 6.20312
Q4.15625 15.1406 4.15625 35.2969
M13.1875 35.2969
Q13.1875 17.6719 17.3125 11.8281
Q21.4375 6 27.4844 6
Q33.5469 6 37.6719 11.8594
Q41.7969 17.7188 41.7969 35.2969
Q41.7969 52.9844 37.6719 58.7812
Q33.5469 64.5938 27.3906 64.5938
Q21.3438 64.5938 17.7188 59.4688
Q13.1875 52.9375 13.1875 35.2969" id="ArialMT-30"/>
       <path d="
M9.07812 0
L9.07812 10.0156
L19.0938 10.0156
L19.0938 0
z
" id="ArialMT-2e"/>
      </defs>
      <g transform="translate(52.4324704724 73.789375)scale(0.12 -0.12)">
       <use xlink:href="#ArialMT-30"/>
       <use x="55.615234375" xlink:href="#ArialMT-2e"/>
       <use x="83.3984375" xlink:href="#ArialMT-30"/>
      </g>
     </g>
    </g>
    <g id="xtick_2">
     <g id="line2d_9">
      <g>
       <use style="stroke:#000000;stroke-width:0.5;" x="86.3385826772" xlink:href="#m93b0483c22" y="61.2"/>
      </g>
     </g>
     <g id="line2d_10">
      <g>
       <use style="stroke:#000000;stroke-width:0.5;" x="86.3385826772" xlink:href="#m741efc42ff" y="7.2"/>
      </g>
     </g>
     <g id="text_2">
      <!-- 0.1 -->
      <defs>
       <path d="
M37.25 0
L28.4688 0
L28.4688 56
Q25.2969 52.9844 20.1406 49.9531
Q14.9844 46.9219 10.8906 45.4062
L10.8906 53.9062
Q18.2656 57.375 23.7812 62.2969
Q29.2969 67.2344 31.5938 71.875
L37.25 71.875
z
" id="ArialMT-31"/>
      </defs>
      <g transform="translate(79.3495201772 73.789375)scale(0.12 -0.12)">
       <use xlink:href="#ArialMT-30"/>
       <use x="55.615234375" xlink:href="#ArialMT-2e"/>
       <use x="83.3984375" xlink:href="#ArialMT-31"/>
      </g>
     </g>
    </g>
    <g id="xtick_3">
     <g id="line2d_11">
      <g>
       <use style="stroke:#000000;stroke-width:0.5;" x="112.440944882" xlink:href="#m93b0483c22" y="61.2"/>
      </g>
     </g>
     <g id="line2d_12">
      <g>
       <use style="stroke:#000000;stroke-width:0.5;" x="112.440944882" xlink:href="#m741efc42ff" y="7.2"/>
      </g>
     </g>
     <g id="text_3">
      <!-- 0.2 -->
      <defs>
       <path d="
M50.3438 8.45312
L50.3438 0
L3.03125 0
Q2.9375 3.17188 4.04688 6.10938
Q5.85938 10.9375 9.82812 15.625
Q13.8125 20.3125 21.3438 26.4688
Q33.0156 36.0312 37.1094 41.625
Q41.2188 47.2188 41.2188 52.2031
Q41.2188 57.4219 37.4688 61
Q33.7344 64.5938 27.7344 64.5938
Q21.3906 64.5938 17.5781 60.7812
Q13.7656 56.9844 13.7188 50.25
L4.6875 51.1719
Q5.60938 61.2812 11.6562 66.5781
Q17.7188 71.875 27.9375 71.875
Q38.2344 71.875 44.2344 66.1562
Q50.25 60.4531 50.25 52
Q50.25 47.7031 48.4844 43.5469
Q46.7344 39.4062 42.6562 34.8125
Q38.5781 30.2188 29.1094 22.2188
Q21.1875 15.5781 18.9375 13.2031
Q16.7031 10.8438 15.2344 8.45312
z
" id="ArialMT-32"/>
      </defs>
      <g transform="translate(104.666257382 73.789375)scale(0.12 -0.12)">
       <use xlink:href="#ArialMT-30"/>
       <use x="55.615234375" xlink:href="#ArialMT-2e"/>
       <use x="83.3984375" xlink:href="#ArialMT-32"/>
      </g>
     </g>
    </g>
    <g id="xtick_4">
     <g id="line2d_13">
      <g>
       <use style="stroke:#000000;stroke-width:0.5;" x="138.543307087" xlink:href="#m93b0483c22" y="61.2"/>
      </g>
     </g>
     <g id="line2d_14">
      <g>
       <use style="stroke:#000000;stroke-width:0.5;" x="138.543307087" xlink:href="#m741efc42ff" y="7.2"/>
      </g>
     </g>
     <g id="text_4">
      <!-- 0.3 -->
      <defs>
       <path d="
M4.20312 18.8906
L12.9844 20.0625
Q14.5 12.5938 18.1406 9.29688
Q21.7812 6 27 6
Q33.2031 6 37.4688 10.2969
Q41.75 14.5938 41.75 20.9531
Q41.75 27 37.7969 30.9219
Q33.8438 34.8594 27.7344 34.8594
Q25.25 34.8594 21.5312 33.8906
L22.5156 41.6094
Q23.3906 41.5 23.9219 41.5
Q29.5469 41.5 34.0312 44.4219
Q38.5312 47.3594 38.5312 53.4688
Q38.5312 58.2969 35.25 61.4688
Q31.9844 64.6562 26.8125 64.6562
Q21.6875 64.6562 18.2656 61.4219
Q14.8438 58.2031 13.875 51.7656
L5.07812 53.3281
Q6.6875 62.1562 12.3906 67.0156
Q18.1094 71.875 26.6094 71.875
Q32.4688 71.875 37.3906 69.3594
Q42.3281 66.8438 44.9375 62.5
Q47.5625 58.1562 47.5625 53.2656
Q47.5625 48.6406 45.0625 44.8281
Q42.5781 41.0156 37.7031 38.7656
Q44.0469 37.3125 47.5625 32.6875
Q51.0781 28.0781 51.0781 21.1406
Q51.0781 11.7656 44.2344 5.25
Q37.4062 -1.26562 26.9531 -1.26562
Q17.5312 -1.26562 11.2969 4.34375
Q5.07812 9.96875 4.20312 18.8906" id="ArialMT-33"/>
      </defs>
      <g transform="translate(130.724557087 73.789375)scale(0.12 -0.12)">
       <use xlink:href="#ArialMT-30"/>
       <use x="55.615234375" xlink:href="#ArialMT-2e"/>
       <use x="83.3984375" xlink:href="#ArialMT-33"/>
      </g>
     </g>
    </g>
    <g id="xtick_5">
     <g id="line2d_15">
      <g>
       <use style="stroke:#000000;stroke-width:0.5;" x="164.645669291" xlink:href="#m93b0483c22" y="61.2"/>
      </g>
     </g>
     <g id="line2d_16">
      <g>
       <use style="stroke:#000000;stroke-width:0.5;" x="164.645669291" xlink:href="#m741efc42ff" y="7.2"/>
      </g>
     </g>
     <g id="text_5">
      <!-- 0.4 -->
      <defs>
       <path d="
M32.3281 0
L32.3281 17.1406
L1.26562 17.1406
L1.26562 25.2031
L33.9375 71.5781
L41.1094 71.5781
L41.1094 25.2031
L50.7812 25.2031
L50.7812 17.1406
L41.1094 17.1406
L41.1094 0
z

M32.3281 25.2031
L32.3281 57.4688
L9.90625 25.2031
z
" id="ArialMT-34"/>
      </defs>
      <g transform="translate(156.844731791 73.789375)scale(0.12 -0.12)">
       <use xlink:href="#ArialMT-30"/>
       <use x="55.615234375" xlink:href="#ArialMT-2e"/>
       <use x="83.3984375" xlink:href="#ArialMT-34"/>
      </g>
     </g>
    </g>
    <g id="xtick_6">
     <g id="line2d_17">
      <g>
       <use style="stroke:#000000;stroke-width:0.5;" x="190.748031496" xlink:href="#m93b0483c22" y="61.2"/>
      </g>
     </g>
     <g id="line2d_18">
      <g>
       <use style="stroke:#000000;stroke-width:0.5;" x="190.748031496" xlink:href="#m741efc42ff" y="7.2"/>
      </g>
     </g>
     <g id="text_6">
      <!-- 0.5 -->
      <defs>
       <path d="
M4.15625 18.75
L13.375 19.5312
Q14.4062 12.7969 18.1406 9.39062
Q21.875 6 27.1562 6
Q33.5 6 37.8906 10.7812
Q42.2812 15.5781 42.2812 23.4844
Q42.2812 31 38.0625 35.3438
Q33.8438 39.7031 27 39.7031
Q22.75 39.7031 19.3281 37.7656
Q15.9219 35.8438 13.9688 32.7656
L5.71875 33.8438
L12.6406 70.6094
L48.25 70.6094
L48.25 62.2031
L19.6719 62.2031
L15.8281 42.9688
Q22.2656 47.4688 29.3438 47.4688
Q38.7188 47.4688 45.1562 40.9688
Q51.6094 34.4688 51.6094 24.2656
Q51.6094 14.5469 45.9531 7.46875
Q39.0625 -1.21875 27.1562 -1.21875
Q17.3906 -1.21875 11.2031 4.25
Q5.03125 9.71875 4.15625 18.75" id="ArialMT-35"/>
      </defs>
      <g transform="translate(182.897406496 73.789375)scale(0.12 -0.12)">
       <use xlink:href="#ArialMT-30"/>
       <use x="55.615234375" xlink:href="#ArialMT-2e"/>
       <use x="83.3984375" xlink:href="#ArialMT-35"/>
      </g>
     </g>
    </g>
    <g id="xtick_7">
     <g id="line2d_19">
      <g>
       <use style="stroke:#000000;stroke-width:0.5;" x="216.850393701" xlink:href="#m93b0483c22" y="61.2"/>
      </g>
     </g>
     <g id="line2d_20">
      <g>
       <use style="stroke:#000000;stroke-width:0.5;" x="216.850393701" xlink:href="#m741efc42ff" y="7.2"/>
      </g>
     </g>
     <g id="text_7">
      <!-- 0.6 -->
      <defs>
       <path d="
M49.75 54.0469
L41.0156 53.375
Q39.8438 58.5469 37.7031 60.8906
Q34.125 64.6562 28.9062 64.6562
Q24.7031 64.6562 21.5312 62.3125
Q17.3906 59.2812 14.9844 53.4688
Q12.5938 47.6562 12.5 36.9219
Q15.6719 41.75 20.2656 44.0938
Q24.8594 46.4375 29.8906 46.4375
Q38.6719 46.4375 44.8438 39.9688
Q51.0312 33.5 51.0312 23.25
Q51.0312 16.5 48.125 10.7188
Q45.2188 4.9375 40.1406 1.85938
Q35.0625 -1.21875 28.6094 -1.21875
Q17.625 -1.21875 10.6875 6.85938
Q3.76562 14.9375 3.76562 33.5
Q3.76562 54.25 11.4219 63.6719
Q18.1094 71.875 29.4375 71.875
Q37.8906 71.875 43.2812 67.1406
Q48.6875 62.4062 49.75 54.0469
M13.875 23.1875
Q13.875 18.6562 15.7969 14.5
Q17.7188 10.3594 21.1875 8.17188
Q24.6562 6 28.4688 6
Q34.0312 6 38.0312 10.4844
Q42.0469 14.9844 42.0469 22.7031
Q42.0469 30.125 38.0781 34.3906
Q34.125 38.6719 28.125 38.6719
Q22.1719 38.6719 18.0156 34.3906
Q13.875 30.125 13.875 23.1875" id="ArialMT-36"/>
      </defs>
      <g transform="translate(209.034456201 73.789375)scale(0.12 -0.12)">
       <use xlink:href="#ArialMT-30"/>
       <use x="55.615234375" xlink:href="#ArialMT-2e"/>
       <use x="83.3984375" xlink:href="#ArialMT-36"/>
      </g>
     </g>
    </g>
   </g>
   <g id="matplotlib.axis_2">
    <g id="ytick_1">
     <g id="line2d_21">
      <defs>
       <path d="
M0 0
L4 0" id="m728421d6d4" style="stroke:#000000;stroke-width:0.5;"/>
      </defs>
      <g>
       <use style="stroke:#000000;stroke-width:0.5;" x="60.2362204724" xlink:href="#m728421d6d4" y="61.2"/>
      </g>
     </g>
     <g id="line2d_22">
      <defs>
       <path d="
M0 0
L-4 0" id="mcb0005524f" style="stroke:#000000;stroke-width:0.5;"/>
      </defs>
      <g>
       <use style="stroke:#000000;stroke-width:0.5;" x="216.850393701" xlink:href="#mcb0005524f" y="61.2"/>
      </g>
     </g>
     <g id="text_8">
      <!-- −0.06 -->
      <defs>
       <path d="
M52.8281 31.2031
L5.5625 31.2031
L5.5625 39.4062
L52.8281 39.4062
z
" id="ArialMT-2212"/>
      </defs>
      <g transform="translate(27.0912204724 64.3021875)scale(0.12 -0.12)">
       <use xlink:href="#ArialMT-2212"/>
       <use x="58.3984375" xlink:href="#ArialMT-30"/>
       <use x="114.013671875" xlink:href="#ArialMT-2e"/>
       <use x="141.796875" xlink:href="#ArialMT-30"/>
       <use x="197.412109375" xlink:href="#ArialMT-36"/>
      </g>
     </g>
    </g>
    <g id="ytick_2">
     <g id="line2d_23">
      <g>
       <use style="stroke:#000000;stroke-width:0.5;" x="60.2362204724" xlink:href="#m728421d6d4" y="50.4"/>
      </g>
     </g>
     <g id="line2d_24">
      <g>
       <use style="stroke:#000000;stroke-width:0.5;" x="216.850393701" xlink:href="#mcb0005524f" y="50.4"/>
      </g>
     </g>
     <g id="text_9">
      <!-- −0.04 -->
      <g transform="translate(27.1212204724 53.5021875)scale(0.12 -0.12)">
       <use xlink:href="#ArialMT-2212"/>
       <use x="58.3984375" xlink:href="#ArialMT-30"/>
       <use x="114.013671875" xlink:href="#ArialMT-2e"/>
       <use x="141.796875" xlink:href="#ArialMT-30"/>
       <use x="197.412109375" xlink:href="#ArialMT-34"/>
      </g>
     </g>
    </g>
    <g id="ytick_3">
     <g id="line2d_25">
      <g>
       <use style="stroke:#000000;stroke-width:0.5;" x="60.2362204724" xlink:href="#m728421d6d4" y="39.6"/>
      </g>
     </g>
     <g id="line2d_26">
      <g>
       <use style="stroke:#000000;stroke-width:0.5;" x="216.850393701" xlink:href="#mcb0005524f" y="39.6"/>
      </g>
     </g>
     <g id="text_10">
      <!-- −0.02 -->
      <g transform="translate(27.1737204724 42.7021875)scale(0.12 -0.12)">
       <use xlink:href="#ArialMT-2212"/>
       <use x="58.3984375" xlink:href="#ArialMT-30"/>
       <use x="114.013671875" xlink:href="#ArialMT-2e"/>
       <use x="141.796875" xlink:href="#ArialMT-30"/>
       <use x="197.412109375" xlink:href="#ArialMT-32"/>
      </g>
     </g>
    </g>
    <g id="ytick_4">
     <g id="line2d_27">
      <g>
       <use style="stroke:#000000;stroke-width:0.5;" x="60.2362204724" xlink:href="#m728421d6d4" y="28.8"/>
      </g>
     </g>
     <g id="line2d_28">
      <g>
       <use style="stroke:#000000;stroke-width:0.5;" x="216.850393701" xlink:href="#mcb0005524f" y="28.8"/>
      </g>
     </g>
     <g id="text_11">
      <!-- 0.00 -->
      <g transform="translate(33.9555954724 31.9021875)scale(0.12 -0.12)">
       <use xlink:href="#ArialMT-30"/>
       <use x="55.615234375" xlink:href="#ArialMT-2e"/>
       <use x="83.3984375" xlink:href="#ArialMT-30"/>
       <use x="139.013671875" xlink:href="#ArialMT-30"/>
      </g>
     </g>
    </g>
    <g id="ytick_5">
     <g id="line2d_29">
      <g>
       <use style="stroke:#000000;stroke-width:0.5;" x="60.2362204724" xlink:href="#m728421d6d4" y="18.0"/>
      </g>
     </g>
     <g id="line2d_30">
      <g>
       <use style="stroke:#000000;stroke-width:0.5;" x="216.850393701" xlink:href="#mcb0005524f" y="18.0"/>
      </g>
     </g>
     <g id="text_12">
      <!-- 0.02 -->
      <g transform="translate(34.0137204724 21.1021875)scale(0.12 -0.12)">
       <use xlink:href="#ArialMT-30"/>
       <use x="55.615234375" xlink:href="#ArialMT-2e"/>
       <use x="83.3984375" xlink:href="#ArialMT-30"/>
       <use x="139.013671875" xlink:href="#ArialMT-32"/>
      </g>
     </g>
    </g>
    <g id="ytick_6">
     <g id="line2d_31">
      <g>
       <use style="stroke:#000000;stroke-width:0.5;" x="60.2362204724" xlink:href="#m728421d6d4" y="7.2"/>
      </g>
     </g>
     <g id="line2d_32">
      <g>
       <use style="stroke:#000000;stroke-width:0.5;" x="216.850393701" xlink:href="#mcb0005524f" y="7.2"/>
      </g>
     </g>
     <g id="text_13">
      <!-- 0.04 -->
      <g transform="translate(33.9612204724 10.3021875)scale(0.12 -0.12)">
       <use xlink:href="#ArialMT-30"/>
       <use x="55.615234375" xlink:href="#ArialMT-2e"/>
       <use x="83.3984375" xlink:href="#ArialMT-30"/>
       <use x="139.013671875" xlink:href="#ArialMT-34"/>
      </g>
     </g>
    </g>
    <g id="text_14">
     <!-- Voltage (V) -->
     <defs>
      <path d="
M40.4375 6.39062
Q35.5469 2.25 31.0312 0.53125
Q26.5156 -1.17188 21.3438 -1.17188
Q12.7969 -1.17188 8.20312 3
Q3.60938 7.17188 3.60938 13.6719
Q3.60938 17.4844 5.34375 20.625
Q7.07812 23.7812 9.89062 25.6875
Q12.7031 27.5938 16.2188 28.5625
Q18.7969 29.25 24.0312 29.8906
Q34.6719 31.1562 39.7031 32.9062
Q39.75 34.7188 39.75 35.2031
Q39.75 40.5781 37.25 42.7812
Q33.8906 45.75 27.25 45.75
Q21.0469 45.75 18.0938 43.5781
Q15.1406 41.4062 13.7188 35.8906
L5.125 37.0625
Q6.29688 42.5781 8.98438 45.9688
Q11.6719 49.3594 16.75 51.1875
Q21.8281 53.0312 28.5156 53.0312
Q35.1562 53.0312 39.2969 51.4688
Q43.4531 49.9062 45.4062 47.5312
Q47.3594 45.1719 48.1406 41.5469
Q48.5781 39.3125 48.5781 33.4531
L48.5781 21.7344
Q48.5781 9.46875 49.1406 6.21875
Q49.7031 2.98438 51.375 0
L42.1875 0
Q40.8281 2.73438 40.4375 6.39062
M39.7031 26.0312
Q34.9062 24.0781 25.3438 22.7031
Q19.9219 21.9219 17.6719 20.9375
Q15.4375 19.9688 14.2031 18.0938
Q12.9844 16.2188 12.9844 13.9219
Q12.9844 10.4062 15.6406 8.0625
Q18.3125 5.71875 23.4375 5.71875
Q28.5156 5.71875 32.4688 7.9375
Q36.4219 10.1562 38.2812 14.0156
Q39.7031 17 39.7031 22.7969
z
" id="ArialMT-61"/>
      <path d="
M4.98438 -4.29688
L13.5312 -5.5625
Q14.0625 -9.51562 16.5 -11.3281
Q19.7812 -13.7656 25.4375 -13.7656
Q31.5469 -13.7656 34.8594 -11.3281
Q38.1875 -8.89062 39.3594 -4.5
Q40.0469 -1.8125 39.9844 6.78125
Q34.2344 0 25.6406 0
Q14.9375 0 9.07812 7.71875
Q3.21875 15.4375 3.21875 26.2188
Q3.21875 33.6406 5.90625 39.9062
Q8.59375 46.1875 13.6875 49.6094
Q18.7969 53.0312 25.6875 53.0312
Q34.8594 53.0312 40.8281 45.6094
L40.8281 51.8594
L48.9219 51.8594
L48.9219 7.03125
Q48.9219 -5.07812 46.4531 -10.125
Q44 -15.1875 38.6406 -18.1094
Q33.2969 -21.0469 25.4844 -21.0469
Q16.2188 -21.0469 10.5 -16.875
Q4.78125 -12.7031 4.98438 -4.29688
M12.25 26.8594
Q12.25 16.6562 16.2969 11.9688
Q20.3594 7.28125 26.4688 7.28125
Q32.5156 7.28125 36.6094 11.9375
Q40.7188 16.6094 40.7188 26.5625
Q40.7188 36.0781 36.5 40.9062
Q32.2812 45.75 26.3125 45.75
Q20.4531 45.75 16.3438 40.9844
Q12.25 36.2344 12.25 26.8594" id="ArialMT-67"/>
      <path d="
M42.0938 16.7031
L51.1719 15.5781
Q49.0312 7.625 43.2188 3.21875
Q37.4062 -1.17188 28.375 -1.17188
Q17 -1.17188 10.3281 5.82812
Q3.65625 12.8438 3.65625 25.4844
Q3.65625 38.5781 10.3906 45.7969
Q17.1406 53.0312 27.875 53.0312
Q38.2812 53.0312 44.875 45.9531
Q51.4688 38.875 51.4688 26.0312
Q51.4688 25.25 51.4219 23.6875
L12.75 23.6875
Q13.2344 15.1406 17.5781 10.5938
Q21.9219 6.0625 28.4219 6.0625
Q33.25 6.0625 36.6719 8.59375
Q40.0938 11.1406 42.0938 16.7031
M13.2344 30.9062
L42.1875 30.9062
Q41.6094 37.4531 38.875 40.7188
Q34.6719 45.7969 27.9844 45.7969
Q21.9219 45.7969 17.7969 41.75
Q13.6719 37.7031 13.2344 30.9062" id="ArialMT-65"/>
      <path d="
M25.7812 7.85938
L27.0469 0.09375
Q23.3438 -0.6875 20.4062 -0.6875
Q15.625 -0.6875 12.9844 0.828125
Q10.3594 2.34375 9.28125 4.8125
Q8.20312 7.28125 8.20312 15.1875
L8.20312 45.0156
L1.76562 45.0156
L1.76562 51.8594
L8.20312 51.8594
L8.20312 64.7031
L16.9375 69.9688
L16.9375 51.8594
L25.7812 51.8594
L25.7812 45.0156
L16.9375 45.0156
L16.9375 14.7031
Q16.9375 10.9375 17.4062 9.85938
Q17.875 8.79688 18.9219 8.15625
Q19.9688 7.51562 21.9219 7.51562
Q23.3906 7.51562 25.7812 7.85938" id="ArialMT-74"/>
      <path d="
M28.1719 0
L0.4375 71.5781
L10.6875 71.5781
L29.2969 19.5781
Q31.5469 13.3281 33.0625 7.85938
Q34.7188 13.7188 36.9219 19.5781
L56.25 71.5781
L65.9219 71.5781
L37.8906 0
z
" id="ArialMT-56"/>
      <path d="
M6.39062 0
L6.39062 71.5781
L15.1875 71.5781
L15.1875 0
z
" id="ArialMT-6c"/>
      <path d="
M3.32812 25.9219
Q3.32812 40.3281 11.3281 47.2656
Q18.0156 53.0312 27.6406 53.0312
Q38.3281 53.0312 45.1094 46.0156
Q51.9062 39.0156 51.9062 26.6562
Q51.9062 16.6562 48.9062 10.9062
Q45.9062 5.17188 40.1562 2
Q34.4219 -1.17188 27.6406 -1.17188
Q16.75 -1.17188 10.0312 5.8125
Q3.32812 12.7969 3.32812 25.9219
M12.3594 25.9219
Q12.3594 15.9688 16.7031 11.0156
Q21.0469 6.0625 27.6406 6.0625
Q34.1875 6.0625 38.5312 11.0312
Q42.875 16.0156 42.875 26.2188
Q42.875 35.8438 38.5 40.7969
Q34.125 45.75 27.6406 45.75
Q21.0469 45.75 16.7031 40.8125
Q12.3594 35.8906 12.3594 25.9219" id="ArialMT-6f"/>
      <path d="
M12.3594 -21.0469
L6.0625 -21.0469
Q20.6562 2.39062 20.6562 25.875
Q20.6562 35.0625 18.5625 44.0938
Q16.8906 51.4219 13.9219 58.1562
Q12.0156 62.5469 6.0625 72.7969
L12.3594 72.7969
Q21.5312 60.5469 25.9219 48.1875
Q29.6875 37.5469 29.6875 25.9219
Q29.6875 12.75 24.625 0.4375
Q19.5781 -11.8594 12.3594 -21.0469" id="ArialMT-29"/>
      <path d="
M23.3906 -21.0469
Q16.1094 -11.8594 11.0781 0.4375
Q6.0625 12.75 6.0625 25.9219
Q6.0625 37.5469 9.8125 48.1875
Q14.2031 60.5469 23.3906 72.7969
L29.6875 72.7969
Q23.7812 62.6406 21.875 58.2969
Q18.8906 51.5625 17.1875 44.2344
Q15.0938 35.1094 15.0938 25.875
Q15.0938 2.39062 29.6875 -21.0469
z
" id="ArialMT-28"/>
      <path id="ArialMT-20"/>
     </defs>
     <g transform="translate(19.5655954724 63.6665625)rotate(-90.0)scale(0.12 -0.12)">
      <use xlink:href="#ArialMT-56"/>
      <use x="61.19921875" xlink:href="#ArialMT-6f"/>
      <use x="116.814453125" xlink:href="#ArialMT-6c"/>
      <use x="139.03125" xlink:href="#ArialMT-74"/>
      <use x="166.814453125" xlink:href="#ArialMT-61"/>
      <use x="222.4296875" xlink:href="#ArialMT-67"/>
      <use x="278.044921875" xlink:href="#ArialMT-65"/>
      <use x="333.66015625" xlink:href="#ArialMT-20"/>
      <use x="361.443359375" xlink:href="#ArialMT-28"/>
      <use x="394.744140625" xlink:href="#ArialMT-56"/>
      <use x="461.443359375" xlink:href="#ArialMT-29"/>
     </g>
    </g>
   </g>
   <g id="patch_4">
    <path d="
M60.2362 7.2
L216.85 7.2" style="fill:none;stroke:#000000;"/>
   </g>
   <g id="patch_5">
    <path d="
M216.85 61.2
L216.85 7.2" style="fill:none;stroke:#000000;"/>
   </g>
   <g id="patch_6">
    <path d="
M60.2362 61.2
L216.85 61.2" style="fill:none;stroke:#000000;"/>
   </g>
   <g id="patch_7">
    <path d="
M60.2362 61.2
L60.2362 7.2" style="fill:none;stroke:#000000;"/>
   </g>
  </g>
  <g id="text_15">
   <!-- A -->
   <defs>
    <path d="
M76.4688 0
L57.0781 0
L52.0469 14.7031
L25.0938 14.7031
L20.0625 0
L1.17188 0
L28.0312 72.7031
L49.6094 72.7031
z

M47.5156 28.0312
L38.5781 54.1094
L29.6406 28.0312
z
" id="Verdana-Bold-41"/>
   </defs>
   <g transform="translate(12.0472440945 5.76)scale(0.12 -0.12)">
    <use xlink:href="#Verdana-Bold-41"/>
   </g>
  </g>
 </g>
 <defs>
  <clipPath id="pdaca76204f">
   <rect height="54.0" width="156.614173228" x="60.2362204724" y="7.2"/>
  </clipPath>
 </defs>
</svg>
