<?xml version="1.0" encoding="utf-8" standalone="no"?>
<!DOCTYPE svg PUBLIC "-//W3C//DTD SVG 1.1//EN"
  "http://www.w3.org/Graphics/SVG/1.1/DTD/svg11.dtd">
<!-- Created with matplotlib (http://matplotlib.org/) -->
<svg height="72pt" version="1.1" viewBox="0 0 240 72" width="240pt" xmlns="http://www.w3.org/2000/svg" xmlns:xlink="http://www.w3.org/1999/xlink">
 <defs>
  <style type="text/css">
*{stroke-linecap:butt;stroke-linejoin:round;}
  </style>
 </defs>
 <g id="figure_1">
  <g id="patch_1">
   <path d="
M0 72
L240.945 72
L240.945 0
L0 0
z
" style="fill:#ffffff;"/>
  </g>
  <g id="axes_1">
   <g id="patch_2">
    <path d="
M60.2362 61.2
L216.85 61.2
L216.85 10.8
L60.2362 10.8
z
" style="fill:#ffffff;"/>
   </g>
   <g id="line2d_1">
    <defs>
     <path d="
M-3 3
L3 -3
M-3 -3
L3 3" id="m4c3fbd2283" style="stroke:#0000ff;stroke-width:0.5;"/>
    </defs>
    <g clip-path="url(#p826c73c57b)">
     <use style="fill:#0000ff;stroke:#0000ff;stroke-width:0.5;" x="-1012.94676892" xlink:href="#m4c3fbd2283" y="57.0"/>
     <use style="fill:#0000ff;stroke:#0000ff;stroke-width:0.5;" x="-969.126123598" xlink:href="#m4c3fbd2283" y="57.0"/>
     <use style="fill:#0000ff;stroke:#0000ff;stroke-width:0.5;" x="-906.449148678" xlink:href="#m4c3fbd2283" y="57.0"/>
     <use style="fill:#0000ff;stroke:#0000ff;stroke-width:0.5;" x="-842.675832651" xlink:href="#m4c3fbd2283" y="57.0"/>
     <use style="fill:#0000ff;stroke:#0000ff;stroke-width:0.5;" x="-779.027838087" xlink:href="#m4c3fbd2283" y="57.0"/>
     <use style="fill:#0000ff;stroke:#0000ff;stroke-width:0.5;" x="-715.379843524" xlink:href="#m4c3fbd2283" y="57.0"/>
     <use style="fill:#0000ff;stroke:#0000ff;stroke-width:0.5;" x="-651.731848961" xlink:href="#m4c3fbd2283" y="57.0"/>
     <use style="fill:#0000ff;stroke:#0000ff;stroke-width:0.5;" x="-588.083854397" xlink:href="#m4c3fbd2283" y="57.0"/>
     <use style="fill:#0000ff;stroke:#0000ff;stroke-width:0.5;" x="-524.435813159" xlink:href="#m4c3fbd2283" y="57.0"/>
     <use style="fill:#0000ff;stroke:#0000ff;stroke-width:0.5;" x="-460.787818596" xlink:href="#m4c3fbd2283" y="57.0"/>
     <use style="fill:#0000ff;stroke:#0000ff;stroke-width:0.5;" x="-397.139824033" xlink:href="#m4c3fbd2283" y="57.0"/>
     <use style="fill:#0000ff;stroke:#0000ff;stroke-width:0.5;" x="-333.460510772" xlink:href="#m4c3fbd2283" y="57.0"/>
     <use style="fill:#0000ff;stroke:#0000ff;stroke-width:0.5;" x="-269.812516209" xlink:href="#m4c3fbd2283" y="57.0"/>
     <use style="fill:#0000ff;stroke:#0000ff;stroke-width:0.5;" x="-206.164521645" xlink:href="#m4c3fbd2283" y="57.0"/>
     <use style="fill:#0000ff;stroke:#0000ff;stroke-width:0.5;" x="-142.516527082" xlink:href="#m4c3fbd2283" y="57.0"/>
     <use style="fill:#0000ff;stroke:#0000ff;stroke-width:0.5;" x="-78.8685325187" xlink:href="#m4c3fbd2283" y="57.0"/>
     <use style="fill:#0000ff;stroke:#0000ff;stroke-width:0.5;" x="-15.2204912807" xlink:href="#m4c3fbd2283" y="57.0"/>
     <use style="fill:#0000ff;stroke:#0000ff;stroke-width:0.5;" x="48.4275032826" xlink:href="#m4c3fbd2283" y="57.0"/>
     <use style="fill:#0000ff;stroke:#0000ff;stroke-width:0.5;" x="112.075497846" xlink:href="#m4c3fbd2283" y="57.0"/>
     <use style="fill:#0000ff;stroke:#0000ff;stroke-width:0.5;" x="175.723492409" xlink:href="#m4c3fbd2283" y="57.0"/>
     <use style="fill:#0000ff;stroke:#0000ff;stroke-width:0.5;" x="239.371486973" xlink:href="#m4c3fbd2283" y="57.0"/>
     <use style="fill:#0000ff;stroke:#0000ff;stroke-width:0.5;" x="303.050800233" xlink:href="#m4c3fbd2283" y="57.0"/>
     <use style="fill:#0000ff;stroke:#0000ff;stroke-width:0.5;" x="366.698794797" xlink:href="#m4c3fbd2283" y="57.0"/>
    </g>
   </g>
   <g id="line2d_2">
    <defs>
     <path d="
M-3 3
L3 -3
M-3 -3
L3 3" id="mc76c2a1fc3" style="stroke:#008000;stroke-width:0.5;"/>
    </defs>
    <g clip-path="url(#p826c73c57b)">
     <use style="fill:#008000;stroke:#008000;stroke-width:0.5;" x="-1012.79012876" xlink:href="#mc76c2a1fc3" y="48.6"/>
     <use style="fill:#008000;stroke:#008000;stroke-width:0.5;" x="-968.499656301" xlink:href="#mc76c2a1fc3" y="48.6"/>
     <use style="fill:#008000;stroke:#008000;stroke-width:0.5;" x="-905.321488873" xlink:href="#mc76c2a1fc3" y="48.6"/>
     <use style="fill:#008000;stroke:#008000;stroke-width:0.5;" x="-841.141029779" xlink:href="#mc76c2a1fc3" y="48.6"/>
     <use style="fill:#008000;stroke:#008000;stroke-width:0.5;" x="-777.054480103" xlink:href="#mc76c2a1fc3" y="48.6"/>
     <use style="fill:#008000;stroke:#008000;stroke-width:0.5;" x="-712.967977101" xlink:href="#mc76c2a1fc3" y="48.6"/>
     <use style="fill:#008000;stroke:#008000;stroke-width:0.5;" x="-648.8814741" xlink:href="#mc76c2a1fc3" y="48.6"/>
     <use style="fill:#008000;stroke:#008000;stroke-width:0.5;" x="-584.826243121" xlink:href="#mc76c2a1fc3" y="48.6"/>
     <use style="fill:#008000;stroke:#008000;stroke-width:0.5;" x="-520.739740119" xlink:href="#mc76c2a1fc3" y="48.6"/>
     <use style="fill:#008000;stroke:#008000;stroke-width:0.5;" x="-456.653237118" xlink:href="#mc76c2a1fc3" y="48.6"/>
     <use style="fill:#008000;stroke:#008000;stroke-width:0.5;" x="-392.566687441" xlink:href="#mc76c2a1fc3" y="48.6"/>
     <use style="fill:#008000;stroke:#008000;stroke-width:0.5;" x="-328.48018444" xlink:href="#mc76c2a1fc3" y="48.6"/>
     <use style="fill:#008000;stroke:#008000;stroke-width:0.5;" x="-264.393681438" xlink:href="#mc76c2a1fc3" y="48.6"/>
     <use style="fill:#008000;stroke:#008000;stroke-width:0.5;" x="-200.338450459" xlink:href="#mc76c2a1fc3" y="48.6"/>
     <use style="fill:#008000;stroke:#008000;stroke-width:0.5;" x="-136.251947457" xlink:href="#mc76c2a1fc3" y="48.6"/>
     <use style="fill:#008000;stroke:#008000;stroke-width:0.5;" x="-72.1654444557" xlink:href="#mc76c2a1fc3" y="48.6"/>
     <use style="fill:#008000;stroke:#008000;stroke-width:0.5;" x="-8.07889477944" xlink:href="#mc76c2a1fc3" y="48.6"/>
     <use style="fill:#008000;stroke:#008000;stroke-width:0.5;" x="56.0076082222" xlink:href="#mc76c2a1fc3" y="48.6"/>
     <use style="fill:#008000;stroke:#008000;stroke-width:0.5;" x="120.094111224" xlink:href="#mc76c2a1fc3" y="48.6"/>
     <use style="fill:#008000;stroke:#008000;stroke-width:0.5;" x="184.1806609" xlink:href="#mc76c2a1fc3" y="48.6"/>
     <use style="fill:#008000;stroke:#008000;stroke-width:0.5;" x="248.235845204" xlink:href="#mc76c2a1fc3" y="48.6"/>
     <use style="fill:#008000;stroke:#008000;stroke-width:0.5;" x="312.322348206" xlink:href="#mc76c2a1fc3" y="48.6"/>
     <use style="fill:#008000;stroke:#008000;stroke-width:0.5;" x="376.189620326" xlink:href="#mc76c2a1fc3" y="48.6"/>
    </g>
   </g>
   <g id="line2d_3">
    <defs>
     <path d="
M-3 3
L3 -3
M-3 -3
L3 3" id="m562aef8efe" style="stroke:#ff0000;stroke-width:0.5;"/>
    </defs>
    <g clip-path="url(#p826c73c57b)">
     <use style="fill:#ff0000;stroke:#ff0000;stroke-width:0.5;" x="-1012.94676892" xlink:href="#m562aef8efe" y="40.2"/>
     <use style="fill:#ff0000;stroke:#ff0000;stroke-width:0.5;" x="-969.126123598" xlink:href="#m562aef8efe" y="40.2"/>
     <use style="fill:#ff0000;stroke:#ff0000;stroke-width:0.5;" x="-906.449148678" xlink:href="#m562aef8efe" y="40.2"/>
     <use style="fill:#ff0000;stroke:#ff0000;stroke-width:0.5;" x="-842.675832651" xlink:href="#m562aef8efe" y="40.2"/>
     <use style="fill:#ff0000;stroke:#ff0000;stroke-width:0.5;" x="-779.027838087" xlink:href="#m562aef8efe" y="40.2"/>
     <use style="fill:#ff0000;stroke:#ff0000;stroke-width:0.5;" x="-715.379843524" xlink:href="#m562aef8efe" y="40.2"/>
     <use style="fill:#ff0000;stroke:#ff0000;stroke-width:0.5;" x="-651.731848961" xlink:href="#m562aef8efe" y="40.2"/>
     <use style="fill:#ff0000;stroke:#ff0000;stroke-width:0.5;" x="-588.083854397" xlink:href="#m562aef8efe" y="40.2"/>
     <use style="fill:#ff0000;stroke:#ff0000;stroke-width:0.5;" x="-524.435813159" xlink:href="#m562aef8efe" y="40.2"/>
     <use style="fill:#ff0000;stroke:#ff0000;stroke-width:0.5;" x="-460.787818596" xlink:href="#m562aef8efe" y="40.2"/>
     <use style="fill:#ff0000;stroke:#ff0000;stroke-width:0.5;" x="-397.139824033" xlink:href="#m562aef8efe" y="40.2"/>
     <use style="fill:#ff0000;stroke:#ff0000;stroke-width:0.5;" x="-333.460510772" xlink:href="#m562aef8efe" y="40.2"/>
     <use style="fill:#ff0000;stroke:#ff0000;stroke-width:0.5;" x="-269.812516209" xlink:href="#m562aef8efe" y="40.2"/>
     <use style="fill:#ff0000;stroke:#ff0000;stroke-width:0.5;" x="-206.164521645" xlink:href="#m562aef8efe" y="40.2"/>
     <use style="fill:#ff0000;stroke:#ff0000;stroke-width:0.5;" x="-142.516527082" xlink:href="#m562aef8efe" y="40.2"/>
     <use style="fill:#ff0000;stroke:#ff0000;stroke-width:0.5;" x="-78.8685325187" xlink:href="#m562aef8efe" y="40.2"/>
     <use style="fill:#ff0000;stroke:#ff0000;stroke-width:0.5;" x="-15.2204912807" xlink:href="#m562aef8efe" y="40.2"/>
     <use style="fill:#ff0000;stroke:#ff0000;stroke-width:0.5;" x="48.4275032826" xlink:href="#m562aef8efe" y="40.2"/>
     <use style="fill:#ff0000;stroke:#ff0000;stroke-width:0.5;" x="112.075497846" xlink:href="#m562aef8efe" y="40.2"/>
     <use style="fill:#ff0000;stroke:#ff0000;stroke-width:0.5;" x="175.723492409" xlink:href="#m562aef8efe" y="40.2"/>
     <use style="fill:#ff0000;stroke:#ff0000;stroke-width:0.5;" x="239.371486973" xlink:href="#m562aef8efe" y="40.2"/>
     <use style="fill:#ff0000;stroke:#ff0000;stroke-width:0.5;" x="303.050800233" xlink:href="#m562aef8efe" y="40.2"/>
     <use style="fill:#ff0000;stroke:#ff0000;stroke-width:0.5;" x="366.698794797" xlink:href="#m562aef8efe" y="40.2"/>
    </g>
   </g>
   <g id="line2d_4">
    <defs>
     <path d="
M-3 3
L3 -3
M-3 -3
L3 3" id="m6f74a4bca3" style="stroke:#00bfbf;stroke-width:0.5;"/>
    </defs>
    <g clip-path="url(#p826c73c57b)">
     <use style="fill:#00bfbf;stroke:#00bfbf;stroke-width:0.5;" x="-1012.88413153" xlink:href="#m6f74a4bca3" y="31.8"/>
     <use style="fill:#00bfbf;stroke:#00bfbf;stroke-width:0.5;" x="-969.032167506" xlink:href="#m6f74a4bca3" y="31.8"/>
     <use style="fill:#00bfbf;stroke:#00bfbf;stroke-width:0.5;" x="-906.198552425" xlink:href="#m6f74a4bca3" y="31.8"/>
     <use style="fill:#00bfbf;stroke:#00bfbf;stroke-width:0.5;" x="-842.362599002" xlink:href="#m6f74a4bca3" y="31.8"/>
     <use style="fill:#00bfbf;stroke:#00bfbf;stroke-width:0.5;" x="-778.558010952" xlink:href="#m6f74a4bca3" y="31.8"/>
     <use style="fill:#00bfbf;stroke:#00bfbf;stroke-width:0.5;" x="-714.816013622" xlink:href="#m6f74a4bca3" y="31.8"/>
     <use style="fill:#00bfbf;stroke:#00bfbf;stroke-width:0.5;" x="-651.042744269" xlink:href="#m6f74a4bca3" y="31.8"/>
     <use style="fill:#00bfbf;stroke:#00bfbf;stroke-width:0.5;" x="-587.269428241" xlink:href="#m6f74a4bca3" y="31.8"/>
     <use style="fill:#00bfbf;stroke:#00bfbf;stroke-width:0.5;" x="-523.496158888" xlink:href="#m6f74a4bca3" y="31.8"/>
     <use style="fill:#00bfbf;stroke:#00bfbf;stroke-width:0.5;" x="-459.72284286" xlink:href="#m6f74a4bca3" y="31.8"/>
     <use style="fill:#00bfbf;stroke:#00bfbf;stroke-width:0.5;" x="-395.949573507" xlink:href="#m6f74a4bca3" y="31.8"/>
     <use style="fill:#00bfbf;stroke:#00bfbf;stroke-width:0.5;" x="-332.207622852" xlink:href="#m6f74a4bca3" y="31.8"/>
     <use style="fill:#00bfbf;stroke:#00bfbf;stroke-width:0.5;" x="-268.434306824" xlink:href="#m6f74a4bca3" y="31.8"/>
     <use style="fill:#00bfbf;stroke:#00bfbf;stroke-width:0.5;" x="-204.661037471" xlink:href="#m6f74a4bca3" y="31.8"/>
     <use style="fill:#00bfbf;stroke:#00bfbf;stroke-width:0.5;" x="-140.887721444" xlink:href="#m6f74a4bca3" y="31.8"/>
     <use style="fill:#00bfbf;stroke:#00bfbf;stroke-width:0.5;" x="-77.1144520908" xlink:href="#m6f74a4bca3" y="31.8"/>
     <use style="fill:#00bfbf;stroke:#00bfbf;stroke-width:0.5;" x="-13.3411360632" xlink:href="#m6f74a4bca3" y="31.8"/>
     <use style="fill:#00bfbf;stroke:#00bfbf;stroke-width:0.5;" x="50.4008145924" xlink:href="#m6f74a4bca3" y="31.8"/>
     <use style="fill:#00bfbf;stroke:#00bfbf;stroke-width:0.5;" x="114.17413062" xlink:href="#m6f74a4bca3" y="31.8"/>
     <use style="fill:#00bfbf;stroke:#00bfbf;stroke-width:0.5;" x="177.947399973" xlink:href="#m6f74a4bca3" y="31.8"/>
     <use style="fill:#00bfbf;stroke:#00bfbf;stroke-width:0.5;" x="241.720716001" xlink:href="#m6f74a4bca3" y="31.8"/>
     <use style="fill:#00bfbf;stroke:#00bfbf;stroke-width:0.5;" x="305.493985353" xlink:href="#m6f74a4bca3" y="31.8"/>
     <use style="fill:#00bfbf;stroke:#00bfbf;stroke-width:0.5;" x="369.235936009" xlink:href="#m6f74a4bca3" y="31.8"/>
    </g>
   </g>
   <g id="line2d_5">
    <defs>
     <path d="
M-3 3
L3 -3
M-3 -3
L3 3" id="mfac1649984" style="stroke:#bf00bf;stroke-width:0.5;"/>
    </defs>
    <g clip-path="url(#p826c73c57b)">
     <use style="fill:#bf00bf;stroke:#bf00bf;stroke-width:0.5;" x="-1012.85351295" xlink:href="#mfac1649984" y="23.4"/>
     <use style="fill:#bf00bf;stroke:#bf00bf;stroke-width:0.5;" x="-969.000988833" xlink:href="#mfac1649984" y="23.4"/>
     <use style="fill:#bf00bf;stroke:#bf00bf;stroke-width:0.5;" x="-906.167933847" xlink:href="#mfac1649984" y="23.4"/>
     <use style="fill:#bf00bf;stroke:#bf00bf;stroke-width:0.5;" x="-842.300568378" xlink:href="#mfac1649984" y="23.4"/>
     <use style="fill:#bf00bf;stroke:#bf00bf;stroke-width:0.5;" x="-778.527299025" xlink:href="#mfac1649984" y="23.4"/>
     <use style="fill:#bf00bf;stroke:#bf00bf;stroke-width:0.5;" x="-714.754029672" xlink:href="#mfac1649984" y="23.4"/>
     <use style="fill:#bf00bf;stroke:#bf00bf;stroke-width:0.5;" x="-650.980760319" xlink:href="#mfac1649984" y="23.4"/>
     <use style="fill:#bf00bf;stroke:#bf00bf;stroke-width:0.5;" x="-587.207490966" xlink:href="#mfac1649984" y="23.4"/>
     <use style="fill:#bf00bf;stroke:#bf00bf;stroke-width:0.5;" x="-523.434221613" xlink:href="#mfac1649984" y="23.4"/>
     <use style="fill:#bf00bf;stroke:#bf00bf;stroke-width:0.5;" x="-459.691570838" xlink:href="#mfac1649984" y="23.4"/>
     <use style="fill:#bf00bf;stroke:#bf00bf;stroke-width:0.5;" x="-395.918301485" xlink:href="#mfac1649984" y="23.4"/>
     <use style="fill:#bf00bf;stroke:#bf00bf;stroke-width:0.5;" x="-332.145032132" xlink:href="#mfac1649984" y="23.4"/>
     <use style="fill:#bf00bf;stroke:#bf00bf;stroke-width:0.5;" x="-268.371762779" xlink:href="#mfac1649984" y="23.4"/>
     <use style="fill:#bf00bf;stroke:#bf00bf;stroke-width:0.5;" x="-204.598493426" xlink:href="#mfac1649984" y="23.4"/>
     <use style="fill:#bf00bf;stroke:#bf00bf;stroke-width:0.5;" x="-140.825224073" xlink:href="#mfac1649984" y="23.4"/>
     <use style="fill:#bf00bf;stroke:#bf00bf;stroke-width:0.5;" x="-77.05195472" xlink:href="#mfac1649984" y="23.4"/>
     <use style="fill:#bf00bf;stroke:#bf00bf;stroke-width:0.5;" x="-13.3100507391" xlink:href="#mfac1649984" y="23.4"/>
     <use style="fill:#bf00bf;stroke:#bf00bf;stroke-width:0.5;" x="50.4632186139" xlink:href="#mfac1649984" y="23.4"/>
     <use style="fill:#bf00bf;stroke:#bf00bf;stroke-width:0.5;" x="114.236487967" xlink:href="#mfac1649984" y="23.4"/>
     <use style="fill:#bf00bf;stroke:#bf00bf;stroke-width:0.5;" x="178.00975732" xlink:href="#mfac1649984" y="23.4"/>
     <use style="fill:#bf00bf;stroke:#bf00bf;stroke-width:0.5;" x="241.783026673" xlink:href="#mfac1649984" y="23.4"/>
     <use style="fill:#bf00bf;stroke:#bf00bf;stroke-width:0.5;" x="305.556296026" xlink:href="#mfac1649984" y="23.4"/>
     <use style="fill:#bf00bf;stroke:#bf00bf;stroke-width:0.5;" x="369.329565379" xlink:href="#mfac1649984" y="23.4"/>
    </g>
   </g>
   <g id="line2d_6">
    <defs>
     <path d="
M-3 3
L3 -3
M-3 -3
L3 3" id="m20663abfd5" style="stroke:#bfbf00;stroke-width:0.5;"/>
    </defs>
    <g clip-path="url(#p826c73c57b)">
     <use style="fill:#bfbf00;stroke:#bfbf00;stroke-width:0.5;" x="-1012.01262226" xlink:href="#m20663abfd5" y="15.0"/>
     <use style="fill:#bfbf00;stroke:#bfbf00;stroke-width:0.5;" x="-968.375921775" xlink:href="#m20663abfd5" y="15.0"/>
     <use style="fill:#bfbf00;stroke:#bfbf00;stroke-width:0.5;" x="-905.394254669" xlink:href="#m20663abfd5" y="15.0"/>
     <use style="fill:#bfbf00;stroke:#bfbf00;stroke-width:0.5;" x="-841.49253665" xlink:href="#m20663abfd5" y="15.0"/>
     <use style="fill:#bfbf00;stroke:#bfbf00;stroke-width:0.5;" x="-777.722254475" xlink:href="#m20663abfd5" y="15.0"/>
     <use style="fill:#bfbf00;stroke:#bfbf00;stroke-width:0.5;" x="-713.940023587" xlink:href="#m20663abfd5" y="15.0"/>
     <use style="fill:#bfbf00;stroke:#bfbf00;stroke-width:0.5;" x="-650.145843986" xlink:href="#m20663abfd5" y="15.0"/>
     <use style="fill:#bfbf00;stroke:#bfbf00;stroke-width:0.5;" x="-586.363613099" xlink:href="#m20663abfd5" y="15.0"/>
     <use style="fill:#bfbf00;stroke:#bfbf00;stroke-width:0.5;" x="-522.557484784" xlink:href="#m20663abfd5" y="15.0"/>
     <use style="fill:#bfbf00;stroke:#bfbf00;stroke-width:0.5;" x="-458.78720261" xlink:href="#m20663abfd5" y="15.0"/>
     <use style="fill:#bfbf00;stroke:#bfbf00;stroke-width:0.5;" x="-394.981074296" xlink:href="#m20663abfd5" y="15.0"/>
     <use style="fill:#bfbf00;stroke:#bfbf00;stroke-width:0.5;" x="-331.210792121" xlink:href="#m20663abfd5" y="15.0"/>
     <use style="fill:#bfbf00;stroke:#bfbf00;stroke-width:0.5;" x="-267.404663807" xlink:href="#m20663abfd5" y="15.0"/>
     <use style="fill:#bfbf00;stroke:#bfbf00;stroke-width:0.5;" x="-203.634381632" xlink:href="#m20663abfd5" y="15.0"/>
     <use style="fill:#bfbf00;stroke:#bfbf00;stroke-width:0.5;" x="-139.828253318" xlink:href="#m20663abfd5" y="15.0"/>
     <use style="fill:#bfbf00;stroke:#bfbf00;stroke-width:0.5;" x="-76.0579711433" xlink:href="#m20663abfd5" y="15.0"/>
     <use style="fill:#bfbf00;stroke:#bfbf00;stroke-width:0.5;" x="-12.2518428292" xlink:href="#m20663abfd5" y="15.0"/>
     <use style="fill:#bfbf00;stroke:#bfbf00;stroke-width:0.5;" x="51.5184393455" xlink:href="#m20663abfd5" y="15.0"/>
     <use style="fill:#bfbf00;stroke:#bfbf00;stroke-width:0.5;" x="115.32456766" xlink:href="#m20663abfd5" y="15.0"/>
     <use style="fill:#bfbf00;stroke:#bfbf00;stroke-width:0.5;" x="179.094849834" xlink:href="#m20663abfd5" y="15.0"/>
     <use style="fill:#bfbf00;stroke:#bfbf00;stroke-width:0.5;" x="242.900978148" xlink:href="#m20663abfd5" y="15.0"/>
     <use style="fill:#bfbf00;stroke:#bfbf00;stroke-width:0.5;" x="306.671260323" xlink:href="#m20663abfd5" y="15.0"/>
     <use style="fill:#bfbf00;stroke:#bfbf00;stroke-width:0.5;" x="370.477388637" xlink:href="#m20663abfd5" y="15.0"/>
    </g>
   </g>
   <g id="matplotlib.axis_1">
    <g id="xtick_1">
     <g id="line2d_7">
      <defs>
       <path d="
M0 0
L0 -4" id="m93b0483c22" style="stroke:#000000;stroke-width:0.5;"/>
      </defs>
      <g>
       <use style="stroke:#000000;stroke-width:0.5;" x="60.2362204724" xlink:href="#m93b0483c22" y="61.2"/>
      </g>
     </g>
     <g id="line2d_8">
      <defs>
       <path d="
M0 0
L0 4" id="m741efc42ff" style="stroke:#000000;stroke-width:0.5;"/>
      </defs>
      <g>
       <use style="stroke:#000000;stroke-width:0.5;" x="60.2362204724" xlink:href="#m741efc42ff" y="10.8"/>
      </g>
     </g>
     <g id="text_1">
      <!-- 0.40 -->
      <defs>
       <path d="
M4.15625 35.2969
Q4.15625 48 6.76562 55.7344
Q9.375 63.4844 14.5156 67.6719
Q19.6719 71.875 27.4844 71.875
Q33.25 71.875 37.5938 69.5469
Q41.9375 67.2344 44.7656 62.8594
Q47.6094 58.5 49.2188 52.2188
Q50.8281 45.9531 50.8281 35.2969
Q50.8281 22.7031 48.2344 14.9688
Q45.6562 7.23438 40.5 3
Q35.3594 -1.21875 27.4844 -1.21875
Q17.1406 -1.21875 11.2344 6.20312
Q4.15625 15.1406 4.15625 35.2969
M13.1875 35.2969
Q13.1875 17.6719 17.3125 11.8281
Q21.4375 6 27.4844 6
Q33.5469 6 37.6719 11.8594
Q41.7969 17.7188 41.7969 35.2969
Q41.7969 52.9844 37.6719 58.7812
Q33.5469 64.5938 27.3906 64.5938
Q21.3438 64.5938 17.7188 59.4688
Q13.1875 52.9375 13.1875 35.2969" id="ArialMT-30"/>
       <path d="
M9.07812 0
L9.07812 10.0156
L19.0938 10.0156
L19.0938 0
z
" id="ArialMT-2e"/>
       <path d="
M32.3281 0
L32.3281 17.1406
L1.26562 17.1406
L1.26562 25.2031
L33.9375 71.5781
L41.1094 71.5781
L41.1094 25.2031
L50.7812 25.2031
L50.7812 17.1406
L41.1094 17.1406
L41.1094 0
z

M32.3281 25.2031
L32.3281 57.4688
L9.90625 25.2031
z
" id="ArialMT-34"/>
      </defs>
      <g transform="translate(49.0959079724 73.789375)scale(0.12 -0.12)">
       <use xlink:href="#ArialMT-30"/>
       <use x="55.615234375" xlink:href="#ArialMT-2e"/>
       <use x="83.3984375" xlink:href="#ArialMT-34"/>
       <use x="139.013671875" xlink:href="#ArialMT-30"/>
      </g>
     </g>
    </g>
    <g id="xtick_2">
     <g id="line2d_9">
      <g>
       <use style="stroke:#000000;stroke-width:0.5;" x="91.5590551181" xlink:href="#m93b0483c22" y="61.2"/>
      </g>
     </g>
     <g id="line2d_10">
      <g>
       <use style="stroke:#000000;stroke-width:0.5;" x="91.5590551181" xlink:href="#m741efc42ff" y="10.8"/>
      </g>
     </g>
     <g id="text_2">
      <!-- 0.41 -->
      <defs>
       <path d="
M37.25 0
L28.4688 0
L28.4688 56
Q25.2969 52.9844 20.1406 49.9531
Q14.9844 46.9219 10.8906 45.4062
L10.8906 53.9062
Q18.2656 57.375 23.7812 62.2969
Q29.2969 67.2344 31.5938 71.875
L37.25 71.875
z
" id="ArialMT-31"/>
      </defs>
      <g transform="translate(81.2334301181 73.789375)scale(0.12 -0.12)">
       <use xlink:href="#ArialMT-30"/>
       <use x="55.615234375" xlink:href="#ArialMT-2e"/>
       <use x="83.3984375" xlink:href="#ArialMT-34"/>
       <use x="139.013671875" xlink:href="#ArialMT-31"/>
      </g>
     </g>
    </g>
    <g id="xtick_3">
     <g id="line2d_11">
      <g>
       <use style="stroke:#000000;stroke-width:0.5;" x="122.881889764" xlink:href="#m93b0483c22" y="61.2"/>
      </g>
     </g>
     <g id="line2d_12">
      <g>
       <use style="stroke:#000000;stroke-width:0.5;" x="122.881889764" xlink:href="#m741efc42ff" y="10.8"/>
      </g>
     </g>
     <g id="text_3">
      <!-- 0.42 -->
      <defs>
       <path d="
M50.3438 8.45312
L50.3438 0
L3.03125 0
Q2.9375 3.17188 4.04688 6.10938
Q5.85938 10.9375 9.82812 15.625
Q13.8125 20.3125 21.3438 26.4688
Q33.0156 36.0312 37.1094 41.625
Q41.2188 47.2188 41.2188 52.2031
Q41.2188 57.4219 37.4688 61
Q33.7344 64.5938 27.7344 64.5938
Q21.3906 64.5938 17.5781 60.7812
Q13.7656 56.9844 13.7188 50.25
L4.6875 51.1719
Q5.60938 61.2812 11.6562 66.5781
Q17.7188 71.875 27.9375 71.875
Q38.2344 71.875 44.2344 66.1562
Q50.25 60.4531 50.25 52
Q50.25 47.7031 48.4844 43.5469
Q46.7344 39.4062 42.6562 34.8125
Q38.5781 30.2188 29.1094 22.2188
Q21.1875 15.5781 18.9375 13.2031
Q16.7031 10.8438 15.2344 8.45312
z
" id="ArialMT-32"/>
      </defs>
      <g transform="translate(111.770639764 73.789375)scale(0.12 -0.12)">
       <use xlink:href="#ArialMT-30"/>
       <use x="55.615234375" xlink:href="#ArialMT-2e"/>
       <use x="83.3984375" xlink:href="#ArialMT-34"/>
       <use x="139.013671875" xlink:href="#ArialMT-32"/>
      </g>
     </g>
    </g>
    <g id="xtick_4">
     <g id="line2d_13">
      <g>
       <use style="stroke:#000000;stroke-width:0.5;" x="154.204724409" xlink:href="#m93b0483c22" y="61.2"/>
      </g>
     </g>
     <g id="line2d_14">
      <g>
       <use style="stroke:#000000;stroke-width:0.5;" x="154.204724409" xlink:href="#m741efc42ff" y="10.8"/>
      </g>
     </g>
     <g id="text_4">
      <!-- 0.43 -->
      <defs>
       <path d="
M4.20312 18.8906
L12.9844 20.0625
Q14.5 12.5938 18.1406 9.29688
Q21.7812 6 27 6
Q33.2031 6 37.4688 10.2969
Q41.75 14.5938 41.75 20.9531
Q41.75 27 37.7969 30.9219
Q33.8438 34.8594 27.7344 34.8594
Q25.25 34.8594 21.5312 33.8906
L22.5156 41.6094
Q23.3906 41.5 23.9219 41.5
Q29.5469 41.5 34.0312 44.4219
Q38.5312 47.3594 38.5312 53.4688
Q38.5312 58.2969 35.25 61.4688
Q31.9844 64.6562 26.8125 64.6562
Q21.6875 64.6562 18.2656 61.4219
Q14.8438 58.2031 13.875 51.7656
L5.07812 53.3281
Q6.6875 62.1562 12.3906 67.0156
Q18.1094 71.875 26.6094 71.875
Q32.4688 71.875 37.3906 69.3594
Q42.3281 66.8438 44.9375 62.5
Q47.5625 58.1562 47.5625 53.2656
Q47.5625 48.6406 45.0625 44.8281
Q42.5781 41.0156 37.7031 38.7656
Q44.0469 37.3125 47.5625 32.6875
Q51.0781 28.0781 51.0781 21.1406
Q51.0781 11.7656 44.2344 5.25
Q37.4062 -1.26562 26.9531 -1.26562
Q17.5312 -1.26562 11.2969 4.34375
Q5.07812 9.96875 4.20312 18.8906" id="ArialMT-33"/>
      </defs>
      <g transform="translate(143.049411909 73.789375)scale(0.12 -0.12)">
       <use xlink:href="#ArialMT-30"/>
       <use x="55.615234375" xlink:href="#ArialMT-2e"/>
       <use x="83.3984375" xlink:href="#ArialMT-34"/>
       <use x="139.013671875" xlink:href="#ArialMT-33"/>
      </g>
     </g>
    </g>
    <g id="xtick_5">
     <g id="line2d_15">
      <g>
       <use style="stroke:#000000;stroke-width:0.5;" x="185.527559055" xlink:href="#m93b0483c22" y="61.2"/>
      </g>
     </g>
     <g id="line2d_16">
      <g>
       <use style="stroke:#000000;stroke-width:0.5;" x="185.527559055" xlink:href="#m741efc42ff" y="10.8"/>
      </g>
     </g>
     <g id="text_5">
      <!-- 0.44 -->
      <g transform="translate(174.390059055 73.789375)scale(0.12 -0.12)">
       <use xlink:href="#ArialMT-30"/>
       <use x="55.615234375" xlink:href="#ArialMT-2e"/>
       <use x="83.3984375" xlink:href="#ArialMT-34"/>
       <use x="139.013671875" xlink:href="#ArialMT-34"/>
      </g>
     </g>
    </g>
    <g id="xtick_6">
     <g id="line2d_17">
      <g>
       <use style="stroke:#000000;stroke-width:0.5;" x="216.850393701" xlink:href="#m93b0483c22" y="61.2"/>
      </g>
     </g>
     <g id="line2d_18">
      <g>
       <use style="stroke:#000000;stroke-width:0.5;" x="216.850393701" xlink:href="#m741efc42ff" y="10.8"/>
      </g>
     </g>
     <g id="text_6">
      <!-- 0.45 -->
      <defs>
       <path d="
M4.15625 18.75
L13.375 19.5312
Q14.4062 12.7969 18.1406 9.39062
Q21.875 6 27.1562 6
Q33.5 6 37.8906 10.7812
Q42.2812 15.5781 42.2812 23.4844
Q42.2812 31 38.0625 35.3438
Q33.8438 39.7031 27 39.7031
Q22.75 39.7031 19.3281 37.7656
Q15.9219 35.8438 13.9688 32.7656
L5.71875 33.8438
L12.6406 70.6094
L48.25 70.6094
L48.25 62.2031
L19.6719 62.2031
L15.8281 42.9688
Q22.2656 47.4688 29.3438 47.4688
Q38.7188 47.4688 45.1562 40.9688
Q51.6094 34.4688 51.6094 24.2656
Q51.6094 14.5469 45.9531 7.46875
Q39.0625 -1.21875 27.1562 -1.21875
Q17.3906 -1.21875 11.2031 4.25
Q5.03125 9.71875 4.15625 18.75" id="ArialMT-35"/>
      </defs>
      <g transform="translate(205.663206201 73.789375)scale(0.12 -0.12)">
       <use xlink:href="#ArialMT-30"/>
       <use x="55.615234375" xlink:href="#ArialMT-2e"/>
       <use x="83.3984375" xlink:href="#ArialMT-34"/>
       <use x="139.013671875" xlink:href="#ArialMT-35"/>
      </g>
     </g>
    </g>
   </g>
   <g id="matplotlib.axis_2">
    <g id="ytick_1">
     <g id="line2d_19">
      <defs>
       <path d="
M0 0
L4 0" id="m728421d6d4" style="stroke:#000000;stroke-width:0.5;"/>
      </defs>
      <g>
       <use style="stroke:#000000;stroke-width:0.5;" x="60.2362204724" xlink:href="#m728421d6d4" y="57.0"/>
      </g>
     </g>
     <g id="line2d_20">
      <defs>
       <path d="
M0 0
L-4 0" id="mcb0005524f" style="stroke:#000000;stroke-width:0.5;"/>
      </defs>
      <g>
       <use style="stroke:#000000;stroke-width:0.5;" x="216.850393701" xlink:href="#mcb0005524f" y="57.0"/>
      </g>
     </g>
     <g id="text_7">
      <!-- MPFR - 50.0pA -->
      <defs>
       <path d="
M7.85938 0
L7.85938 71.5781
L39.5938 71.5781
Q49.1719 71.5781 54.1406 69.6406
Q59.125 67.7188 62.1094 62.8281
Q65.0938 57.9531 65.0938 52.0469
Q65.0938 44.4375 60.1562 39.2031
Q55.2188 33.9844 44.9219 32.5625
Q48.6875 30.7656 50.6406 29
Q54.7812 25.2031 58.5 19.4844
L70.9531 0
L59.0312 0
L49.5625 14.8906
Q45.4062 21.3438 42.7188 24.75
Q40.0469 28.1719 37.9219 29.5312
Q35.7969 30.9062 33.5938 31.4531
Q31.9844 31.7812 28.3281 31.7812
L17.3281 31.7812
L17.3281 0
z

M17.3281 39.9844
L37.7031 39.9844
Q44.1875 39.9844 47.8438 41.3281
Q51.5156 42.6719 53.4219 45.625
Q55.3281 48.5781 55.3281 52.0469
Q55.3281 57.125 51.6406 60.3906
Q47.9531 63.6719 39.9844 63.6719
L17.3281 63.6719
z
" id="ArialMT-52"/>
       <path d="
M7.71875 0
L7.71875 71.5781
L34.7188 71.5781
Q41.8438 71.5781 45.6094 70.9062
Q50.875 70.0156 54.4375 67.5469
Q58.0156 65.0938 60.1875 60.6406
Q62.3594 56.2031 62.3594 50.875
Q62.3594 41.75 56.5469 35.4219
Q50.7344 29.1094 35.5469 29.1094
L17.1875 29.1094
L17.1875 0
z

M17.1875 37.5469
L35.6875 37.5469
Q44.875 37.5469 48.7344 40.9688
Q52.5938 44.3906 52.5938 50.5938
Q52.5938 55.0781 50.3125 58.2656
Q48.0469 61.4688 44.3438 62.5
Q41.9375 63.1406 35.5 63.1406
L17.1875 63.1406
z
" id="ArialMT-50"/>
       <path d="
M3.17188 21.4844
L3.17188 30.3281
L30.1719 30.3281
L30.1719 21.4844
z
" id="ArialMT-2d"/>
       <path d="
M6.59375 -19.875
L6.59375 51.8594
L14.5938 51.8594
L14.5938 45.125
Q17.4375 49.0781 21 51.0469
Q24.5625 53.0312 29.6406 53.0312
Q36.2812 53.0312 41.3594 49.6094
Q46.4375 46.1875 49.0156 39.9531
Q51.6094 33.7344 51.6094 26.3125
Q51.6094 18.3594 48.75 11.9844
Q45.9062 5.60938 40.4531 2.21875
Q35.0156 -1.17188 29 -1.17188
Q24.6094 -1.17188 21.1094 0.6875
Q17.625 2.54688 15.375 5.375
L15.375 -19.875
z

M14.5469 25.6406
Q14.5469 15.625 18.5938 10.8438
Q22.6562 6.0625 28.4219 6.0625
Q34.2812 6.0625 38.4531 11.0156
Q42.625 15.9688 42.625 26.375
Q42.625 36.2812 38.5469 41.2031
Q34.4688 46.1406 28.8125 46.1406
Q23.1875 46.1406 18.8594 40.8906
Q14.5469 35.6406 14.5469 25.6406" id="ArialMT-70"/>
       <path d="
M8.20312 0
L8.20312 71.5781
L56.5 71.5781
L56.5 63.1406
L17.6719 63.1406
L17.6719 40.9688
L51.2656 40.9688
L51.2656 32.5156
L17.6719 32.5156
L17.6719 0
z
" id="ArialMT-46"/>
       <path d="
M-0.140625 0
L27.3438 71.5781
L37.5469 71.5781
L66.8438 0
L56.0625 0
L47.7031 21.6875
L17.7812 21.6875
L9.90625 0
z

M20.5156 29.3906
L44.7812 29.3906
L37.3125 49.2188
Q33.8906 58.25 32.2344 64.0625
Q30.8594 57.1719 28.375 50.3906
z
" id="ArialMT-41"/>
       <path d="
M7.42188 0
L7.42188 71.5781
L21.6875 71.5781
L38.625 20.9062
Q40.9688 13.8125 42.0469 10.2969
Q43.2656 14.2031 45.8438 21.7812
L62.9844 71.5781
L75.7344 71.5781
L75.7344 0
L66.6094 0
L66.6094 59.9062
L45.7969 0
L37.25 0
L16.5469 60.9375
L16.5469 0
z
" id="ArialMT-4d"/>
       <path id="ArialMT-20"/>
      </defs>
      <g transform="translate(-26.4700295276 60.12)scale(0.12 -0.12)">
       <use xlink:href="#ArialMT-4d"/>
       <use x="83.30078125" xlink:href="#ArialMT-50"/>
       <use x="150.0" xlink:href="#ArialMT-46"/>
       <use x="211.083984375" xlink:href="#ArialMT-52"/>
       <use x="283.30078125" xlink:href="#ArialMT-20"/>
       <use x="311.083984375" xlink:href="#ArialMT-2d"/>
       <use x="344.384765625" xlink:href="#ArialMT-20"/>
       <use x="372.16796875" xlink:href="#ArialMT-35"/>
       <use x="427.783203125" xlink:href="#ArialMT-30"/>
       <use x="483.3984375" xlink:href="#ArialMT-2e"/>
       <use x="511.181640625" xlink:href="#ArialMT-30"/>
       <use x="566.796875" xlink:href="#ArialMT-70"/>
       <use x="622.412109375" xlink:href="#ArialMT-41"/>
      </g>
     </g>
    </g>
    <g id="ytick_2">
     <g id="line2d_21">
      <g>
       <use style="stroke:#000000;stroke-width:0.5;" x="60.2362204724" xlink:href="#m728421d6d4" y="48.6"/>
      </g>
     </g>
     <g id="line2d_22">
      <g>
       <use style="stroke:#000000;stroke-width:0.5;" x="216.850393701" xlink:href="#mcb0005524f" y="48.6"/>
      </g>
     </g>
     <g id="text_8">
      <!-- MPFR - 49.5pA -->
      <defs>
       <path d="
M5.46875 16.5469
L13.9219 17.3281
Q14.9844 11.375 18.0156 8.6875
Q21.0469 6 25.7812 6
Q29.8281 6 32.875 7.85938
Q35.9375 9.71875 37.8906 12.8125
Q39.8438 15.9219 41.1562 21.1875
Q42.4844 26.4688 42.4844 31.9375
Q42.4844 32.5156 42.4375 33.6875
Q39.7969 29.5 35.2344 26.875
Q30.6719 24.2656 25.3438 24.2656
Q16.4531 24.2656 10.2969 30.7031
Q4.15625 37.1562 4.15625 47.7031
Q4.15625 58.5938 10.5781 65.2344
Q17 71.875 26.6562 71.875
Q33.6406 71.875 39.4219 68.1094
Q45.2188 64.3594 48.2188 57.3906
Q51.2188 50.4375 51.2188 37.25
Q51.2188 23.5312 48.2344 15.4062
Q45.2656 7.28125 39.375 3.03125
Q33.5 -1.21875 25.5938 -1.21875
Q17.1875 -1.21875 11.8594 3.4375
Q6.54688 8.10938 5.46875 16.5469
M41.4531 48.1406
Q41.4531 55.7188 37.4219 60.1562
Q33.4062 64.5938 27.7344 64.5938
Q21.875 64.5938 17.5312 59.8125
Q13.1875 55.0312 13.1875 47.4062
Q13.1875 40.5781 17.3125 36.2969
Q21.4375 32.0312 27.4844 32.0312
Q33.5938 32.0312 37.5156 36.2969
Q41.4531 40.5781 41.4531 48.1406" id="ArialMT-39"/>
      </defs>
      <g transform="translate(-26.4700295276 51.72)scale(0.12 -0.12)">
       <use xlink:href="#ArialMT-4d"/>
       <use x="83.30078125" xlink:href="#ArialMT-50"/>
       <use x="150.0" xlink:href="#ArialMT-46"/>
       <use x="211.083984375" xlink:href="#ArialMT-52"/>
       <use x="283.30078125" xlink:href="#ArialMT-20"/>
       <use x="311.083984375" xlink:href="#ArialMT-2d"/>
       <use x="344.384765625" xlink:href="#ArialMT-20"/>
       <use x="372.16796875" xlink:href="#ArialMT-34"/>
       <use x="427.783203125" xlink:href="#ArialMT-39"/>
       <use x="483.3984375" xlink:href="#ArialMT-2e"/>
       <use x="511.181640625" xlink:href="#ArialMT-35"/>
       <use x="566.796875" xlink:href="#ArialMT-70"/>
       <use x="622.412109375" xlink:href="#ArialMT-41"/>
      </g>
     </g>
    </g>
    <g id="ytick_3">
     <g id="line2d_23">
      <g>
       <use style="stroke:#000000;stroke-width:0.5;" x="60.2362204724" xlink:href="#m728421d6d4" y="40.2"/>
      </g>
     </g>
     <g id="line2d_24">
      <g>
       <use style="stroke:#000000;stroke-width:0.5;" x="216.850393701" xlink:href="#mcb0005524f" y="40.2"/>
      </g>
     </g>
     <g id="text_9">
      <!-- F64 - 50.0pA -->
      <defs>
       <path d="
M49.75 54.0469
L41.0156 53.375
Q39.8438 58.5469 37.7031 60.8906
Q34.125 64.6562 28.9062 64.6562
Q24.7031 64.6562 21.5312 62.3125
Q17.3906 59.2812 14.9844 53.4688
Q12.5938 47.6562 12.5 36.9219
Q15.6719 41.75 20.2656 44.0938
Q24.8594 46.4375 29.8906 46.4375
Q38.6719 46.4375 44.8438 39.9688
Q51.0312 33.5 51.0312 23.25
Q51.0312 16.5 48.125 10.7188
Q45.2188 4.9375 40.1406 1.85938
Q35.0625 -1.21875 28.6094 -1.21875
Q17.625 -1.21875 10.6875 6.85938
Q3.76562 14.9375 3.76562 33.5
Q3.76562 54.25 11.4219 63.6719
Q18.1094 71.875 29.4375 71.875
Q37.8906 71.875 43.2812 67.1406
Q48.6875 62.4062 49.75 54.0469
M13.875 23.1875
Q13.875 18.6562 15.7969 14.5
Q17.7188 10.3594 21.1875 8.17188
Q24.6562 6 28.4688 6
Q34.0312 6 38.0312 10.4844
Q42.0469 14.9844 42.0469 22.7031
Q42.0469 30.125 38.0781 34.3906
Q34.125 38.6719 28.125 38.6719
Q22.1719 38.6719 18.0156 34.3906
Q13.875 30.125 13.875 23.1875" id="ArialMT-36"/>
      </defs>
      <g transform="translate(-13.1500295276 43.32)scale(0.12 -0.12)">
       <use xlink:href="#ArialMT-46"/>
       <use x="61.083984375" xlink:href="#ArialMT-36"/>
       <use x="116.69921875" xlink:href="#ArialMT-34"/>
       <use x="172.314453125" xlink:href="#ArialMT-20"/>
       <use x="200.09765625" xlink:href="#ArialMT-2d"/>
       <use x="233.3984375" xlink:href="#ArialMT-20"/>
       <use x="261.181640625" xlink:href="#ArialMT-35"/>
       <use x="316.796875" xlink:href="#ArialMT-30"/>
       <use x="372.412109375" xlink:href="#ArialMT-2e"/>
       <use x="400.1953125" xlink:href="#ArialMT-30"/>
       <use x="455.810546875" xlink:href="#ArialMT-70"/>
       <use x="511.42578125" xlink:href="#ArialMT-41"/>
      </g>
     </g>
    </g>
    <g id="ytick_4">
     <g id="line2d_25">
      <g>
       <use style="stroke:#000000;stroke-width:0.5;" x="60.2362204724" xlink:href="#m728421d6d4" y="31.8"/>
      </g>
     </g>
     <g id="line2d_26">
      <g>
       <use style="stroke:#000000;stroke-width:0.5;" x="216.850393701" xlink:href="#mcb0005524f" y="31.8"/>
      </g>
     </g>
     <g id="text_10">
      <!-- I28 - 50.0pA -->
      <defs>
       <path d="
M9.32812 0
L9.32812 71.5781
L18.7969 71.5781
L18.7969 0
z
" id="ArialMT-49"/>
       <path d="
M17.6719 38.8125
Q12.2031 40.8281 9.5625 44.5312
Q6.9375 48.25 6.9375 53.4219
Q6.9375 61.2344 12.5469 66.5469
Q18.1719 71.875 27.4844 71.875
Q36.8594 71.875 42.5781 66.4219
Q48.2969 60.9844 48.2969 53.1719
Q48.2969 48.1875 45.6719 44.5
Q43.0625 40.8281 37.75 38.8125
Q44.3438 36.6719 47.7812 31.875
Q51.2188 27.0938 51.2188 20.4531
Q51.2188 11.2812 44.7188 5.03125
Q38.2344 -1.21875 27.6406 -1.21875
Q17.0469 -1.21875 10.5469 5.04688
Q4.04688 11.3281 4.04688 20.7031
Q4.04688 27.6875 7.59375 32.3906
Q11.1406 37.1094 17.6719 38.8125
M15.9219 53.7188
Q15.9219 48.6406 19.1875 45.4062
Q22.4688 42.1875 27.6875 42.1875
Q32.7656 42.1875 36.0156 45.375
Q39.2656 48.5781 39.2656 53.2188
Q39.2656 58.0625 35.9062 61.3594
Q32.5625 64.6562 27.5938 64.6562
Q22.5625 64.6562 19.2344 61.4219
Q15.9219 58.2031 15.9219 53.7188
M13.0938 20.6562
Q13.0938 16.8906 14.875 13.375
Q16.6562 9.85938 20.1719 7.92188
Q23.6875 6 27.7344 6
Q34.0312 6 38.125 10.0469
Q42.2344 14.1094 42.2344 20.3594
Q42.2344 26.7031 38.0156 30.8594
Q33.7969 35.0156 27.4375 35.0156
Q21.2344 35.0156 17.1562 30.9062
Q13.0938 26.8125 13.0938 20.6562" id="ArialMT-38"/>
      </defs>
      <g transform="translate(-9.15440452756 34.92)scale(0.12 -0.12)">
       <use xlink:href="#ArialMT-49"/>
       <use x="27.783203125" xlink:href="#ArialMT-32"/>
       <use x="83.3984375" xlink:href="#ArialMT-38"/>
       <use x="139.013671875" xlink:href="#ArialMT-20"/>
       <use x="166.796875" xlink:href="#ArialMT-2d"/>
       <use x="200.09765625" xlink:href="#ArialMT-20"/>
       <use x="227.880859375" xlink:href="#ArialMT-35"/>
       <use x="283.49609375" xlink:href="#ArialMT-30"/>
       <use x="339.111328125" xlink:href="#ArialMT-2e"/>
       <use x="366.89453125" xlink:href="#ArialMT-30"/>
       <use x="422.509765625" xlink:href="#ArialMT-70"/>
       <use x="478.125" xlink:href="#ArialMT-41"/>
      </g>
     </g>
    </g>
    <g id="ytick_5">
     <g id="line2d_27">
      <g>
       <use style="stroke:#000000;stroke-width:0.5;" x="60.2362204724" xlink:href="#m728421d6d4" y="23.4"/>
      </g>
     </g>
     <g id="line2d_28">
      <g>
       <use style="stroke:#000000;stroke-width:0.5;" x="216.850393701" xlink:href="#mcb0005524f" y="23.4"/>
      </g>
     </g>
     <g id="text_11">
      <!-- I24 - 50.0pA -->
      <g transform="translate(-9.15440452756 26.52)scale(0.12 -0.12)">
       <use xlink:href="#ArialMT-49"/>
       <use x="27.783203125" xlink:href="#ArialMT-32"/>
       <use x="83.3984375" xlink:href="#ArialMT-34"/>
       <use x="139.013671875" xlink:href="#ArialMT-20"/>
       <use x="166.796875" xlink:href="#ArialMT-2d"/>
       <use x="200.09765625" xlink:href="#ArialMT-20"/>
       <use x="227.880859375" xlink:href="#ArialMT-35"/>
       <use x="283.49609375" xlink:href="#ArialMT-30"/>
       <use x="339.111328125" xlink:href="#ArialMT-2e"/>
       <use x="366.89453125" xlink:href="#ArialMT-30"/>
       <use x="422.509765625" xlink:href="#ArialMT-70"/>
       <use x="478.125" xlink:href="#ArialMT-41"/>
      </g>
     </g>
    </g>
    <g id="ytick_6">
     <g id="line2d_29">
      <g>
       <use style="stroke:#000000;stroke-width:0.5;" x="60.2362204724" xlink:href="#m728421d6d4" y="15.0"/>
      </g>
     </g>
     <g id="line2d_30">
      <g>
       <use style="stroke:#000000;stroke-width:0.5;" x="216.850393701" xlink:href="#mcb0005524f" y="15.0"/>
      </g>
     </g>
     <g id="text_12">
      <!-- I20 - 50.0pA -->
      <g transform="translate(-9.15440452756 18.12)scale(0.12 -0.12)">
       <use xlink:href="#ArialMT-49"/>
       <use x="27.783203125" xlink:href="#ArialMT-32"/>
       <use x="83.3984375" xlink:href="#ArialMT-30"/>
       <use x="139.013671875" xlink:href="#ArialMT-20"/>
       <use x="166.796875" xlink:href="#ArialMT-2d"/>
       <use x="200.09765625" xlink:href="#ArialMT-20"/>
       <use x="227.880859375" xlink:href="#ArialMT-35"/>
       <use x="283.49609375" xlink:href="#ArialMT-30"/>
       <use x="339.111328125" xlink:href="#ArialMT-2e"/>
       <use x="366.89453125" xlink:href="#ArialMT-30"/>
       <use x="422.509765625" xlink:href="#ArialMT-70"/>
       <use x="478.125" xlink:href="#ArialMT-41"/>
      </g>
     </g>
    </g>
   </g>
   <g id="patch_3">
    <path d="
M60.2362 10.8
L216.85 10.8" style="fill:none;stroke:#000000;"/>
   </g>
   <g id="patch_4">
    <path d="
M216.85 61.2
L216.85 10.8" style="fill:none;stroke:#000000;"/>
   </g>
   <g id="patch_5">
    <path d="
M60.2362 61.2
L216.85 61.2" style="fill:none;stroke:#000000;"/>
   </g>
   <g id="patch_6">
    <path d="
M60.2362 61.2
L60.2362 10.8" style="fill:none;stroke:#000000;"/>
   </g>
  </g>
  <g id="text_13">
   <!-- C -->
   <defs>
    <path d="
M42.1406 -1.42188
Q34.0312 -1.42188 27.1719 0.96875
Q20.3125 3.375 15.375 8.10938
Q10.4531 12.8438 7.73438 19.9219
Q5.03125 27 5.03125 36.2812
Q5.03125 44.9219 7.60938 51.9531
Q10.2031 58.9844 15.1406 64.0156
Q19.875 68.8438 26.875 71.4844
Q33.8906 74.125 42.1875 74.125
Q46.7812 74.125 50.4688 73.6094
Q54.1562 73.0938 57.2812 72.2656
Q60.5469 71.3438 63.2031 70.1875
Q65.875 69.0469 67.875 68.0625
L67.875 50.4375
L65.7188 50.4375
Q64.3594 51.6094 62.2812 53.2188
Q60.2031 54.8281 57.5625 56.3906
Q54.8906 57.9531 51.7656 59.0312
Q48.6406 60.1094 45.0625 60.1094
Q41.1094 60.1094 37.5469 58.8594
Q33.9844 57.625 30.9531 54.7344
Q28.0781 51.9531 26.2969 47.3594
Q24.5156 42.7812 24.5156 36.2344
Q24.5156 29.3906 26.4375 24.7969
Q28.375 20.2188 31.2969 17.5781
Q34.2812 14.8906 37.9375 13.7344
Q41.6094 12.5938 45.1719 12.5938
Q48.5781 12.5938 51.9219 13.625
Q55.2812 14.6562 58.1094 16.4062
Q60.5 17.8281 62.5469 19.4375
Q64.5938 21.0469 65.9219 22.2188
L67.875 22.2188
L67.875 4.82812
Q65.1406 3.60938 62.6406 2.53125
Q60.1562 1.46875 57.4219 0.6875
Q53.8594 -0.34375 50.7344 -0.875
Q47.6094 -1.42188 42.1406 -1.42188" id="Verdana-Bold-43"/>
   </defs>
   <g transform="translate(12.0472440945 5.76)scale(0.12 -0.12)">
    <use xlink:href="#Verdana-Bold-43"/>
   </g>
  </g>
 </g>
 <defs>
  <clipPath id="p826c73c57b">
   <rect height="50.4" width="156.614173228" x="60.2362204724" y="10.8"/>
  </clipPath>
 </defs>
</svg>
