<?xml version="1.0" encoding="utf-8" standalone="no"?>
<!DOCTYPE svg PUBLIC "-//W3C//DTD SVG 1.1//EN"
  "http://www.w3.org/Graphics/SVG/1.1/DTD/svg11.dtd">
<!-- Created with matplotlib (http://matplotlib.sourceforge.net/) -->
<svg height="144pt" version="1.1" viewBox="0 0 240 144" width="240pt" xmlns="http://www.w3.org/2000/svg" xmlns:xlink="http://www.w3.org/1999/xlink">
 <defs>
  <style type="text/css">
*{stroke-linecap:square;stroke-linejoin:round;}
  </style>
 </defs>
 <g id="figure_1">
  <g id="patch_1">
   <path d="
M0 144
L240.945 144
L240.945 0
L0 0
z
" style="fill:#ffffff;"/>
  </g>
  <g id="axes_1">
   <g id="patch_2">
    <path d="
M48.189 122.4
L216.85 122.4
L216.85 14.4
L48.189 14.4
z
" style="fill:#ffffff;"/>
   </g>
   <g id="line2d_1">
    <path clip-path="url(#paeeee5594a)" d="
M48.2227 105.505
L49.7744 106.233
L51.461 106.777
L53.3163 107.14
L55.3402 107.309
L57.5665 107.27
L60.029 107
L62.7276 106.478
L65.696 105.674
L68.9343 104.562
L72.3412 103.155
L75.7482 101.511
L79.0203 99.6934
L82.0562 97.7555
L84.721 95.7943
L87.0148 93.8374
L89.005 91.8521
L90.7254 89.8231
L92.2096 87.7282
L93.4914 85.5347
L94.6046 83.1926
L95.5828 80.6189
L96.4599 77.6687
L97.2357 74.2455
L97.9103 70.2501
L98.5175 65.3035
L99.091 58.6619
L99.6307 49.6354
L100.339 33.3621
L100.946 21.1472
L101.317 17.4615
L101.553 16.7018
L101.688 16.7548
L101.857 17.2591
L102.127 18.9321
L102.565 23.3945
L103.274 33.3148
L105.433 64.6966
L106.445 75.7391
L107.355 83.426
L108.232 89.0252
L109.076 93.0548
L109.953 96.1835
L110.83 98.5302
L111.774 100.443
L112.786 102.003
L113.899 103.315
L115.114 104.409
L116.463 105.33
L117.981 106.094
L119.634 106.675
L121.455 107.079
L123.446 107.29
L125.638 107.296
L128.033 107.078
L130.698 106.608
L133.633 105.857
L136.804 104.814
L140.177 103.468
L143.618 101.858
L146.957 100.052
L150.027 98.1453
L152.759 96.1919
L155.154 94.2081
L157.212 92.2157
L158.966 90.212
L160.484 88.1443
L161.799 85.9792
L162.946 83.665
L163.958 81.117
L164.835 78.3104
L165.611 75.0922
L166.319 71.173
L166.96 66.279
L167.534 60.064
L168.073 51.6411
L168.714 37.5504
L169.49 21.1951
L169.861 17.4807
L170.097 16.7047
L170.232 16.7496
L170.401 17.2447
L170.671 18.9056
L171.109 23.354
L171.818 33.2636
L173.977 64.6556
L174.989 75.7069
L175.899 83.4014
L176.776 89.0068
L177.62 93.0409
L178.497 96.1733
L179.408 98.6004
L180.352 100.497
L181.364 102.044
L182.477 103.346
L183.725 104.459
L185.108 105.387
L186.626 106.135
L188.313 106.712
L190.134 107.1
L192.158 107.298
L194.351 107.288
L196.78 107.051
L199.444 106.564
L202.379 105.799
L205.584 104.729
L208.991 103.352
L212.431 101.723
L215.771 99.8967
L216.85 99.2485
L216.85 99.2485" style="fill:none;stroke:#0000ff;"/>
   </g>
   <g id="line2d_2">
    <path clip-path="url(#paeeee5594a)" d="
M48.2227 91.0574
L49.066 94.5902
L49.943 97.343
L50.8538 99.494
L51.8321 101.246
L52.8777 102.677
L54.0583 103.913
L55.3739 104.959
L56.8244 105.82
L58.4098 106.5
L60.1639 107.007
L62.0867 107.325
L64.178 107.444
L66.4718 107.349
L69.0018 107.019
L71.8015 106.424
L74.8712 105.54
L78.177 104.353
L81.6514 102.866
L85.1258 101.135
L88.3978 99.2577
L91.3325 97.3226
L93.9299 95.3459
L96.1563 93.376
L98.079 91.3801
L99.7319 89.3453
L101.149 87.2536
L102.397 85.012
L103.476 82.6155
L104.421 79.9806
L105.264 76.9602
L106.006 73.4645
L106.681 69.1625
L107.288 63.7484
L107.828 56.8841
L108.367 47.0634
L109.818 18.0582
L110.088 16.6494
L110.223 16.509
L110.256 16.5274
L110.391 16.7994
L110.627 17.9619
L110.998 21.2115
L111.572 28.5329
L114.675 71.8938
L115.62 80.7469
L116.497 87.0197
L117.34 91.5612
L118.183 94.9682
L119.06 97.6267
L119.971 99.7089
L120.949 101.41
L122.029 102.842
L123.21 104.039
L124.525 105.054
L125.976 105.89
L127.595 106.561
L129.349 107.045
L131.272 107.343
L133.397 107.444
L135.724 107.327
L138.288 106.97
L141.121 106.346
L144.225 105.428
L147.564 104.203
L151.039 102.69
L154.479 100.95
L157.718 99.0664
L160.619 97.1265
L163.149 95.1745
L165.341 93.2084
L167.23 91.2208
L168.849 89.2011
L170.266 87.0793
L171.48 84.8662
L172.56 82.4336
L173.504 79.7495
L174.348 76.6592
L175.09 73.0628
L175.731 68.8679
L176.338 63.33
L176.878 56.2862
L177.417 46.2232
L178.767 18.6147
L179.07 16.7249
L179.239 16.5105
L179.374 16.7164
L179.576 17.5777
L179.914 20.2297
L180.419 26.242
L181.431 41.569
L182.848 62.0799
L183.894 74.0375
L184.838 82.3919
L185.715 88.2606
L186.559 92.4928
L187.402 95.6683
L188.279 98.1536
L189.224 100.173
L190.236 101.812
L191.349 103.187
L192.563 104.331
L193.912 105.296
L195.397 106.083
L197.05 106.705
L198.837 107.14
L200.828 107.39
L202.986 107.435
L205.381 107.258
L208.013 106.834
L210.914 106.136
L214.084 105.139
L216.85 104.092
L216.85 104.092" style="fill:none;stroke:#008000;"/>
   </g>
   <g id="line2d_3">
    <path clip-path="url(#paeeee5594a)" d="
M48.2227 105.505
L49.7744 106.233
L51.461 106.777
L53.3163 107.14
L55.3402 107.309
L57.5665 107.27
L60.029 107
L62.7276 106.478
L65.696 105.674
L68.9343 104.562
L72.3412 103.155
L75.7482 101.511
L79.0203 99.6934
L82.0562 97.7555
L84.721 95.7943
L87.0148 93.8374
L89.005 91.8521
L90.7254 89.8231
L92.2096 87.7282
L93.4914 85.5347
L94.6046 83.1926
L95.5828 80.6189
L96.4599 77.6687
L97.2357 74.2455
L97.9103 70.2501
L98.5175 65.3035
L99.091 58.6619
L99.6307 49.6354
L100.339 33.3621
L100.946 21.1472
L101.317 17.4615
L101.553 16.7018
L101.688 16.7548
L101.857 17.2591
L102.127 18.9321
L102.565 23.3945
L103.274 33.3148
L105.433 64.6966
L106.445 75.7391
L107.355 83.426
L108.232 89.0252
L109.076 93.0548
L109.953 96.1835
L110.83 98.5302
L111.774 100.443
L112.786 102.003
L113.899 103.315
L115.114 104.409
L116.463 105.33
L117.981 106.094
L119.634 106.675
L121.455 107.079
L123.446 107.29
L125.638 107.296
L128.033 107.078
L130.698 106.608
L133.633 105.857
L136.804 104.814
L140.177 103.468
L143.618 101.858
L146.957 100.052
L150.027 98.1453
L152.759 96.1919
L155.154 94.2081
L157.212 92.2157
L158.966 90.212
L160.484 88.1443
L161.799 85.9792
L162.946 83.665
L163.958 81.117
L164.835 78.3104
L165.611 75.0922
L166.319 71.173
L166.96 66.279
L167.534 60.064
L168.073 51.6411
L168.714 37.5504
L169.49 21.1951
L169.861 17.4807
L170.097 16.7047
L170.232 16.7496
L170.401 17.2447
L170.671 18.9056
L171.109 23.354
L171.818 33.2636
L173.977 64.6556
L174.989 75.7069
L175.899 83.4014
L176.776 89.0068
L177.62 93.0409
L178.497 96.1733
L179.408 98.6004
L180.352 100.497
L181.364 102.044
L182.477 103.346
L183.725 104.459
L185.108 105.387
L186.626 106.135
L188.313 106.712
L190.134 107.1
L192.158 107.298
L194.351 107.288
L196.78 107.051
L199.444 106.564
L202.379 105.799
L205.584 104.729
L208.991 103.352
L212.431 101.723
L215.771 99.8967
L216.85 99.2485
L216.85 99.2485" style="fill:none;stroke:#ff0000;"/>
   </g>
   <g id="line2d_4">
    <path clip-path="url(#paeeee5594a)" d="
M48.2227 103.927
L49.5383 104.935
L50.9887 105.765
L52.5742 106.418
L54.3282 106.897
L56.251 107.19
L58.3761 107.285
L60.7036 107.16
L63.2336 106.799
L66.0333 106.172
L69.1704 105.234
L72.5437 103.99
L75.9843 102.484
L79.2564 100.81
L82.6296 98.8368
L85.4294 96.9474
L87.9931 94.9372
L90.1856 92.9501
L91.9734 91.0353
L93.6601 88.8976
L95.0094 86.8404
L96.2574 84.509
L97.3031 82.092
L98.2477 79.3208
L99.0572 76.2564
L99.7994 72.5346
L100.44 68.1533
L101.014 62.6969
L101.553 55.3743
L102.127 44.1642
L103.308 19.269
L103.645 16.6885
L103.847 16.3169
L103.982 16.4962
L104.185 17.3237
L104.522 19.9341
L105.028 25.9103
L106.04 41.2285
L107.457 61.7691
L108.502 73.7459
L109.447 82.1229
L110.324 88.012
L111.167 92.2645
L112.01 95.4566
L112.887 97.954
L113.832 99.982
L114.844 101.629
L115.957 103.011
L117.171 104.162
L118.521 105.134
L120.005 105.927
L121.624 106.541
L123.412 106.979
L125.368 107.228
L127.527 107.277
L129.889 107.105
L132.486 106.688
L135.353 105.997
L138.524 105.002
L141.931 103.697
L145.338 102.156
L148.644 100.414
L151.916 98.4464
L154.581 96.5935
L157.144 94.5291
L159.269 92.539
L161.023 90.5886
L162.643 88.4602
L163.958 86.3647
L165.172 83.9966
L166.184 81.5366
L167.095 78.7268
L167.871 75.6306
L168.579 71.8943
L169.22 67.2693
L169.794 61.4472
L170.334 53.578
L170.907 41.6694
L171.919 20.0284
L172.256 16.9694
L172.492 16.3211
L172.594 16.375
L172.762 16.8557
L173.032 18.5029
L173.437 22.5441
L174.112 31.8525
L176.439 65.6136
L177.451 76.4231
L178.362 83.9163
L179.239 89.3581
L180.082 93.275
L180.959 96.3191
L181.87 98.6822
L182.815 100.534
L183.86 102.096
L185.007 103.402
L186.255 104.488
L187.638 105.398
L189.19 106.146
L190.877 106.707
L192.732 107.085
L194.756 107.269
L196.982 107.244
L199.411 106.993
L202.076 106.491
L205.044 105.702
L208.316 104.599
L211.757 103.203
L215.096 101.61
L216.85 100.674
L216.85 100.674" style="fill:none;stroke:#00bfbf;"/>
   </g>
   <g id="line2d_5">
    <path clip-path="url(#paeeee5594a)" d="
M48.2223 103.83
L49.538 104.854
L50.9881 105.697
L52.574 106.361
L54.3281 106.85
L56.284 107.156
L58.3758 107.255
L60.7033 107.138
L63.2672 106.778
L66.0668 106.155
L69.1703 105.234
L72.442 104.037
L75.8487 102.56
L79.0874 100.921
L82.4266 98.9903
L85.227 97.1298
L88.1616 94.841
L90.3202 92.8741
L92.0743 90.9882
L93.727 88.8924
L95.0765 86.8377
L96.2909 84.5792
L97.3364 82.1844
L98.2806 79.444
L99.0905 76.4236
L99.8328 72.7661
L100.474 68.4787
L101.047 63.1641
L101.587 56.0591
L102.126 45.9064
L103.476 18.4304
L103.779 16.6389
L103.948 16.474
L104.083 16.7158
L104.319 17.8338
L104.69 21.0321
L105.264 28.3039
L108.434 72.3191
L109.379 81.0132
L110.256 87.1631
L111.133 91.7691
L112.01 95.1887
L112.887 97.7436
L113.831 99.8152
L114.844 101.495
L115.856 102.788
L117.07 103.986
L118.419 104.994
L119.903 105.817
L121.522 106.456
L123.31 106.917
L125.267 107.187
L127.392 107.254
L129.753 107.102
L132.317 106.71
L135.116 106.058
L138.321 105.075
L141.728 103.791
L145.135 102.271
L148.374 100.588
L151.611 98.6719
L154.31 96.8345
L156.841 94.8392
L158.999 92.8717
L160.753 90.9853
L162.406 88.8886
L163.755 86.8329
L164.97 84.5733
L166.015 82.1766
L166.96 79.4338
L167.769 76.4096
L168.512 72.7471
L169.153 68.4521
L169.726 63.1262
L170.266 56.0042
L170.805 45.8295
L172.121 18.7196
L172.424 16.7216
L172.593 16.457
L172.627 16.4694
L172.762 16.719
L172.998 17.8488
L173.369 21.0616
L173.943 28.3474
L177.079 72.0024
L178.024 80.7696
L178.901 86.9793
L179.778 91.6325
L180.655 95.0874
L181.532 97.6679
L182.477 99.7585
L183.489 101.452
L184.568 102.831
L185.783 104.018
L187.131 105.018
L188.616 105.835
L190.235 106.468
L192.023 106.924
L193.98 107.19
L196.138 107.254
L198.499 107.094
L201.063 106.697
L203.897 106.03
L207.102 105.039
L210.475 103.762
L213.814 102.269
L216.85 100.697
L216.85 100.697" style="fill:none;stroke:#bf00bf;"/>
   </g>
   <g id="line2d_6">
    <path clip-path="url(#paeeee5594a)" d="
M48.2199 102.157
L48.6831 102.687
L50.8063 104.483
L52.9681 105.635
L55.4645 106.427
L58.1281 106.823
L61.1392 106.826
L63.4297 106.587
L67.1099 105.845
L74.1228 103.529
L75.1008 103.124
L76.8251 102.382
L77.8288 101.906
L79.3858 101.137
L80.1579 100.733
L81.5733 99.9639
L83.066 99.1017
L83.7995 98.6507
L85.1892 97.7583
L85.9226 97.2499
L87.1451 96.3818
L87.8786 95.8198
L89.101 94.8472
L89.7701 94.2814
L90.7224 93.4413
L91.3915 92.8027
L92.2408 91.9508
L92.8713 91.257
L93.7592 90.2417
L94.3897 89.4494
L95.136 88.4606
L95.8051 87.4697
L96.5257 86.3139
L97.1563 85.1566
L97.7997 83.8655
L98.3787 82.5648
L99.0478 80.794
L99.5497 79.252
L100.064 77.4687
L101.711 68.6404
L102.123 65.2032
L103.204 50.5092
L104.144 29.7223
L104.748 20.5504
L105.083 18.9054
L105.224 18.8591
L105.43 19.3586
L105.868 22.3646
L107.18 39.9683
L107.618 46.5704
L109.908 74.8467
L111.427 86.5405
L112.816 93.2581
L113.215 94.7067
L114.631 98.5205
L116.252 101.319
L118.169 103.454
L120.228 104.931
L122.931 106.096
L125.594 106.697
L127.988 106.862
L130.754 106.751
L133.289 106.398
L140.469 104.436
L141.859 103.925
L143.571 103.213
L145.398 102.435
L147.019 101.668
L148.023 101.162
L149.747 100.252
L151.407 99.3113
L152.244 98.8037
L153.453 98.0335
L154.676 97.2124
L155.383 96.7122
L156.67 95.7513
L157.339 95.2202
L158.549 94.2071
L159.604 93.2698
L160.273 92.621
L161.187 91.6822
L161.791 91.0098
L162.641 90.0188
L163.207 89.2986
L163.953 88.2944
L164.519 87.4432
L165.201 86.3433
L165.806 85.253
L166.411 84.0421
L166.99 82.7634
L167.659 81.0257
L168.2 79.4087
L168.676 77.7791
L170.361 69.0112
L171.545 56.472
L173.463 20.3827
L173.797 18.8583
L173.939 18.8554
L174.132 19.413
L174.376 20.8005
L175.187 29.7855
L175.753 38.1894
L176.602 50.7763
L177.001 56.4264
L178.893 77.4812
L180.411 88.2046
L181.788 94.3101
L183.178 98.1902
L184.761 101.059
L186.511 103.128
L188.608 104.743
L191.233 105.97
L193.601 106.58
L196.059 106.846
L198.491 106.828
L200.344 106.648
L202.544 106.287
L208.708 104.588
L210.303 104.019
L211.847 103.389
L213.842 102.55
L214.987 102.019
L216.608 101.225
L216.84 101.101
L216.84 101.101" style="fill:none;stroke:#bfbf00;"/>
   </g>
   <g id="matplotlib.axis_1">
    <g id="xtick_1">
     <g id="line2d_7">
      <path clip-path="url(#paeeee5594a)" d="
M48.189 122.4
L48.189 14.4" style="fill:none;stroke:#000000;stroke-dasharray:1.000000,3.000000;stroke-dashoffset:0.0;stroke-linecap:butt;stroke-width:0.5;"/>
     </g>
     <g id="line2d_8">
      <defs>
       <path d="
M0 0
L0 -4" id="m0012dd4eef" style="stroke:#000000;stroke-linecap:butt;stroke-width:0.5;"/>
      </defs>
      <g>
       <use style="stroke:#000000;stroke-linecap:butt;stroke-width:0.5;" x="48.188976378" xlink:href="#m0012dd4eef" y="122.4"/>
      </g>
     </g>
     <g id="line2d_9">
      <defs>
       <path d="
M0 0
L0 4" id="m476344969c" style="stroke:#000000;stroke-linecap:butt;stroke-width:0.5;"/>
      </defs>
      <g>
       <use style="stroke:#000000;stroke-linecap:butt;stroke-width:0.5;" x="48.188976378" xlink:href="#m476344969c" y="14.4"/>
      </g>
     </g>
     <g id="text_1">
      <!-- 0.40 -->
      <defs>
       <path d="
M4.15625 35.2969
Q4.15625 48 6.76562 55.7344
Q9.375 63.4844 14.5156 67.6719
Q19.6719 71.875 27.4844 71.875
Q33.25 71.875 37.5938 69.5469
Q41.9375 67.2344 44.7656 62.8594
Q47.6094 58.5 49.2188 52.2188
Q50.8281 45.9531 50.8281 35.2969
Q50.8281 22.7031 48.2344 14.9688
Q45.6562 7.23438 40.5 3
Q35.3594 -1.21875 27.4844 -1.21875
Q17.1406 -1.21875 11.2344 6.20312
Q4.15625 15.1406 4.15625 35.2969
M13.1875 35.2969
Q13.1875 17.6719 17.3125 11.8281
Q21.4375 6 27.4844 6
Q33.5469 6 37.6719 11.8594
Q41.7969 17.7188 41.7969 35.2969
Q41.7969 52.9844 37.6719 58.7812
Q33.5469 64.5938 27.3906 64.5938
Q21.3438 64.5938 17.7188 59.4688
Q13.1875 52.9375 13.1875 35.2969" id="ArialMT-30"/>
       <path d="
M9.07812 0
L9.07812 10.0156
L19.0938 10.0156
L19.0938 0
z
" id="ArialMT-2e"/>
       <path d="
M32.3281 0
L32.3281 17.1406
L1.26562 17.1406
L1.26562 25.2031
L33.9375 71.5781
L41.1094 71.5781
L41.1094 25.2031
L50.7812 25.2031
L50.7812 17.1406
L41.1094 17.1406
L41.1094 0
z

M32.3281 25.2031
L32.3281 57.4688
L9.90625 25.2031
z
" id="ArialMT-34"/>
      </defs>
      <g transform="translate(43.034725128 130.3905)scale(0.05552 -0.05552)">
       <use xlink:href="#ArialMT-30"/>
       <use x="55.615234375" xlink:href="#ArialMT-2e"/>
       <use x="83.3984375" xlink:href="#ArialMT-34"/>
       <use x="139.013671875" xlink:href="#ArialMT-30"/>
      </g>
     </g>
    </g>
    <g id="xtick_2">
     <g id="line2d_10">
      <path clip-path="url(#paeeee5594a)" d="
M81.9213 122.4
L81.9213 14.4" style="fill:none;stroke:#000000;stroke-dasharray:1.000000,3.000000;stroke-dashoffset:0.0;stroke-linecap:butt;stroke-width:0.5;"/>
     </g>
     <g id="line2d_11">
      <g>
       <use style="stroke:#000000;stroke-linecap:butt;stroke-width:0.5;" x="81.9212598425" xlink:href="#m0012dd4eef" y="122.4"/>
      </g>
     </g>
     <g id="line2d_12">
      <g>
       <use style="stroke:#000000;stroke-linecap:butt;stroke-width:0.5;" x="81.9212598425" xlink:href="#m476344969c" y="14.4"/>
      </g>
     </g>
     <g id="text_2">
      <!-- 0.41 -->
      <defs>
       <path d="
M37.25 0
L28.4688 0
L28.4688 56
Q25.2969 52.9844 20.1406 49.9531
Q14.9844 46.9219 10.8906 45.4062
L10.8906 53.9062
Q18.2656 57.375 23.7812 62.2969
Q29.2969 67.2344 31.5938 71.875
L37.25 71.875
z
" id="ArialMT-31"/>
      </defs>
      <g transform="translate(77.1439373425 130.3905)scale(0.05552 -0.05552)">
       <use xlink:href="#ArialMT-30"/>
       <use x="55.615234375" xlink:href="#ArialMT-2e"/>
       <use x="83.3984375" xlink:href="#ArialMT-34"/>
       <use x="139.013671875" xlink:href="#ArialMT-31"/>
      </g>
     </g>
    </g>
    <g id="xtick_3">
     <g id="line2d_13">
      <path clip-path="url(#paeeee5594a)" d="
M115.654 122.4
L115.654 14.4" style="fill:none;stroke:#000000;stroke-dasharray:1.000000,3.000000;stroke-dashoffset:0.0;stroke-linecap:butt;stroke-width:0.5;"/>
     </g>
     <g id="line2d_14">
      <g>
       <use style="stroke:#000000;stroke-linecap:butt;stroke-width:0.5;" x="115.653543307" xlink:href="#m0012dd4eef" y="122.4"/>
      </g>
     </g>
     <g id="line2d_15">
      <g>
       <use style="stroke:#000000;stroke-linecap:butt;stroke-width:0.5;" x="115.653543307" xlink:href="#m476344969c" y="14.4"/>
      </g>
     </g>
     <g id="text_3">
      <!-- 0.42 -->
      <defs>
       <path d="
M50.3438 8.45312
L50.3438 0
L3.03125 0
Q2.9375 3.17188 4.04688 6.10938
Q5.85938 10.9375 9.82812 15.625
Q13.8125 20.3125 21.3438 26.4688
Q33.0156 36.0312 37.1094 41.625
Q41.2188 47.2188 41.2188 52.2031
Q41.2188 57.4219 37.4688 61
Q33.7344 64.5938 27.7344 64.5938
Q21.3906 64.5938 17.5781 60.7812
Q13.7656 56.9844 13.7188 50.25
L4.6875 51.1719
Q5.60938 61.2812 11.6562 66.5781
Q17.7188 71.875 27.9375 71.875
Q38.2344 71.875 44.2344 66.1562
Q50.25 60.4531 50.25 52
Q50.25 47.7031 48.4844 43.5469
Q46.7344 39.4062 42.6562 34.8125
Q38.5781 30.2188 29.1094 22.2188
Q21.1875 15.5781 18.9375 13.2031
Q16.7031 10.8438 15.2344 8.45312
z
" id="ArialMT-32"/>
      </defs>
      <g transform="translate(110.512738307 130.3905)scale(0.05552 -0.05552)">
       <use xlink:href="#ArialMT-30"/>
       <use x="55.615234375" xlink:href="#ArialMT-2e"/>
       <use x="83.3984375" xlink:href="#ArialMT-34"/>
       <use x="139.013671875" xlink:href="#ArialMT-32"/>
      </g>
     </g>
    </g>
    <g id="xtick_4">
     <g id="line2d_16">
      <path clip-path="url(#paeeee5594a)" d="
M149.386 122.4
L149.386 14.4" style="fill:none;stroke:#000000;stroke-dasharray:1.000000,3.000000;stroke-dashoffset:0.0;stroke-linecap:butt;stroke-width:0.5;"/>
     </g>
     <g id="line2d_17">
      <g>
       <use style="stroke:#000000;stroke-linecap:butt;stroke-width:0.5;" x="149.385826772" xlink:href="#m0012dd4eef" y="122.4"/>
      </g>
     </g>
     <g id="line2d_18">
      <g>
       <use style="stroke:#000000;stroke-linecap:butt;stroke-width:0.5;" x="149.385826772" xlink:href="#m476344969c" y="14.4"/>
      </g>
     </g>
     <g id="text_4">
      <!-- 0.43 -->
      <defs>
       <path d="
M4.20312 18.8906
L12.9844 20.0625
Q14.5 12.5938 18.1406 9.29688
Q21.7812 6 27 6
Q33.2031 6 37.4688 10.2969
Q41.75 14.5938 41.75 20.9531
Q41.75 27 37.7969 30.9219
Q33.8438 34.8594 27.7344 34.8594
Q25.25 34.8594 21.5312 33.8906
L22.5156 41.6094
Q23.3906 41.5 23.9219 41.5
Q29.5469 41.5 34.0312 44.4219
Q38.5312 47.3594 38.5312 53.4688
Q38.5312 58.2969 35.25 61.4688
Q31.9844 64.6562 26.8125 64.6562
Q21.6875 64.6562 18.2656 61.4219
Q14.8438 58.2031 13.875 51.7656
L5.07812 53.3281
Q6.6875 62.1562 12.3906 67.0156
Q18.1094 71.875 26.6094 71.875
Q32.4688 71.875 37.3906 69.3594
Q42.3281 66.8438 44.9375 62.5
Q47.5625 58.1562 47.5625 53.2656
Q47.5625 48.6406 45.0625 44.8281
Q42.5781 41.0156 37.7031 38.7656
Q44.0469 37.3125 47.5625 32.6875
Q51.0781 28.0781 51.0781 21.1406
Q51.0781 11.7656 44.2344 5.25
Q37.4062 -1.26562 26.9531 -1.26562
Q17.5312 -1.26562 11.2969 4.34375
Q5.07812 9.96875 4.20312 18.8906" id="ArialMT-33"/>
      </defs>
      <g transform="translate(144.224635522 130.3905)scale(0.05552 -0.05552)">
       <use xlink:href="#ArialMT-30"/>
       <use x="55.615234375" xlink:href="#ArialMT-2e"/>
       <use x="83.3984375" xlink:href="#ArialMT-34"/>
       <use x="139.013671875" xlink:href="#ArialMT-33"/>
      </g>
     </g>
    </g>
    <g id="xtick_5">
     <g id="line2d_19">
      <path clip-path="url(#paeeee5594a)" d="
M183.118 122.4
L183.118 14.4" style="fill:none;stroke:#000000;stroke-dasharray:1.000000,3.000000;stroke-dashoffset:0.0;stroke-linecap:butt;stroke-width:0.5;"/>
     </g>
     <g id="line2d_20">
      <g>
       <use style="stroke:#000000;stroke-linecap:butt;stroke-width:0.5;" x="183.118110236" xlink:href="#m0012dd4eef" y="122.4"/>
      </g>
     </g>
     <g id="line2d_21">
      <g>
       <use style="stroke:#000000;stroke-linecap:butt;stroke-width:0.5;" x="183.118110236" xlink:href="#m476344969c" y="14.4"/>
      </g>
     </g>
     <g id="text_5">
      <!-- 0.44 -->
      <g transform="translate(177.965160236 130.3905)scale(0.05552 -0.05552)">
       <use xlink:href="#ArialMT-30"/>
       <use x="55.615234375" xlink:href="#ArialMT-2e"/>
       <use x="83.3984375" xlink:href="#ArialMT-34"/>
       <use x="139.013671875" xlink:href="#ArialMT-34"/>
      </g>
     </g>
    </g>
    <g id="xtick_6">
     <g id="line2d_22">
      <path clip-path="url(#paeeee5594a)" d="
M216.85 122.4
L216.85 14.4" style="fill:none;stroke:#000000;stroke-dasharray:1.000000,3.000000;stroke-dashoffset:0.0;stroke-linecap:butt;stroke-width:0.5;"/>
     </g>
     <g id="line2d_23">
      <g>
       <use style="stroke:#000000;stroke-linecap:butt;stroke-width:0.5;" x="216.850393701" xlink:href="#m0012dd4eef" y="122.4"/>
      </g>
     </g>
     <g id="line2d_24">
      <g>
       <use style="stroke:#000000;stroke-linecap:butt;stroke-width:0.5;" x="216.850393701" xlink:href="#m476344969c" y="14.4"/>
      </g>
     </g>
     <g id="text_6">
      <!-- 0.45 -->
      <defs>
       <path d="
M4.15625 18.75
L13.375 19.5312
Q14.4062 12.7969 18.1406 9.39062
Q21.875 6 27.1562 6
Q33.5 6 37.8906 10.7812
Q42.2812 15.5781 42.2812 23.4844
Q42.2812 31 38.0625 35.3438
Q33.8438 39.7031 27 39.7031
Q22.75 39.7031 19.3281 37.7656
Q15.9219 35.8438 13.9688 32.7656
L5.71875 33.8438
L12.6406 70.6094
L48.25 70.6094
L48.25 62.2031
L19.6719 62.2031
L15.8281 42.9688
Q22.2656 47.4688 29.3438 47.4688
Q38.7188 47.4688 45.1562 40.9688
Q51.6094 34.4688 51.6094 24.2656
Q51.6094 14.5469 45.9531 7.46875
Q39.0625 -1.21875 27.1562 -1.21875
Q17.3906 -1.21875 11.2031 4.25
Q5.03125 9.71875 4.15625 18.75" id="ArialMT-35"/>
      </defs>
      <g transform="translate(211.674454951 130.3905)scale(0.05552 -0.05552)">
       <use xlink:href="#ArialMT-30"/>
       <use x="55.615234375" xlink:href="#ArialMT-2e"/>
       <use x="83.3984375" xlink:href="#ArialMT-34"/>
       <use x="139.013671875" xlink:href="#ArialMT-35"/>
      </g>
     </g>
    </g>
   </g>
   <g id="matplotlib.axis_2">
    <g id="ytick_1">
     <g id="line2d_25">
      <path clip-path="url(#paeeee5594a)" d="
M48.189 122.4
L216.85 122.4" style="fill:none;stroke:#000000;stroke-dasharray:1.000000,3.000000;stroke-dashoffset:0.0;stroke-linecap:butt;stroke-width:0.5;"/>
     </g>
     <g id="line2d_26">
      <defs>
       <path d="
M0 0
L4 0" id="me8a85f7bf6" style="stroke:#000000;stroke-linecap:butt;stroke-width:0.5;"/>
      </defs>
      <g>
       <use style="stroke:#000000;stroke-linecap:butt;stroke-width:0.5;" x="48.188976378" xlink:href="#me8a85f7bf6" y="122.4"/>
      </g>
     </g>
     <g id="line2d_27">
      <defs>
       <path d="
M0 0
L-4 0" id="m1a32005dea" style="stroke:#000000;stroke-linecap:butt;stroke-width:0.5;"/>
      </defs>
      <g>
       <use style="stroke:#000000;stroke-linecap:butt;stroke-width:0.5;" x="216.850393701" xlink:href="#m1a32005dea" y="122.4"/>
      </g>
     </g>
     <g id="text_7">
      <!-- −0.05 -->
      <defs>
       <path d="
M52.8281 31.2031
L5.5625 31.2031
L5.5625 39.4062
L52.8281 39.4062
z
" id="ArialMT-2212"/>
      </defs>
      <g transform="translate(30.672458878 124.3614175)scale(0.05552 -0.05552)">
       <use xlink:href="#ArialMT-2212"/>
       <use x="58.3984375" xlink:href="#ArialMT-30"/>
       <use x="114.013671875" xlink:href="#ArialMT-2e"/>
       <use x="141.796875" xlink:href="#ArialMT-30"/>
       <use x="197.412109375" xlink:href="#ArialMT-35"/>
      </g>
     </g>
    </g>
    <g id="ytick_2">
     <g id="line2d_28">
      <path clip-path="url(#paeeee5594a)" d="
M48.189 106.971
L216.85 106.971" style="fill:none;stroke:#000000;stroke-dasharray:1.000000,3.000000;stroke-dashoffset:0.0;stroke-linecap:butt;stroke-width:0.5;"/>
     </g>
     <g id="line2d_29">
      <g>
       <use style="stroke:#000000;stroke-linecap:butt;stroke-width:0.5;" x="48.188976378" xlink:href="#me8a85f7bf6" y="106.971428571"/>
      </g>
     </g>
     <g id="line2d_30">
      <g>
       <use style="stroke:#000000;stroke-linecap:butt;stroke-width:0.5;" x="216.850393701" xlink:href="#m1a32005dea" y="106.971428571"/>
      </g>
     </g>
     <g id="text_8">
      <!-- −0.04 -->
      <g transform="translate(30.718436378 108.932846071)scale(0.05552 -0.05552)">
       <use xlink:href="#ArialMT-2212"/>
       <use x="58.3984375" xlink:href="#ArialMT-30"/>
       <use x="114.013671875" xlink:href="#ArialMT-2e"/>
       <use x="141.796875" xlink:href="#ArialMT-30"/>
       <use x="197.412109375" xlink:href="#ArialMT-34"/>
      </g>
     </g>
    </g>
    <g id="ytick_3">
     <g id="line2d_31">
      <path clip-path="url(#paeeee5594a)" d="
M48.189 91.5429
L216.85 91.5429" style="fill:none;stroke:#000000;stroke-dasharray:1.000000,3.000000;stroke-dashoffset:0.0;stroke-linecap:butt;stroke-width:0.5;"/>
     </g>
     <g id="line2d_32">
      <g>
       <use style="stroke:#000000;stroke-linecap:butt;stroke-width:0.5;" x="48.188976378" xlink:href="#me8a85f7bf6" y="91.5428571429"/>
      </g>
     </g>
     <g id="line2d_33">
      <g>
       <use style="stroke:#000000;stroke-linecap:butt;stroke-width:0.5;" x="216.850393701" xlink:href="#m1a32005dea" y="91.5428571429"/>
      </g>
     </g>
     <g id="text_9">
      <!-- −0.03 -->
      <g transform="translate(30.701953878 93.5029733929)scale(0.05552 -0.05552)">
       <use xlink:href="#ArialMT-2212"/>
       <use x="58.3984375" xlink:href="#ArialMT-30"/>
       <use x="114.013671875" xlink:href="#ArialMT-2e"/>
       <use x="141.796875" xlink:href="#ArialMT-30"/>
       <use x="197.412109375" xlink:href="#ArialMT-33"/>
      </g>
     </g>
    </g>
    <g id="ytick_4">
     <g id="line2d_34">
      <path clip-path="url(#paeeee5594a)" d="
M48.189 76.1143
L216.85 76.1143" style="fill:none;stroke:#000000;stroke-dasharray:1.000000,3.000000;stroke-dashoffset:0.0;stroke-linecap:butt;stroke-width:0.5;"/>
     </g>
     <g id="line2d_35">
      <g>
       <use style="stroke:#000000;stroke-linecap:butt;stroke-width:0.5;" x="48.188976378" xlink:href="#me8a85f7bf6" y="76.1142857143"/>
      </g>
     </g>
     <g id="line2d_36">
      <g>
       <use style="stroke:#000000;stroke-linecap:butt;stroke-width:0.5;" x="216.850393701" xlink:href="#m1a32005dea" y="76.1142857143"/>
      </g>
     </g>
     <g id="text_10">
      <!-- −0.02 -->
      <g transform="translate(30.742726378 78.0757032143)scale(0.05552 -0.05552)">
       <use xlink:href="#ArialMT-2212"/>
       <use x="58.3984375" xlink:href="#ArialMT-30"/>
       <use x="114.013671875" xlink:href="#ArialMT-2e"/>
       <use x="141.796875" xlink:href="#ArialMT-30"/>
       <use x="197.412109375" xlink:href="#ArialMT-32"/>
      </g>
     </g>
    </g>
    <g id="ytick_5">
     <g id="line2d_37">
      <path clip-path="url(#paeeee5594a)" d="
M48.189 60.6857
L216.85 60.6857" style="fill:none;stroke:#000000;stroke-dasharray:1.000000,3.000000;stroke-dashoffset:0.0;stroke-linecap:butt;stroke-width:0.5;"/>
     </g>
     <g id="line2d_38">
      <g>
       <use style="stroke:#000000;stroke-linecap:butt;stroke-width:0.5;" x="48.188976378" xlink:href="#me8a85f7bf6" y="60.6857142857"/>
      </g>
     </g>
     <g id="line2d_39">
      <g>
       <use style="stroke:#000000;stroke-linecap:butt;stroke-width:0.5;" x="216.850393701" xlink:href="#m1a32005dea" y="60.6857142857"/>
      </g>
     </g>
     <g id="text_11">
      <!-- −0.01 -->
      <g transform="translate(31.469691378 62.6471317857)scale(0.05552 -0.05552)">
       <use xlink:href="#ArialMT-2212"/>
       <use x="58.3984375" xlink:href="#ArialMT-30"/>
       <use x="114.013671875" xlink:href="#ArialMT-2e"/>
       <use x="141.796875" xlink:href="#ArialMT-30"/>
       <use x="197.412109375" xlink:href="#ArialMT-31"/>
      </g>
     </g>
    </g>
    <g id="ytick_6">
     <g id="line2d_40">
      <path clip-path="url(#paeeee5594a)" d="
M48.189 45.2571
L216.85 45.2571" style="fill:none;stroke:#000000;stroke-dasharray:1.000000,3.000000;stroke-dashoffset:0.0;stroke-linecap:butt;stroke-width:0.5;"/>
     </g>
     <g id="line2d_41">
      <g>
       <use style="stroke:#000000;stroke-linecap:butt;stroke-width:0.5;" x="48.188976378" xlink:href="#me8a85f7bf6" y="45.2571428571"/>
      </g>
     </g>
     <g id="line2d_42">
      <g>
       <use style="stroke:#000000;stroke-linecap:butt;stroke-width:0.5;" x="216.850393701" xlink:href="#m1a32005dea" y="45.2571428571"/>
      </g>
     </g>
     <g id="text_12">
      <!-- 0.00 -->
      <g transform="translate(33.880473878 47.2185603571)scale(0.05552 -0.05552)">
       <use xlink:href="#ArialMT-30"/>
       <use x="55.615234375" xlink:href="#ArialMT-2e"/>
       <use x="83.3984375" xlink:href="#ArialMT-30"/>
       <use x="139.013671875" xlink:href="#ArialMT-30"/>
      </g>
     </g>
    </g>
    <g id="ytick_7">
     <g id="line2d_43">
      <path clip-path="url(#paeeee5594a)" d="
M48.189 29.8286
L216.85 29.8286" style="fill:none;stroke:#000000;stroke-dasharray:1.000000,3.000000;stroke-dashoffset:0.0;stroke-linecap:butt;stroke-width:0.5;"/>
     </g>
     <g id="line2d_44">
      <g>
       <use style="stroke:#000000;stroke-linecap:butt;stroke-width:0.5;" x="48.188976378" xlink:href="#me8a85f7bf6" y="29.8285714286"/>
      </g>
     </g>
     <g id="line2d_45">
      <g>
       <use style="stroke:#000000;stroke-linecap:butt;stroke-width:0.5;" x="216.850393701" xlink:href="#m1a32005dea" y="29.8285714286"/>
      </g>
     </g>
     <g id="text_13">
      <!-- 0.01 -->
      <g transform="translate(34.634331378 31.7899889286)scale(0.05552 -0.05552)">
       <use xlink:href="#ArialMT-30"/>
       <use x="55.615234375" xlink:href="#ArialMT-2e"/>
       <use x="83.3984375" xlink:href="#ArialMT-30"/>
       <use x="139.013671875" xlink:href="#ArialMT-31"/>
      </g>
     </g>
    </g>
    <g id="ytick_8">
     <g id="line2d_46">
      <path clip-path="url(#paeeee5594a)" d="
M48.189 14.4
L216.85 14.4" style="fill:none;stroke:#000000;stroke-dasharray:1.000000,3.000000;stroke-dashoffset:0.0;stroke-linecap:butt;stroke-width:0.5;"/>
     </g>
     <g id="line2d_47">
      <g>
       <use style="stroke:#000000;stroke-linecap:butt;stroke-width:0.5;" x="48.188976378" xlink:href="#me8a85f7bf6" y="14.4"/>
      </g>
     </g>
     <g id="line2d_48">
      <g>
       <use style="stroke:#000000;stroke-linecap:butt;stroke-width:0.5;" x="216.850393701" xlink:href="#m1a32005dea" y="14.4"/>
      </g>
     </g>
     <g id="text_14">
      <!-- 0.02 -->
      <g transform="translate(33.907366378 16.3614175)scale(0.05552 -0.05552)">
       <use xlink:href="#ArialMT-30"/>
       <use x="55.615234375" xlink:href="#ArialMT-2e"/>
       <use x="83.3984375" xlink:href="#ArialMT-30"/>
       <use x="139.013671875" xlink:href="#ArialMT-32"/>
      </g>
     </g>
    </g>
    <g id="text_15">
     <!-- ALL{V} -->
     <defs>
      <path d="
M-0.140625 0
L27.3438 71.5781
L37.5469 71.5781
L66.8438 0
L56.0625 0
L47.7031 21.6875
L17.7812 21.6875
L9.90625 0
z

M20.5156 29.3906
L44.7812 29.3906
L37.3125 49.2188
Q33.8906 58.25 32.2344 64.0625
Q30.8594 57.1719 28.375 50.3906
z
" id="ArialMT-41"/>
      <path d="
M30.5625 29.8906
L30.5625 21.9219
Q26.8125 21.8281 24.4375 19.875
Q22.0781 17.9219 21.2969 14.5781
Q20.5156 11.2344 20.4531 3.07812
Q20.4062 -5.07812 20.1719 -7.67188
Q19.7344 -11.8125 18.5312 -14.2812
Q17.3281 -16.75 15.5625 -18.2344
Q13.8125 -19.7344 11.0781 -20.5156
Q9.23438 -21.0469 5.03125 -21.0469
L2.29688 -21.0469
L2.29688 -13.375
L3.8125 -13.375
Q8.89062 -13.375 10.5469 -11.5469
Q12.2031 -9.71875 12.2031 -3.32812
Q12.2031 8.89062 12.6406 12.1562
Q13.4219 17.5781 15.7656 20.8281
Q18.1094 24.0781 22.4062 25.875
Q16.7969 28.5625 14.5 32.9844
Q12.2031 37.4062 12.2031 47.9062
Q12.2031 57.4219 11.9688 59.2812
Q11.625 62.5469 10.0312 63.8438
Q8.45312 65.1406 3.8125 65.1406
L2.29688 65.1406
L2.29688 72.7969
L5.03125 72.7969
Q9.8125 72.7969 11.9688 72.0156
Q15.0938 70.9531 17.1406 68.4062
Q19.1875 65.875 19.7969 62.0156
Q20.4062 58.1562 20.4531 49.3594
Q20.5156 40.5781 21.2969 37.2344
Q22.0781 33.8906 24.4375 31.9375
Q26.8125 29.9844 30.5625 29.8906" id="ArialMT-7d"/>
      <path d="
M7.32812 0
L7.32812 71.5781
L16.7969 71.5781
L16.7969 8.45312
L52.0469 8.45312
L52.0469 0
z
" id="ArialMT-4c"/>
      <path d="
M28.1719 0
L0.4375 71.5781
L10.6875 71.5781
L29.2969 19.5781
Q31.5469 13.3281 33.0625 7.85938
Q34.7188 13.7188 36.9219 19.5781
L56.25 71.5781
L65.9219 71.5781
L37.8906 0
z
" id="ArialMT-56"/>
      <path d="
M2.78125 29.8906
Q6.54688 29.9844 8.90625 31.9062
Q11.2812 33.8438 12.0625 37.2031
Q12.8438 40.5781 12.8906 48.7344
Q12.9375 56.8906 13.1875 59.4688
Q13.625 63.5781 14.8125 66.0625
Q16.0156 68.5625 17.7656 70.0469
Q19.5312 71.5312 22.2656 72.3125
Q24.125 72.7969 28.3281 72.7969
L31.0625 72.7969
L31.0625 65.1406
L29.5469 65.1406
Q24.4688 65.1406 22.7969 63.2969
Q21.1406 61.4688 21.1406 55.125
Q21.1406 42.3281 20.6094 38.9688
Q19.7344 33.7344 17.6094 30.9062
Q15.4844 28.0781 10.9375 25.875
Q16.3125 23.6406 18.7188 19.0156
Q21.1406 14.4062 21.1406 3.90625
Q21.1406 -5.60938 21.3438 -7.42188
Q21.7344 -10.75 23.3125 -12.0625
Q24.9062 -13.375 29.5469 -13.375
L31.0625 -13.375
L31.0625 -21.0469
L28.3281 -21.0469
Q23.5312 -21.0469 21.3906 -20.2656
Q18.2656 -19.1406 16.2031 -16.625
Q14.1562 -14.1094 13.5469 -10.25
Q12.9375 -6.39062 12.8906 2.39062
Q12.8438 11.1875 12.0625 14.5469
Q11.2812 17.9219 8.90625 19.875
Q6.54688 21.8281 2.78125 21.9219
z
" id="ArialMT-7b"/>
     </defs>
     <g transform="translate(25.672458878 79.065625)rotate(-90.0)scale(0.08 -0.08)">
      <use xlink:href="#ArialMT-41"/>
      <use x="66.69921875" xlink:href="#ArialMT-4c"/>
      <use x="122.314453125" xlink:href="#ArialMT-4c"/>
      <use x="177.9296875" xlink:href="#ArialMT-7b"/>
      <use x="211.328125" xlink:href="#ArialMT-56"/>
      <use x="278.02734375" xlink:href="#ArialMT-7d"/>
     </g>
    </g>
   </g>
   <g id="patch_3">
    <path d="
M48.189 14.4
L216.85 14.4" style="fill:none;stroke:#000000;"/>
   </g>
   <g id="patch_4">
    <path d="
M216.85 122.4
L216.85 14.4" style="fill:none;stroke:#000000;"/>
   </g>
   <g id="patch_5">
    <path d="
M48.189 122.4
L216.85 122.4" style="fill:none;stroke:#000000;"/>
   </g>
   <g id="patch_6">
    <path d="
M48.189 122.4
L48.189 14.4" style="fill:none;stroke:#000000;"/>
   </g>
  </g>
 </g>
 <defs>
  <clipPath id="paeeee5594a">
   <rect height="108.0" width="168.661417323" x="48.188976378" y="14.4"/>
  </clipPath>
 </defs>
</svg>
