<?xml version="1.0" encoding="utf-8" standalone="no"?>
<!DOCTYPE svg PUBLIC "-//W3C//DTD SVG 1.1//EN"
  "http://www.w3.org/Graphics/SVG/1.1/DTD/svg11.dtd">
<!-- Created with matplotlib (http://matplotlib.sourceforge.net/) -->
<svg height="144pt" version="1.1" viewBox="0 0 240 144" width="240pt" xmlns="http://www.w3.org/2000/svg" xmlns:xlink="http://www.w3.org/1999/xlink">
 <defs>
  <style type="text/css">
*{stroke-linecap:square;stroke-linejoin:round;}
  </style>
 </defs>
 <g id="figure_1">
  <g id="patch_1">
   <path d="
M0 144
L240.945 144
L240.945 0
L0 0
z
" style="fill:#ffffff;"/>
  </g>
  <g id="axes_1">
   <g id="patch_2">
    <path d="
M48.189 122.4
L216.85 122.4
L216.85 14.4
L48.189 14.4
z
" style="fill:#ffffff;"/>
   </g>
   <g id="line2d_1">
    <path clip-path="url(#paeeee5594a)" d="
M48.1918 122.389
L48.9873 119.775
L49.7744 117.925
L50.5952 116.546
L51.4582 115.521
L52.3999 114.743
L53.4653 114.152
L54.7443 113.703
L56.3747 113.379
L58.6881 113.163
L62.2553 112.893
L63.7143 82.8342
L63.8548 69.5519
L63.9729 28.6366
L64.0431 19.2638
L64.1022 22.6387
L64.313 56.6465
L64.6025 84.7842
L64.8555 91.7728
L65.0945 93.4192
L65.2884 93.6395
L65.4487 93.4983
L65.7241 92.887
L66.1627 91.3091
L66.6799 88.5828
L67.1297 84.9923
L67.4754 80.3495
L67.7284 73.7081
L67.9336 61.5058
L68.1107 51.0293
L68.1585 51.959
L68.299 61.4067
L68.7432 89.3456
L69.0411 95.326
L69.37 97.9224
L69.7074 99.0424
L69.9941 99.3555
L70.2246 99.3169
L70.5001 99.0104
L70.8852 98.2047
L71.4024 96.5561
L71.9899 93.9091
L72.5184 90.4857
L72.9204 86.3733
L73.2043 81.0434
L73.401 72.6937
L73.55 54.7862
L73.6821 39.4582
L73.7327 41.4432
L73.9267 63.4701
L74.2584 89.2025
L74.5395 96.254
L74.8572 99.2169
L75.1945 100.544
L75.4896 100.96
L75.723 100.962
L75.9816 100.71
L76.347 100.001
L76.8558 98.4747
L77.477 95.8706
L78.0673 92.4272
L78.5199 88.4509
L78.8404 83.5868
L79.0596 76.634
L79.2114 63.8382
L79.397 37.6357
L79.4729 41.9494
L80.0997 93.4371
L80.3921 97.9781
L80.7238 100.046
L81.047 100.871
L81.3085 101.046
L81.539 100.938
L81.8426 100.508
L82.2726 99.4637
L82.8489 97.4271
L83.4814 94.3434
L84.0127 90.6318
L84.4006 86.2973
L84.6704 80.6091
L84.8532 71.5432
L84.9965 50.7666
L85.109 37.5953
L85.1596 39.6451
L85.3535 62.7863
L85.6796 89.0384
L85.9579 96.247
L86.2727 99.2433
L86.61 100.589
L86.9052 101.011
L87.1385 101.016
L87.3971 100.766
L87.7626 100.059
L88.2714 98.5356
L88.8954 95.9238
L89.4885 92.4707
L89.9439 88.4768
L90.2644 83.6221
L90.4864 76.5591
L90.6382 63.5906
L90.821 37.5976
L90.8969 41.8167
L91.5293 93.5524
L91.8217 98.0213
L92.1534 100.063
L92.4767 100.876
L92.7381 101.044
L92.9686 100.932
L93.2722 100.497
L93.7051 99.4393
L94.2813 97.3935
L94.911 94.3133
L95.4395 90.6115
L95.8246 86.305
L96.0944 80.6259
L96.2772 71.5888
L96.4205 50.8845
L96.533 37.598
L96.5836 39.605
L96.7719 62.0281
L97.1008 88.892
L97.3791 96.1966
L97.6939 99.2227
L98.0312 100.581
L98.3264 101.009
L98.5597 101.017
L98.8183 100.771
L99.1809 100.074
L99.6869 98.5671
L100.311 95.9676
L100.904 92.5336
L101.362 88.5461
L101.686 83.6929
L101.908 76.7248
L102.062 63.6707
L102.245 37.5983
L102.321 41.7623
L102.956 93.6075
L103.251 98.0679
L103.586 100.093
L103.909 100.887
L104.168 101.044
L104.398 100.927
L104.705 100.482
L105.14 99.4077
L105.719 97.3374
L106.349 94.235
L106.875 90.5182
L107.257 86.1869
L107.524 80.4679
L107.707 71.1703
L107.85 49.8487
L107.957 37.5987
L108.01 39.7739
L108.216 64.3427
L108.536 89.347
L108.817 96.3934
L109.132 99.3029
L109.469 100.613
L109.762 101.015
L109.992 101.013
L110.254 100.756
L110.622 100.034
L111.133 98.4896
L111.76 95.8464
L112.351 92.3792
L112.8 88.3939
L113.121 83.4659
L113.34 76.3326
L113.492 62.9297
L113.669 37.5993
L113.742 41.4386
L114.403 94.1203
L114.701 98.2861
L115.035 100.185
L115.356 100.914
L115.609 101.043
L115.842 100.908
L116.157 100.428
L116.604 99.2907
L117.191 97.138
L117.818 93.9727
L118.332 90.2217
L118.706 85.8035
L118.965 79.9371
L119.142 70.2345
L119.294 46.082
L119.384 37.5993
L119.437 39.9481
L119.659 66.5696
L119.974 89.8939
L120.255 96.5816
L120.573 99.3961
L120.91 100.65
L121.2 101.021
L121.43 101.006
L121.694 100.732
L122.068 99.9799
L122.588 98.3806
L123.215 95.6956
L123.8 92.2018
L124.244 88.1732
L124.556 83.2321
L124.773 75.923
L124.921 62.1586
L125.096 37.5987
L125.163 41.1243
L125.846 94.5336
L126.147 98.4675
L126.484 100.27
L126.799 100.936
L127.049 101.041
L127.288 100.885
L127.612 100.367
L128.07 99.1617
L128.666 96.9215
L129.29 93.6856
L129.793 89.8878
L130.156 85.3999
L130.406 79.3698
L130.577 69.2201
L130.808 37.5982
L130.92 45.9407
L131.392 89.6473
L131.674 96.4965
L131.991 99.3612
L132.329 100.636
L132.621 101.02
L132.851 101.008
L133.116 100.737
L133.487 99.9953
L134.004 98.413
L134.628 95.7545
L135.215 92.2666
L135.662 88.2452
L135.977 83.3066
L136.194 76.1005
L136.343 62.675
L136.52 37.5979
L136.59 41.3333
L137.256 94.2204
L137.554 98.3242
L137.889 100.201
L138.206 100.916
L138.459 101.043
L138.695 100.903
L139.013 100.414
L139.463 99.2596
L140.053 97.0825
L140.68 93.8949
L141.192 90.1291
L141.563 85.6864
L141.819 79.7842
L141.993 70.0791
L142.145 45.767
L142.232 37.5978
L142.285 39.8611
L142.499 65.4687
L142.816 89.6247
L143.098 96.4887
L143.415 99.3581
L143.753 100.635
L144.045 101.02
L144.275 101.008
L144.54 100.738
L144.913 99.9897
L145.431 98.4049
L146.058 95.7293
L146.642 92.2504
L147.089 88.219
L147.404 83.2568
L147.621 75.9822
L147.769 62.3313
L147.944 37.5978
L148.014 41.2811
L148.686 94.3309
L148.984 98.3666
L149.318 100.218
L149.636 100.922
L149.889 101.042
L150.125 100.898
L150.443 100.403
L150.895 99.2353
L151.488 97.0365
L152.113 93.8472
L152.621 90.0824
L152.99 85.6499
L153.245 79.7067
L153.42 69.8694
L153.574 44.8512
L153.656 37.5979
L153.712 40.0381
L153.945 67.9622
L154.257 90.2637
L154.538 96.7102
L154.859 99.4644
L155.193 100.671
L155.48 101.024
L155.711 101.002
L155.978 100.718
L156.357 99.9416
L156.883 98.3048
L157.512 95.5766
L158.094 92.0497
L158.533 87.9933
L158.842 82.952
L159.053 75.5567
L159.202 61.0822
L159.368 37.5982
L159.432 40.7215
L160.155 95.2155
L160.458 98.7551
L160.796 100.389
L161.105 100.967
L161.347 101.035
L161.591 100.851
L161.929 100.274
L162.404 98.9686
L163.011 96.603
L163.626 93.2888
L164.113 89.4393
L164.461 84.8432
L164.703 78.4733
L164.866 67.6245
L165.08 37.5987
L165.181 44.425
L165.695 90.7612
L165.979 96.9203
L166.3 99.5511
L166.634 100.704
L166.918 101.03
L167.146 100.996
L167.416 100.697
L167.801 99.8927
L168.332 98.2135
L168.965 95.436
L169.541 91.8867
L169.974 87.7955
L170.277 82.7019
L170.485 75.1112
L170.632 60.2398
L170.792 37.5992
L170.856 40.6726
L171.584 95.3075
L171.891 98.8117
L172.228 100.413
L172.537 100.974
L172.779 101.033
L173.024 100.842
L173.364 100.251
L173.842 98.9243
L174.452 96.5286
L175.065 93.2015
L175.548 89.3318
L175.894 84.7
L176.133 78.2683
L176.296 67.0483
L176.507 37.5993
L176.602 44.0436
L177.128 91.039
L177.412 97.0179
L177.735 99.606
L178.07 100.726
L178.351 101.033
L178.578 100.991
L178.854 100.676
L179.245 99.843
L179.781 98.121
L180.414 95.3078
L180.985 91.7422
L181.412 87.628
L181.713 82.4434
L181.918 74.6443
L182.061 59.3671
L182.219 37.5987
L182.278 40.3842
L183.037 95.7802
L183.346 99.0192
L183.683 100.498
L183.987 100.993
L184.223 101.026
L184.473 100.811
L184.824 100.17
L185.316 98.7566
L185.932 96.2701
L186.536 92.8895
L187.009 88.9588
L187.343 84.2318
L187.574 77.5731
L187.731 65.7521
L187.931 37.5983
L188.018 43.0585
L188.583 92.0301
L189.162 106.311
L189.642 113.134
L190.132 117.188
L190.607 119.443
L191.062 120.628
L191.487 121.173
L191.891 121.357
L192.327 121.306
L192.886 120.998
L193.738 120.242
L197.794 116.334
L199.259 115.379
L200.788 114.647
L202.486 114.084
L202.792 114.004
L202.792 114.004" style="fill:none;stroke:#0000ff;"/>
   </g>
   <g id="line2d_2">
    <path clip-path="url(#paeeee5594a)" d="
M48.1918 122.389
L48.9873 119.775
L49.7744 117.925
L50.5952 116.546
L51.4582 115.521
L52.3999 114.743
L53.4653 114.152
L54.7443 113.703
L56.3747 113.379
L58.6881 113.163
L62.2553 112.895
L63.7283 82.8609
L63.8689 69.711
L63.9841 29.9426
L64.06 19.3259
L64.1162 22.5972
L64.3214 55.6492
L64.6138 84.6365
L64.8668 91.7804
L65.1085 93.4961
L65.3081 93.7393
L65.4683 93.6097
L65.7382 93.0389
L66.1711 91.5418
L66.6911 88.9036
L67.1493 85.4022
L67.5035 80.8974
L67.7621 74.5637
L67.9645 63.4379
L68.1641 50.7843
L68.2175 51.902
L68.3693 62.6388
L68.791 89.2
L69.0889 95.333
L69.4178 97.9943
L69.7551 99.1553
L70.0447 99.4976
L70.278 99.4747
L70.5507 99.1893
L70.9302 98.4249
L71.4418 96.8442
L72.0349 94.253
L72.5746 90.8825
L72.985 86.8908
L73.2802 81.7214
L73.4826 73.9118
L73.6316 57.913
L73.7805 39.2441
L73.8368 41.6004
L74.0673 68.0675
L74.3821 90.1919
L74.666 96.6689
L74.9893 99.4572
L75.3266 100.69
L75.6189 101.061
L75.8494 101.046
L76.1165 100.771
L76.4932 100.018
L77.016 98.4199
L77.6429 95.7551
L78.2304 92.2753
L78.6773 88.2611
L78.9922 83.3271
L79.2086 76.1192
L79.3576 62.6599
L79.5347 37.5082
L79.605 41.2733
L80.2712 94.2482
L80.5692 98.3645
L80.9065 100.269
L81.2269 100.999
L81.4827 101.132
L81.7189 100.998
L82.0337 100.522
L82.4807 99.3966
L83.071 97.2565
L83.7006 94.1159
L84.2207 90.3827
L84.5974 86.0246
L84.8588 80.2765
L85.0387 70.8308
L85.1849 48.3282
L85.2861 37.4732
L85.3367 39.5682
L85.5334 63.1495
L85.8595 89.1942
L86.1406 96.366
L86.4554 99.3252
L86.7928 100.668
L87.0907 101.096
L87.324 101.105
L87.5827 100.861
L87.9481 100.165
L88.4569 98.6617
L89.0837 96.0737
L89.6825 92.6429
L90.1435 88.6815
L90.4696 83.8675
L90.6945 76.9519
L90.8491 64.242
L91.0374 37.4761
L91.1161 42.1119
L91.7233 93.0279
L92.0128 97.826
L92.3445 100.019
L92.6734 100.921
L92.9433 101.13
L93.1738 101.04
L93.4689 100.646
L93.8906 99.6644
L94.4584 97.7252
L95.0937 94.7367
L95.6391 91.0969
L96.041 86.8757
L96.3221 81.4357
L96.5133 72.9837
L96.6538 55.0466
L96.786 37.4768
L96.8394 39.6351
L97.0418 63.9318
L97.365 89.3484
L97.6461 96.4186
L97.9638 99.3632
L98.3011 100.683
L98.5962 101.098
L98.8296 101.103
L99.091 100.852
L99.4564 100.149
L99.968 98.6291
L100.595 96.0287
L101.191 92.5979
L101.649 88.6409
L101.975 83.7915
L102.197 76.9103
L102.352 64.1205
L102.537 37.476
L102.616 41.9165
L103.234 93.2727
L103.527 97.9447
L103.861 100.081
L104.187 100.939
L104.454 101.131
L104.685 101.032
L104.986 100.619
L105.41 99.6139
L105.984 97.6315
L106.619 94.6066
L107.161 90.9264
L107.558 86.666
L107.833 81.1704
L108.022 72.5078
L108.162 53.7399
L108.289 37.4754
L108.342 39.7015
L108.55 64.7048
L108.871 89.5009
L109.152 96.4709
L109.469 99.3847
L109.807 100.692
L110.102 101.1
L110.335 101.101
L110.597 100.847
L110.965 100.133
L111.476 98.6064
L112.106 95.9836
L112.702 92.5331
L113.157 88.5688
L113.481 83.7149
L113.703 76.7321
L113.854 63.9983
L114.04 37.4752
L114.119 42.0033
L114.734 93.2223
L115.027 97.9259
L115.358 100.062
L115.687 100.937
L115.954 101.13
L116.185 101.033
L116.483 100.628
L116.907 99.6275
L117.478 97.662
L118.113 94.6489
L118.656 90.9896
L119.052 86.7731
L119.33 81.3072
L119.522 72.6526
L119.662 54.1341
L119.791 37.4754
L119.842 39.5538
L120.036 62.7809
L120.362 89.0646
L120.64 96.2802
L120.955 99.29
L121.295 100.66
L121.593 101.094
L121.827 101.106
L122.085 100.865
L122.448 100.178
L122.954 98.6917
L123.581 96.1152
L124.179 92.7023
L124.643 88.7454
L124.972 83.9292
L125.197 77.0949
L125.352 64.6581
L125.543 37.4759
L125.624 42.3782
L126.217 92.7139
L126.507 97.7099
L126.839 99.9706
L127.167 100.903
L127.44 101.129
L127.671 101.047
L127.963 100.666
L128.379 99.7123
L128.941 97.8152
L129.579 94.8462
L130.13 91.2134
L130.535 87.0329
L130.819 81.6745
L131.013 73.394
L131.154 56.1945
L131.294 37.4768
L131.347 39.8367
L131.57 66.542
L131.884 89.9107
L132.165 96.6124
L132.486 99.4588
L132.823 100.721
L133.116 101.105
L133.349 101.096
L133.613 100.828
L133.987 100.088
L134.507 98.5105
L135.137 95.8512
L135.727 92.3823
L136.177 88.3905
L136.494 83.4989
L136.714 76.3649
L136.866 62.9267
L137.043 37.4763
L137.116 41.3475
L137.773 94.0846
L138.071 98.3017
L138.409 100.241
L138.729 100.988
L138.988 101.13
L139.224 101
L139.539 100.529
L139.986 99.4079
L140.576 97.2728
L141.209 94.1227
L141.729 90.3934
L142.105 86.0438
L142.37 80.2265
L142.549 70.6975
L142.696 48.026
L142.794 37.4756
L142.847 39.6853
L143.053 64.3462
L143.373 89.3758
L143.654 96.428
L143.972 99.3671
L144.309 100.684
L144.604 101.099
L144.838 101.102
L145.099 100.851
L145.467 100.141
L145.979 98.617
L146.609 95.9983
L147.204 92.5542
L147.66 88.6024
L147.983 83.7779
L148.205 76.8787
L148.36 64.028
L148.545 37.4753
L148.624 41.9822
L149.24 93.2168
L149.532 97.9239
L149.864 100.061
L150.193 100.936
L150.46 101.13
L150.69 101.033
L150.988 100.628
L151.413 99.6281
L151.983 97.6628
L152.618 94.6501
L153.158 91.0147
L153.557 86.776
L153.836 81.3131
L154.027 72.6681
L154.167 54.1765
L154.297 37.4753
L154.347 39.5381
L154.541 62.7552
L154.867 89.0556
L155.146 96.2771
L155.46 99.2887
L155.801 100.659
L156.099 101.094
L156.335 101.105
L156.593 100.861
L156.956 100.172
L157.462 98.6827
L158.089 96.1027
L158.688 92.6845
L159.149 88.7477
L159.477 83.9335
L159.702 77.1048
L159.857 64.6867
L160.048 37.4756
L160.13 42.3566
L160.723 92.708
L161.012 97.7077
L161.344 99.9697
L161.673 100.903
L161.945 101.129
L162.176 101.047
L162.468 100.667
L162.884 99.7129
L163.447 97.8161
L164.085 94.8473
L164.636 91.2151
L165.043 86.9975
L165.327 81.6034
L165.521 73.213
L165.662 55.686
L165.799 37.4763
L165.853 39.8201
L166.072 66.1953
L166.39 89.9024
L166.671 96.6096
L166.988 99.4417
L167.326 100.714
L167.618 101.104
L167.851 101.097
L168.116 100.832
L168.487 100.102
L169.004 98.5413
L169.634 95.8938
L170.227 92.4236
L170.679 88.4249
L170.997 83.5637
L171.216 76.5175
L171.368 63.3744
L171.548 37.4768
L171.624 41.5978
L172.262 93.6842
L172.557 98.1252
L172.892 100.157
L173.218 100.966
L173.479 101.131
L173.712 101.017
L174.019 100.578
L174.455 99.5172
L175.036 97.4612
L175.672 94.3695
L176.203 90.6668
L176.591 86.3451
L176.861 80.6787
L177.043 71.6644
L177.187 50.9367
L177.299 37.4759
L177.35 39.4583
L177.538 61.9317
L177.867 88.8872
L178.145 96.2193
L178.46 99.2651
L178.8 100.65
L179.098 101.092
L179.334 101.106
L179.593 100.867
L179.956 100.181
L180.459 98.7059
L181.086 96.1348
L181.687 92.7112
L182.151 88.7594
L182.48 83.9554
L182.705 77.1552
L182.859 64.8323
L183.051 37.4754
L183.132 42.2459
L183.731 92.8344
L184.02 97.7543
L184.352 99.9893
L184.681 100.91
L184.951 101.129
L185.181 101.045
L185.474 100.664
L185.89 99.708
L186.452 97.8092
L187.09 94.8378
L187.641 91.201
L188.046 87.0122
L188.33 81.6329
L188.524 73.2883
L188.664 55.8973
L188.794 38.366
L188.85 40.8092
L189.066 67.9034
L189.398 94.9404
L189.727 104.865
L190.179 112.009
L190.669 116.522
L191.149 119.075
L191.607 120.425
L192.037 121.072
L192.445 121.315
L192.87 121.309
L193.395 121.062
L194.163 120.428
L195.939 118.576
L197.719 116.888
L199.194 115.794
L200.684 114.965
L202.292 114.327
L202.792 114.173
L202.792 114.173" style="fill:none;stroke:#008000;"/>
   </g>
   <g id="line2d_3">
    <path clip-path="url(#paeeee5594a)" d="
M48.1918 122.389
L48.9873 119.775
L49.7744 117.925
L50.5952 116.546
L51.4582 115.521
L52.3999 114.743
L53.4653 114.152
L54.7443 113.703
L56.3747 113.379
L58.6881 113.163
L62.2553 112.893
L63.7143 82.8342
L63.8548 69.5519
L63.9729 28.6366
L64.0431 19.2638
L64.1022 22.6387
L64.313 56.6465
L64.6025 84.7842
L64.8555 91.7728
L65.0945 93.4192
L65.2884 93.6395
L65.4487 93.4983
L65.7241 92.887
L66.1627 91.3091
L66.6799 88.5828
L67.1297 84.9923
L67.4754 80.3495
L67.7284 73.7081
L67.9336 61.5058
L68.1107 51.0293
L68.1585 51.959
L68.299 61.4067
L68.7432 89.3456
L69.0411 95.326
L69.37 97.9224
L69.7074 99.0424
L69.9941 99.3555
L70.2246 99.3169
L70.5001 99.0104
L70.8852 98.2047
L71.4024 96.5561
L71.9899 93.9091
L72.5184 90.4857
L72.9204 86.3733
L73.2043 81.0434
L73.401 72.6937
L73.55 54.7862
L73.6821 39.4582
L73.7327 41.4432
L73.9267 63.4701
L74.2584 89.2025
L74.5395 96.254
L74.8572 99.2169
L75.1945 100.544
L75.4896 100.96
L75.723 100.962
L75.9816 100.71
L76.347 100.001
L76.8558 98.4747
L77.477 95.8706
L78.0673 92.4272
L78.5199 88.4509
L78.8404 83.5868
L79.0596 76.634
L79.2114 63.8382
L79.397 37.6357
L79.4729 41.9494
L80.0997 93.4371
L80.3921 97.9781
L80.7238 100.046
L81.047 100.871
L81.3085 101.046
L81.539 100.938
L81.8426 100.508
L82.2726 99.4637
L82.8489 97.4271
L83.4814 94.3434
L84.0127 90.6318
L84.4006 86.2973
L84.6704 80.6091
L84.8532 71.5432
L84.9965 50.7666
L85.109 37.5953
L85.1596 39.6451
L85.3535 62.7863
L85.6796 89.0384
L85.9579 96.247
L86.2727 99.2433
L86.61 100.589
L86.9052 101.011
L87.1385 101.016
L87.3971 100.766
L87.7626 100.059
L88.2714 98.5356
L88.8954 95.9238
L89.4885 92.4707
L89.9439 88.4768
L90.2644 83.6221
L90.4864 76.5591
L90.6382 63.5906
L90.821 37.5976
L90.8969 41.8167
L91.5293 93.5524
L91.8217 98.0213
L92.1534 100.063
L92.4767 100.876
L92.7381 101.044
L92.9686 100.932
L93.2722 100.497
L93.7051 99.4393
L94.2813 97.3935
L94.911 94.3133
L95.4395 90.6115
L95.8246 86.305
L96.0944 80.6259
L96.2772 71.5888
L96.4205 50.8845
L96.533 37.598
L96.5836 39.605
L96.7719 62.0281
L97.1008 88.892
L97.3791 96.1966
L97.6939 99.2227
L98.0312 100.581
L98.3264 101.009
L98.5597 101.017
L98.8183 100.771
L99.1809 100.074
L99.6869 98.5671
L100.311 95.9676
L100.904 92.5336
L101.362 88.5461
L101.686 83.6929
L101.908 76.7248
L102.062 63.6707
L102.245 37.5983
L102.321 41.7623
L102.956 93.6075
L103.251 98.0679
L103.586 100.093
L103.909 100.887
L104.168 101.044
L104.398 100.927
L104.705 100.482
L105.14 99.4077
L105.719 97.3374
L106.349 94.235
L106.875 90.5182
L107.257 86.1869
L107.524 80.4679
L107.707 71.1703
L107.85 49.8487
L107.957 37.5987
L108.01 39.7739
L108.216 64.3427
L108.536 89.347
L108.817 96.3934
L109.132 99.3029
L109.469 100.613
L109.762 101.015
L109.992 101.013
L110.254 100.756
L110.622 100.034
L111.133 98.4896
L111.76 95.8464
L112.351 92.3792
L112.8 88.3939
L113.121 83.4659
L113.34 76.3326
L113.492 62.9297
L113.669 37.5993
L113.742 41.4386
L114.403 94.1203
L114.701 98.2861
L115.035 100.185
L115.356 100.914
L115.609 101.043
L115.842 100.908
L116.157 100.428
L116.604 99.2907
L117.191 97.138
L117.818 93.9727
L118.332 90.2217
L118.706 85.8035
L118.965 79.9371
L119.142 70.2345
L119.294 46.082
L119.384 37.5993
L119.437 39.9481
L119.659 66.5696
L119.974 89.8939
L120.255 96.5816
L120.573 99.3961
L120.91 100.65
L121.2 101.021
L121.43 101.006
L121.694 100.732
L122.068 99.9799
L122.588 98.3806
L123.215 95.6956
L123.8 92.2018
L124.244 88.1732
L124.556 83.2321
L124.773 75.923
L124.921 62.1586
L125.096 37.5987
L125.163 41.1243
L125.846 94.5336
L126.147 98.4675
L126.484 100.27
L126.799 100.936
L127.049 101.041
L127.288 100.885
L127.612 100.367
L128.07 99.1617
L128.666 96.9215
L129.29 93.6856
L129.793 89.8878
L130.156 85.3999
L130.406 79.3698
L130.577 69.2201
L130.808 37.5982
L130.92 45.9407
L131.392 89.6473
L131.674 96.4965
L131.991 99.3612
L132.329 100.636
L132.621 101.02
L132.851 101.008
L133.116 100.737
L133.487 99.9953
L134.004 98.413
L134.628 95.7545
L135.215 92.2666
L135.662 88.2452
L135.977 83.3066
L136.194 76.1005
L136.343 62.675
L136.52 37.5979
L136.59 41.3333
L137.256 94.2204
L137.554 98.3242
L137.889 100.201
L138.206 100.916
L138.459 101.043
L138.695 100.903
L139.013 100.414
L139.463 99.2596
L140.053 97.0825
L140.68 93.8949
L141.192 90.1291
L141.563 85.6864
L141.819 79.7842
L141.993 70.0791
L142.145 45.767
L142.232 37.5978
L142.285 39.8611
L142.499 65.4687
L142.816 89.6247
L143.098 96.4887
L143.415 99.3581
L143.753 100.635
L144.045 101.02
L144.275 101.008
L144.54 100.738
L144.913 99.9897
L145.431 98.4049
L146.058 95.7293
L146.642 92.2504
L147.089 88.219
L147.404 83.2568
L147.621 75.9822
L147.769 62.3313
L147.944 37.5978
L148.014 41.2811
L148.686 94.3309
L148.984 98.3666
L149.318 100.218
L149.636 100.922
L149.889 101.042
L150.125 100.898
L150.443 100.403
L150.895 99.2353
L151.488 97.0365
L152.113 93.8472
L152.621 90.0824
L152.99 85.6499
L153.245 79.7067
L153.42 69.8694
L153.574 44.8512
L153.656 37.5979
L153.712 40.0381
L153.945 67.9622
L154.257 90.2637
L154.538 96.7102
L154.859 99.4644
L155.193 100.671
L155.48 101.024
L155.711 101.002
L155.978 100.718
L156.357 99.9416
L156.883 98.3048
L157.512 95.5766
L158.094 92.0497
L158.533 87.9933
L158.842 82.952
L159.053 75.5567
L159.202 61.0822
L159.368 37.5982
L159.432 40.7215
L160.155 95.2155
L160.458 98.7551
L160.796 100.389
L161.105 100.967
L161.347 101.035
L161.591 100.851
L161.929 100.274
L162.404 98.9686
L163.011 96.603
L163.626 93.2888
L164.113 89.4393
L164.461 84.8432
L164.703 78.4733
L164.866 67.6245
L165.08 37.5987
L165.181 44.425
L165.695 90.7612
L165.979 96.9203
L166.3 99.5511
L166.634 100.704
L166.918 101.03
L167.146 100.996
L167.416 100.697
L167.801 99.8927
L168.332 98.2135
L168.965 95.436
L169.541 91.8867
L169.974 87.7955
L170.277 82.7019
L170.485 75.1112
L170.632 60.2398
L170.792 37.5992
L170.856 40.6726
L171.584 95.3075
L171.891 98.8117
L172.228 100.413
L172.537 100.974
L172.779 101.033
L173.024 100.842
L173.364 100.251
L173.842 98.9243
L174.452 96.5286
L175.065 93.2015
L175.548 89.3318
L175.894 84.7
L176.133 78.2683
L176.296 67.0483
L176.507 37.5993
L176.602 44.0436
L177.128 91.039
L177.412 97.0179
L177.735 99.606
L178.07 100.726
L178.351 101.033
L178.578 100.991
L178.854 100.676
L179.245 99.843
L179.781 98.121
L180.414 95.3078
L180.985 91.7422
L181.412 87.628
L181.713 82.4434
L181.918 74.6443
L182.061 59.3671
L182.219 37.5987
L182.278 40.3842
L183.037 95.7802
L183.346 99.0192
L183.683 100.498
L183.987 100.993
L184.223 101.026
L184.473 100.811
L184.824 100.17
L185.316 98.7566
L185.932 96.2701
L186.536 92.8895
L187.009 88.9588
L187.343 84.2318
L187.574 77.5731
L187.731 65.7521
L187.931 37.5983
L188.018 43.0585
L188.583 92.0301
L189.162 106.311
L189.642 113.134
L190.132 117.188
L190.607 119.443
L191.062 120.628
L191.487 121.173
L191.891 121.357
L192.327 121.306
L192.886 120.998
L193.738 120.242
L197.794 116.334
L199.259 115.379
L200.788 114.647
L202.486 114.084
L202.792 114.004
L202.792 114.004" style="fill:none;stroke:#ff0000;"/>
   </g>
   <g id="line2d_4">
    <path clip-path="url(#paeeee5594a)" d="
M48.1918 122.389
L48.9873 119.776
L49.7744 117.928
L50.5952 116.551
L51.4582 115.528
L52.3999 114.752
L53.4765 114.155
L54.7387 113.713
L56.355 113.392
L58.6628 113.178
L62.2553 112.911
L63.7199 82.7963
L63.8604 69.5263
L63.9785 28.5842
L64.0488 19.2109
L64.1078 22.58
L64.3186 56.5614
L64.6082 84.6586
L64.8612 91.6549
L65.1001 93.3151
L65.2969 93.5427
L65.4571 93.403
L65.7326 92.7991
L66.1767 91.224
L66.6799 88.5867
L67.1268 85.0711
L67.4698 80.5689
L67.7228 74.147
L67.9252 62.5578
L68.1163 50.7086
L68.1641 51.6752
L68.3075 61.5057
L68.7432 89.1105
L69.0411 95.2144
L69.37 97.8656
L69.7102 99.0309
L69.9997 99.3672
L70.233 99.3388
L70.5057 99.0471
L70.888 98.2673
L71.3884 96.697
L71.9927 94.0209
L72.5296 90.5783
L72.9344 86.4772
L73.2211 81.1535
L73.4179 72.9026
L73.5641 55.6148
L73.699 39.1167
L73.7524 41.164
L73.952 64.0221
L74.2809 89.2381
L74.562 96.2219
L74.8796 99.1786
L75.2198 100.522
L75.5149 100.938
L75.7483 100.941
L76.0069 100.691
L76.3723 99.981
L76.8895 98.4387
L77.4967 95.9017
L78.0842 92.506
L78.5396 88.5615
L78.8629 83.7531
L79.0849 76.8693
L79.2395 64.0418
L79.4251 37.3767
L79.5038 41.8577
L80.1194 93.087
L80.4117 97.8057
L80.7462 99.9655
L81.0723 100.83
L81.3366 101.021
L81.5671 100.922
L81.865 100.511
L82.2951 99.4839
L82.8714 97.4822
L83.5067 94.4201
L84.038 90.7587
L84.4287 86.4806
L84.7042 80.8228
L84.8897 71.848
L85.0302 51.9449
L85.1483 37.3394
L85.1989 39.3571
L85.3901 62.2189
L85.7161 88.7787
L85.9944 96.1076
L86.3093 99.1579
L86.6466 100.539
L86.9446 100.981
L87.1779 100.996
L87.4337 100.758
L87.7935 100.074
L88.3051 98.5706
L88.9123 96.0676
L89.5082 92.6734
L89.972 88.7234
L90.3009 83.928
L90.5258 77.1234
L90.6804 64.7549
L90.8716 37.3414
L90.9531 42.1661
L91.549 92.647
L91.8385 97.6147
L92.1702 99.8727
L92.4991 100.8
L92.769 101.018
L92.9967 100.934
L93.2862 100.554
L93.7051 99.584
L94.2729 97.6588
L94.9054 94.6816
L95.4451 91.0779
L95.8443 86.9058
L96.1282 81.4461
L96.3193 73.0468
L96.4599 55.1953
L96.5948 37.3419
L96.6482 39.6455
L96.8647 65.6919
L97.1823 89.6414
L97.4634 96.4452
L97.7811 99.3133
L98.1184 100.601
L98.4107 100.993
L98.6412 100.987
L98.9027 100.725
L99.2709 99.997
L99.7937 98.4191
L100.409 95.8179
L100.994 92.393
L101.444 88.4331
L101.761 83.6173
L101.981 76.6739
L102.133 63.8406
L102.318 37.3425
L102.394 41.6939
L103.018 93.2707
L103.31 97.8742
L103.645 99.9936
L103.971 100.839
L104.235 101.019
L104.466 100.914
L104.766 100.491
L105.202 99.4366
L105.781 97.4043
L106.419 94.2958
L106.948 90.5969
L107.333 86.2856
L107.603 80.5926
L107.785 71.4677
L107.929 50.3891
L108.038 37.3433
L108.092 39.5004
L108.294 63.8131
L108.618 89.2191
L108.899 96.2998
L109.216 99.2534
L109.554 100.577
L109.849 100.989
L110.082 100.989
L110.341 100.736
L110.706 100.022
L111.226 98.4656
L111.839 95.8957
L112.426 92.4851
L112.882 88.517
L113.202 83.7157
L113.424 76.7656
L113.576 64.1067
L113.762 37.3423
L113.84 41.7872
L114.459 93.1507
L114.751 97.8293
L115.086 99.9747
L115.412 100.832
L115.676 101.019
L115.907 100.918
L116.205 100.504
L116.635 99.4746
L117.211 97.4697
L117.846 94.4031
L118.377 90.7338
L118.765 86.4795
L119.041 80.8214
L119.226 71.8457
L119.367 51.9413
L119.485 37.3415
L119.536 39.3605
L119.727 62.2216
L120.053 88.7793
L120.331 96.1077
L120.646 99.1578
L120.983 100.539
L121.281 100.981
L121.515 100.996
L121.77 100.758
L122.13 100.074
L122.642 98.5705
L123.252 96.054
L123.848 92.6539
L124.311 88.6925
L124.638 83.9274
L124.862 77.1222
L125.017 64.7515
L125.208 37.3414
L125.29 42.1687
L125.886 92.6476
L126.175 97.6149
L126.507 99.8728
L126.836 100.8
L127.106 101.018
L127.333 100.934
L127.623 100.554
L128.042 99.5839
L128.607 97.6699
L129.239 94.697
L129.779 91.1007
L130.178 86.9443
L130.462 81.5237
L130.653 73.2443
L130.794 55.7497
L130.931 37.342
L130.985 39.6468
L131.201 65.6936
L131.519 89.642
L131.8 96.4454
L132.118 99.3133
L132.455 100.601
L132.747 100.993
L132.978 100.987
L133.239 100.725
L133.608 99.997
L134.13 98.4191
L134.743 95.8316
L135.328 92.4126
L135.78 88.4329
L136.098 83.6168
L136.317 76.6728
L136.469 63.8375
L136.655 37.3429
L136.731 41.6966
L137.355 93.2712
L137.647 97.8744
L137.982 99.9937
L138.308 100.839
L138.572 101.019
L138.802 100.914
L139.103 100.49
L139.539 99.4365
L140.118 97.4041
L140.756 94.2956
L141.284 90.5966
L141.67 86.2852
L141.939 80.5917
L142.122 71.4653
L142.266 50.3831
L142.375 37.343
L142.429 39.5024
L142.631 63.8163
L142.954 89.2203
L143.235 96.3003
L143.553 99.2536
L143.89 100.577
L144.185 100.989
L144.419 100.989
L144.677 100.736
L145.043 100.022
L145.563 98.4655
L146.176 95.8956
L146.763 92.4849
L147.219 88.5168
L147.539 83.7152
L147.761 76.7643
L147.913 64.1028
L148.098 37.3422
L148.177 41.79
L148.796 93.1514
L149.088 97.8296
L149.422 99.9748
L149.748 100.832
L150.013 101.019
L150.243 100.918
L150.541 100.504
L150.974 99.4664
L151.55 97.4581
L152.186 94.387
L152.717 90.7096
L153.105 86.438
L153.377 80.8206
L153.563 71.8437
L153.704 51.9361
L153.822 37.3418
L153.872 39.3627
L154.063 62.2249
L154.389 88.7804
L154.668 96.1081
L154.983 99.1579
L155.32 100.539
L155.618 100.981
L155.851 100.996
L156.107 100.758
L156.464 100.081
L156.976 98.5801
L157.586 96.0673
L158.182 92.6729
L158.645 88.7227
L158.971 83.9835
L159.196 77.2509
L159.351 65.1237
L159.545 37.3417
L159.629 42.4644
L160.211 92.3281
L160.498 97.4679
L160.827 99.7985
L161.156 100.772
L161.428 101.016
L161.656 100.945
L161.94 100.588
L162.35 99.6618
L162.91 97.8026
L163.539 94.8959
L164.085 91.3485
L164.492 87.2458
L164.782 81.9752
L164.979 73.9989
L165.122 57.37
L165.268 37.3418
L165.324 39.8739
L165.572 69.4604
L165.881 90.6074
L166.165 96.8187
L166.488 99.499
L166.823 100.668
L167.109 101.004
L167.34 100.972
L167.61 100.675
L167.995 99.8697
L168.535 98.1744
L169.156 95.4526
L169.724 91.9875
L170.156 87.9772
L170.46 83.06
L170.674 75.6476
L170.823 61.2508
L170.991 37.3428
L171.056 40.6364
L171.762 94.8361
L172.065 98.5708
L172.402 100.296
L172.715 100.923
L172.962 101.015
L173.201 100.851
L173.527 100.317
L173.999 99.06
L174.595 96.8004
L175.228 93.4791
L175.731 89.5802
L176.088 84.9611
L176.329 78.7347
L176.495 67.9959
L176.712 37.3433
L176.816 44.4896
L177.319 90.3327
L177.6 96.6861
L177.921 99.4288
L178.258 100.647
L178.547 101.001
L178.778 100.977
L179.045 100.69
L179.424 99.9104
L179.959 98.2535
L180.577 95.5757
L181.15 92.1243
L181.589 88.1316
L181.898 83.2287
L182.115 75.901
L182.264 62.0002
L182.435 37.3422
L182.505 40.9802
L183.18 94.2807
L183.478 98.3092
L183.815 100.187
L184.133 100.894
L184.386 101.018
L184.622 100.878
L184.937 100.39
L185.392 99.2235
L185.983 97.0554
L186.621 93.806
L187.138 89.9507
L187.506 85.4264
L187.756 79.4338
L187.928 69.3527
L188.094 41.9112
L188.158 37.3416
L188.217 40.03
L188.501 73.3806
L188.822 93.6685
L189.162 104.368
L189.614 111.864
L190.101 116.561
L190.579 119.212
L191.037 120.62
L191.467 121.293
L191.869 121.545
L192.285 121.546
L192.796 121.308
L193.539 120.691
L195.127 119
L197.01 117.126
L198.472 115.985
L199.948 115.115
L201.536 114.44
L202.792 114.055
L202.792 114.055" style="fill:none;stroke:#00bfbf;"/>
   </g>
   <g id="line2d_5">
    <path clip-path="url(#paeeee5594a)" d="
M48.1917 122.389
L48.9844 119.8
L49.7856 117.933
L50.6092 116.566
L51.4666 115.56
L52.3998 114.797
L53.4765 114.205
L54.823 113.741
L56.5489 113.421
L59.1716 113.203
L62.2553 112.967
L63.7255 82.7439
L63.866 69.3621
L63.9869 27.4857
L64.0544 19.2836
L64.1134 22.7649
L64.3326 58.0889
L64.6194 84.988
L64.8723 91.7296
L65.1113 93.3201
L65.3053 93.5274
L65.4655 93.3824
L65.7466 92.7571
L66.1879 91.179
L66.6911 88.5273
L67.1325 85.0405
L67.4726 80.5768
L67.7284 74.0815
L67.9307 62.4638
L68.1191 50.806
L68.1697 51.8241
L68.3159 61.9157
L68.7488 89.1389
L69.0467 95.2102
L69.3756 97.8519
L69.7157 99.0135
L70.0081 99.35
L70.2443 99.3165
L70.5225 99.011
L70.9076 98.2129
L71.408 96.6261
L72.0068 93.9588
L72.5437 90.4927
L72.9456 86.3796
L73.2295 81.0475
L73.4235 72.8484
L73.5697 55.52
L73.7046 39.2154
L73.758 41.322
L73.9604 64.4899
L74.2865 89.2625
L74.5704 96.256
L74.8908 99.1978
L75.231 100.519
L75.5205 100.92
L75.7538 100.923
L76.0125 100.673
L76.3722 99.9776
L76.8839 98.4625
L77.4967 95.9142
L78.0842 92.532
L78.5395 88.6097
L78.8628 83.8525
L79.0877 76.9823
L79.2423 64.4039
L79.4306 37.4801
L79.5122 42.2837
L80.1109 92.7051
L80.4005 97.6215
L80.7322 99.864
L81.061 100.785
L81.3309 101
L81.5586 100.914
L81.8509 100.527
L82.2754 99.5381
L82.8348 97.6358
L83.4617 94.6888
L84.0014 91.0957
L84.4006 86.944
L84.6845 81.5349
L84.8756 73.2931
L85.0161 55.9345
L85.1539 37.4482
L85.2073 39.7022
L85.4181 65.0133
L85.7386 89.4918
L86.0197 96.3772
L86.3373 99.2722
L86.6747 100.572
L86.9698 100.972
L87.2031 100.966
L87.4674 100.699
L87.8384 99.9599
L88.3612 98.3752
L88.9741 95.7796
L89.5503 92.4058
L90.0029 88.4299
L90.3206 83.6218
L90.5398 76.7024
L90.6916 63.9584
L90.8771 37.444
L90.9559 42.0104
L91.5659 92.9464
L91.8498 97.6552
L92.1815 99.8773
L92.5103 100.789
L92.7774 100.999
L93.0023 100.915
L93.2918 100.535
L93.7107 99.567
L94.2757 97.6545
L94.9025 94.7149
L95.4422 91.1344
L95.8414 87.0093
L96.1253 81.6656
L96.3193 73.4297
L96.4598 56.3205
L96.6004 37.4426
L96.6538 39.76
L96.8731 66.0829
L97.1907 89.7502
L97.4662 96.3901
L97.7866 99.2945
L98.124 100.582
L98.4163 100.973
L98.6496 100.966
L98.9139 100.699
L99.2849 99.9589
L99.8078 98.3735
L100.468 95.5389
L101.039 92.0992
L101.475 88.1316
L101.784 83.2392
L102 75.9443
L102.149 62.1647
L102.324 37.4396
L102.391 40.9981
L103.071 94.3665
L103.372 98.3528
L103.709 100.193
L104.027 100.883
L104.28 100.998
L104.516 100.851
L104.837 100.345
L105.303 99.1322
L105.894 96.9348
L106.526 93.6785
L107.038 89.8143
L107.4 85.2893
L107.648 79.2545
L107.819 68.8842
L108.044 37.4382
L108.156 45.5864
L108.632 89.5651
L108.913 96.4048
L109.233 99.3013
L109.562 100.566
L109.857 100.972
L110.09 100.97
L110.349 100.714
L110.715 99.9986
L111.263 98.3408
L111.878 95.7173
L112.455 92.3157
L112.902 88.3493
L113.216 83.5291
L113.436 76.4852
L113.587 63.3237
L113.767 37.4428
L113.843 41.6076
L114.478 93.4891
L114.774 97.969
L115.108 100.021
L115.434 100.836
L115.696 101
L115.929 100.884
L116.233 100.444
L116.677 99.3518
L117.25 97.3161
L117.891 94.1645
L118.414 90.4554
L118.796 86.0932
L119.063 80.2938
L119.243 70.9315
L119.387 49.1389
L119.491 37.4495
L119.544 39.6711
L119.752 64.6338
L120.072 89.3599
L120.354 96.3319
L120.671 99.2535
L121.009 100.564
L121.304 100.97
L121.537 100.967
L121.801 100.703
L122.169 99.9744
L122.687 98.4167
L123.294 95.8641
L123.879 92.4677
L124.334 88.4971
L124.666 83.4502
L124.885 76.301
L125.037 62.7842
L125.214 37.4461
L125.287 41.4198
L125.936 93.7769
L126.231 98.0778
L126.569 100.078
L126.889 100.848
L127.148 101
L127.381 100.878
L127.688 100.426
L128.134 99.3158
L128.764 97.026
L129.405 93.756
L129.919 89.9077
L130.288 85.36
L130.538 79.3047
L130.709 69.0233
L130.937 37.4405
L131.047 45.428
L131.513 89.1613
L131.794 96.2648
L132.112 99.2267
L132.452 100.561
L132.747 100.97
L132.981 100.97
L133.239 100.716
L133.605 100.001
L134.119 98.4646
L134.732 95.9025
L135.322 92.4829
L135.775 88.5522
L136.095 83.7915
L136.317 76.9581
L136.472 64.3055
L136.66 37.4433
L136.739 42.0444
L137.349 92.9548
L137.641 97.7429
L137.976 99.9267
L138.302 100.803
L138.569 101
L138.797 100.906
L139.092 100.504
L139.516 99.5025
L140.084 97.5518
L140.714 94.5567
L141.245 90.9696
L141.641 86.7699
L141.923 81.2626
L142.111 72.8014
L142.251 54.5633
L142.384 37.4398
L142.434 39.5752
L142.634 63.4926
L142.957 89.0804
L143.238 96.2373
L143.556 99.2156
L143.893 100.55
L144.188 100.968
L144.421 100.972
L144.68 100.722
L145.046 100.012
L145.566 98.4614
L146.178 95.8976
L146.766 92.4958
L147.219 88.5726
L147.542 83.7708
L147.764 76.911
L147.918 64.1693
L148.104 37.4392
L148.183 41.8531
L148.804 93.2019
L149.096 97.8358
L149.431 99.966
L149.757 100.817
L150.021 101.001
L150.254 100.896
L150.555 100.472
L150.985 99.4359
L151.562 97.4228
L152.197 94.3457
L152.725 90.6789
L153.113 86.3942
L153.386 80.7432
L153.569 71.8861
L153.709 52.1017
L153.827 37.4435
L153.878 39.4281
L154.066 61.8777
L154.395 88.7516
L154.676 96.1244
L154.994 99.1693
L155.334 100.538
L155.629 100.964
L155.865 100.973
L156.121 100.729
L156.481 100.037
L156.998 98.5079
L157.611 95.9619
L158.201 92.5688
L158.659 88.627
L158.983 83.8732
L159.208 77.0145
L159.362 64.4717
L159.55 37.451
L159.632 42.2155
L160.231 92.693
L160.52 97.6168
L160.852 99.8606
L161.181 100.782
L161.451 100.997
L161.678 100.912
L161.971 100.525
L162.384 99.5679
L162.988 97.4983
L163.621 94.4677
L164.152 90.8379
L164.543 86.6263
L164.821 81.0525
L165.007 72.4721
L165.147 53.6637
L165.274 37.4446
L165.324 39.4924
L165.515 62.3277
L165.844 88.9098
L166.125 96.1781
L166.443 99.1912
L166.78 100.54
L167.076 100.965
L167.312 100.972
L167.567 100.728
L167.927 100.036
L168.445 98.5053
L169.057 95.9584
L169.648 92.5638
L170.106 88.6185
L170.429 83.8573
L170.654 76.9772
L170.809 64.3621
L170.997 37.4399
L171.076 41.9997
L171.686 92.9451
L171.978 97.7394
L172.312 99.925
L172.639 100.802
L172.908 101
L173.139 100.901
L173.434 100.495
L173.859 99.4881
L174.426 97.5311
L175.062 94.4967
L175.593 90.8806
L175.987 86.6585
L176.265 81.1174
L176.453 72.4268
L176.594 53.5394
L176.72 37.4442
L176.771 39.5376
L176.968 63.0844
L177.294 89.0545
L177.575 96.2279
L177.892 99.2116
L178.23 100.548
L178.525 100.967
L178.761 100.971
L179.017 100.723
L179.382 100.014
L179.902 98.4635
L180.563 95.6662
L181.136 92.2623
L181.603 88.0346
L181.909 83.1168
L182.123 75.8027
L182.275 61.2958
L182.443 37.4463
L182.508 40.7335
L183.214 94.8173
L183.517 98.5504
L183.857 100.285
L184.169 100.906
L184.417 100.994
L184.656 100.829
L184.976 100.304
L185.448 99.053
L186.039 96.8238
L186.666 93.5564
L187.172 89.6797
L187.531 85.0992
L187.776 78.9454
L187.945 68.3116
L188.164 37.4415
L188.271 44.9095
L188.771 90.8525
L189.097 102.769
L189.533 110.736
L190.022 115.93
L190.503 118.868
L190.964 120.444
L191.402 121.224
L191.798 121.529
L192.206 121.573
L192.692 121.389
L193.384 120.857
L194.548 119.656
L196.94 117.221
L198.461 116.03
L199.976 115.142
L201.643 114.446
L202.792 114.099
L202.792 114.099" style="fill:none;stroke:#bf00bf;"/>
   </g>
   <g id="line2d_6">
    <path clip-path="url(#paeeee5594a)" d="
M48.1911 122.39
L49.4447 118.933
L50.7604 116.838
L52.118 115.687
L53.9227 114.943
L57.2769 114.294
L58.2098 114.183
L62.2525 114.075
L62.6342 107.237
L63.447 93.6283
L63.8513 79.958
L63.9639 65.9603
L64.1322 20.4202
L64.248 31.2354
L64.5848 78.0608
L64.8775 90.4395
L65.1477 92.9784
L65.3268 93.3002
L65.4791 93.2333
L65.6785 92.8877
L65.9798 92.0087
L66.9181 87.2126
L67.2334 84.475
L67.7224 76.2934
L68.0258 60.7357
L68.1888 52.2915
L68.2424 53.3066
L68.4923 71.073
L68.9051 91.2784
L69.2601 96.351
L69.5217 97.9372
L69.7801 98.7441
L70.0128 99.0768
L70.2723 99.1118
L70.5554 98.8543
L70.8139 98.3986
L71.1291 97.621
L71.5816 96.0693
L71.9698 94.3771
L72.9285 87.4413
L73.3638 79.339
L73.5215 71.6508
L73.6502 56.1704
L73.7831 40.881
L73.8442 43.5121
L74.0276 63.9781
L74.2828 85.2583
L74.6034 95.2556
L74.9723 98.8868
L75.2329 99.995
L75.59 100.607
L75.8859 100.586
L76.2816 100.053
L76.6419 99.1968
L77.7775 94.6979
L78.6997 87.5108
L79.1158 79.0357
L79.3292 63.6464
L79.5093 39.1394
L79.5597 41.0402
L80.2224 93.3265
L80.5688 98.1504
L80.8186 99.6129
L81.1982 100.593
L81.4395 100.724
L81.6765 100.614
L82.1011 99.9327
L82.871 97.589
L84.0795 90.9287
L84.3969 87.8424
L84.6414 84.2128
L84.8387 79.0903
L85.0554 63.3858
L85.2344 39.1085
L85.2827 40.948
L85.4199 56.398
L85.8339 89.9364
L86.059 95.5049
L86.3003 98.2086
L86.6906 100.127
L87.0509 100.703
L87.2954 100.697
L87.4895 100.52
L88.0568 99.3513
L88.445 98.1308
L88.8417 96.573
L89.9773 89.3828
L90.4856 81.5081
L90.655 74.906
L90.8459 51.7889
L90.9585 39.0915
L91.0003 40.4757
L91.1183 53.0053
L91.5622 90.0976
L91.886 96.8953
L92.1359 98.9625
L92.5434 100.424
L92.8586 100.722
L93.1256 100.613
L93.5503 99.9322
L94.3234 97.5767
L95.5287 90.9282
L95.8461 87.8424
L96.0906 84.2128
L96.2879 79.0903
L96.437 70.8686
L96.6847 39.1085
L96.7769 45.0354
L97.3956 93.3075
L97.6262 97.0653
L97.876 99.049
L98.2642 100.417
L98.5033 100.704
L98.7446 100.697
L98.9387 100.52
L99.2228 100.037
L100.071 97.484
L100.471 95.7531
L101.499 88.6396
L101.761 85.1851
L102.096 75.3798
L102.286 53.4425
L102.408 39.0915
L102.463 41.4614
L102.624 60.0936
L102.883 83.9275
L103.108 93.0016
L103.337 96.9262
L103.72 99.6263
L104.097 100.592
L104.389 100.719
L104.617 100.571
L104.887 100.159
L105.253 99.2936
L106.382 94.8112
L106.764 92.5067
L107.082 90.0332
L107.371 86.8877
L107.611 82.74
L107.791 76.8882
L107.987 57.961
L108.134 39.1085
L108.195 42.0331
L108.387 64.6048
L108.637 85.612
L108.954 95.4596
L109.317 99.0011
L109.713 100.417
L110.034 100.723
L110.298 100.615
L110.554 100.268
L111.215 98.5804
L112.591 91.7826
L112.915 88.9909
L113.396 81.1961
L113.562 74.4008
L113.753 50.1296
L113.857 39.0915
L113.913 41.4614
L114.073 60.0936
L114.332 83.9275
L114.652 95.0121
L114.888 97.9233
L115.287 100.05
L115.658 100.695
L115.951 100.674
L116.341 100.147
L116.704 99.2859
L117.075 98.1066
L117.468 96.5549
L117.839 94.7664
L118.217 92.4881
L118.916 85.4843
L119.133 80.8381
L119.296 73.7875
L119.422 60.3716
L119.583 39.1085
L119.653 42.7762
L119.932 74.4714
L120.167 89.3982
L120.49 96.677
L120.878 99.5604
L121.275 100.599
L121.494 100.723
L121.747 100.615
L122.003 100.268
L122.664 98.5804
L124.041 91.7826
L124.364 88.9909
L124.845 81.1961
L125.011 74.4008
L125.202 50.1296
L125.306 39.0915
L125.362 41.4614
L125.523 60.0936
L125.781 83.9275
L126.102 95.0121
L126.338 97.9233
L126.736 100.05
L127.107 100.695
L127.4 100.674
L127.662 100.377
L128.418 98.4784
L128.881 96.7156
L129.326 94.5681
L130.256 87.0751
L130.495 83.0582
L130.68 77.2745
L130.819 67.6134
L131.032 39.1085
L131.1 42.5218
L131.599 88.7112
L131.92 96.4303
L132.291 99.3971
L132.693 100.554
L132.966 100.723
L133.196 100.615
L133.452 100.268
L133.733 99.6706
L134.08 98.6937
L135.226 93.5505
L135.557 91.2743
L135.864 88.4594
L136.12 84.9941
L136.446 75.2233
L136.637 52.892
L136.755 39.0915
L136.812 41.4614
L137.41 91.7713
L137.742 97.5123
L138.141 99.9039
L138.504 100.656
L138.731 100.72
L138.965 100.571
L139.463 99.6608
L140.432 96.2712
L140.851 94.1417
L141.725 86.8114
L142.114 77.999
L142.318 60.8284
L142.481 39.1085
L142.554 43.0378
L143.291 95.2752
L143.657 98.9522
L143.903 100.027
L144.264 100.686
L144.505 100.71
L144.733 100.523
L145.172 99.6974
L146.164 96.2377
L146.58 94.1165
L146.945 91.7414
L147.606 84.3416
L147.913 74.2278
L148.104 49.5838
L148.204 39.0915
L148.249 40.6591
L148.376 54.4416
L148.806 89.9935
L149.132 96.8943
L149.517 99.6263
L149.891 100.588
L150.136 100.722
L150.371 100.613
L150.625 100.27
L150.909 99.6675
L151.252 98.6983
L152.405 93.5274
L153.251 85.7068
L153.599 76.3444
L153.793 56.4212
L153.93 39.1085
L153.967 40.2368
L154.076 51.4001
L154.537 90.2443
L154.863 96.9721
L155.249 99.6551
L155.505 100.407
L155.831 100.723
L156.096 100.615
L156.522 99.9296
L156.803 99.2117
L157.158 98.0716
L158.327 92.2239
L158.656 89.546
L159.185 81.4299
L159.431 68.6449
L159.57 46.4547
L159.653 39.0915
L159.702 40.8465
L159.834 55.5143
L160.255 89.9935
L160.581 96.8943
L160.967 99.6263
L161.214 100.374
L161.517 100.718
L161.746 100.676
L162.139 100.147
L163.069 97.3789
L163.511 95.4184
L163.896 93.2647
L164.247 90.7428
L164.851 82.8687
L165.031 77.1478
L165.169 67.3023
L165.38 39.1085
L165.447 42.5218
L165.678 69.5337
L166.032 91.7244
L166.361 97.4701
L166.763 99.8987
L167.131 100.662
L167.353 100.722
L167.586 100.572
L167.857 100.162
L168.798 97.3614
L169.237 95.4101
L170.232 88.2436
L170.679 80.0981
L170.906 65.8027
L171.103 39.0915
L171.201 45.4958
L171.797 92.8594
L172.135 97.9233
L172.39 99.5197
L172.798 100.598
L173.082 100.72
L173.313 100.571
L173.583 100.159
L174.521 97.3676
L174.96 95.4184
L175.345 93.2647
L175.7 90.7191
L176.3 82.8687
L176.48 77.1478
L176.619 67.3023
L176.829 39.1085
L176.896 42.5218
L177.127 69.5337
L177.481 91.7244
L177.81 97.4701
L178.212 99.8987
L178.58 100.662
L178.8 100.722
L179.036 100.572
L179.306 100.162
L180.247 97.3614
L180.686 95.4101
L181.071 93.2539
L181.423 90.731
L182.026 82.8332
L182.21 76.9485
L182.406 58.1917
L182.553 39.0915
L182.617 42.1494
L183.143 89.5676
L183.466 96.729
L183.713 98.86
L184.112 100.374
L184.413 100.717
L184.644 100.676
L184.908 100.377
L185.242 99.701
L185.597 98.7071
L186.752 93.5274
L187.135 90.836
L187.739 83.12
L187.922 77.5227
L188.121 59.9066
L188.278 39.1085
L188.318 40.4006
L188.433 52.4677
L188.72 81.8424
L189.192 103.249
L189.746 112.48
L190.055 115.584
L190.668 119.276
L190.963 120.284
L191.52 121.335
L192.009 121.652
L192.362 121.649
L192.869 121.456
L193.4 121.079
L194.007 120.523
L194.567 119.933
L195.053 119.426
L196.273 118.308
L196.88 117.752
L198.385 116.69
L199.188 116.248
L200.894 115.552
L202.575 115.13
L202.792 115.09
L202.792 115.09" style="fill:none;stroke:#bfbf00;"/>
   </g>
   <g id="matplotlib.axis_1">
    <g id="xtick_1">
     <g id="line2d_7">
      <path clip-path="url(#paeeee5594a)" d="
M48.189 122.4
L48.189 14.4" style="fill:none;stroke:#000000;stroke-dasharray:1.000000,3.000000;stroke-dashoffset:0.0;stroke-linecap:butt;stroke-width:0.5;"/>
     </g>
     <g id="line2d_8">
      <defs>
       <path d="
M0 0
L0 -4" id="m0012dd4eef" style="stroke:#000000;stroke-linecap:butt;stroke-width:0.5;"/>
      </defs>
      <g>
       <use style="stroke:#000000;stroke-linecap:butt;stroke-width:0.5;" x="48.188976378" xlink:href="#m0012dd4eef" y="122.4"/>
      </g>
     </g>
     <g id="line2d_9">
      <defs>
       <path d="
M0 0
L0 4" id="m476344969c" style="stroke:#000000;stroke-linecap:butt;stroke-width:0.5;"/>
      </defs>
      <g>
       <use style="stroke:#000000;stroke-linecap:butt;stroke-width:0.5;" x="48.188976378" xlink:href="#m476344969c" y="14.4"/>
      </g>
     </g>
     <g id="text_1">
      <!-- 0.0 -->
      <defs>
       <path d="
M4.15625 35.2969
Q4.15625 48 6.76562 55.7344
Q9.375 63.4844 14.5156 67.6719
Q19.6719 71.875 27.4844 71.875
Q33.25 71.875 37.5938 69.5469
Q41.9375 67.2344 44.7656 62.8594
Q47.6094 58.5 49.2188 52.2188
Q50.8281 45.9531 50.8281 35.2969
Q50.8281 22.7031 48.2344 14.9688
Q45.6562 7.23438 40.5 3
Q35.3594 -1.21875 27.4844 -1.21875
Q17.1406 -1.21875 11.2344 6.20312
Q4.15625 15.1406 4.15625 35.2969
M13.1875 35.2969
Q13.1875 17.6719 17.3125 11.8281
Q21.4375 6 27.4844 6
Q33.5469 6 37.6719 11.8594
Q41.7969 17.7188 41.7969 35.2969
Q41.7969 52.9844 37.6719 58.7812
Q33.5469 64.5938 27.3906 64.5938
Q21.3438 64.5938 17.7188 59.4688
Q13.1875 52.9375 13.1875 35.2969" id="ArialMT-30"/>
       <path d="
M9.07812 0
L9.07812 10.0156
L19.0938 10.0156
L19.0938 0
z
" id="ArialMT-2e"/>
      </defs>
      <g transform="translate(44.578441378 130.3905)scale(0.05552 -0.05552)">
       <use xlink:href="#ArialMT-30"/>
       <use x="55.615234375" xlink:href="#ArialMT-2e"/>
       <use x="83.3984375" xlink:href="#ArialMT-30"/>
      </g>
     </g>
    </g>
    <g id="xtick_2">
     <g id="line2d_10">
      <path clip-path="url(#paeeee5594a)" d="
M76.2992 122.4
L76.2992 14.4" style="fill:none;stroke:#000000;stroke-dasharray:1.000000,3.000000;stroke-dashoffset:0.0;stroke-linecap:butt;stroke-width:0.5;"/>
     </g>
     <g id="line2d_11">
      <g>
       <use style="stroke:#000000;stroke-linecap:butt;stroke-width:0.5;" x="76.2992125984" xlink:href="#m0012dd4eef" y="122.4"/>
      </g>
     </g>
     <g id="line2d_12">
      <g>
       <use style="stroke:#000000;stroke-linecap:butt;stroke-width:0.5;" x="76.2992125984" xlink:href="#m476344969c" y="14.4"/>
      </g>
     </g>
     <g id="text_2">
      <!-- 0.1 -->
      <defs>
       <path d="
M37.25 0
L28.4688 0
L28.4688 56
Q25.2969 52.9844 20.1406 49.9531
Q14.9844 46.9219 10.8906 45.4062
L10.8906 53.9062
Q18.2656 57.375 23.7812 62.2969
Q29.2969 67.2344 31.5938 71.875
L37.25 71.875
z
" id="ArialMT-31"/>
      </defs>
      <g transform="translate(73.0656063484 130.3905)scale(0.05552 -0.05552)">
       <use xlink:href="#ArialMT-30"/>
       <use x="55.615234375" xlink:href="#ArialMT-2e"/>
       <use x="83.3984375" xlink:href="#ArialMT-31"/>
      </g>
     </g>
    </g>
    <g id="xtick_3">
     <g id="line2d_13">
      <path clip-path="url(#paeeee5594a)" d="
M104.409 122.4
L104.409 14.4" style="fill:none;stroke:#000000;stroke-dasharray:1.000000,3.000000;stroke-dashoffset:0.0;stroke-linecap:butt;stroke-width:0.5;"/>
     </g>
     <g id="line2d_14">
      <g>
       <use style="stroke:#000000;stroke-linecap:butt;stroke-width:0.5;" x="104.409448819" xlink:href="#m0012dd4eef" y="122.4"/>
      </g>
     </g>
     <g id="line2d_15">
      <g>
       <use style="stroke:#000000;stroke-linecap:butt;stroke-width:0.5;" x="104.409448819" xlink:href="#m476344969c" y="14.4"/>
      </g>
     </g>
     <g id="text_3">
      <!-- 0.2 -->
      <defs>
       <path d="
M50.3438 8.45312
L50.3438 0
L3.03125 0
Q2.9375 3.17188 4.04688 6.10938
Q5.85938 10.9375 9.82812 15.625
Q13.8125 20.3125 21.3438 26.4688
Q33.0156 36.0312 37.1094 41.625
Q41.2188 47.2188 41.2188 52.2031
Q41.2188 57.4219 37.4688 61
Q33.7344 64.5938 27.7344 64.5938
Q21.3906 64.5938 17.5781 60.7812
Q13.7656 56.9844 13.7188 50.25
L4.6875 51.1719
Q5.60938 61.2812 11.6562 66.5781
Q17.7188 71.875 27.9375 71.875
Q38.2344 71.875 44.2344 66.1562
Q50.25 60.4531 50.25 52
Q50.25 47.7031 48.4844 43.5469
Q46.7344 39.4062 42.6562 34.8125
Q38.5781 30.2188 29.1094 22.2188
Q21.1875 15.5781 18.9375 13.2031
Q16.7031 10.8438 15.2344 8.45312
z
" id="ArialMT-32"/>
      </defs>
      <g transform="translate(100.812360069 130.3905)scale(0.05552 -0.05552)">
       <use xlink:href="#ArialMT-30"/>
       <use x="55.615234375" xlink:href="#ArialMT-2e"/>
       <use x="83.3984375" xlink:href="#ArialMT-32"/>
      </g>
     </g>
    </g>
    <g id="xtick_4">
     <g id="line2d_16">
      <path clip-path="url(#paeeee5594a)" d="
M132.52 122.4
L132.52 14.4" style="fill:none;stroke:#000000;stroke-dasharray:1.000000,3.000000;stroke-dashoffset:0.0;stroke-linecap:butt;stroke-width:0.5;"/>
     </g>
     <g id="line2d_17">
      <g>
       <use style="stroke:#000000;stroke-linecap:butt;stroke-width:0.5;" x="132.519685039" xlink:href="#m0012dd4eef" y="122.4"/>
      </g>
     </g>
     <g id="line2d_18">
      <g>
       <use style="stroke:#000000;stroke-linecap:butt;stroke-width:0.5;" x="132.519685039" xlink:href="#m476344969c" y="14.4"/>
      </g>
     </g>
     <g id="text_4">
      <!-- 0.3 -->
      <defs>
       <path d="
M4.20312 18.8906
L12.9844 20.0625
Q14.5 12.5938 18.1406 9.29688
Q21.7812 6 27 6
Q33.2031 6 37.4688 10.2969
Q41.75 14.5938 41.75 20.9531
Q41.75 27 37.7969 30.9219
Q33.8438 34.8594 27.7344 34.8594
Q25.25 34.8594 21.5312 33.8906
L22.5156 41.6094
Q23.3906 41.5 23.9219 41.5
Q29.5469 41.5 34.0312 44.4219
Q38.5312 47.3594 38.5312 53.4688
Q38.5312 58.2969 35.25 61.4688
Q31.9844 64.6562 26.8125 64.6562
Q21.6875 64.6562 18.2656 61.4219
Q14.8438 58.2031 13.875 51.7656
L5.07812 53.3281
Q6.6875 62.1562 12.3906 67.0156
Q18.1094 71.875 26.6094 71.875
Q32.4688 71.875 37.3906 69.3594
Q42.3281 66.8438 44.9375 62.5
Q47.5625 58.1562 47.5625 53.2656
Q47.5625 48.6406 45.0625 44.8281
Q42.5781 41.0156 37.7031 38.7656
Q44.0469 37.3125 47.5625 32.6875
Q51.0781 28.0781 51.0781 21.1406
Q51.0781 11.7656 44.2344 5.25
Q37.4062 -1.26562 26.9531 -1.26562
Q17.5312 -1.26562 11.2969 4.34375
Q5.07812 9.96875 4.20312 18.8906" id="ArialMT-33"/>
      </defs>
      <g transform="translate(128.902210039 130.3905)scale(0.05552 -0.05552)">
       <use xlink:href="#ArialMT-30"/>
       <use x="55.615234375" xlink:href="#ArialMT-2e"/>
       <use x="83.3984375" xlink:href="#ArialMT-33"/>
      </g>
     </g>
    </g>
    <g id="xtick_5">
     <g id="line2d_19">
      <path clip-path="url(#paeeee5594a)" d="
M160.63 122.4
L160.63 14.4" style="fill:none;stroke:#000000;stroke-dasharray:1.000000,3.000000;stroke-dashoffset:0.0;stroke-linecap:butt;stroke-width:0.5;"/>
     </g>
     <g id="line2d_20">
      <g>
       <use style="stroke:#000000;stroke-linecap:butt;stroke-width:0.5;" x="160.62992126" xlink:href="#m0012dd4eef" y="122.4"/>
      </g>
     </g>
     <g id="line2d_21">
      <g>
       <use style="stroke:#000000;stroke-linecap:butt;stroke-width:0.5;" x="160.62992126" xlink:href="#m476344969c" y="14.4"/>
      </g>
     </g>
     <g id="text_5">
      <!-- 0.4 -->
      <defs>
       <path d="
M32.3281 0
L32.3281 17.1406
L1.26562 17.1406
L1.26562 25.2031
L33.9375 71.5781
L41.1094 71.5781
L41.1094 25.2031
L50.7812 25.2031
L50.7812 17.1406
L41.1094 17.1406
L41.1094 0
z

M32.3281 25.2031
L32.3281 57.4688
L9.90625 25.2031
z
" id="ArialMT-34"/>
      </defs>
      <g transform="translate(157.02068751 130.3905)scale(0.05552 -0.05552)">
       <use xlink:href="#ArialMT-30"/>
       <use x="55.615234375" xlink:href="#ArialMT-2e"/>
       <use x="83.3984375" xlink:href="#ArialMT-34"/>
      </g>
     </g>
    </g>
    <g id="xtick_6">
     <g id="line2d_22">
      <path clip-path="url(#paeeee5594a)" d="
M188.74 122.4
L188.74 14.4" style="fill:none;stroke:#000000;stroke-dasharray:1.000000,3.000000;stroke-dashoffset:0.0;stroke-linecap:butt;stroke-width:0.5;"/>
     </g>
     <g id="line2d_23">
      <g>
       <use style="stroke:#000000;stroke-linecap:butt;stroke-width:0.5;" x="188.74015748" xlink:href="#m0012dd4eef" y="122.4"/>
      </g>
     </g>
     <g id="line2d_24">
      <g>
       <use style="stroke:#000000;stroke-linecap:butt;stroke-width:0.5;" x="188.74015748" xlink:href="#m476344969c" y="14.4"/>
      </g>
     </g>
     <g id="text_6">
      <!-- 0.5 -->
      <defs>
       <path d="
M4.15625 18.75
L13.375 19.5312
Q14.4062 12.7969 18.1406 9.39062
Q21.875 6 27.1562 6
Q33.5 6 37.8906 10.7812
Q42.2812 15.5781 42.2812 23.4844
Q42.2812 31 38.0625 35.3438
Q33.8438 39.7031 27 39.7031
Q22.75 39.7031 19.3281 37.7656
Q15.9219 35.8438 13.9688 32.7656
L5.71875 33.8438
L12.6406 70.6094
L48.25 70.6094
L48.25 62.2031
L19.6719 62.2031
L15.8281 42.9688
Q22.2656 47.4688 29.3438 47.4688
Q38.7188 47.4688 45.1562 40.9688
Q51.6094 34.4688 51.6094 24.2656
Q51.6094 14.5469 45.9531 7.46875
Q39.0625 -1.21875 27.1562 -1.21875
Q17.3906 -1.21875 11.2031 4.25
Q5.03125 9.71875 4.15625 18.75" id="ArialMT-35"/>
      </defs>
      <g transform="translate(185.10793498 130.3905)scale(0.05552 -0.05552)">
       <use xlink:href="#ArialMT-30"/>
       <use x="55.615234375" xlink:href="#ArialMT-2e"/>
       <use x="83.3984375" xlink:href="#ArialMT-35"/>
      </g>
     </g>
    </g>
    <g id="xtick_7">
     <g id="line2d_25">
      <path clip-path="url(#paeeee5594a)" d="
M216.85 122.4
L216.85 14.4" style="fill:none;stroke:#000000;stroke-dasharray:1.000000,3.000000;stroke-dashoffset:0.0;stroke-linecap:butt;stroke-width:0.5;"/>
     </g>
     <g id="line2d_26">
      <g>
       <use style="stroke:#000000;stroke-linecap:butt;stroke-width:0.5;" x="216.850393701" xlink:href="#m0012dd4eef" y="122.4"/>
      </g>
     </g>
     <g id="line2d_27">
      <g>
       <use style="stroke:#000000;stroke-linecap:butt;stroke-width:0.5;" x="216.850393701" xlink:href="#m476344969c" y="14.4"/>
      </g>
     </g>
     <g id="text_7">
      <!-- 0.6 -->
      <defs>
       <path d="
M49.75 54.0469
L41.0156 53.375
Q39.8438 58.5469 37.7031 60.8906
Q34.125 64.6562 28.9062 64.6562
Q24.7031 64.6562 21.5312 62.3125
Q17.3906 59.2812 14.9844 53.4688
Q12.5938 47.6562 12.5 36.9219
Q15.6719 41.75 20.2656 44.0938
Q24.8594 46.4375 29.8906 46.4375
Q38.6719 46.4375 44.8438 39.9688
Q51.0312 33.5 51.0312 23.25
Q51.0312 16.5 48.125 10.7188
Q45.2188 4.9375 40.1406 1.85938
Q35.0625 -1.21875 28.6094 -1.21875
Q17.625 -1.21875 10.6875 6.85938
Q3.76562 14.9375 3.76562 33.5
Q3.76562 54.25 11.4219 63.6719
Q18.1094 71.875 29.4375 71.875
Q37.8906 71.875 43.2812 67.1406
Q48.6875 62.4062 49.75 54.0469
M13.875 23.1875
Q13.875 18.6562 15.7969 14.5
Q17.7188 10.3594 21.1875 8.17188
Q24.6562 6 28.4688 6
Q34.0312 6 38.0312 10.4844
Q42.0469 14.9844 42.0469 22.7031
Q42.0469 30.125 38.0781 34.3906
Q34.125 38.6719 28.125 38.6719
Q22.1719 38.6719 18.0156 34.3906
Q13.875 30.125 13.875 23.1875" id="ArialMT-36"/>
      </defs>
      <g transform="translate(213.234219951 130.3905)scale(0.05552 -0.05552)">
       <use xlink:href="#ArialMT-30"/>
       <use x="55.615234375" xlink:href="#ArialMT-2e"/>
       <use x="83.3984375" xlink:href="#ArialMT-36"/>
      </g>
     </g>
    </g>
   </g>
   <g id="matplotlib.axis_2">
    <g id="ytick_1">
     <g id="line2d_28">
      <path clip-path="url(#paeeee5594a)" d="
M48.189 122.4
L216.85 122.4" style="fill:none;stroke:#000000;stroke-dasharray:1.000000,3.000000;stroke-dashoffset:0.0;stroke-linecap:butt;stroke-width:0.5;"/>
     </g>
     <g id="line2d_29">
      <defs>
       <path d="
M0 0
L4 0" id="me8a85f7bf6" style="stroke:#000000;stroke-linecap:butt;stroke-width:0.5;"/>
      </defs>
      <g>
       <use style="stroke:#000000;stroke-linecap:butt;stroke-width:0.5;" x="48.188976378" xlink:href="#me8a85f7bf6" y="122.4"/>
      </g>
     </g>
     <g id="line2d_30">
      <defs>
       <path d="
M0 0
L-4 0" id="m1a32005dea" style="stroke:#000000;stroke-linecap:butt;stroke-width:0.5;"/>
      </defs>
      <g>
       <use style="stroke:#000000;stroke-linecap:butt;stroke-width:0.5;" x="216.850393701" xlink:href="#m1a32005dea" y="122.4"/>
      </g>
     </g>
     <g id="text_8">
      <!-- 0.06 -->
      <defs>
       <path d="
M52.8281 31.2031
L5.5625 31.2031
L5.5625 39.4062
L52.8281 39.4062
z
" id="ArialMT-2212"/>
      </defs>
      <g transform="translate(30.704556378 124.3614175)scale(0.05552 -0.05552)">
       <use xlink:href="#ArialMT-2212"/>
       <use x="58.3984375" xlink:href="#ArialMT-30"/>
       <use x="114.013671875" xlink:href="#ArialMT-2e"/>
       <use x="141.796875" xlink:href="#ArialMT-30"/>
       <use x="197.412109375" xlink:href="#ArialMT-36"/>
      </g>
     </g>
    </g>
    <g id="ytick_2">
     <g id="line2d_31">
      <path clip-path="url(#paeeee5594a)" d="
M48.189 100.8
L216.85 100.8" style="fill:none;stroke:#000000;stroke-dasharray:1.000000,3.000000;stroke-dashoffset:0.0;stroke-linecap:butt;stroke-width:0.5;"/>
     </g>
     <g id="line2d_32">
      <g>
       <use style="stroke:#000000;stroke-linecap:butt;stroke-width:0.5;" x="48.188976378" xlink:href="#me8a85f7bf6" y="100.8"/>
      </g>
     </g>
     <g id="line2d_33">
      <g>
       <use style="stroke:#000000;stroke-linecap:butt;stroke-width:0.5;" x="216.850393701" xlink:href="#m1a32005dea" y="100.8"/>
      </g>
     </g>
     <g id="text_9">
      <!-- 0.04 -->
      <g transform="translate(30.718436378 102.7614175)scale(0.05552 -0.05552)">
       <use xlink:href="#ArialMT-2212"/>
       <use x="58.3984375" xlink:href="#ArialMT-30"/>
       <use x="114.013671875" xlink:href="#ArialMT-2e"/>
       <use x="141.796875" xlink:href="#ArialMT-30"/>
       <use x="197.412109375" xlink:href="#ArialMT-34"/>
      </g>
     </g>
    </g>
    <g id="ytick_3">
     <g id="line2d_34">
      <path clip-path="url(#paeeee5594a)" d="
M48.189 79.2
L216.85 79.2" style="fill:none;stroke:#000000;stroke-dasharray:1.000000,3.000000;stroke-dashoffset:0.0;stroke-linecap:butt;stroke-width:0.5;"/>
     </g>
     <g id="line2d_35">
      <g>
       <use style="stroke:#000000;stroke-linecap:butt;stroke-width:0.5;" x="48.188976378" xlink:href="#me8a85f7bf6" y="79.2"/>
      </g>
     </g>
     <g id="line2d_36">
      <g>
       <use style="stroke:#000000;stroke-linecap:butt;stroke-width:0.5;" x="216.850393701" xlink:href="#m1a32005dea" y="79.2"/>
      </g>
     </g>
     <g id="text_10">
      <!-- 0.02 -->
      <g transform="translate(30.742726378 81.1614175)scale(0.05552 -0.05552)">
       <use xlink:href="#ArialMT-2212"/>
       <use x="58.3984375" xlink:href="#ArialMT-30"/>
       <use x="114.013671875" xlink:href="#ArialMT-2e"/>
       <use x="141.796875" xlink:href="#ArialMT-30"/>
       <use x="197.412109375" xlink:href="#ArialMT-32"/>
      </g>
     </g>
    </g>
    <g id="ytick_4">
     <g id="line2d_37">
      <path clip-path="url(#paeeee5594a)" d="
M48.189 57.6
L216.85 57.6" style="fill:none;stroke:#000000;stroke-dasharray:1.000000,3.000000;stroke-dashoffset:0.0;stroke-linecap:butt;stroke-width:0.5;"/>
     </g>
     <g id="line2d_38">
      <g>
       <use style="stroke:#000000;stroke-linecap:butt;stroke-width:0.5;" x="48.188976378" xlink:href="#me8a85f7bf6" y="57.6"/>
      </g>
     </g>
     <g id="line2d_39">
      <g>
       <use style="stroke:#000000;stroke-linecap:butt;stroke-width:0.5;" x="216.850393701" xlink:href="#m1a32005dea" y="57.6"/>
      </g>
     </g>
     <g id="text_11">
      <!-- 0.00 -->
      <g transform="translate(33.880473878 59.5614175)scale(0.05552 -0.05552)">
       <use xlink:href="#ArialMT-30"/>
       <use x="55.615234375" xlink:href="#ArialMT-2e"/>
       <use x="83.3984375" xlink:href="#ArialMT-30"/>
       <use x="139.013671875" xlink:href="#ArialMT-30"/>
      </g>
     </g>
    </g>
    <g id="ytick_5">
     <g id="line2d_40">
      <path clip-path="url(#paeeee5594a)" d="
M48.189 36
L216.85 36" style="fill:none;stroke:#000000;stroke-dasharray:1.000000,3.000000;stroke-dashoffset:0.0;stroke-linecap:butt;stroke-width:0.5;"/>
     </g>
     <g id="line2d_41">
      <g>
       <use style="stroke:#000000;stroke-linecap:butt;stroke-width:0.5;" x="48.188976378" xlink:href="#me8a85f7bf6" y="36.0"/>
      </g>
     </g>
     <g id="line2d_42">
      <g>
       <use style="stroke:#000000;stroke-linecap:butt;stroke-width:0.5;" x="216.850393701" xlink:href="#m1a32005dea" y="36.0"/>
      </g>
     </g>
     <g id="text_12">
      <!-- 0.02 -->
      <g transform="translate(33.907366378 37.9614175)scale(0.05552 -0.05552)">
       <use xlink:href="#ArialMT-30"/>
       <use x="55.615234375" xlink:href="#ArialMT-2e"/>
       <use x="83.3984375" xlink:href="#ArialMT-30"/>
       <use x="139.013671875" xlink:href="#ArialMT-32"/>
      </g>
     </g>
    </g>
    <g id="ytick_6">
     <g id="line2d_43">
      <path clip-path="url(#paeeee5594a)" d="
M48.189 14.4
L216.85 14.4" style="fill:none;stroke:#000000;stroke-dasharray:1.000000,3.000000;stroke-dashoffset:0.0;stroke-linecap:butt;stroke-width:0.5;"/>
     </g>
     <g id="line2d_44">
      <g>
       <use style="stroke:#000000;stroke-linecap:butt;stroke-width:0.5;" x="48.188976378" xlink:href="#me8a85f7bf6" y="14.4"/>
      </g>
     </g>
     <g id="line2d_45">
      <g>
       <use style="stroke:#000000;stroke-linecap:butt;stroke-width:0.5;" x="216.850393701" xlink:href="#m1a32005dea" y="14.4"/>
      </g>
     </g>
     <g id="text_13">
      <!-- 0.04 -->
      <g transform="translate(33.883076378 16.3614175)scale(0.05552 -0.05552)">
       <use xlink:href="#ArialMT-30"/>
       <use x="55.615234375" xlink:href="#ArialMT-2e"/>
       <use x="83.3984375" xlink:href="#ArialMT-30"/>
       <use x="139.013671875" xlink:href="#ArialMT-34"/>
      </g>
     </g>
    </g>
    <g id="text_14">
     <!-- ALL{V} -->
     <defs>
      <path d="
M-0.140625 0
L27.3438 71.5781
L37.5469 71.5781
L66.8438 0
L56.0625 0
L47.7031 21.6875
L17.7812 21.6875
L9.90625 0
z

M20.5156 29.3906
L44.7812 29.3906
L37.3125 49.2188
Q33.8906 58.25 32.2344 64.0625
Q30.8594 57.1719 28.375 50.3906
z
" id="ArialMT-41"/>
      <path d="
M30.5625 29.8906
L30.5625 21.9219
Q26.8125 21.8281 24.4375 19.875
Q22.0781 17.9219 21.2969 14.5781
Q20.5156 11.2344 20.4531 3.07812
Q20.4062 -5.07812 20.1719 -7.67188
Q19.7344 -11.8125 18.5312 -14.2812
Q17.3281 -16.75 15.5625 -18.2344
Q13.8125 -19.7344 11.0781 -20.5156
Q9.23438 -21.0469 5.03125 -21.0469
L2.29688 -21.0469
L2.29688 -13.375
L3.8125 -13.375
Q8.89062 -13.375 10.5469 -11.5469
Q12.2031 -9.71875 12.2031 -3.32812
Q12.2031 8.89062 12.6406 12.1562
Q13.4219 17.5781 15.7656 20.8281
Q18.1094 24.0781 22.4062 25.875
Q16.7969 28.5625 14.5 32.9844
Q12.2031 37.4062 12.2031 47.9062
Q12.2031 57.4219 11.9688 59.2812
Q11.625 62.5469 10.0312 63.8438
Q8.45312 65.1406 3.8125 65.1406
L2.29688 65.1406
L2.29688 72.7969
L5.03125 72.7969
Q9.8125 72.7969 11.9688 72.0156
Q15.0938 70.9531 17.1406 68.4062
Q19.1875 65.875 19.7969 62.0156
Q20.4062 58.1562 20.4531 49.3594
Q20.5156 40.5781 21.2969 37.2344
Q22.0781 33.8906 24.4375 31.9375
Q26.8125 29.9844 30.5625 29.8906" id="ArialMT-7d"/>
      <path d="
M7.32812 0
L7.32812 71.5781
L16.7969 71.5781
L16.7969 8.45312
L52.0469 8.45312
L52.0469 0
z
" id="ArialMT-4c"/>
      <path d="
M28.1719 0
L0.4375 71.5781
L10.6875 71.5781
L29.2969 19.5781
Q31.5469 13.3281 33.0625 7.85938
Q34.7188 13.7188 36.9219 19.5781
L56.25 71.5781
L65.9219 71.5781
L37.8906 0
z
" id="ArialMT-56"/>
      <path d="
M2.78125 29.8906
Q6.54688 29.9844 8.90625 31.9062
Q11.2812 33.8438 12.0625 37.2031
Q12.8438 40.5781 12.8906 48.7344
Q12.9375 56.8906 13.1875 59.4688
Q13.625 63.5781 14.8125 66.0625
Q16.0156 68.5625 17.7656 70.0469
Q19.5312 71.5312 22.2656 72.3125
Q24.125 72.7969 28.3281 72.7969
L31.0625 72.7969
L31.0625 65.1406
L29.5469 65.1406
Q24.4688 65.1406 22.7969 63.2969
Q21.1406 61.4688 21.1406 55.125
Q21.1406 42.3281 20.6094 38.9688
Q19.7344 33.7344 17.6094 30.9062
Q15.4844 28.0781 10.9375 25.875
Q16.3125 23.6406 18.7188 19.0156
Q21.1406 14.4062 21.1406 3.90625
Q21.1406 -5.60938 21.3438 -7.42188
Q21.7344 -10.75 23.3125 -12.0625
Q24.9062 -13.375 29.5469 -13.375
L31.0625 -13.375
L31.0625 -21.0469
L28.3281 -21.0469
Q23.5312 -21.0469 21.3906 -20.2656
Q18.2656 -19.1406 16.2031 -16.625
Q14.1562 -14.1094 13.5469 -10.25
Q12.9375 -6.39062 12.8906 2.39062
Q12.8438 11.1875 12.0625 14.5469
Q11.2812 17.9219 8.90625 19.875
Q6.54688 21.8281 2.78125 21.9219
z
" id="ArialMT-7b"/>
     </defs>
     <g transform="translate(25.704556378 79.065625)rotate(-90.0)scale(0.08 -0.08)">
      <use xlink:href="#ArialMT-41"/>
      <use x="66.69921875" xlink:href="#ArialMT-4c"/>
      <use x="122.314453125" xlink:href="#ArialMT-4c"/>
      <use x="177.9296875" xlink:href="#ArialMT-7b"/>
      <use x="211.328125" xlink:href="#ArialMT-56"/>
      <use x="278.02734375" xlink:href="#ArialMT-7d"/>
     </g>
    </g>
   </g>
   <g id="patch_3">
    <path d="
M48.189 14.4
L216.85 14.4" style="fill:none;stroke:#000000;"/>
   </g>
   <g id="patch_4">
    <path d="
M216.85 122.4
L216.85 14.4" style="fill:none;stroke:#000000;"/>
   </g>
   <g id="patch_5">
    <path d="
M48.189 122.4
L216.85 122.4" style="fill:none;stroke:#000000;"/>
   </g>
   <g id="patch_6">
    <path d="
M48.189 122.4
L48.189 14.4" style="fill:none;stroke:#000000;"/>
   </g>
  </g>
 </g>
 <defs>
  <clipPath id="paeeee5594a">
   <rect height="108.0" width="168.661417323" x="48.188976378" y="14.4"/>
  </clipPath>
 </defs>
</svg>
